<svg width="203" height="132" viewBox="0 0 203 132" fill="none" xmlns="http://www.w3.org/2000/svg">
<path d="M15.5303 38.2603C17.7803 35.4803 20.8303 33.7203 23.8203 31.9103C34.9803 25.1603 47.1503 21.6703 60.1503 20.9603C61.1003 20.9103 62.0503 20.8303 63.1503 20.7503C63.9203 19.7703 64.7203 18.7903 65.4703 17.7703C68.5103 13.6403 71.7603 9.71031 75.6203 6.31031C78.5403 3.74031 81.8103 1.84031 85.6203 0.870311C93.5303 -1.12969 100.48 2.62032 103.02 10.3503C104.19 13.9203 104.36 17.5603 103.65 21.2303C103.29 23.1003 102.84 24.9503 102.38 27.0403C103.18 27.5003 103.93 28.0503 104.76 28.4103C114.75 32.7303 124.36 37.7903 133.53 43.6303C138.24 46.6203 142.64 50.1003 147.15 53.3803C149.6 55.1603 151.99 57.0403 154.46 58.8103C156.6 60.3403 157.14 60.3003 159.08 58.7703C161.46 56.8903 163.73 54.8503 166.24 53.1603C169.53 50.9403 172.82 48.6203 176.92 48.0603C175.92 49.5136 176.017 51.107 177.21 52.8403C181.49 51.4303 185.94 51.9403 190.35 52.0503C190.98 52.0703 191.6 52.8103 192.22 53.2203C179.93 50.6603 170.68 56.1103 162.55 64.4903C161.35 65.6803 160.21 66.9503 158.93 68.0603C157.59 69.2303 155.99 69.1003 154.71 67.8503C153.84 67.0003 153.04 66.0703 152.21 65.1803C149.85 63.3003 147.5 61.4103 145.12 59.5503C130.47 48.0803 114.77 38.4703 97.0503 32.4303C95.0603 31.7503 94.3503 30.3403 95.0003 28.2803C95.3803 27.0703 96.0003 25.9403 96.4303 24.7303C97.8403 20.7403 98.4503 16.6803 97.2103 12.5303C95.9103 8.16031 92.6203 6.09031 88.0903 6.73031C85.6603 7.07031 83.4003 7.94032 81.5903 9.55032C78.9703 11.8703 76.4603 14.3203 74.0703 16.8703C72.2403 18.8203 70.6703 21.0103 68.9903 23.0903C68.3503 22.7703 67.9503 22.5103 67.5103 22.3603C65.8203 21.7903 64.7503 21.9903 64.1003 22.9603C63.4503 23.9303 63.6203 25.1703 65.0103 26.2603C66.7303 27.6103 67.6603 29.4403 68.5503 31.2903C69.8603 34.0003 71.0303 36.7803 72.2603 39.5303C72.9903 43.2303 73.7203 46.9403 74.4703 50.7703C75.3803 50.8803 76.1503 51.0503 76.9203 51.0503C85.2603 51.0903 93.3203 52.7803 101.27 55.1303C102.48 55.4903 103.72 55.7403 104.94 56.0403C107.14 56.9403 109.34 57.8403 111.54 58.7503C112.23 59.0903 112.91 59.4303 113.6 59.7803L113.53 59.7603C114.72 60.5303 115.88 61.3403 117.09 62.0603C122.05 64.9903 126.71 68.3103 130.6 72.6003C131.2 73.2603 131.53 74.1803 131.99 74.9703C130.19 73.5303 128.4 72.0903 126.65 70.6903C124.9 71.4503 124.24 72.7903 124.01 74.4203C120.89 72.2103 117.91 69.7703 114.62 67.8503C103.4 61.2903 91.2703 57.7203 78.2403 57.3903C75.8503 57.3303 73.4503 57.2903 71.0703 57.0903C68.3303 56.8603 67.3603 55.8203 67.6203 53.0303C68.3603 45.1503 65.2503 38.3703 61.7003 31.7103C61.1803 30.7403 60.3903 29.9003 59.7503 29.0003C58.8203 27.6903 57.5703 27.3103 55.9903 27.5203C38.9703 29.7703 24.0203 36.0403 12.8503 49.6703C12.6603 49.9003 12.3403 50.0303 12.0803 50.2003C11.8103 48.9603 12.4503 48.0803 13.2603 47.2603C14.9203 45.5803 16.5703 43.8903 18.0903 42.3403C17.9503 40.3003 16.9503 39.1403 15.5603 38.2503L15.5303 38.2603Z" fill="#0A448E"/>
<path d="M15.5303 38.2603C16.9203 39.1503 17.9203 40.2998 18.0603 42.3498C16.5403 43.8998 14.8903 45.5898 13.2303 47.2698C12.4203 48.0898 11.7903 48.9598 12.0503 50.2098V50.1698C11.1603 50.3598 10.9103 50.9998 10.8803 51.8098C10.1203 53.5198 9.34027 55.2298 8.61027 56.9498C6.67027 61.4998 5.84031 66.2598 6.15031 71.1898C6.20031 72.0798 6.6303 72.9398 6.8903 73.8198C7.5903 74.9898 8.56027 74.2498 9.42027 74.1498C15.4603 73.4598 20.7603 75.1198 25.0803 79.3998C28.7203 83.0098 28.8803 88.5498 25.4403 92.2898C24.1803 93.6598 22.4803 94.6398 20.9103 95.6898C20.0303 96.2798 19.0103 96.6398 18.0303 97.1098C18.8003 98.9898 20.1703 99.7398 21.6303 100.38C23.1103 101.28 24.5103 102.36 26.0703 103.05C30.2003 104.87 34.6103 105.48 39.1003 105.67C48.2303 106.05 57.2103 104.78 66.1803 103.37C67.0803 103.23 67.9303 102.81 68.9503 102.47C68.5403 101.37 68.1203 100.5 67.9103 99.5898C67.6603 98.5098 67.6003 97.3998 67.4503 96.2998C67.6203 96.0298 67.7503 95.7298 67.9503 95.4898C70.2303 92.8098 71.1703 92.8198 73.5003 95.5598C73.7003 95.7998 73.8803 96.0698 74.0703 96.3198C73.7403 98.0598 74.5803 99.4698 75.6403 100.62C77.5403 102.69 79.6403 104.59 81.6603 106.55C87.2103 110.94 91.8803 111.03 96.5403 106.68C95.0903 104.81 93.4403 103.14 91.3903 101.89C90.7803 100.97 90.0103 100.11 89.6003 99.1098C88.8103 97.1198 90.4503 95.1198 92.5603 95.4598C93.4803 95.6098 94.3503 96.0798 95.2503 96.4098C96.5803 97.9098 97.9103 99.3998 99.2503 100.9C99.3203 101.35 99.2603 101.89 99.4903 102.24C100.79 104.26 102.51 104.24 103.75 102.2C103.97 101.84 103.88 101.3 103.94 100.85L103.91 100.9C105.87 100.21 106.09 98.6998 105.79 96.9398H105.75C109.16 95.6998 112.57 94.4598 116.7 92.9498C117.24 93.1398 118.54 93.5998 119.97 94.1098C119.73 94.9998 119.57 95.5898 119.41 96.1898H119.43C118.07 96.2598 116.52 95.6498 115.6 97.2598L115.68 97.2198C113.74 97.1198 111.64 96.6298 110.87 99.2798C110.87 99.2798 110.98 99.1298 110.98 99.1398C109.32 99.9598 108.88 101.39 109 103.1L109.07 103.01C108.14 103.2 107.9 103.88 107.86 104.7C103.86 111.53 97.7303 115.1 90.0403 116.02C86.8003 116.41 83.6803 115.42 80.9203 113.68C79.0403 112.5 77.2403 111.16 75.5503 109.71C74.4803 108.79 73.4303 108.38 72.0703 108.66C71.1303 108.86 70.1903 109.04 69.2503 109.21C59.6503 110.88 50.0003 112.1 40.2203 111.9C36.2203 111.82 32.2603 111.48 28.3703 110.49C20.4303 108.46 14.3003 103.89 9.65031 97.2298C8.16031 95.0998 8.49027 93.6498 10.8003 92.6598C12.3903 91.9798 14.1303 91.6098 15.8103 91.1398C17.3503 90.7098 18.8603 90.2798 20.0703 89.0998C22.1903 87.0298 22.2503 84.7998 19.9603 82.9798C17.2303 80.8098 14.0903 79.8598 10.5803 80.1798C7.8903 80.4198 5.20031 80.5998 2.65031 80.7898C-1.66969 73.9398 -0.44974 59.7798 5.04026 50.9998C5.98026 50.6698 6.16028 49.9498 6.06028 49.0698C6.30028 48.7298 6.54031 48.3898 6.78031 48.0398C8.40031 47.7898 9.03026 46.7898 8.92027 45.2298C11.6503 43.4298 14.1503 41.3998 15.5403 38.3198L15.5603 38.2898L15.5303 38.2603Z" fill="#0D2471"/>
<path d="M119.4 96.17C119.56 95.57 119.72 94.98 119.96 94.09C118.54 93.58 117.24 93.12 116.69 92.93C112.56 94.44 109.15 95.68 105.74 96.92C105.28 96.31 104.94 95.46 104.33 95.13C102.29 94.01 100.14 93.08 98.0297 92.07C97.2097 91.64 96.3297 91.31 95.5897 90.77C94.4597 89.96 94.0997 88.67 94.5197 87.46C94.9197 86.33 95.7496 85.65 96.9396 85.58C97.8696 85.52 98.7996 85.63 99.7396 85.66C101.51 86.95 103.45 87.84 105.68 88.42C106.28 86.4 105.31 85.04 104.63 83.66C103.92 82.22 102.95 80.92 101.22 80.54C98.8296 78.35 95.9897 77.2 92.7797 76.96C91.5197 76.91 90.2496 76.86 88.9896 76.81C87.5596 76.76 86.5796 76.06 86.1096 74.73C85.6796 73.52 86.4896 71.96 87.8896 71.2C89.5097 70.32 91.2396 70.29 92.9996 70.57C97.3096 71.26 101.2 72.94 104.86 75.31C108.08 77.39 109.82 80.59 111.7 83.72C112.13 86.19 112.55 88.65 112.99 91.22C116.52 91.37 119.5 90.17 122.44 89.17C125.51 88.12 129.02 88.31 131.71 86.2C131.3 83.17 129.23 81.24 128.02 78.86C128.02 77.95 127.78 77.21 126.73 77.05C125.87 76.42 125.01 75.8 124.14 75.17C124 74.93 123.95 74.68 123.99 74.41C124.22 72.78 124.87 71.44 126.63 70.68C128.38 72.08 130.17 73.52 131.97 74.96C132.58 75.7 133.18 76.43 133.79 77.17C133.81 77.94 134.06 78.55 134.88 78.77C135.69 80.13 136.57 81.44 137.28 82.85C138 84.28 138.39 85.68 137.63 87.4C136.99 88.85 137.66 89.62 139.27 90.29C139.96 90.58 140.69 90.77 141.3 90.97C142.38 95.1 143.4 98.95 144.41 102.8C144.16 102.62 143.85 102.48 143.66 102.25C142.93 101.32 142.14 100.61 140.89 101.32C139.78 101.95 139.52 102.93 139.77 104.13C140.02 105.34 140.21 106.56 140.43 107.77C138.38 104.7 137.64 101.13 136.63 97.68C135.3 93.14 134.51 92.61 129.92 93.68C126.41 94.5 122.9 95.32 119.38 96.15L119.4 96.17Z" fill="#0D2F7A"/>
<path d="M192.219 53.2201C191.599 52.8101 190.979 52.0701 190.349 52.0501C185.939 51.9401 181.489 51.4301 177.209 52.8401C176.015 51.1067 175.919 49.5134 176.919 48.0601C182.589 45.5201 188.389 45.7801 194.099 47.6601C199.299 49.3701 201.929 53.4101 202.069 58.9101C202.179 63.2001 200.779 67.04 198.549 70.61C195.699 75.17 191.739 78.5601 187.039 81.1001C184.399 82.5301 181.709 83.8901 178.779 85.4201C179.519 88.0601 180.219 90.5901 180.929 93.1201C177.019 95.2601 176.249 98.5901 177.349 102.62C177.469 103.07 177.599 103.51 177.729 103.96C174.529 103.43 171.649 102.06 168.849 100.52C168.289 100.22 167.739 99.8801 167.249 99.4801C166.229 98.6401 165.909 97.1701 166.419 96.0101C166.919 94.8601 168.269 94.0801 169.579 94.4201C170.799 94.7401 171.949 95.3301 173.139 95.7801C173.849 96.0501 174.569 96.5601 175.479 95.6601C175.309 95.0201 175.199 94.2401 174.899 93.55C173.849 91.0601 172.759 88.57 171.629 86.11C169.969 82.5201 171.709 79.4901 175.689 78.9501C177.079 78.7601 178.539 78.4801 179.779 77.8701C182.349 76.6101 184.829 75.1401 187.279 73.6501C187.869 73.2901 188.229 72.54 188.799 71.83C187.779 71.11 187.009 70.5601 186.229 70.0201C185.059 69.2001 183.799 68.4701 182.719 67.5401C181.649 66.6201 181.479 65.1801 182.079 64.0501C182.749 62.7701 184.319 62.1101 185.779 62.7501C187.229 63.3901 188.549 64.3101 189.959 65.0701C191.029 65.6501 192.139 66.1501 193.409 66.7801C195.009 64.5101 195.829 62.2701 195.939 59.8801C196.059 57.2201 195.469 54.7601 192.359 53.9401C192.269 53.7101 192.219 53.4801 192.189 53.2401L192.219 53.2201Z" fill="#0D2E7A"/>
<path d="M177.74 103.96C177.61 103.51 177.48 103.07 177.36 102.62C176.26 98.5901 177.02 95.2701 180.94 93.1201H180.93C180.55 95.6801 181.18 97.9501 182.87 99.9301L182.83 99.8601C182.89 101.55 182.08 103.4 183.78 104.77L183.99 105.05C183.99 105.05 183.82 105.36 183.82 105.37C183.82 108.46 183.81 111.55 183.8 114.64C182.53 127.18 171.58 134.25 159.67 130.23C155.8 128.92 152.47 126.76 149.77 123.74C145.59 119.07 142.37 113.8 140.44 107.79C140.22 106.58 140.03 105.36 139.78 104.15C139.53 102.95 139.78 101.96 140.9 101.34C142.15 100.64 142.94 101.34 143.67 102.27C143.85 102.5 144.16 102.64 144.42 102.82C145.05 104.1 145.71 105.36 146.29 106.65C148 110.45 149.86 114.19 152.56 117.38C154.19 119.31 156.07 121.12 158.11 122.6C161.06 124.73 164.55 125.46 168.16 124.92C171.4 124.44 174.13 123.08 175.51 119.43C173.13 118.1 170.88 116.91 168.71 115.59C167.22 114.68 165.74 113.71 164.46 112.55C163.24 111.43 163.22 109.75 164.08 108.64C164.95 107.52 166.52 107.17 167.99 108C171.04 109.72 174.02 111.56 177.03 113.35C177.67 114.09 178.61 114.25 178.68 113.2C178.86 110.42 178.74 107.62 178.64 104.83C178.63 104.5 178.04 104.19 177.72 103.86L177.75 103.94L177.74 103.96Z" fill="#0F1E6B"/>
<path d="M15.5106 38.2803C14.1206 41.3703 11.6206 43.3903 8.89062 45.1903C10.3906 42.2103 12.7906 40.0903 15.5106 38.2803Z" fill="#0A448E"/>
<path d="M183.799 114.65C183.799 111.56 183.809 108.47 183.819 105.38C184.859 108.47 184.889 111.56 183.799 114.65Z" fill="#0D2E7A"/>
<path d="M182.86 99.9301C181.17 97.9601 180.55 95.6801 180.92 93.1201C182.21 95.2101 182.88 97.4701 182.86 99.9301Z" fill="#0D2E7A"/>
<path d="M110.859 99.2501C111.619 96.6001 113.729 97.1001 115.669 97.1901C114.069 97.8801 112.469 98.5601 110.859 99.2501Z" fill="#0D2F7A"/>
<path d="M108.999 103.06C108.879 101.35 109.319 99.9201 110.979 99.1001C110.789 100.65 110.269 102.04 108.999 103.06Z" fill="#0D2F7A"/>
<path d="M183.769 104.78C182.069 103.41 182.879 101.56 182.819 99.8701C183.899 101.36 183.879 103.06 183.769 104.78Z" fill="#0D2E7A"/>
<path d="M8.89978 45.1802C8.99978 46.7402 8.36977 47.7402 6.75977 47.9902C7.47977 47.0502 8.18978 46.1202 8.89978 45.1802Z" fill="#0A448E"/>
<path d="M115.58 97.2401C116.51 95.6301 118.05 96.2301 119.41 96.1701C118.29 97.0901 116.99 97.3701 115.58 97.2401Z" fill="#0D2F7A"/>
<path d="M6.02979 49.02C6.13979 49.9 5.95977 50.63 5.00977 50.95C5.34977 50.31 5.68979 49.66 6.02979 49.02Z" fill="#0A448E"/>
<path d="M107.85 104.66C107.89 103.84 108.14 103.16 109.06 102.97C108.98 103.77 108.82 104.51 107.85 104.66Z" fill="#0D2F7A"/>
<path d="M111.69 83.7299C109.81 80.6099 108.07 77.4099 104.85 75.3199C101.19 72.9499 97.2999 71.2698 92.9899 70.5798C91.2299 70.2998 89.4999 70.3298 87.8799 71.2098C86.4699 71.9798 85.6699 73.5298 86.0999 74.7398C86.5699 76.0698 87.5599 76.7699 88.9799 76.8199C90.2399 76.8699 91.5099 76.9198 92.7699 76.9698C92.2399 82.4998 90.1899 87.4499 86.9999 91.9499C84.9999 94.7599 82.2799 96.1098 78.8499 96.1599C77.2599 96.1798 75.6699 96.2598 74.0899 96.3098C73.8999 96.0498 73.7299 95.7898 73.5199 95.5498C71.1899 92.8098 70.2599 92.7999 67.9699 95.4799C67.7699 95.7199 67.6299 96.0199 67.4699 96.2899C66.8299 96.2499 66.1999 96.1998 65.5599 96.1798C54.8399 95.8598 44.2899 94.5098 34.1399 90.8298C33.2699 90.5198 32.2799 90.5398 31.3499 90.4099C31.5799 88.6898 31.9399 86.9698 32.0099 85.2398C32.1599 81.4998 30.6999 78.4499 27.7899 76.0699C23.9999 72.9699 19.5899 71.1299 14.8499 70.3499C12.4499 69.9499 9.81989 69.6798 7.60989 70.7798C7.38989 71.1698 7.26989 71.2999 7.23989 71.4499C7.10989 72.2299 7.00993 73.0198 6.89993 73.7998C6.63993 72.9198 6.20988 72.0599 6.15988 71.1699C5.85988 66.2399 6.6799 61.4798 8.6199 56.9298C9.3599 55.2098 10.1299 53.4999 10.8899 51.7899C11.2799 51.2399 11.6699 50.6998 12.0599 50.1498V50.1898C12.3199 50.0199 12.6399 49.8899 12.8299 49.6599C23.9999 36.0299 38.9499 29.7598 55.9699 27.5098C57.5499 27.2998 58.7899 27.6799 59.7299 28.9899C60.3799 29.8999 61.1599 30.7298 61.6799 31.6998C65.2299 38.3598 68.3399 45.1398 67.5999 53.0198C67.3399 55.7998 68.3099 56.8498 71.0499 57.0798C73.4299 57.2798 75.8299 57.3199 78.2199 57.3799C91.2599 57.6999 103.39 61.2798 114.6 67.8398C117.89 69.7598 120.87 72.21 123.99 74.41C123.95 74.68 123.99 74.9399 124.13 75.1699C120.52 78.7999 116.72 82.1698 111.68 83.7098L111.69 83.7299ZM32.8499 55.7798C31.9099 55.6098 30.9699 55.2698 30.0299 55.2998C26.3299 55.4198 23.4699 58.0399 23.1999 61.4199C22.9099 65.0499 24.9899 67.9898 28.5999 68.8298C29.6499 69.0798 30.8099 68.8799 31.9199 68.8799C32.3399 69.9398 32.7599 70.9998 33.1699 72.0598C32.6499 74.8498 33.7699 77.3598 34.3999 79.9898C35.7199 85.4398 39.6899 88.2098 44.3399 90.1798C48.5499 91.9598 52.8499 91.7798 57.3799 90.5798C66.4199 88.1798 70.7099 80.4299 70.4099 73.3799C70.1799 68.0699 68.5699 63.3598 63.3799 60.6798C62.2599 60.0998 61.2199 59.3198 60.2099 58.5598C56.0999 55.4698 52.2099 54.8798 46.6899 56.6498C46.6199 57.8498 46.6299 59.1198 46.4399 60.3698C46.3299 61.1098 45.8899 61.7999 45.5999 62.5099C45.5499 59.8299 45.9699 57.1398 44.8299 54.5298C41.5099 46.9198 31.1499 43.1898 23.8199 47.0898C22.9999 47.5298 22.2299 48.1498 21.5999 48.8298C20.6499 49.8698 20.6399 51.2998 21.3799 52.3598C22.1499 53.4498 23.4499 53.9399 24.7199 53.5699C25.1699 53.4399 25.6199 53.2398 26.0299 52.9998C28.2299 51.7498 30.5599 51.6898 32.9599 52.2198C32.0399 53.3798 32.2399 54.5799 32.8499 55.7899V55.7798Z" fill="#C3FFA5"/>
<path d="M177.02 113.36C174.01 111.57 171.02 109.74 167.98 108.01C166.51 107.18 164.94 107.53 164.07 108.65C163.21 109.76 163.23 111.45 164.45 112.56C165.73 113.73 167.21 114.7 168.7 115.6C170.87 116.92 173.12 118.1 175.5 119.44C174.12 123.08 171.39 124.45 168.15 124.93C164.54 125.46 161.06 124.74 158.1 122.61C156.05 121.13 154.18 119.33 152.55 117.39C149.86 114.2 148 110.46 146.28 106.66C145.7 105.36 145.03 104.1 144.41 102.83C143.4 98.9802 142.38 95.1202 141.3 91.0002C140.69 90.8002 139.96 90.6102 139.27 90.3202C137.66 89.6502 136.99 88.8802 137.63 87.4302C138.39 85.7002 137.99 84.3102 137.28 82.8802C136.58 81.4702 135.69 80.1502 134.88 78.8002C134.52 78.2702 134.15 77.7302 133.79 77.2002C133.18 76.4602 132.58 75.7302 131.97 74.9902C131.52 74.1902 131.19 73.2802 130.58 72.6202C126.69 68.3302 122.03 65.0102 117.07 62.0802C115.85 61.3602 114.69 60.5502 113.51 59.7802C114.74 60.0302 116 60.1702 117.18 60.5402C119.46 61.2702 121.73 62.0402 123.93 62.9602C125.73 63.7202 127.34 63.5102 128.95 62.5602C128.81 63.3302 128.51 64.1202 128.57 64.8802C128.7 66.4602 129.93 67.4302 131.47 67.3802C132.75 67.3402 133.75 66.4402 133.91 64.9602C133.99 64.2002 133.75 63.4002 133.66 62.6202C135.02 63.7802 135.37 66.0602 137.63 66.2202C138.57 66.2902 139.5 66.3402 140.44 66.3902C143.55 66.5702 146.69 66.0502 149.78 66.9802C151.05 67.3602 151.66 66.1602 152.21 65.1902C153.04 66.0802 153.84 67.0102 154.71 67.8602C155.99 69.1102 157.59 69.2402 158.93 68.0702C160.2 66.9602 161.35 65.7002 162.55 64.5002C163.86 65.9102 165.44 65.5002 166.97 65.0902C170.92 64.0402 174.94 63.2102 178.7 61.5202C182.59 59.7702 186.49 58.0602 190.38 56.3202C191.43 55.8502 192.31 55.2202 192.4 53.9302C195.51 54.7602 196.09 57.2102 195.98 59.8702C195.87 62.2602 195.05 64.5102 193.45 66.7702C192.18 66.1502 191.07 65.6402 190 65.0602C188.6 64.3102 187.27 63.3802 185.82 62.7402C184.36 62.1002 182.79 62.7502 182.12 64.0402C181.52 65.1702 181.69 66.6002 182.76 67.5302C183.84 68.4602 185.09 69.1902 186.27 70.0102C187.05 70.5502 187.82 71.1002 188.84 71.8202C188.27 72.5202 187.91 73.2802 187.32 73.6402C184.87 75.1302 182.39 76.6002 179.82 77.8602C178.58 78.4702 177.12 78.7502 175.73 78.9402C171.75 79.4802 170.01 82.5002 171.67 86.1002C172.8 88.5602 173.89 91.0402 174.94 93.5402C175.23 94.2402 175.35 95.0102 175.52 95.6502C174.61 96.5602 173.89 96.0502 173.18 95.7702C171.99 95.3202 170.84 94.7302 169.62 94.4102C168.31 94.0702 166.97 94.8402 166.46 96.0002C165.95 97.1602 166.28 98.6302 167.29 99.4702C167.78 99.8702 168.33 100.21 168.89 100.51C171.7 102.05 174.57 103.42 177.77 103.95L177.74 103.87C177.88 106.22 178.04 108.57 178.14 110.92C178.18 111.88 177.98 112.8 177.05 113.36H177.02ZM141.21 71.6202C139.81 71.7002 138.53 73.0102 138.49 74.4002C138.44 76.0102 139.92 77.4802 141.47 77.3702C142.89 77.2702 144.22 75.9502 144.24 74.6302C144.26 73.1102 142.67 71.5302 141.21 71.6202Z" fill="#F3DEDC"/>
<path d="M152.21 65.1803C151.66 66.1503 151.051 67.3503 149.781 66.9703C146.691 66.0403 143.55 66.5603 140.44 66.3803C139.5 66.3303 138.571 66.2802 137.631 66.2102C135.371 66.0502 135.031 63.7702 133.661 62.6102C132.101 61.5502 130.53 61.5002 128.95 62.5502C127.34 63.5002 125.731 63.7103 123.931 62.9503C121.731 62.0203 119.461 61.2503 117.181 60.5303C116.001 60.1503 114.741 60.0102 113.511 59.7702L113.58 59.7903C113.2 58.8403 112.421 58.6803 111.521 58.7603C109.321 57.8603 107.121 56.9602 104.921 56.0502C104.301 54.5602 102.85 54.3503 101.57 53.8903C100.19 53.3903 98.6905 53.0702 97.8005 51.7402C98.3905 51.0902 98.7905 50.6403 99.1905 50.2003C99.2705 50.0603 99.3606 49.9303 99.4206 49.7903C100.651 47.0403 100.67 45.6003 99.3305 44.6603C97.5805 43.4403 96.0405 44.1903 94.6105 45.3703C92.8505 45.8203 94.0205 48.1002 92.5605 48.7102C88.5705 48.2702 85.5905 46.0602 82.8805 43.3703C81.8305 42.2902 80.7005 41.3502 79.0605 41.4302C77.8405 41.1402 76.6005 40.8802 75.3905 40.5402C74.3305 40.2502 73.2905 39.8703 72.2305 39.5303C71.0005 36.7803 69.8305 34.0003 68.5205 31.2903C67.6305 29.4403 66.7005 27.6103 64.9805 26.2603C63.6005 25.1703 63.4305 23.9303 64.0705 22.9603C64.7105 21.9903 65.7905 21.7903 67.4805 22.3603C67.9205 22.5103 68.3105 22.7703 68.9605 23.0903C70.6405 21.0103 72.2105 18.8203 74.0405 16.8703C76.4305 14.3203 78.9405 11.8703 81.5605 9.55026C83.3705 7.95026 85.6405 7.07025 88.0605 6.73025C92.6005 6.09025 95.8805 8.16026 97.1805 12.5303C98.4205 16.6803 97.8105 20.7403 96.4005 24.7303C95.9805 25.9303 95.3505 27.0603 94.9705 28.2803C94.3205 30.3403 95.0305 31.7502 97.0205 32.4302C114.741 38.4602 130.44 48.0802 145.09 59.5502C147.47 61.4102 149.821 63.3002 152.181 65.1802L152.21 65.1803ZM117.291 57.3302C118.791 57.3402 120.261 55.8103 120.271 54.2203C120.271 52.6903 118.891 51.2103 117.301 51.0603C115.561 50.8903 114.001 52.5203 114.121 54.3803C114.221 55.9303 115.711 57.3102 117.301 57.3302H117.291Z" fill="#F3FBEF"/>
<path d="M192.389 53.9201C192.299 55.2101 191.419 55.8401 190.369 56.3101C186.479 58.0501 182.579 59.7601 178.689 61.5101C174.929 63.2001 170.909 64.0301 166.959 65.0801C165.429 65.4801 163.849 65.9001 162.539 64.4901C170.669 56.1101 179.919 50.6601 192.209 53.2201C192.239 53.4601 192.299 53.7001 192.379 53.9201H192.389Z" fill="#F1F9EE"/>
<path d="M72.25 39.54C73.3 39.88 74.34 40.25 75.41 40.55C76.62 40.8801 77.86 41.14 79.08 41.44C78.62 41.87 78.06 42.2301 77.73 42.7401C76.69 44.3201 77.02 45.93 78.48 46.8C79.93 47.67 81.68 47.2401 82.49 45.6701C82.83 45.0101 82.78 44.1501 82.91 43.3801C85.62 46.07 88.6 48.28 92.59 48.72C94.05 48.1 92.88 45.82 94.64 45.3801C94.58 45.8501 94.45 46.3201 94.48 46.7901C94.62 49.4301 95.25 50.1 97.81 50.33C98.27 50.37 98.75 50.26 99.22 50.22C98.82 50.67 98.42 51.1101 97.83 51.7601C98.72 53.0901 100.22 53.41 101.6 53.91C102.88 54.37 104.33 54.5801 104.95 56.0701C103.73 55.7701 102.49 55.5201 101.28 55.16C93.33 52.8101 85.27 51.12 76.93 51.08C76.16 51.08 75.39 50.91 74.48 50.8C73.72 46.97 73 43.26 72.27 39.56L72.25 39.54Z" fill="#EDDBDB"/>
<path d="M111.529 58.7602C112.429 58.6802 113.209 58.8302 113.589 59.7902C112.899 59.4502 112.219 59.1102 111.529 58.7602Z" fill="#F3DEDC"/>
<path d="M31.3389 90.4102C32.2689 90.5402 33.2589 90.5201 34.1289 90.8301C44.2889 94.5101 54.8289 95.8501 65.5489 96.1801C66.1889 96.2001 66.8189 96.2502 67.4589 96.2902C67.5989 97.3902 67.6689 98.5101 67.9189 99.5901C68.1289 100.5 68.5489 101.37 68.9589 102.47C67.9389 102.81 67.0889 103.23 66.1889 103.37C57.2189 104.78 48.2389 106.05 39.1089 105.67C34.6189 105.48 30.2089 104.87 26.0789 103.05C24.5089 102.36 23.1089 101.28 21.6289 100.38C26.3989 98.5602 29.9089 95.5002 31.3289 90.4202L31.3389 90.4102Z" fill="#04EFC8"/>
<path d="M74.0793 96.3102C75.6693 96.2602 77.2593 96.1802 78.8393 96.1602C82.2693 96.1202 84.9892 94.7702 86.9892 91.9502C90.1892 87.4402 92.2393 82.5002 92.7593 76.9702C95.9793 77.2202 98.8092 78.3602 101.209 80.5502C100.719 82.2602 100.229 83.9602 99.7392 85.6702C98.8092 85.6402 97.8692 85.5302 96.9392 85.5902C95.7492 85.6602 94.9193 86.3402 94.5193 87.4702C94.0893 88.6802 94.4593 89.9702 95.5893 90.7802C96.3293 91.3102 97.2092 91.6502 98.0392 92.0802C97.1192 93.5202 96.1893 94.9602 95.2593 96.4002C94.3693 96.0702 93.4893 95.6002 92.5693 95.4502C90.4593 95.1102 88.8092 97.1202 89.6092 99.1002C90.0092 100.1 90.7893 100.96 91.3993 101.88C88.5993 104.37 85.0992 105.37 81.6692 106.54C79.6492 104.57 77.5493 102.68 75.6493 100.61C74.5893 99.4602 73.7593 98.0502 74.0793 96.3102Z" fill="#04EFC7"/>
<path d="M31.3404 90.4102C29.9204 95.5002 26.4104 98.5502 21.6404 100.37C20.1804 99.7302 18.8103 98.9902 18.0403 97.1002C19.0203 96.6302 20.0503 96.2602 20.9203 95.6802C22.4903 94.6302 24.1904 93.6502 25.4504 92.2802C28.8904 88.5402 28.7204 83.0002 25.0904 79.3902C20.7704 75.1002 15.4704 73.4402 9.43036 74.1402C8.57036 74.2402 7.60039 74.9702 6.90039 73.8102C7.01039 73.0202 7.10989 72.2299 7.23989 71.4499C7.25989 71.2999 7.38989 71.1698 7.60989 70.7798C9.81989 69.6698 12.4499 69.9499 14.8499 70.3499C19.5899 71.1299 23.9999 72.9699 27.7899 76.0699C30.6999 78.4499 32.1599 81.5098 32.0099 85.2398C31.9399 86.9698 31.5799 88.6898 31.3499 90.4099L31.3404 90.4102Z" fill="#E9F5F3"/>
<path d="M81.6692 106.54C85.0892 105.36 88.5993 104.37 91.3993 101.88C93.4493 103.13 95.0999 104.8 96.5499 106.67C91.8899 111.02 87.2192 110.93 81.6692 106.54Z" fill="#E0EFF1"/>
<path d="M95.2603 96.4001C96.1903 94.9601 97.1102 93.5201 98.0402 92.0801C100.14 93.0901 102.29 94.0201 104.33 95.1401C104.94 95.4801 105.28 96.3201 105.74 96.9301H105.78C105.15 98.2501 104.53 99.5701 103.9 100.89L103.93 100.84C103.27 101.41 102.61 101.98 101.9 102.59C100.95 101.98 100.1 101.43 99.2402 100.89C97.9102 99.3901 96.5802 97.9001 95.2402 96.4001H95.2603Z" fill="#E1EEF1"/>
<path d="M99.2598 100.89C100.11 101.44 100.97 101.98 101.92 102.59C102.63 101.98 103.29 101.41 103.95 100.84C103.89 101.29 103.98 101.83 103.76 102.19C102.52 104.23 100.8 104.25 99.4998 102.23C99.2698 101.88 99.3298 101.34 99.2598 100.89Z" fill="#0D2F7A"/>
<path d="M103.91 100.88C104.54 99.5599 105.16 98.2399 105.79 96.9199C106.1 98.6799 105.88 100.19 103.91 100.88Z" fill="#0D2F7A"/>
<path d="M12.0606 50.1602C11.6706 50.7102 11.2806 51.2501 10.8906 51.8001C10.9206 50.9901 11.1706 50.3502 12.0606 50.1602Z" fill="#0A448E"/>
<path d="M111.69 83.7299C116.73 82.1799 120.53 78.8199 124.14 75.1899C125 75.8199 125.869 76.4399 126.729 77.0699C127.159 77.6699 127.59 78.2699 128.02 78.8799C129.23 81.2499 131.299 83.1899 131.709 86.2199C129.019 88.3299 125.509 88.1399 122.439 89.1899C119.499 90.1999 116.509 91.3899 112.99 91.2399C112.549 88.6799 112.119 86.2099 111.699 83.7399L111.69 83.7299Z" fill="#04EEC7"/>
<path d="M99.7405 85.6698C100.23 83.9598 100.72 82.2598 101.21 80.5498C102.94 80.9398 103.91 82.2298 104.62 83.6698C105.3 85.0498 106.281 86.4098 105.671 88.4298C103.441 87.8498 101.5 86.9598 99.7305 85.6698H99.7405Z" fill="#C7DCE5"/>
<path d="M128.021 78.8701C127.591 78.2701 127.16 77.6701 126.73 77.0601C127.78 77.2201 128.021 77.9601 128.021 78.8701Z" fill="#0A448E"/>
<path d="M133.789 77.1802C134.149 77.7202 134.519 78.2502 134.879 78.7802C134.059 78.5502 133.809 77.9402 133.789 77.1802Z" fill="#0A448E"/>
<path d="M177.02 113.36C177.95 112.8 178.149 111.88 178.109 110.92C178.009 108.57 177.849 106.22 177.709 103.87C178.029 104.19 178.62 104.5 178.63 104.84C178.73 107.63 178.85 110.43 178.67 113.21C178.6 114.26 177.66 114.1 177.02 113.36Z" fill="#0D2E7A"/>
<path d="M45.5994 62.5002C45.8894 61.7902 46.3195 61.1002 46.4395 60.3602C46.6295 59.1202 46.6195 57.8402 46.6895 56.6402C52.2195 54.8702 56.1095 55.4602 60.2095 58.5502C61.2295 59.3102 62.2595 60.1002 63.3795 60.6702C68.5795 63.3402 70.1794 68.0602 70.4094 73.3702C70.7194 80.4302 66.4195 88.1702 57.3795 90.5702C52.8495 91.7702 48.5495 91.9502 44.3395 90.1702C39.6895 88.2002 35.7195 85.4302 34.3995 79.9802C33.7595 77.3502 32.6494 74.8502 33.1594 72.0502C34.2494 72.0502 35.3494 72.1802 36.4194 72.0502C37.8894 71.8602 39.2695 70.5602 39.3395 69.4202C39.4195 68.1502 38.4795 67.4702 37.5595 66.8902C37.0595 66.5802 36.3895 66.5302 35.7994 66.3602C36.1395 65.3602 36.6095 64.3802 36.7695 63.3502C36.9695 62.0502 37.3395 60.6102 35.9395 59.6202C35.8595 58.9902 35.7795 58.3602 35.6995 57.7302C36.5895 57.3702 37.4795 57.0102 38.3795 56.6602C38.5395 57.1502 38.6994 57.6302 38.8594 58.1202C38.8394 59.5202 38.3694 60.9702 39.2894 62.2802C39.9594 63.5202 40.6695 64.6702 42.3295 64.6902C43.7295 64.7102 44.5795 63.9102 45.3195 62.8802C45.4095 62.7602 45.4995 62.6302 45.5895 62.5102L45.5994 62.5002Z" fill="#FFFFBB"/>
<path d="M45.6004 62.4998C45.5104 62.6198 45.4205 62.7498 45.3305 62.8698C44.5905 63.8998 43.7405 64.6998 42.3405 64.6798C40.6805 64.6598 39.9704 63.5098 39.3004 62.2798C39.3804 60.8698 39.9704 59.4098 38.8704 58.1198C38.7104 57.6298 38.5504 57.1498 38.3904 56.6598C37.4604 51.9898 37.2004 51.7798 32.9504 52.2098C30.5504 51.6798 28.2205 51.7498 26.0205 52.9898C25.6105 53.2198 25.1605 53.4298 24.7105 53.5598C23.4405 53.9298 22.1404 53.4398 21.3704 52.3498C20.6304 51.2898 20.6405 49.8598 21.5905 48.8198C22.2205 48.1298 22.9904 47.5098 23.8104 47.0798C31.1504 43.1798 41.5004 46.8998 44.8204 54.5198C45.9604 57.1298 45.5405 59.8198 45.5905 62.4998H45.6004Z" fill="#154588"/>
<path d="M35.9606 59.62C37.3706 60.6 37.0006 62.05 36.7906 63.35C36.6306 64.38 36.1506 65.36 35.8206 66.36C34.5206 67.2 33.2206 68.04 31.9206 68.89C30.8106 68.89 29.6506 69.08 28.6006 68.84C24.9906 68 22.9106 65.05 23.2006 61.43C23.4706 58.05 26.3307 55.43 30.0307 55.31C30.9607 55.28 31.9099 55.6199 32.8499 55.7899C32.9699 56.0499 33.0506 56.32 33.0706 56.6C33.5006 58.12 34.5406 59.06 35.9606 59.63V59.62Z" fill="#0E3782"/>
<path d="M31.9297 68.8899C33.2297 68.0499 34.5297 67.2099 35.8297 66.3599C36.4197 66.5299 37.0897 66.5799 37.5897 66.8899C38.5097 67.4599 39.4397 68.1499 39.3697 69.4199C39.2997 70.5599 37.9197 71.8599 36.4497 72.0499C35.3797 72.1899 34.2797 72.0699 33.1897 72.0499C32.7697 70.9899 32.3597 69.9299 31.9397 68.8699L31.9297 68.8899Z" fill="#F8F7F1"/>
<path d="M33.0693 56.59C33.0393 56.31 32.9699 56.0398 32.8499 55.7798C32.2399 54.5698 32.0393 53.37 32.9593 52.21C37.2093 51.78 37.4693 51.99 38.3993 56.66C37.5093 57.02 36.6193 57.37 35.7193 57.73C34.8393 57.35 33.9493 56.97 33.0693 56.58V56.59Z" fill="#E3F2EF"/>
<path d="M141.21 71.6202C142.67 71.5302 144.26 73.1102 144.24 74.6302C144.22 75.9502 142.89 77.2602 141.47 77.3702C139.92 77.4802 138.45 76.0102 138.49 74.4002C138.53 73.0202 139.81 71.7102 141.21 71.6202Z" fill="#20458A"/>
<path d="M128.95 62.5502C130.53 61.5002 132.101 61.5502 133.661 62.6102C133.751 63.3902 133.99 64.1899 133.91 64.9499C133.75 66.4399 132.75 67.3299 131.47 67.3699C129.93 67.4199 128.7 66.4499 128.57 64.8699C128.51 64.1099 128.81 63.3202 128.95 62.5502Z" fill="#40659D"/>
<path d="M117.291 57.3302C115.701 57.3202 114.21 55.9401 114.11 54.3801C113.99 52.5201 115.55 50.8901 117.29 51.0601C118.89 51.2101 120.27 52.6901 120.26 54.2201C120.26 55.8101 118.78 57.34 117.28 57.3301L117.291 57.3302Z" fill="#285A9A"/>
<path d="M99.209 50.2C98.739 50.24 98.259 50.3499 97.799 50.3099C95.239 50.0799 94.609 49.4099 94.469 46.7699C94.449 46.3099 94.5691 45.8299 94.6291 45.3599C96.0591 44.1699 97.599 43.4299 99.349 44.6499C100.689 45.5799 100.669 47.0299 99.439 49.7799C99.379 49.9199 99.279 50.0599 99.209 50.1899V50.2Z" fill="#194F96"/>
<path d="M82.9004 43.3701C82.7704 44.1401 82.8203 45.0001 82.4803 45.6601C81.6703 47.2401 79.9203 47.6601 78.4703 46.7901C77.0203 45.9201 76.6803 44.3101 77.7203 42.7301C78.0603 42.2201 78.6204 41.8601 79.0704 41.4301C80.7104 41.3501 81.8404 42.2901 82.8904 43.3701H82.9004Z" fill="#3662A0"/>
<path d="M38.8798 58.1201C39.9798 59.4101 39.3898 60.8701 39.3098 62.2801C38.3898 60.9701 38.8598 59.5201 38.8798 58.1201Z" fill="#E3F2EF"/>
<path d="M33.0693 56.59C33.9493 56.97 34.8403 57.3498 35.7203 57.7398C35.8003 58.3698 35.8806 59 35.9606 59.63C34.5306 59.06 33.5006 58.11 33.0706 56.6L33.0693 56.59Z" fill="#154588"/>
</svg>
