<svg width="246" height="152" viewBox="0 0 246 152" fill="none" xmlns="http://www.w3.org/2000/svg">
<path d="M244.43 46.4201C246.23 50.2701 245.6 54.2501 244.85 58.1501C243.62 64.5201 240.83 70.2501 236.93 75.4401C233.55 79.9401 229.54 83.8301 225.32 87.5101C222.68 89.8101 220.04 92.1101 217.54 94.2901C218.24 99.3701 218.97 104.1 219.52 108.84C220.31 115.7 220.24 122.55 219.25 129.4C218.67 133.38 217.66 137.23 216.12 140.94C214.61 144.58 212.29 147.53 208.74 149.46C202.08 153.08 195 151.99 190.17 146.14C188.06 143.59 186.26 140.65 184.87 137.64C181.37 130.05 179.33 122 178.16 113.74C177.98 112.49 177.78 111.25 177.54 109.67C176.3 109.92 175.24 110.04 174.24 110.36C163.75 113.75 153.31 117.29 142.78 120.54C133 123.56 122.99 125.67 112.86 127.2C112.12 127.31 111.4 127.54 110.29 127.8C110.66 128.81 110.95 129.5 111.18 130.21C111.9 132.48 112.92 134.72 113.23 137.06C114.21 144.38 109.44 150.3 102.09 151.14C99.2102 151.47 96.3603 151.26 93.5503 150.44C82.3003 147.17 72.3902 141.55 63.7402 133.67C63.1502 133.13 62.5603 132.58 62.0503 131.97C60.9403 130.63 59.5102 130.25 57.8302 130.13C54.3302 129.87 50.8302 129.5 47.3502 129.02C35.6802 127.41 24.6103 123.82 14.2703 118.21C10.9303 116.4 7.90026 113.98 4.89026 111.62C3.15026 110.26 1.56023 108.61 0.740234 105.93C1.44023 104.54 2.28024 102.85 3.12024 101.17C4.75024 99.9601 5.42023 98.3501 5.11023 96.3301L5.09021 96.3801C6.03021 96.0201 6.22029 95.2901 6.05029 94.3901C6.05029 94.3901 6.02026 94.4501 6.02026 94.4401C6.99026 94.1001 7.17025 93.3701 7.01025 92.4601L6.98022 92.5101C9.76022 91.9901 9.93023 92.0701 11.1102 94.6101L11.1202 94.5901C10.0702 94.8801 9.91024 95.6201 10.1202 96.5501L10.1503 96.5001C8.44027 97.6401 7.82023 99.2601 8.11023 101.26V101.24C6.76023 101.98 6.43029 103.34 6.17029 104.68C5.99029 105.6 6.15022 106.52 7.23022 106.93C10.9602 110.19 14.9802 113.06 19.4902 115.14C26.3002 118.28 33.2803 121.03 40.6703 122.5C44.2503 123.21 47.9103 123.57 51.5303 124.08C54.6803 124.42 57.8302 124.85 60.9902 125.06C62.8902 125.18 64.3003 125.8 65.4103 127.4C66.2103 128.55 67.2603 129.56 68.2903 130.52C73.0903 135.01 78.5702 138.49 84.4902 141.31C88.4302 143.34 92.4703 145.19 96.8903 145.81C98.7303 146.07 100.71 146.06 102.52 145.66C106.51 144.79 108.37 142.15 108.06 138.05C107.95 136.66 107.57 135.24 107.05 133.94C106.46 132.49 105.57 131.16 104.81 129.77C104.15 128.89 103.44 128.04 102.83 127.13C101.31 124.87 102.37 122.62 105.13 122.37C107.35 122.17 109.63 122.36 111.82 122C117.17 121.11 122.51 120.15 127.79 118.96C143.22 115.46 158.21 110.49 173.06 105.09C174.24 104.66 175.49 104.39 176.73 104.13C179.95 103.46 181.81 105.83 182.55 107.94C182.81 108.68 182.81 109.51 182.96 110.29C183.88 114.98 184.63 119.71 185.78 124.34C187.28 130.38 189.44 136.2 193.15 141.31C193.98 142.26 194.71 143.34 195.66 144.15C198.3 146.4 201.29 146.88 204.56 145.64C206.86 144.77 208.74 143.35 210.05 141.27C211.76 138.57 212.72 135.6 213.25 132.14C211.24 131.32 209.36 130.56 207.47 129.79C207.02 129.58 206.56 129.38 206.11 129.17C205.91 129.1 205.71 129.02 205.51 128.93C204.56 128.44 203.62 127.94 202.66 127.48C201.26 126.8 199.8 126.2 199.02 124.7C199.48 124.15 199.94 123.6 200.39 123.06C201.244 121.893 202.3 121.567 203.56 122.08C203.84 122.19 204.15 122.23 204.44 122.3C207.27 124.4 210.48 125.52 214.06 126.26C214.79 123.39 214.9 120.76 214.33 117.85C212.44 117.03 210.53 116.27 208.68 115.37C207.86 114.97 206.76 114.42 206.52 113.69C205.89 111.84 204.37 111.55 202.91 111.04C202.51 110.69 202.11 110.33 201.71 109.98C202.01 109.67 202.27 109.27 202.63 109.09C203.16 108.83 203.77 108.73 204.34 108.56C206.77 109.33 209.19 110.12 211.63 110.85C212.45 111.1 213.27 111.9 214.42 110.83C214.14 106.57 213.8 102.13 212.65 97.8101C211.67 94.1301 212.57 91.2401 215.59 88.9601C216.61 88.1901 217.58 87.3601 218.51 86.4901C222.34 82.9001 226.17 79.2901 229.95 75.6401C230.43 75.1701 230.62 74.4001 231.08 73.4901H221.05C220.71 71.9701 220.39 70.5001 219.98 68.6901C222.07 68.5101 223.94 68.2701 225.82 68.2001C228.21 68.1101 230.6 68.2001 232.99 68.1301C236.05 68.0301 237 66.8101 236.93 62.9601C232.35 63.6701 227.81 64.3801 223.27 65.0801C222.17 65.2501 221.07 65.5301 219.97 65.5501C218.54 65.5801 217.58 64.8001 217.24 63.3601V63.2701C218.09 62.8801 219.25 62.7201 219.75 62.0601C221.37 59.9201 223.7 59.6201 226.01 59.2601C229.6 58.7101 233.21 58.2901 236.81 57.8001C237.71 57.6801 238.6 57.4701 239.45 57.3101C240.79 54.3401 240.14 51.4701 240.25 48.6701C240.53 46.8901 240.36 45.3301 238.35 44.6101L238.37 44.6401C238.78 43.1401 236.73 41.7901 238.23 40.0801C240.21 40.4301 241.19 42.0301 242.22 43.5501C242.9 44.5501 243.06 45.9501 244.45 46.4001L244.43 46.4201Z" fill="#0F1464"/>
<path d="M34.7993 66.46C37.3493 65.2 39.8292 63.77 42.4592 62.7C48.8492 60.1 55.5293 58.49 62.3093 57.28C66.0793 56.61 69.8693 56 73.6693 55.65C76.3493 55.4 79.0893 55.54 81.7893 55.67C85.1593 55.83 87.3393 54.17 87.6593 50.95C87.9593 47.93 88.2392 44.91 88.4492 41.88C88.5292 40.65 88.3993 39.41 88.3593 37.9C82.5193 39.15 77.2393 38.64 72.3693 35.6C69.0093 33.5 66.5693 30.62 65.0393 26.98C61.7093 19.06 63.7493 10.24 70.2893 4.79C74.1093 1.6 78.5792 0.0600027 83.5992 0.340003C87.3292 0.550003 89.3893 1.40001 96.8693 5.91001C101.369 2.48001 106.459 0.530014 112.349 1.32001C116.269 1.85001 119.709 3.41001 122.609 6.08001C128.779 11.77 130.629 20.69 127.209 28.01C125.009 32.7 121.569 36.03 116.719 37.99C112.039 39.88 107.349 39.35 102.469 38.19C101.439 42.9 101.269 47.51 101.129 52.11C101.109 52.83 101.549 53.61 101.919 54.28C102.609 55.52 103.399 56.7 104.149 57.91C102.959 57.56 101.909 57.21 100.529 57.77C97.6493 58.95 95.0293 60.79 91.8793 61.34C91.3893 61.43 91.0092 62.2 90.5792 62.65C89.1292 61.83 87.6892 61.01 86.3292 60.24C84.4292 61.37 85.8292 62.57 85.9692 63.69C83.9092 63.0633 82.5659 63.71 81.9392 65.63C81.2092 64.11 80.4793 62.58 79.7693 61.11C75.1093 60.4 70.7793 61.22 66.3993 61.94C57.9193 63.34 49.6192 65.27 41.6892 68.64C40.0892 69.32 38.4592 69.9 36.8392 70.53C37.4992 69.33 37.3792 68.29 36.1992 67.47C35.7192 67.13 35.2493 66.78 34.7793 66.43L34.7993 66.46ZM71.3292 28.39C75.2492 33.63 80.5193 34.93 86.6393 33.54C94.0093 31.87 93.6693 34.57 93.2793 39.39C92.8393 44.79 92.2892 50.18 91.8292 55.59C91.7492 56.53 91.8092 57.5 91.9592 58.44C92.0992 59.33 93.5093 59.96 94.2693 59.39C94.9793 58.86 95.6892 58.09 95.9592 57.28C96.2992 56.25 96.2093 55.08 96.2893 53.96C96.6993 48.39 97.0993 42.82 97.5293 37.26C97.5893 36.47 97.6993 35.67 97.9293 34.91C98.6793 32.35 100.029 31.79 102.599 32.91C103.189 33.16 103.749 33.47 104.329 33.72C108.779 35.61 113.059 35.11 117.209 32.8C122.399 29.9 125.149 23.92 124.179 17.69C123.309 12.13 118.449 7.15001 112.849 6.08001C108.379 5.23001 104.349 6.04001 100.689 8.88001C97.3392 11.48 95.3992 11.74 92.3292 8.73C90.1592 6.6 87.3993 5.30001 84.1793 5.11001C78.2393 4.76001 73.5992 6.88 70.3292 11.9C68.2792 14.36 67.9692 17.36 68.0992 20.32C68.2392 23.3 68.7192 26.32 71.3292 28.4V28.39Z" fill="#732F83"/>
<path d="M90.6005 62.6698C91.0305 62.2198 91.4005 61.4497 91.9005 61.3597C95.0605 60.7997 97.6705 58.9598 100.551 57.7898C101.921 57.2298 102.981 57.5798 104.171 57.9298L104.13 57.8998C104.13 59.1798 104.751 59.9498 106.041 59.9598C108.021 59.9798 110.01 59.8898 111.99 59.8498C114.37 60.0198 116.76 60.1398 119.13 60.3698C125.65 61.0098 132.161 61.6998 138.681 62.3398C138.961 62.3698 139.271 62.1398 139.891 61.9098C140.531 60.5698 141.301 59.0098 142.021 57.4298C143.561 54.0398 145.66 51.0397 148.37 48.4897C149.41 47.5098 150.561 46.6097 151.801 45.8997C156.201 43.3797 160.911 44.0498 164.541 47.6398C166.741 49.8198 168.31 52.4498 169.19 55.3898C170.1 58.4398 170.681 61.5898 171.411 64.6998C169.801 63.5798 169.88 61.6998 169.32 60.0998C168.95 59.0598 168.691 57.9597 168.151 57.0197C167.931 56.6297 167.02 56.3198 166.58 56.4598C166.17 56.5898 165.63 57.4898 165.75 57.8498C166.39 59.8598 166.631 61.8798 166.431 63.9698C166.221 63.9298 166.03 63.9698 165.85 64.0698C165.49 62.3698 165.26 60.6297 164.73 58.9897C164.09 57.0597 163.35 55.1198 162.36 53.3398C160.41 49.8298 156.51 47.9798 152.97 51.4498C150.11 53.2098 148.781 56.1398 147.271 58.9198C146.281 60.7398 145.47 62.6498 144.58 64.5098C143.5 66.7698 141.75 67.8598 139.21 67.6398C134.14 67.1998 129.07 66.8098 124 66.3498C121.47 66.1198 118.951 65.7898 116.431 65.4998C113.911 65.2098 111.4 64.8798 108.87 64.6298C106.91 64.4298 105.3 64.8798 103.69 66.3498C100.11 69.6398 95.6005 70.8498 90.8405 70.3098C87.4105 69.9198 83.8605 69.2098 81.9805 65.6398C82.6071 63.7198 83.9505 63.0731 86.0105 63.6998C87.8805 64.4998 89.7405 65.3297 91.6205 66.1097C93.8005 67.0197 95.6105 66.4697 97.0405 64.6198C98.8605 64.8498 100.031 63.8598 100.771 62.3998C101.051 61.8498 100.82 61.0298 100.82 59.9298C99.8504 60.3998 99.1804 60.5198 98.8204 60.9298C97.4504 62.4698 95.7405 62.8998 93.7805 62.7898C93.0105 62.7498 92.2304 62.8498 91.4504 62.8898C91.1304 62.9598 90.8505 62.8898 90.6205 62.6498L90.6005 62.6698Z" fill="#502779"/>
<path d="M166.41 63.9702C166.61 61.8802 166.37 59.8602 165.73 57.8502C165.61 57.4802 166.16 56.5802 166.56 56.4602C167 56.3202 167.91 56.6302 168.13 57.0202C168.67 57.9602 168.93 59.0602 169.3 60.1002C169.86 61.7002 169.78 63.5802 171.39 64.7002C176.26 66.6802 181.12 68.6602 185.99 70.6302C186.58 70.8702 187.17 71.1202 187.78 71.2902C190.03 71.9302 191 71.6502 192.27 69.7302C193.32 68.1402 194.23 66.4502 195.16 64.7802C198.32 59.0502 201.61 53.4002 205.98 48.4902C208.41 45.7602 211.04 43.1802 213.81 40.8102C217.12 37.9702 221.07 36.2102 225.37 35.3602C233.1 33.8302 240.89 37.6902 244.06 44.5802C244.32 45.1402 244.32 45.8102 244.43 46.4302C243.04 45.9802 242.88 44.5802 242.2 43.5802C241.17 42.0602 240.19 40.4602 238.21 40.1102C236.71 41.8202 238.76 43.1702 238.35 44.6702C238.08 44.5102 237.75 44.4102 237.54 44.1902C232.99 39.5602 227.64 39.5002 222.17 41.9202C219.61 43.0502 217.43 45.0302 215.08 46.6302C213.21 48.5702 211.21 50.4002 209.49 52.4702C205.5 57.2802 202.38 62.6702 199.34 68.1102C198.25 70.0602 197.18 72.0402 195.87 73.8402C193.79 76.7002 190.95 77.8202 187.46 76.7102C186.09 76.2802 184.75 75.7702 183.41 75.2502C178.66 73.4002 173.94 71.4302 169.14 69.7102C167.19 69.0102 166.18 67.9902 166.34 65.9002C166.39 65.2602 166.38 64.6202 166.39 63.9902L166.41 63.9702Z" fill="#261C6C"/>
<path d="M34.7993 66.46C35.2693 66.81 35.7388 67.1602 36.2188 67.5002C37.3988 68.3202 37.5188 69.3602 36.8588 70.5602C35.0088 71.7502 33.1888 73.0102 31.2888 74.1202C23.6188 78.5902 17.5287 84.6502 12.9387 92.2302C12.3287 93.0302 11.7088 93.8202 11.0988 94.6202C9.91875 92.0802 9.74875 91.9902 6.96875 92.5202C7.77875 89.5102 9.74874 87.1702 11.5887 84.7902C16.4187 78.5502 22.0488 73.2002 29.1288 69.5402C30.0088 69.6202 30.7288 69.4002 31.0488 68.4702L30.9888 68.5002C31.8988 68.6402 32.6387 68.4402 32.9387 67.4502L32.8688 67.4902C33.7988 67.6702 34.5487 67.5002 34.8387 66.4502H34.7988L34.7993 66.46Z" fill="#3B2475"/>
<path d="M111.989 59.8401C110.009 59.8801 108.019 59.9701 106.039 59.9501C104.749 59.9401 104.129 59.1701 104.129 57.8901C105.169 58.5201 106.119 59.1901 107.489 59.1901C108.989 59.1901 110.489 59.6001 111.989 59.8401Z" fill="#732F83"/>
<path d="M5.09937 96.3301C5.40937 98.3401 4.74937 99.9501 3.10938 101.17C3.11937 99.2901 3.97937 97.7601 5.09937 96.3301Z" fill="#3B2475"/>
<path d="M34.8391 66.4599C34.5491 67.5099 33.7991 67.6699 32.8691 67.4999C33.2791 66.6799 33.9691 66.4099 34.8391 66.4599Z" fill="#732F83"/>
<path d="M32.9402 67.46C32.6402 68.45 31.9002 68.65 30.9902 68.51C31.6402 68.16 32.2902 67.81 32.9402 67.46Z" fill="#732F83"/>
<path d="M29.1288 69.5402C30.0088 69.6202 30.7288 69.4002 31.0488 68.4702C30.4088 68.8302 29.7688 69.1802 29.1288 69.5402Z" fill="#732F83"/>
<path d="M6.99959 92.4702C7.16959 93.3802 6.9796 94.1102 6.0096 94.4502C5.9596 93.6002 6.13959 92.8702 6.99959 92.4702Z" fill="#3B2475"/>
<path d="M6.05029 94.3901C6.22029 95.2901 6.02021 96.0101 5.09021 96.3801C4.98021 95.5101 5.22029 94.8101 6.05029 94.3901Z" fill="#3B2475"/>
<path d="M12.9398 92.2299C17.5298 84.6499 23.6199 78.5899 31.2899 74.1199C33.1899 73.0099 35.0099 71.7499 36.8599 70.5599C38.4799 69.9299 40.1198 69.3499 41.7098 68.6699C49.6398 65.2899 57.9399 63.3599 66.4199 61.9699C70.7999 61.2499 75.1399 60.4299 79.7899 61.1399C80.4999 62.6099 81.2298 64.1299 81.9598 65.6599C83.8498 69.2299 87.3898 69.9399 90.8198 70.3299C95.5698 70.8699 100.09 69.6599 103.67 66.3699C105.27 64.8999 106.88 64.4499 108.85 64.6499C111.37 64.8999 113.89 65.2299 116.41 65.5199C118.93 65.8099 121.45 66.1399 123.98 66.3699C129.05 66.8299 134.12 67.2199 139.19 67.6599C141.73 67.8799 143.48 66.7899 144.56 64.5299C145.45 62.6599 146.27 60.7499 147.25 58.9399C148.76 56.1599 150.09 53.2299 152.95 51.4699C154.06 56.1699 157.01 59.6699 160.41 62.8699C161.77 64.1499 163.16 65.3899 165.1 65.6399C165.43 64.9299 165.63 64.5099 165.83 64.0799C166.01 63.9699 166.21 63.9399 166.41 63.9799C166.39 64.6199 166.41 65.2599 166.36 65.8999C166.2 67.9899 167.21 69.0099 169.16 69.7099C173.96 71.4399 178.67 73.3999 183.43 75.2499C184.77 75.7699 186.11 76.2799 187.48 76.7099C190.97 77.8199 193.81 76.6999 195.89 73.8399C197.2 72.0399 198.27 70.0599 199.36 68.1099C202.39 62.6699 205.51 57.2699 209.51 52.4699C211.23 50.3999 213.23 48.5699 215.1 46.6299C215.6 47.7799 216.17 48.9099 216.58 50.0899C217.37 52.3599 218.12 54.9199 216.78 56.9499C215.13 59.4399 215.48 61.2899 217.24 63.2899V63.3799C215.81 64.3899 215.55 65.9999 215.02 67.5099C212.04 76.0299 207.94 83.9299 201.74 90.6099C200.44 92.0099 198.93 93.2099 197.56 94.5499C195.86 96.2299 195.79 97.6599 197.1 99.6499C198.41 101.64 199.87 103.58 200.86 105.73C201.62 107.38 202.85 108.02 204.33 108.57C203.76 108.74 203.15 108.84 202.62 109.1C202.26 109.28 202 109.69 201.7 109.99C202.1 110.34 202.5 110.7 202.9 111.05C200.47 113.52 200.18 114.68 202.4 116.45C204.5 118.12 204.8 120 204.42 122.32C204.12 122.25 203.81 122.21 203.54 122.1C202.28 121.593 201.223 121.923 200.37 123.09C200.16 122.33 200.07 121.51 199.7 120.83C199.12 119.75 197.82 119.58 196.83 120.3C195.18 121.51 195.29 123.58 197.14 124.53C197.66 124.8 198.37 124.67 198.99 124.73C199.77 126.23 201.23 126.83 202.63 127.51C203.59 127.98 204.53 128.48 205.48 128.96C204.14 128.91 203.11 129.24 202.58 130.71C201.39 134.03 199.2 136.66 196.51 138.87C195.43 139.76 194.25 140.52 193.11 141.33C189.4 136.22 187.23 130.41 185.74 124.36C184.59 119.73 183.84 115 182.92 110.31C182.77 109.53 182.77 108.7 182.51 107.96C181.77 105.85 179.91 103.49 176.69 104.15C175.45 104.41 174.21 104.68 173.02 105.11C158.16 110.5 143.18 115.48 127.75 118.98C122.47 120.18 117.12 121.13 111.78 122.02C109.59 122.38 107.32 122.2 105.09 122.39C102.33 122.63 101.26 124.89 102.79 127.15C103.4 128.06 104.11 128.91 104.77 129.79C103.24 130.14 101.61 130.27 100.18 130.86C94.8599 133.08 89.9998 136.1 85.5798 139.8C85.1098 140.19 84.8298 140.81 84.4598 141.32C78.5398 138.5 73.0599 135.02 68.2599 130.53C67.2299 129.56 66.1799 128.56 65.3799 127.41C64.2699 125.81 62.8598 125.19 60.9598 125.07C57.7998 124.86 54.6499 124.43 51.4899 124.09C52.5899 123.54 53.7199 123.05 54.7799 122.43C57.5099 120.82 59.9899 118.96 60.9199 115.71C63.5699 113.83 64.7499 111.07 65.3699 108.05C66.4399 102.79 63.3499 97.4399 58.4199 95.8999C56.0499 95.1599 53.6999 95.4199 51.3799 96.2299C50.8099 94.5899 50.3799 92.8799 49.6499 91.3199C47.7499 87.2799 42.4499 83.2599 36.7899 84.0599C31.1799 84.8499 26.9999 87.6999 25.2799 93.3199C24.6899 95.2599 24.6198 97.3499 24.3198 99.3799C21.3098 98.7499 18.8799 97.0899 16.5999 95.0999C15.4299 94.0799 14.1499 93.1999 12.9199 92.2499L12.9398 92.2299ZM163.44 82.0399L163.49 82.1199C162.93 82.3799 162.39 82.7599 161.8 82.8899C159.16 83.4599 156.51 83.9599 153.87 84.4799C146.55 85.9099 139.2 87.1399 131.77 87.8799C130.95 87.0199 130.35 85.8699 129 85.6899C127.78 84.5899 126.27 84.9999 124.89 84.9799C122.19 84.9299 122.05 85.1499 121.65 88.3499C121.62 88.6199 121.31 88.8499 120.97 89.3099C116.42 90.0399 111.66 89.6999 106.93 89.7699C105 88.3399 103.45 88.8899 102.12 90.6699C97.9999 90.9999 93.8799 91.3299 89.7599 91.6499C89.8499 90.7299 90.0899 89.7899 89.9999 88.8899C89.9099 87.9399 89.3998 86.9599 88.3298 86.9199C87.4798 86.8899 86.4199 87.1199 85.8099 87.6399C85.1699 88.1899 84.8799 89.2099 84.5499 90.0699C83.9999 91.4999 83.5299 92.9599 83.0299 94.4199C82.7832 92.7132 81.7165 91.7232 79.8298 91.4499C79.7198 91.1599 79.6499 90.8299 79.4899 90.5699C77.8899 88.0899 75.9299 88.0499 74.5099 90.4899C74.1199 91.1499 73.8299 91.8799 73.4999 92.5799C72.5799 91.3999 71.2799 91.4599 70.0399 91.6399C67.1299 92.0699 65.1899 94.7399 65.7799 97.3899C66.3699 100.06 69.3699 101.98 72.1799 101.47C72.3099 101.45 72.3999 101.26 72.5099 101.14C73.3699 101.14 74.2299 101.14 75.0999 101.14C76.9799 102.92 78.9199 102.17 80.8699 101.28C81.0899 102.54 81.3999 103.77 82.9099 104.06C84.3799 104.35 85.2199 103.51 85.8599 102.32C86.0799 101.92 86.4198 101.6 86.7098 101.25C87.6298 101.42 88.5599 101.74 89.4799 101.72C94.5799 101.63 99.6699 101.46 104.76 101.32C104.77 103.53 105.79 104.87 108.06 105.15C109 105.26 109.93 105.39 110.86 105.53C112.24 105.75 113.37 105.34 114.12 104.16C114.83 103.04 114.25 102.06 113.63 101.12C115.73 100.24 121.52 99.1799 123.25 99.4599C123.84 99.5599 124.38 99.9999 124.94 100.28C126.79 103.63 127.77 103.8 130.24 101.2C131 100.53 130.9 99.8799 130.19 99.2499C130.14 98.9699 130.14 98.6799 130.17 98.3999C131.6 98.3199 133.04 98.3699 134.45 98.1399C141.94 96.9299 149.43 95.6499 156.91 94.3999C158.86 96.0199 161.38 95.4199 163.59 96.0099C164.11 96.1499 164.97 95.0099 165.68 94.4699C166.65 93.4699 167.51 92.3399 168.6 91.4999C169.86 90.5299 170.3 89.3399 170.37 87.8399C170.49 85.4899 169.4 83.9399 167.37 82.9399C167.62 82.3499 168 81.7899 168.11 81.1799C168.44 79.2899 167.4 78.0199 165.5 78.1399C164.82 78.1799 164.17 78.8499 163.51 79.2299C162.32 80.1499 162.51 81.0899 163.46 82.0399H163.44ZM176.6 91.7199C179.65 91.8899 181.64 90.2899 181.87 87.4899C182.15 84.1499 180.51 82.1099 177.44 81.9499C174.17 81.7899 172.22 83.5199 172.14 86.6599C172.06 89.7399 173.66 91.5599 176.6 91.7199ZM113.96 79.9899C113.96 80.0399 113.96 80.0999 113.96 80.1499C114.76 80.1099 115.56 80.1299 116.35 80.0099C117.52 79.8399 118.39 78.8499 118.47 77.7399C118.55 76.6199 117.85 75.4699 116.6 75.3099C113.93 74.9599 111.24 74.7099 108.56 74.6399C107.4 74.6099 106.18 76.2899 106.3 77.3599C106.44 78.5899 107.2 79.3899 108.31 79.8199C108.73 79.9799 109.24 79.9699 109.71 79.9799C111.13 79.9999 112.55 79.9799 113.97 79.9799L113.96 79.9899ZM109.17 114C110.69 113.83 111.81 113.83 112.85 113.57C114.29 113.21 114.75 111.15 113.67 110.12C113.23 109.7 112.68 109.23 112.11 109.12C109.95 108.68 107.77 108.37 105.6 108.02C105.45 108 105.29 108.04 105.13 108.07C104.12 108.26 103.42 108.83 103.09 109.8C102.72 110.89 103.06 112.24 104.13 112.64C105.87 113.28 107.71 113.62 109.17 114ZM97.1499 77.9799C96.5499 78.2199 96.0598 78.2999 95.7098 78.5699C94.9098 79.1699 94.3399 80.0899 94.7599 81.0199C95.4999 82.6499 94.4599 84.9799 96.6699 86.0099C97.0799 86.1999 97.5799 86.3199 98.0199 86.2799C98.6299 86.2299 99.2598 86.0599 99.8298 85.8199C101.04 85.3199 101.69 83.8299 101.11 82.6999C100.4 81.3199 99.5998 79.9799 98.6898 78.7199C98.3798 78.2899 97.6299 78.1899 97.1499 77.9699V77.9799ZM133.8 107.88C133.56 107.18 133.52 106.65 133.24 106.32C132.05 104.89 130.4 104.25 128.64 104.58C127.89 104.72 127.07 105.65 126.74 106.42C126.51 106.95 126.87 107.98 127.31 108.5C128.54 109.96 130.26 110.4 132.01 109.71C132.76 109.42 133.25 108.47 133.8 107.87V107.88ZM194.39 109.86C192.98 109.86 191.73 111.18 191.76 112.67C191.78 113.87 192.95 115.14 194.14 115.25C195.42 115.37 196.85 114.05 197.01 112.61C197.16 111.19 195.91 109.87 194.39 109.86Z" fill="#41A3D4"/>
<path d="M204.319 108.55C202.839 108 201.609 107.36 200.849 105.71C199.859 103.56 198.409 101.62 197.089 99.6302C195.779 97.6402 195.849 96.2102 197.549 94.5302C198.909 93.1902 200.429 91.9902 201.729 90.5902C207.929 83.9202 212.019 76.0202 215.009 67.4902C215.539 65.9902 215.799 64.3702 217.229 63.3602C217.569 64.7902 218.529 65.5702 219.959 65.5402C221.059 65.5202 222.159 65.2402 223.259 65.0702C227.799 64.3702 232.339 63.6602 236.919 62.9502C236.999 66.8002 236.039 68.0202 232.979 68.1202C230.589 68.2002 228.199 68.1002 225.809 68.1902C223.929 68.2602 222.059 68.5002 219.969 68.6802C220.369 70.4802 220.699 71.9602 221.039 73.4802H231.069C230.609 74.3902 230.419 75.1602 229.939 75.6302C226.159 79.2802 222.339 82.8802 218.499 86.4802C217.569 87.3502 216.599 88.1802 215.579 88.9502C212.549 91.2402 211.659 94.1302 212.639 97.8002C213.789 102.11 214.129 106.55 214.409 110.82C213.259 111.89 212.439 111.08 211.619 110.84C209.179 110.11 206.759 109.32 204.329 108.55H204.319Z" fill="#FDDAF3"/>
<path d="M12.9398 92.2299C14.1698 93.1799 15.4505 94.06 16.6205 95.08C18.8905 97.07 21.3205 98.72 24.3405 99.36L24.3005 99.29C24.5605 99.78 24.8305 100.28 25.0905 100.77C25.7505 104.05 27.7505 106.52 30.4205 108.25C33.9505 110.54 37.7505 111.9 41.9005 109.37C42.6205 108.93 43.7205 109.12 44.6405 109.02C44.8505 109.44 45.1605 109.84 45.2705 110.29C45.9905 113.5 48.0505 115.45 51.0005 116.66C53.9505 117.87 56.8205 117.86 59.6405 116.26C60.0505 116.03 60.5104 115.89 60.9504 115.71C60.0204 118.97 57.5305 120.83 54.8105 122.43C53.7505 123.05 52.6205 123.54 51.5205 124.09C47.9005 123.57 44.2505 123.22 40.6705 122.51C33.2805 121.04 26.3105 118.3 19.4905 115.15C14.9805 113.07 10.9705 110.2 7.23047 106.94C7.53047 105.05 7.83048 103.15 8.12048 101.26V101.28C9.21048 99.87 10.0805 98.36 10.1605 96.52L10.1305 96.57C10.4605 95.92 10.8005 95.26 11.1305 94.61L11.1205 94.63C11.7305 93.83 12.3504 93.04 12.9604 92.24L12.9398 92.2299Z" fill="#FEDAF4"/>
<path d="M217.22 63.2803C215.46 61.2803 215.12 59.4303 216.76 56.9403C218.1 54.9103 217.35 52.3503 216.56 50.0803C216.15 48.9003 215.58 47.7703 215.08 46.6203C217.43 45.0303 219.61 43.0403 222.17 41.9103C227.64 39.4903 232.99 39.5503 237.54 44.1803C237.75 44.3903 238.08 44.5003 238.35 44.6603L238.33 44.6303C238.96 45.9803 239.59 47.3303 240.23 48.6903C240.12 51.4903 240.77 54.3603 239.43 57.3303C238.59 57.4903 237.69 57.6903 236.79 57.8203C233.19 58.3103 229.58 58.7203 225.99 59.2803C223.68 59.6403 221.34 59.9403 219.73 62.0803C219.23 62.7403 218.07 62.9003 217.22 63.2903V63.2803Z" fill="#FDDAF3"/>
<path d="M84.469 141.32C84.839 140.81 85.119 140.19 85.589 139.8C90.009 136.1 94.869 133.08 100.189 130.86C101.619 130.26 103.239 130.13 104.779 129.79C105.539 131.17 106.429 132.5 107.019 133.95C107.549 135.25 107.929 136.67 108.029 138.06C108.339 142.16 106.479 144.81 102.489 145.67C100.679 146.06 98.699 146.08 96.859 145.82C92.439 145.19 88.4098 143.34 84.4598 141.32L84.469 141.32Z" fill="#FBE9F7"/>
<path d="M193.11 141.33C194.25 140.51 195.43 139.75 196.51 138.87C199.2 136.66 201.39 134.03 202.58 130.71C203.11 129.24 204.13 128.91 205.48 128.96C205.67 129.04 205.869 129.12 206.069 129.19C206.519 129.4 206.979 129.61 207.429 129.81C209.309 130.58 211.199 131.34 213.209 132.16C212.679 135.62 211.719 138.59 210.009 141.29C208.699 143.37 206.819 144.78 204.519 145.66C201.259 146.9 198.259 146.42 195.619 144.17C194.669 143.36 193.94 142.28 193.11 141.33Z" fill="#FBD8F2"/>
<path d="M204.409 122.31C204.779 120 204.489 118.11 202.389 116.44C200.169 114.67 200.459 113.5 202.889 111.04C204.359 111.55 205.869 111.84 206.499 113.69C206.749 114.42 207.839 114.97 208.659 115.37C210.499 116.27 212.419 117.04 214.309 117.85C214.879 120.76 214.769 123.38 214.039 126.26C210.459 125.53 207.249 124.4 204.419 122.3L204.409 122.31Z" fill="#F6DAF1"/>
<path d="M198.99 124.72C198.37 124.66 197.65 124.78 197.14 124.52C195.29 123.57 195.18 121.5 196.83 120.29C197.82 119.57 199.12 119.74 199.7 120.82C200.06 121.5 200.15 122.33 200.37 123.08C199.91 123.62 199.45 124.17 199 124.72H198.99Z" fill="#F5F5F8"/>
<path d="M8.10974 101.25C7.80974 103.14 7.50972 105.04 7.21972 106.93C6.14972 106.52 5.97979 105.61 6.15979 104.68C6.41979 103.34 6.75023 101.99 8.11023 101.24L8.10974 101.25Z" fill="#3B2475"/>
<path d="M10.1405 96.5098C10.0605 98.3498 9.20048 99.8597 8.10048 101.27C7.81048 99.2697 8.42052 97.6498 10.1405 96.5098Z" fill="#3B2475"/>
<path d="M240.23 48.6801C239.6 47.3301 238.97 45.9801 238.33 44.6201C240.33 45.3301 240.5 46.9001 240.23 48.6801Z" fill="#261C6C"/>
<path d="M11.1094 94.6001C10.7794 95.2501 10.4394 95.9101 10.1094 96.5601C9.89938 95.6301 10.0594 94.8901 11.1094 94.6001Z" fill="#3B2475"/>
<path d="M207.429 129.81C206.969 129.6 206.519 129.39 206.069 129.19C206.529 129.4 206.979 129.61 207.429 129.81Z" fill="#41A3D4"/>
<path d="M70.3301 11.8899C73.6001 6.87989 78.2501 4.7499 84.1901 5.0999C87.4101 5.2899 90.1601 6.58989 92.3401 8.71989C95.4101 11.7299 97.3501 11.4699 100.7 8.86988C104.36 6.02988 108.39 5.2199 112.86 6.0699C118.46 7.1399 123.32 12.1199 124.19 17.6799C125.16 23.9099 122.41 29.8899 117.22 32.7899C113.08 35.0999 108.79 35.5999 104.34 33.7099C103.75 33.4599 103.19 33.1499 102.61 32.8999C100.04 31.7799 98.6901 32.3399 97.9401 34.8999C97.7201 35.6599 97.6002 36.4599 97.5402 37.2499C97.1102 42.8199 96.7102 48.3799 96.3002 53.9499C96.2202 55.0599 96.3101 56.2399 95.9701 57.2699C95.7001 58.0799 94.9902 58.8499 94.2802 59.3799C93.5201 59.9499 92.1101 59.3299 91.9701 58.4299C91.8201 57.4999 91.7601 56.5199 91.8401 55.5799C92.3001 50.1799 92.8502 44.7899 93.2902 39.3799C93.6802 34.5699 94.0201 31.8599 86.6501 33.5299C80.5401 34.9199 75.2601 33.6199 71.3401 28.3799C71.9501 28.0099 72.5702 27.6399 73.1802 27.2599C75.2402 29.0299 77.3401 30.6499 80.1501 31.1099C86.3201 32.1399 94.9601 27.9099 93.6501 17.6199C93.0201 12.6599 88.9002 8.51989 83.9302 7.99989C79.1102 7.49989 75.2201 9.1299 72.2501 12.9599C71.6101 12.5899 70.9701 12.2299 70.3301 11.8599V11.8899ZM98.2601 19.8299C98.0801 26.4099 103.27 31.8699 109.73 32.0199C116.02 32.1699 121.47 26.1299 121.58 20.5999C121.7 14.1999 116.78 8.74988 110.05 8.39988C103.96 8.08988 98.4401 13.5599 98.2601 19.8199V19.8299Z" fill="#EEBA6F"/>
<path d="M73.1689 27.2701C72.5589 27.6401 71.9392 28.01 71.3292 28.39C68.7292 26.31 68.2388 23.3001 68.0988 20.3101C67.9588 17.3501 68.2788 14.3501 70.3288 11.8901C70.9688 12.2601 71.6088 12.6201 72.2488 12.9901C70.6688 17.8701 70.4289 22.6701 73.1789 27.2801L73.1689 27.2701Z" fill="#F1E7ED"/>
<path d="M97.0297 64.6298C95.5897 66.4798 93.7896 67.0298 91.6096 66.1198C89.7296 65.3398 87.8696 64.5197 85.9996 63.7097C85.8696 62.5797 84.4696 61.3898 86.3596 60.2598C87.7096 61.0298 89.1596 61.8498 90.6096 62.6698C90.8396 62.8998 91.1196 62.9798 91.4396 62.9098C92.4096 63.8798 93.6297 63.6497 94.8097 63.6097C95.7397 63.5797 96.6097 63.6198 97.0397 64.6398L97.0297 64.6298Z" fill="#E9DFEA"/>
<path d="M165.829 64.07C165.629 64.49 165.429 64.92 165.099 65.63C163.149 65.38 161.759 64.14 160.409 62.86C157.009 59.66 154.059 56.16 152.949 51.46C156.489 47.98 160.389 49.83 162.339 53.35C163.329 55.13 164.069 57.06 164.709 59C165.249 60.64 165.47 62.3799 165.83 64.0799L165.829 64.07Z" fill="#F7F6FB"/>
<path d="M97.0297 64.6298C96.5997 63.6098 95.7297 63.5699 94.7997 63.5999C93.6297 63.6399 92.3997 63.8699 91.4297 62.8999C92.2097 62.8599 92.9896 62.7599 93.7596 62.7999C95.7196 62.9099 97.4297 62.4799 98.7997 60.9399C99.1597 60.5399 99.8297 60.4099 100.8 59.9399C100.8 61.0399 101.04 61.8499 100.75 62.4099C100.01 63.8699 98.8397 64.8599 97.0197 64.6299L97.0297 64.6298Z" fill="#732F83"/>
<path d="M104.749 101.32C99.6593 101.46 94.5592 101.63 89.4692 101.72C88.5492 101.74 87.6192 101.41 86.6992 101.25C86.7692 100.9 86.8393 100.55 86.9093 100.2L87.5493 98.3401C88.2893 96.1101 89.0193 93.8801 89.7593 91.6401C93.8793 91.3101 97.9993 90.9801 102.119 90.6601C102.409 91.3901 102.489 92.4401 103.019 92.7801C104.739 93.8801 106.569 94.8701 108.469 95.6301C110.039 96.2601 111.619 95.7501 112.919 94.6801C114.049 93.7601 113.689 91.5401 112.289 91.0901C111.399 90.8001 110.419 90.7801 109.469 90.7101C108.509 90.6401 107.529 90.7201 106.919 89.7501C111.659 89.6801 116.419 90.0201 120.959 89.2901C121.289 88.8301 121.609 88.6001 121.639 88.3301C122.039 85.1301 122.179 84.9101 124.879 84.9601C126.259 84.9901 127.769 84.5801 128.989 85.6701C127.769 85.8801 126.489 85.9501 125.329 86.3501C124.189 86.7401 123.929 88.6801 124.779 89.5801C126.149 91.0401 127.919 90.8101 129.619 90.5501C131.059 90.3301 131.669 89.2501 131.759 87.8601C139.189 87.1201 146.539 85.9001 153.859 84.4601C156.509 83.9401 159.159 83.4401 161.789 82.8701C162.379 82.7401 162.919 82.3601 163.479 82.1001C164.769 82.3701 166.049 82.6501 167.339 82.9201C169.369 83.9201 170.459 85.4701 170.339 87.8201C170.269 89.3301 169.829 90.5101 168.569 91.4801C167.479 92.3201 166.609 93.4501 165.649 94.4501C164.819 91.0101 164.719 90.9101 161.849 90.7101C161.369 90.6801 160.899 90.6301 160.419 90.6301C157.719 90.6101 157.319 91.0401 156.869 94.3801C149.379 95.6401 141.899 96.9101 134.409 98.1201C133.009 98.3501 131.559 98.3001 130.129 98.3801C126.479 96.9101 126.259 96.9901 124.909 100.27C124.349 99.9901 123.809 99.5401 123.219 99.4501C121.489 99.1601 115.699 100.23 113.599 101.11C111.949 100.65 110.279 100.25 108.669 99.7001C106.829 99.0701 105.669 99.8501 104.739 101.32H104.749ZM162.829 88.8701C163.479 88.7901 163.969 88.7901 164.419 88.6601C165.409 88.3701 166.059 87.7301 166.229 86.6801C166.399 85.6001 165.639 84.2801 164.549 84.1301C163.479 83.9901 162.309 83.9901 161.299 84.3101C160.709 84.5001 160.149 85.3801 159.949 86.0601C159.649 87.0701 160.259 87.9201 161.169 88.3901C161.719 88.6701 162.369 88.7501 162.819 88.8801L162.829 88.8701Z" fill="#96E6FA"/>
<path d="M44.6388 109.01C43.7188 109.11 42.6188 108.92 41.8988 109.36C37.7488 111.89 33.9588 110.53 30.4188 108.24C27.7488 106.51 25.7487 104.05 25.0887 100.77C25.2987 100.03 24.9888 99.5502 24.2988 99.2803L24.3387 99.3503C24.6387 97.3303 24.7088 95.2303 25.2988 93.2903C27.0188 87.6703 31.1988 84.8203 36.8088 84.0303C42.4688 83.2302 47.7688 87.2503 49.6688 91.2903C50.3988 92.8503 50.8288 94.5603 51.3988 96.2003C51.3988 97.2303 51.3788 98.2702 51.3788 99.3002C50.6388 101.18 49.8888 103.06 49.1488 104.94C47.6488 106.3 46.1488 107.66 44.6488 109.01H44.6388ZM35.9487 89.8203C37.0687 90.7503 38.2788 91.4903 39.1288 92.5103C41.5188 95.3903 40.8388 99.2403 37.6088 101.16C36.6888 101.71 35.5288 101.86 34.4688 102.19C33.8387 102.38 32.9288 101.89 32.6088 102.9C35.0288 104.89 35.7388 105.23 37.6588 105.27C39.4688 105.31 41.1488 104.89 42.6288 103.81C45.6288 101.61 46.7488 97.3403 45.2288 93.9103C43.7088 90.4803 40.5587 89.0502 35.9487 89.8102V89.8203Z" fill="#311F70"/>
<path d="M44.6388 109.01C46.1388 107.65 47.6392 106.29 49.1392 104.94C49.3992 106.42 50.0591 107.82 51.4391 108.34C52.7091 108.81 54.2391 108.97 55.5791 108.78C57.6191 108.51 58.7892 106.84 59.7792 105.21C61.8492 101.8 59.9092 98.4203 55.9192 98.2803C54.2992 98.2203 52.7491 98.3903 51.3691 99.3103C51.3691 98.2803 51.3892 97.2503 51.3892 96.2103C53.6992 95.4003 56.0592 95.1403 58.4292 95.8803C63.3492 97.4203 66.4391 102.77 65.3792 108.03C64.7691 111.05 63.5792 113.82 60.9292 115.69C60.4892 115.87 60.0291 116.01 59.6191 116.24C56.7991 117.84 53.9391 117.85 50.9791 116.64C48.0291 115.43 45.9691 113.48 45.2491 110.27C45.1491 109.82 44.8391 109.42 44.6191 109L44.6388 109.01Z" fill="#FD9BBC"/>
<path d="M86.9093 100.2C86.8393 100.55 86.7692 100.9 86.6992 101.25C86.4092 101.61 86.0694 101.93 85.8494 102.32C85.2094 103.5 84.3694 104.35 82.8994 104.06C81.3894 103.76 81.0794 102.54 80.8594 101.27C81.5894 98.9799 82.3094 96.6899 83.0394 94.3999C83.5394 92.9499 84.0094 91.4899 84.5594 90.0599C84.8895 89.1999 85.1793 88.1799 85.8193 87.6299C86.4293 87.0999 87.4894 86.8799 88.3394 86.9099C89.4094 86.9499 89.9194 87.9299 90.0094 88.8799C90.0894 89.7899 89.8594 90.7199 89.7694 91.6399C89.0294 93.8699 88.2994 96.0999 87.5594 98.3299C87.3494 98.9499 87.1294 99.5699 86.9194 100.19L86.9093 100.2Z" fill="#2E2373"/>
<path d="M176.6 91.7199C173.66 91.5599 172.06 89.7399 172.14 86.6599C172.22 83.5199 174.18 81.7899 177.44 81.9499C180.51 82.0999 182.15 84.1499 181.87 87.4899C181.64 90.2899 179.65 91.8899 176.6 91.7199Z" fill="#94E4F9"/>
<path d="M73.4987 92.5702C73.8287 91.8702 74.1187 91.1502 74.5087 90.4802C75.9287 88.0502 77.8887 88.0802 79.4887 90.5602C79.6587 90.8202 79.7187 91.1402 79.8287 91.4402C78.2487 94.6702 76.6687 97.9002 75.0787 101.13C74.2187 101.13 73.3587 101.13 72.4887 101.13C71.4287 99.8302 71.1588 98.4002 71.7888 96.8302C72.3588 95.4102 72.9187 93.9902 73.4887 92.5702H73.4987Z" fill="#352877"/>
<path d="M113.96 79.9899C112.54 79.9899 111.119 79.9998 109.699 79.9898C109.229 79.9898 108.719 79.9898 108.299 79.8298C107.189 79.3998 106.429 78.5998 106.289 77.3698C106.169 76.2998 107.389 74.6198 108.549 74.6498C111.239 74.7198 113.929 74.9698 116.589 75.3198C117.829 75.4798 118.529 76.6298 118.459 77.7498C118.379 78.8598 117.509 79.8498 116.339 80.0198C115.549 80.1398 114.749 80.1198 113.949 80.1598C113.949 80.1098 113.949 80.0498 113.949 79.9998L113.96 79.9899Z" fill="#EDE2F4"/>
<path d="M73.4998 92.5698C72.9298 93.9898 72.3699 95.4097 71.7999 96.8297C71.1699 98.4097 71.4398 99.8298 72.4998 101.13C72.3898 101.24 72.2899 101.43 72.1699 101.46C69.3599 101.96 66.3599 100.05 65.7699 97.3798C65.1799 94.7298 67.1199 92.0598 70.0299 91.6298C71.2699 91.4498 72.5798 91.3798 73.4898 92.5698H73.4998Z" fill="#8CD8F1"/>
<path d="M109.17 114C107.72 113.62 105.87 113.28 104.13 112.64C103.06 112.25 102.72 110.89 103.09 109.8C103.42 108.82 104.12 108.25 105.13 108.07C105.28 108.04 105.45 107.99 105.6 108.02C107.77 108.37 109.96 108.68 112.11 109.12C112.68 109.24 113.22 109.7 113.67 110.12C114.75 111.15 114.29 113.2 112.85 113.57C111.8 113.84 110.69 113.84 109.17 114Z" fill="#F5D8F2"/>
<path d="M106.929 89.7602C107.539 90.7302 108.519 90.6502 109.479 90.7202C110.429 90.7902 111.409 90.8102 112.299 91.1002C113.699 91.5502 114.059 93.7602 112.929 94.6902C111.619 95.7602 110.049 96.2702 108.479 95.6402C106.579 94.8802 104.749 93.9002 103.029 92.7902C102.499 92.4502 102.419 91.4002 102.129 90.6702C103.459 88.8902 105.009 88.3402 106.939 89.7702L106.929 89.7602Z" fill="#F7FCFD"/>
<path d="M75.0898 101.14C76.6698 97.9102 78.2598 94.6802 79.8398 91.4502C81.7198 91.7235 82.7866 92.7135 83.0399 94.4202C82.3199 96.7102 81.5899 99.0002 80.8599 101.28C78.9099 102.17 76.9698 102.92 75.0898 101.14Z" fill="#8CD8F1"/>
<path d="M104.749 101.32C105.679 99.8601 106.84 99.0701 108.68 99.7001C110.3 100.25 111.97 100.65 113.61 101.11C114.23 102.05 114.81 103.03 114.1 104.15C113.35 105.33 112.22 105.74 110.84 105.52C109.91 105.37 108.97 105.25 108.04 105.14C105.77 104.87 104.75 103.53 104.74 101.31L104.749 101.32Z" fill="#F6DAF3"/>
<path d="M97.1499 77.9799C97.6199 78.1999 98.3791 78.3 98.6891 78.73C99.5991 79.98 100.399 81.33 101.109 82.71C101.689 83.84 101.039 85.33 99.8291 85.83C99.2591 86.07 98.6292 86.24 98.0192 86.29C97.5792 86.33 97.0792 86.21 96.6692 86.02C94.4592 84.99 95.5091 82.66 94.7591 81.03C94.3391 80.11 94.9091 79.19 95.7091 78.58C96.0691 78.31 96.5592 78.22 97.1492 77.99L97.1499 77.9799Z" fill="#F4E5F6"/>
<path d="M156.891 94.3998C157.341 91.0598 157.741 90.6198 160.441 90.6498C160.921 90.6498 161.391 90.6998 161.871 90.7298C164.741 90.9298 164.831 91.0298 165.671 94.4698C164.971 95.0198 164.101 96.1498 163.581 96.0098C161.371 95.4098 158.851 96.0098 156.901 94.3998H156.891Z" fill="#F1F0F9"/>
<path d="M133.8 107.88C133.25 108.48 132.75 109.43 132.01 109.72C130.26 110.4 128.54 109.97 127.31 108.51C126.87 107.99 126.51 106.96 126.74 106.43C127.07 105.66 127.89 104.73 128.64 104.59C130.4 104.25 132.05 104.9 133.24 106.33C133.52 106.66 133.56 107.19 133.8 107.89L133.8 107.88Z" fill="#EBD5F1"/>
<path d="M131.779 87.8702C131.689 89.2702 131.069 90.3402 129.639 90.5602C127.949 90.8202 126.179 91.0402 124.799 89.5902C123.949 88.7002 124.209 86.7602 125.349 86.3602C126.509 85.9602 127.779 85.8902 129.009 85.6802C130.359 85.8602 130.959 87.0102 131.779 87.8702Z" fill="#F4EEFA"/>
<path d="M194.39 109.86C195.9 109.86 197.16 111.19 197.01 112.61C196.85 114.05 195.42 115.37 194.14 115.25C192.95 115.13 191.78 113.87 191.76 112.67C191.73 111.18 192.98 109.85 194.39 109.86Z" fill="#DFEDF6"/>
<path d="M124.93 100.29C126.29 97.0102 126.5 96.9301 130.15 98.4001C130.12 98.6901 130.13 98.9701 130.17 99.2501C130.19 99.9001 130.2 100.55 130.22 101.2C127.75 103.8 126.77 103.63 124.92 100.28L124.93 100.29Z" fill="#EDDDF4"/>
<path d="M167.349 82.9401C166.059 82.6702 164.78 82.3899 163.49 82.1199L163.44 82.0399C163.46 81.0999 163.469 80.1702 163.49 79.2302C164.15 78.8502 164.799 78.1802 165.479 78.1402C167.379 78.0202 168.419 79.2901 168.089 81.1801C167.979 81.7901 167.599 82.3502 167.349 82.9401Z" fill="#ECD8F2"/>
<path d="M163.49 79.23C163.47 80.17 163.46 81.0999 163.44 82.0399C162.49 81.0899 162.3 80.15 163.49 79.23Z" fill="#96E6FA"/>
<path d="M130.22 101.21C130.2 100.56 130.19 99.9098 130.17 99.2598C130.88 99.8898 130.98 100.54 130.22 101.21Z" fill="#96E6FA"/>
<path d="M24.2988 99.29C24.9888 99.56 25.2987 100.04 25.0887 100.78C24.8187 100.28 24.5588 99.79 24.2988 99.29Z" fill="#41A3D4"/>
<path d="M98.2601 19.8299C98.4301 13.5699 103.95 8.08983 110.05 8.40983C116.79 8.75983 121.7 14.1998 121.58 20.6098C121.48 26.1398 116.02 32.1798 109.73 32.0298C103.27 31.8698 98.0804 26.4198 98.2604 19.8398L98.2601 19.8299ZM109.78 27.3498C113.9 27.3898 117.23 24.1398 117.14 20.1598C117.05 16.3998 113.85 13.1798 110.08 13.0698C106.06 12.9598 102.77 16.2398 102.81 20.3198C102.85 24.2698 105.86 27.2998 109.77 27.3398L109.78 27.3498Z" fill="#7C3285"/>
<path d="M73.1689 27.2701C70.4189 22.6701 70.6595 17.87 72.2395 12.98C75.2095 9.15004 79.1095 7.52004 83.9195 8.02004C88.8895 8.54004 93.0095 12.68 93.6395 17.64C94.9595 27.93 86.3095 32.15 80.1395 31.13C77.3295 30.66 75.2195 29.04 73.1695 27.28L73.1689 27.2701ZM82.2895 12.54C78.4195 12.47 75.2795 15.43 75.1395 19.31C74.9795 23.44 78.0395 26.65 82.1595 26.66C86.0195 26.66 89.2395 23.68 89.4095 19.92C89.5895 16 86.3295 12.62 82.2895 12.54Z" fill="#773284"/>
<path d="M162.829 88.8701C162.379 88.7401 161.73 88.6601 161.18 88.3801C160.27 87.9101 159.66 87.06 159.96 86.05C160.16 85.37 160.72 84.49 161.31 84.3C162.31 83.98 163.49 83.98 164.56 84.12C165.65 84.2701 166.4 85.5901 166.24 86.6701C166.08 87.7201 165.42 88.37 164.43 88.65C163.98 88.78 163.49 88.78 162.84 88.86L162.829 88.8701Z" fill="#F6FDFF"/>
<path d="M35.9487 89.8203C40.5587 89.0503 43.7094 90.4799 45.2294 93.9199C46.7494 97.3499 45.6294 101.62 42.6294 103.82C41.1494 104.9 39.4694 105.32 37.6594 105.28C35.7494 105.24 35.0294 104.9 32.6094 102.91C32.9294 101.9 33.8494 102.39 34.4694 102.2C35.5194 101.87 36.6894 101.72 37.6094 101.17C40.8294 99.2499 41.5094 95.3998 39.1294 92.5198C38.2794 91.4898 37.0793 90.7598 35.9493 89.8298L35.9487 89.8203Z" fill="#F6F2F7"/>
<path d="M51.3706 99.3101C52.7606 98.3901 54.3007 98.2301 55.9207 98.2801C59.9107 98.4201 61.8506 101.8 59.7806 105.21C58.7906 106.84 57.6206 108.51 55.5806 108.78C54.2306 108.96 52.7106 108.81 51.4406 108.34C50.0506 107.83 49.4006 106.42 49.1406 104.94C49.8806 103.06 50.6306 101.18 51.3706 99.3101Z" fill="#FFDBE0"/>
</svg>
