<svg width="246" height="152" viewBox="0 0 246 152" fill="none" xmlns="http://www.w3.org/2000/svg">
<path d="M243.24 43.6903C245.67 47.0103 245.82 50.8203 245.4 54.6803C244.56 62.3303 241.62 69.1703 237.05 75.3303C233.69 79.8503 229.69 83.7503 225.46 87.4303C222.82 89.7303 220.18 92.0403 217.55 94.3403C218.19 98.9503 218.92 103.35 219.4 107.78C220.41 117.05 220.47 126.32 217.98 135.4C217.18 138.3 216.01 141.16 214.61 143.82C212.48 147.87 208.79 150.22 204.44 151.21C199.23 152.39 194.62 150.93 190.88 147.04C188.3 144.36 186.38 141.22 184.89 137.84C181.7 130.64 179.67 123.1 178.41 115.34C178.11 113.49 178.24 111.53 177.11 109.57C169.8 112.01 162.58 114.54 155.29 116.82C147.97 119.11 140.62 121.37 133.18 123.21C125.76 125.05 118.21 126.35 110.45 127.95C110.81 128.95 111.13 129.97 111.55 130.96C112.55 133.33 113.34 135.74 113.37 138.36C113.45 145.43 108.89 150.56 101.83 151.26C97.9396 151.65 94.1597 150.99 90.5197 149.65C80.1997 145.87 70.7297 140.63 62.8897 132.81C61.0397 130.96 59.0996 130.27 56.5796 130.11C43.8596 129.3 31.5997 126.39 19.9797 121.14C16.0697 119.37 12.3697 117.08 8.72965 114.79C6.85965 113.62 5.17969 112.05 3.63969 110.45C0.519688 107.2 -0.170288 106.14 2.78971 102.27C4.20971 101.69 4.04968 100.52 3.87968 99.3503L3.84965 99.4102C5.61965 98.3702 5.77973 96.2603 6.92973 94.8203C7.09973 94.6103 7.42969 94.5303 7.88969 94.2703C8.38969 94.6403 8.96963 95.0703 9.45963 95.4403C9.09963 97.6903 7.23971 99.2903 8.03971 101.52V101.5C6.59971 102.09 6.80964 103.28 6.96964 104.45C6.61964 106.32 7.78969 107.42 9.01969 108.47C12.4297 111.38 16.1797 113.77 20.2597 115.6C26.7897 118.53 33.4797 121.06 40.4897 122.61C41.5797 123.76 42.9197 123.65 44.2897 123.37C44.9297 123.46 45.5596 123.54 46.1996 123.63C47.3996 123.94 48.5897 124.43 49.8097 124.54C53.5997 124.87 57.4096 125.07 61.2096 125.28C62.8896 125.37 64.2696 125.94 65.3196 127.31C70.3796 133.95 77.4996 137.81 84.7096 141.54C85.9296 141.99 87.1497 142.44 88.3597 142.89C91.7597 145.14 95.6196 146 99.5796 146.1C105.76 146.25 108.52 142.97 107.65 136.89C107.62 133.72 106.21 131.27 103.71 129.4C103.33 128.55 102.96 127.69 102.58 126.84C101.48 124.36 102.36 122.76 105.05 122.54C106.95 122.38 108.91 122.62 110.78 122.3C116.43 121.35 122.09 120.4 127.67 119.12C143.23 115.57 158.35 110.57 173.33 105.09C174.79 104.56 176.41 104.41 177.97 104.23C179.79 104.02 181.15 104.95 181.75 106.56C182.48 108.48 183.14 110.49 183.37 112.51C184.06 118.56 185.4 124.46 187.53 130.14C189.02 134.12 190.23 138.3 193.19 141.58C193.7 142.2 194.15 142.87 194.72 143.42C198.15 146.75 201.98 147.29 206.1 145.04C208.12 143.94 209.65 142.34 210.67 140.27C211.93 137.72 213.11 135.15 212.97 132.11C211.35 131.44 209.88 130.84 208.41 130.24C207.96 129.48 207.32 129.17 206.45 129.38C206.19 129.29 205.93 129.2 205.68 129.1C204.33 128.46 202.98 127.83 201.64 127.18C200.46 126.61 199.63 125.79 199.71 124.36L199.76 124.31C200.46 123.39 201.17 122.47 201.92 121.49C202.86 121.86 203.72 122.19 204.57 122.52C207.45 124.21 210.41 125.72 213.93 126.44C214.65 123.54 215.23 120.81 214.21 117.87C212.72 117.2 211.3 116.49 209.82 115.91C208.16 115.26 206.71 114.6 205.9 112.75C205.42 111.66 204.22 110.84 202.74 111.11C201.99 109.86 202.03 109.39 202.94 109.22C203.82 109.05 204.71 108.99 205.6 108.89C207.71 109.61 209.82 110.35 211.95 111.03C212.62 111.24 213.34 111.29 214.35 111.46C214.22 106.42 213.74 101.84 212.54 97.3703C211.7 94.2403 212.55 91.7203 214.92 89.6303C215.88 88.7903 216.9 88.0103 217.83 87.1403C221.8 83.4403 225.75 79.7403 229.68 76.0003C230.2 75.5003 230.55 74.8103 231.17 73.9403C227.55 72.8503 224.2 74.0503 221.07 73.4203C220.73 71.8803 220.42 70.5303 220.11 69.1403C225.26 67.2403 230.67 68.9003 235.77 67.6403C236.27 66.6603 236.75 65.8403 237.11 64.9603C237.28 64.5503 237.2 64.0503 237.25 63.2903C236.39 63.2903 235.61 63.1903 234.87 63.3103C230.62 63.9803 226.37 64.6803 222.13 65.4303C220.69 65.6803 219.29 66.0103 218.04 64.9203C218.03 64.2703 218.01 63.6203 218 62.9803L218.07 62.9603C218.92 63.1703 219.61 63.0203 219.99 62.1303C220.94 61.0703 221.82 60.0603 223.44 59.8603C227.85 59.3003 232.24 58.5703 236.63 57.8703C237.68 57.7003 238.7 57.3803 239.64 57.1503C240.66 53.9003 240.19 50.8903 240 47.8903C240.3 46.4203 240.02 45.1503 238.94 44.0303C238.13 43.1803 237.43 42.2303 236.77 41.4203C237.54 40.0403 238.36 39.9703 239.27 40.6303C240.63 41.6303 241.95 42.6803 243.28 43.7003L243.24 43.6903Z" fill="#101464"/>
<path d="M32.6506 67.6401C35.2106 65.3601 38.4406 64.3501 41.5106 63.0801C48.3306 60.2601 55.5006 58.6501 62.7206 57.2201C67.7506 56.2201 72.7706 55.3701 77.9106 55.4701C78.8706 55.4901 79.8306 55.4701 80.7806 55.5201C83.8506 55.7101 83.8507 55.7301 86.9207 53.8301C88.2007 48.7401 88.6706 41.9301 87.9506 38.0701C82.3206 39.1001 76.8406 38.7301 71.9506 35.3601C68.4306 32.9301 65.9306 29.7101 64.5206 25.6301C61.8406 17.8201 64.4007 9.15014 71.0507 4.20014C74.9007 1.34014 79.2706 0.0801243 84.1106 0.430124C88.9606 0.770124 92.8907 3.09014 96.6807 6.16014C101.171 2.62014 106.091 0.660129 111.841 1.31013C115.781 1.76013 119.261 3.15014 122.221 5.79014C128.701 11.5601 130.701 20.4701 127.221 28.0201C125.051 32.7201 121.621 36.0901 116.761 38.0301C112.091 39.8901 107.391 39.3601 102.651 38.3001C102.391 38.8801 102.071 39.2901 102.031 39.7201C101.691 43.3801 101.421 47.0401 101.081 50.7001C100.931 52.3701 101.211 53.7801 102.411 55.1001C103.451 56.2601 104.161 57.7301 105.011 59.0601C104.061 58.6101 103.111 58.1501 102.131 57.6801C100.171 58.5901 98.2306 59.5301 95.9806 59.0301C96.6106 51.4101 97.1506 43.7701 97.9106 36.1601C98.3206 32.0901 99.3106 31.7001 103.231 33.3001C106.051 34.4501 108.921 35.3601 112.061 34.7301C119.091 33.3201 124.711 27.9901 124.221 19.3901C123.911 13.9701 121.501 9.92012 116.671 7.49012C111.401 4.85012 106.211 5.23012 101.251 8.46012C100.321 9.07012 99.4106 9.71013 98.4706 10.3101C96.9506 11.2801 95.4306 11.1601 94.0106 10.1201C93.1106 9.46013 92.3306 8.64014 91.4406 7.98014C84.3205 2.79014 75.1206 4.64014 70.3306 12.2001C66.9206 17.9801 67.2407 23.3201 71.3007 28.4301C74.9207 33.3501 79.8905 34.7201 85.6906 33.8501C87.1105 33.6401 88.5107 33.2401 89.9307 33.1701C92.2907 33.0501 93.2906 33.9201 93.2706 36.1901C93.2406 39.0601 92.9506 41.9301 92.7606 44.8001C92.4706 49.1001 92.1406 53.4101 91.9006 57.7101C91.8306 58.9001 92.8307 59.6601 94.1707 59.5201C94.7907 59.4601 95.3906 59.1701 96.0006 58.9801C95.7006 60.3801 94.7206 60.9501 93.4006 61.0301C92.1706 61.1001 91.4207 61.6201 91.3107 62.9001C89.0107 63.2401 88.2506 60.3201 85.8306 60.3101C85.6606 61.2501 85.4906 62.1201 85.3306 63.0001C83.8806 63.1601 82.6306 63.7201 81.7006 64.9001C81.0906 63.6701 80.4706 62.4401 79.8606 61.2101C79.0906 61.1401 78.4606 61.0501 77.8306 61.0301C74.0106 60.9301 70.2506 61.3101 66.4706 61.9801C58.7906 63.3601 51.1906 64.9401 43.9406 67.9001C40.8605 69.1601 37.7607 70.3501 34.6707 71.5801C35.3107 69.0101 35.1806 68.7501 32.6406 67.6301L32.6506 67.6401Z" fill="#732F83"/>
<path d="M91.3096 62.9203C91.4196 61.6403 92.1695 61.1203 93.3995 61.0503C94.7095 60.9803 95.6895 60.4003 95.9995 59.0003L95.9795 59.0203C98.2295 59.5203 100.18 58.5803 102.13 57.6703C103.11 58.1403 104.06 58.5903 105.01 59.0503C114.83 60.0603 124.659 61.0703 134.479 62.0603C136.059 62.2203 137.64 62.2803 139.02 62.3703C140.88 61.1603 141.15 59.3003 141.87 57.7603C143.44 54.3903 145.449 51.3603 148.089 48.7703C154.899 42.0803 162.71 43.1703 167.4 51.5503C168.86 54.1703 170.35 56.8703 170.14 60.0703C169.61 59.1903 169.15 58.2603 168.53 57.4503C168.19 57.0003 167.629 56.6403 167.099 56.4503C166.279 56.1603 165.659 56.6203 165.189 57.2903C164.899 57.2503 164.609 57.2203 164.319 57.2103C163.679 55.9603 163.13 54.6603 162.4 53.4703C159.81 49.2503 157.34 48.7703 152.77 51.4803C149.41 54.7403 146.85 58.5103 145.5 63.0403C145.46 63.1903 145.35 63.3203 145.29 63.4703C144.17 66.5303 142.079 68.1103 138.719 67.8003C133.659 67.3403 128.59 66.9403 123.53 66.4803C121.16 66.2603 118.729 66.2303 116.449 65.6203C113.929 64.9503 111.42 64.9603 108.88 64.7903C106.7 64.6503 105.04 65.3303 103.26 66.7203C97.9495 70.8603 89.3296 72.6603 82.6796 66.7903C82.3496 66.1603 82.0195 65.5303 81.6895 64.9103C82.6095 63.7403 83.8595 63.1803 85.3195 63.0203C85.9795 63.6403 86.5296 64.5703 87.3096 64.8103C89.7896 65.5803 92.3395 66.0903 94.8695 66.7003C97.7195 66.7003 99.1195 64.4903 100.689 62.7003C101.219 62.1003 101.079 60.8603 99.8595 60.6503C98.4695 61.5203 97.1695 62.3403 95.8695 63.1603C95.7095 63.2803 95.5596 63.2703 95.4196 63.1303L92.0695 63.1003C91.7795 63.1803 91.5296 63.1203 91.3096 62.9203Z" fill="#4F2679"/>
<path d="M165.189 57.3C165.659 56.63 166.279 56.17 167.099 56.46C167.639 56.65 168.19 57.01 168.53 57.46C169.15 58.27 169.61 59.2 170.14 60.08C170.62 61.58 171.089 63.08 171.609 64.72C172.579 65.17 173.559 65.67 174.579 66.09C177.979 67.48 181.39 68.83 184.8 70.2C185.69 70.56 186.559 70.97 187.469 71.27C190.029 72.12 190.849 71.9 192.319 69.69C193.379 68.1 194.279 66.4 195.209 64.73C199.119 57.75 203.309 50.97 208.959 45.21C212.339 41.76 216 38.73 220.54 36.89C225.3 34.96 230.139 34.31 234.99 36.3C238.56 37.77 241.87 39.7 243.25 43.7C241.92 42.67 240.6 41.62 239.24 40.63C238.34 39.97 237.52 40.04 236.74 41.42C237.4 42.22 238.1 43.18 238.91 44.03C239.99 45.15 240.269 46.43 239.969 47.89C239.699 47.51 239.4 47.15 239.15 46.75C235.79 41.3 231.02 39.32 224.92 40.98C221.17 42 217.889 43.92 215.109 46.66C213.139 48.71 211.059 50.66 209.219 52.82C205.599 57.09 202.879 61.96 200.209 66.86C198.989 69.09 197.759 71.34 196.319 73.43C193.879 76.96 190.84 77.92 186.78 76.65C185.57 76.27 184.379 75.79 183.199 75.33C178.309 73.42 173.44 71.5 168.55 69.6C166.82 68.93 166.429 68.43 166.349 66.39C166.279 64.64 166.22 62.89 166.16 61.14C166.24 60.06 166.36 58.96 165.37 58.16C165.28 57.88 165.229 57.59 165.199 57.29L165.189 57.3Z" fill="#261B6C"/>
<path d="M32.6506 67.6401C35.1906 68.7701 35.3202 69.0199 34.6802 71.5899C34.3202 71.8999 33.9501 72.2099 33.5901 72.5099C33.0001 72.8499 32.4201 73.1899 31.8301 73.5399L31.8102 73.5599C31.1802 73.8599 30.5502 74.1599 29.9102 74.4599C22.9102 79.3699 17.1101 85.4199 12.5901 92.6799C11.0701 95.6199 9.54014 98.5599 8.02014 101.5C7.23014 99.2799 9.09006 97.6699 9.44006 95.4199C8.95006 95.0599 8.37012 94.6299 7.87012 94.2499C7.41012 94.4999 7.08016 94.5899 6.91016 94.7999C5.76016 96.2399 5.60008 98.3499 3.83008 99.3899C3.89008 98.9199 3.86016 98.4099 4.04016 97.9899C8.20016 88.0999 14.3601 79.7699 23.2101 73.5599C24.1501 73.5499 24.8502 73.2399 24.9102 72.1599C25.2402 71.9499 25.5601 71.7399 25.8901 71.5399C26.8301 71.6799 27.5801 71.4799 27.8301 70.4199L27.7601 70.4699C29.3101 70.7599 30.3002 70.1199 30.8002 68.6499L30.7501 68.6799C31.6601 68.8199 32.3901 68.6199 32.6901 67.6299L32.6301 67.6499L32.6506 67.6401Z" fill="#362272"/>
<path d="M30.8096 68.6499C30.3196 70.1199 29.3295 70.7699 27.7695 70.4699C28.4595 69.3199 29.4896 68.7399 30.8096 68.6499Z" fill="#732F83"/>
<path d="M3.85951 99.3301C4.02951 100.5 4.18954 101.67 2.76954 102.25C2.71954 101.12 2.82951 100.06 3.85951 99.3301Z" fill="#362272"/>
<path d="M32.6997 67.6201C32.3997 68.6101 31.6698 68.8101 30.7598 68.6701C31.4098 68.3201 32.0497 67.9701 32.6997 67.6201Z" fill="#732F83"/>
<path d="M27.8403 70.4199C27.5803 71.4699 26.8404 71.6799 25.9004 71.5399C26.5504 71.1699 27.2003 70.7999 27.8403 70.4199Z" fill="#732F83"/>
<path d="M24.9188 72.1602C24.8588 73.2402 24.1588 73.5501 23.2188 73.5602C23.7887 73.0901 24.3588 72.6202 24.9188 72.1602Z" fill="#732F83"/>
<path d="M33.5891 72.5199C33.9491 72.2099 34.3192 71.8999 34.6792 71.5999C37.7692 70.3799 40.8691 69.1799 43.9491 67.9199C51.1991 64.9599 58.7991 63.3799 66.4791 61.9999C70.2591 61.3199 74.0191 60.9399 77.8391 61.0499C78.4691 61.0699 79.0891 61.1599 79.8691 61.2299C80.4891 62.4599 81.0991 63.6899 81.7091 64.9199C82.0391 65.5499 82.3691 66.1799 82.6991 66.7999C89.3491 72.6699 97.9792 70.8699 103.279 66.7299C105.059 65.3399 106.719 64.6599 108.899 64.7999C111.439 64.9599 113.949 64.9499 116.469 65.6299C118.739 66.2399 121.179 66.2699 123.549 66.4899C128.609 66.9499 133.679 67.3499 138.739 67.8099C142.099 68.1099 144.189 66.5399 145.309 63.4799C145.359 63.3299 145.469 63.1999 145.519 63.0499C146.869 58.5199 149.429 54.7499 152.789 51.4899C154.919 57.8399 159.859 63.4299 165.299 65.3799C165.299 63.8599 165.299 62.4699 165.299 61.0699C165.589 61.0699 165.879 61.0899 166.169 61.1499C166.229 62.8999 166.289 64.6499 166.359 66.3999C166.439 68.4299 166.839 68.9399 168.559 69.6099C173.449 71.4999 178.329 73.4299 183.209 75.3399C184.399 75.7999 185.579 76.2799 186.789 76.6599C190.849 77.9199 193.899 76.9599 196.329 73.4399C197.769 71.3499 198.999 69.0999 200.219 66.8699C202.889 61.9699 205.619 57.1099 209.229 52.8299C211.059 50.6699 213.149 48.7099 215.119 46.6699C215.149 46.8199 215.149 46.9899 215.219 47.1299C217.019 51.0799 218.399 54.9699 215.669 59.1799C214.799 60.5299 215.849 61.9099 217.979 62.9799C217.989 63.6299 218.009 64.2799 218.019 64.9199C217.429 64.8099 216.839 64.7099 216.279 64.6099C216.079 64.9599 215.869 65.2199 215.769 65.5099C215.489 66.2499 215.279 67.0199 215.009 67.7599C211.379 77.7399 206.399 86.8599 198.239 93.9399C197.879 94.2499 197.519 94.5599 197.199 94.9199C195.889 96.3699 195.759 97.5499 196.829 99.2299C198.609 102.03 200.449 104.79 202.329 107.66C203.309 108.03 204.45 108.46 205.6 108.89C204.71 109 203.81 109.06 202.94 109.22C202.03 109.39 202 109.86 202.74 111.11C200.08 113.93 200.109 114.59 202.979 117.01C203.449 117.4 203.899 117.81 204.559 118.4V122.52C203.709 122.19 202.849 121.86 201.909 121.49C201.159 122.47 200.449 123.39 199.749 124.31C199.799 123.37 200.059 122.36 199.819 121.5C199.649 120.89 198.829 120.13 198.219 120.05C197.599 119.97 196.639 120.47 196.259 121.02C195.099 122.7 196.139 124.43 198.279 124.54C198.749 124.56 199.229 124.43 199.699 124.36C199.619 125.79 200.449 126.61 201.629 127.18C202.969 127.83 204.319 128.46 205.669 129.1C204.909 129.21 204.149 129.32 203.259 129.45C201.539 134.24 198.409 137.87 194.099 140.5C193.719 140.73 193.489 141.21 193.189 141.57C190.219 138.3 189.019 134.11 187.529 130.13C185.399 124.45 184.059 118.56 183.369 112.5C183.139 110.48 182.479 108.47 181.749 106.55C181.139 104.95 179.779 104.01 177.969 104.22C176.409 104.4 174.789 104.54 173.329 105.08C158.359 110.56 143.229 115.55 127.669 119.11C122.089 120.38 116.429 121.34 110.779 122.29C108.909 122.6 106.959 122.37 105.049 122.53C102.359 122.75 101.479 124.36 102.579 126.83C102.959 127.68 103.329 128.54 103.709 129.39C97.2391 131.86 91.2292 135.13 85.9192 139.6C85.3692 140.06 85.1091 140.88 84.7091 141.53C77.4991 137.8 70.3891 133.94 65.3191 127.3C64.2691 125.92 62.8891 125.36 61.2091 125.27C57.4091 125.06 53.5992 124.86 49.8092 124.53C48.5892 124.42 47.3991 123.94 46.1991 123.62C47.1391 123.59 48.0892 123.49 49.0292 123.53C54.8492 123.83 58.5491 120.91 60.8391 115.81C62.9591 114.45 64.0691 112.33 64.8691 110.08C66.4491 105.64 65.5592 98.2699 58.6292 96.0999C56.1292 95.3199 53.6392 95.2499 51.2792 96.6399C51.1692 95.8599 51.1192 95.0599 50.9292 94.2999C49.5992 88.8899 43.9892 84.4699 38.5492 84.1199C31.7892 83.6899 22.6691 90.2199 24.9891 100.53C21.2791 98.3099 17.3791 96.3699 14.3591 93.1299C14.0191 92.7599 13.2091 92.8299 12.6191 92.6999C17.1491 85.4399 22.9491 79.3899 29.9391 74.4799C30.5691 74.1799 31.1991 73.8799 31.8391 73.5799L31.8591 73.5599C32.4491 73.2199 33.0291 72.8799 33.6191 72.5299L33.5891 72.5199ZM73.1191 93.6799C72.8691 93.1299 72.7591 92.2499 72.3591 92.0899C69.5591 90.9699 65.7891 93.1999 65.5891 95.9699C65.4191 98.4699 67.8391 101.22 70.4591 101.33C70.9691 101.35 71.4992 100.79 72.0192 100.5C72.9392 100.75 73.8592 100.99 74.7792 101.24C76.7292 103.09 78.7692 102.28 80.8092 101.43C80.8692 101.74 80.8692 102.08 81.0092 102.35C82.2292 104.66 84.3592 104.84 85.6392 102.73C85.9592 102.21 86.0891 101.57 86.3391 101C86.6991 100.16 87.0891 99.3299 87.4591 98.4999C87.5991 99.3899 87.7492 100.27 87.9292 101.42H104.709C104.719 102.78 105.249 103.9 106.459 104.54C108.649 105.69 110.999 105.62 113.299 104.99C114.119 104.77 114.419 103.9 114.199 103.07C114.039 102.48 113.689 101.94 113.419 101.38C116.689 99.2999 120.309 99.4299 124.089 99.6199C124.409 100.2 124.679 100.76 125.009 101.27C125.849 102.57 127.029 103.36 128.599 103.09C130.089 102.84 130.529 101.62 130.729 100.27C130.789 99.8199 131.009 99.3899 131.219 98.7599C133.199 98.3699 135.199 97.9199 137.219 97.5999C142.389 96.7699 147.569 95.9699 152.759 95.1999C154.319 94.9699 155.909 94.8999 157.489 94.7599C159.299 96.1999 161.579 95.5299 163.599 96.0499C164.039 96.1599 164.749 95.2499 165.339 94.7999C166.399 93.6699 167.189 92.3699 168.559 91.4099C170.779 89.8599 171.039 87.3199 169.589 85.0899C169.079 84.2999 168.379 83.6299 167.739 82.8699C167.879 82.2099 168.099 81.6099 168.139 80.9899C168.249 79.2799 167.679 78.3699 166.399 78.0299C164.979 77.6499 163.509 78.4299 163.069 79.9699C162.819 80.8399 162.879 81.7999 162.799 82.7299C159.549 83.4099 156.449 84.0999 153.339 84.7099C146.169 86.1099 138.949 87.1899 131.679 87.9099C131.029 87.2799 130.379 86.6599 129.729 86.0299C127.419 84.4199 124.989 85.0399 122.519 85.4199C122.109 86.6499 121.769 87.6799 121.319 89.0199C119.859 89.2799 118.339 89.7399 116.799 89.7899C113.479 89.8899 110.139 89.7899 106.819 89.7599C105.439 88.4499 104.159 88.8699 102.929 89.9999C102.049 90.2899 101.179 90.7199 100.269 90.8299C96.7192 91.2399 93.1491 91.5499 89.5891 91.8999C89.7091 91.4499 89.8691 90.9999 89.9491 90.5499C90.2891 88.5899 89.8492 87.5399 88.5192 87.0999C87.1192 86.6299 85.8192 87.2599 85.1392 88.8499C84.5892 90.1199 84.1492 91.4299 83.6592 92.7199C82.6492 91.2999 81.1392 91.8799 79.8092 91.7599C79.7792 91.6099 79.7491 91.4599 79.7191 91.3099C79.4391 89.7099 78.5091 88.8699 76.8591 88.9099C75.5791 88.9499 75.0292 89.8899 74.5392 90.8699C74.0692 91.8099 73.6092 92.7499 73.1492 93.6899L73.1191 93.6799ZM177.059 91.8399C179.859 91.7899 182.469 89.3399 182.389 86.8299C182.309 84.3099 179.649 82.0299 176.829 82.0599C174.049 82.0899 172.089 84.0199 171.999 86.8299C171.899 89.7699 174.039 91.8899 177.059 91.8399ZM112.379 74.5799C110.929 74.5799 109.809 74.4799 108.709 74.5999C107.249 74.7599 106.279 76.2399 106.489 77.7499C106.669 79.0199 107.909 80.3899 109.059 80.0399C111.029 79.4299 112.819 80.1499 114.689 80.1799C115.009 80.1799 115.329 80.1799 115.639 80.1599C117.129 80.0199 118.099 79.1799 118.279 77.8699C118.469 76.5399 117.769 75.4499 116.259 75.1099C114.879 74.7999 113.449 74.7099 112.359 74.5699L112.379 74.5799ZM109.279 114.09C110.769 113.93 111.729 113.93 112.629 113.69C113.619 113.43 114.189 112.62 114.249 111.59C114.299 110.55 113.789 109.6 112.819 109.38C110.369 108.85 107.889 108.44 105.389 108.17C104.179 108.04 103.229 108.95 102.979 110.01C102.729 111.06 103.189 112.28 104.369 112.71C106.119 113.35 107.959 113.72 109.289 114.07L109.279 114.09ZM97.3391 78.1599C95.5391 78.1199 94.4292 79.3299 94.6492 80.9299C94.7792 81.8699 95.0392 82.7999 95.1692 83.7399C95.3392 84.9899 95.9591 85.8399 97.2091 86.0599C98.4891 86.2799 99.8191 86.2999 100.699 85.1299C101.059 84.6599 101.469 83.8199 101.279 83.4299C100.459 81.7399 99.4691 80.1299 98.4391 78.5499C98.2391 78.2499 97.5791 78.2499 97.3191 78.1699L97.3391 78.1599ZM130.269 110.05C132.139 109.97 133.169 109.19 133.439 108.14C133.709 107.1 133.329 106.19 132.479 105.68C131.549 105.13 130.509 104.71 129.459 104.45C128.429 104.2 127.269 105.06 126.929 106.14C126.619 107.11 126.719 108.14 127.559 108.71C128.559 109.39 129.749 109.8 130.269 110.04V110.05ZM196.859 112.26C196.749 110.97 195.579 109.92 194.299 109.99C192.829 110.07 191.839 111.37 192.009 113C192.129 114.17 193.059 114.98 194.259 114.98C195.809 114.98 196.979 113.76 196.859 112.26Z" fill="#7869BA"/>
<path d="M205.579 108.86C204.439 108.43 203.289 108 202.309 107.63C200.429 104.76 198.589 101.99 196.809 99.2C195.739 97.52 195.869 96.34 197.179 94.89C197.499 94.54 197.859 94.22 198.219 93.91C206.379 86.83 211.359 77.71 214.989 67.73C215.259 66.99 215.479 66.22 215.749 65.48C215.859 65.19 216.059 64.93 216.259 64.58C216.819 64.68 217.409 64.79 217.999 64.89C219.249 65.97 220.649 65.65 222.089 65.39C226.329 64.65 230.579 63.95 234.829 63.27C235.579 63.15 236.359 63.25 237.209 63.25C237.159 64 237.239 64.51 237.069 64.92C236.709 65.79 236.229 66.62 235.729 67.6C230.629 68.86 225.219 67.2 220.069 69.1C220.379 70.49 220.679 71.84 221.029 73.38C224.159 74.01 227.509 72.81 231.129 73.9C230.509 74.78 230.159 75.47 229.639 75.96C225.709 79.7 221.759 83.4 217.789 87.1C216.859 87.97 215.839 88.74 214.879 89.59C212.509 91.68 211.659 94.19 212.499 97.33C213.699 101.8 214.179 106.38 214.309 111.42C213.299 111.25 212.579 111.2 211.909 110.99C209.779 110.31 207.679 109.57 205.559 108.85L205.579 108.86Z" fill="#FEC3EC"/>
<path d="M12.5896 92.6899C13.1796 92.8199 13.9896 92.7499 14.3296 93.1199C17.3496 96.3499 21.2496 98.29 24.9596 100.52C25.0196 100.8 25.0996 101.08 25.2096 101.35C24.9896 102.2 25.3197 102.82 26.0297 103.29C26.8497 104.45 27.5497 105.73 28.5097 106.76C31.9097 110.4 36.8897 111.43 41.5297 109.7C42.6897 109.27 43.9796 109.17 45.1996 108.93C45.5296 109.97 45.8296 111.02 46.2196 112.04C46.5496 112.89 46.8297 113.86 47.4197 114.5C50.2997 117.59 54.6697 118.42 58.6497 116.77C59.3697 116.47 60.0897 116.15 60.8097 115.83C58.5297 120.93 54.8296 123.85 48.9996 123.55C48.0596 123.5 47.1097 123.6 46.1697 123.64C45.5397 123.55 44.8997 123.47 44.2697 123.38C43.1697 122.31 41.8396 122.36 40.4696 122.62C33.4496 121.07 26.7696 118.53 20.2396 115.61C16.1596 113.78 12.4096 111.39 8.99965 108.48C7.76965 107.43 6.5996 106.33 6.9496 104.46C7.8496 103.68 8.07967 102.64 8.01967 101.51V101.53C9.53967 98.59 11.0696 95.65 12.5896 92.71V92.6899Z" fill="#FEC4ED"/>
<path d="M217.96 62.9602C215.83 61.8902 214.78 60.5102 215.65 59.1602C218.38 54.9502 216.99 51.0602 215.2 47.1102C215.14 46.9702 215.13 46.8002 215.1 46.6502C217.88 43.9102 221.16 41.9902 224.91 40.9702C231.01 39.3102 235.78 41.2902 239.14 46.7402C239.39 47.1402 239.68 47.5002 239.96 47.8802C240.15 50.8802 240.62 53.8802 239.6 57.1402C238.66 57.3702 237.64 57.6902 236.59 57.8602C232.2 58.5602 227.81 59.2802 223.4 59.8502C221.78 60.0602 220.9 61.0602 219.95 62.1202C219.31 62.4002 218.67 62.6702 218.03 62.9502L217.96 62.9702V62.9602Z" fill="#FDC4EC"/>
<path d="M193.17 141.55C193.47 141.19 193.7 140.71 194.08 140.48C198.39 137.85 201.51 134.22 203.24 129.43C204.13 129.3 204.89 129.19 205.65 129.08C205.91 129.17 206.17 129.27 206.42 129.36C206.86 130.13 207.53 130.38 208.38 130.22C209.85 130.82 211.32 131.43 212.94 132.09C213.07 135.13 211.89 137.7 210.64 140.25C209.62 142.32 208.1 143.92 206.07 145.02C201.95 147.27 198.13 146.73 194.69 143.4C194.12 142.85 193.67 142.17 193.16 141.56L193.17 141.55Z" fill="#FAC0EA"/>
<path d="M84.6797 141.51C85.0797 140.86 85.3396 140.05 85.8896 139.58C91.1996 135.12 97.2097 131.84 103.68 129.37C106.18 131.24 107.59 133.69 107.62 136.86C101.35 137.3 95.4796 139.26 89.7096 141.6C89.1696 141.82 88.7796 142.43 88.3296 142.86C87.1096 142.41 85.8897 141.96 84.6797 141.51Z" fill="#FCC3EC"/>
<path d="M88.3296 142.86C88.7896 142.43 89.1696 141.82 89.7096 141.6C95.4696 139.26 101.35 137.3 107.62 136.86C108.49 142.93 105.73 146.22 99.5502 146.07C95.5902 145.97 91.7296 145.11 88.3296 142.86Z" fill="#FEFCFE"/>
<path d="M204.541 122.49V118.37C203.871 117.78 203.421 117.37 202.961 116.98C200.091 114.56 200.061 113.9 202.721 111.08C204.201 110.81 205.401 111.63 205.881 112.72C206.691 114.57 208.151 115.23 209.801 115.88C211.281 116.46 212.701 117.17 214.191 117.84C215.211 120.78 214.631 123.5 213.911 126.41C210.381 125.69 207.431 124.18 204.551 122.49H204.541Z" fill="#F7C5EB"/>
<path d="M40.4688 122.58C41.8387 122.32 43.1688 122.28 44.2688 123.34C42.8988 123.62 41.5588 123.73 40.4688 122.58Z" fill="#7869BA"/>
<path d="M8.01942 101.48C8.07942 102.62 7.84936 103.65 6.94936 104.43C6.78936 103.26 6.58942 102.07 8.01942 101.48Z" fill="#362272"/>
<path d="M218.039 62.9301C218.679 62.6501 219.319 62.3801 219.959 62.1001C219.579 62.9901 218.889 63.1401 218.039 62.9301Z" fill="#7869BA"/>
<path d="M206.42 129.36C206.86 130.13 207.53 130.38 208.38 130.22C207.94 129.46 207.29 129.15 206.42 129.36Z" fill="#7869BA"/>
<path d="M70.3303 12.22C75.1203 4.66003 84.3203 2.81002 91.4403 8.00002C92.3403 8.66002 93.1204 9.48004 94.0104 10.14C95.4304 11.19 96.9503 11.3 98.4703 10.33C99.4103 9.73001 100.32 9.09004 101.25 8.48004C106.2 5.24004 111.4 4.86003 116.67 7.51003C121.5 9.93003 123.91 13.98 124.22 19.41C124.71 28 119.09 33.33 112.06 34.75C108.92 35.38 106.05 34.47 103.23 33.32C99.3003 31.72 98.3104 32.11 97.9104 36.18C97.1504 43.79 96.6103 51.42 95.9803 59.05C95.9803 59.05 96.0104 59.03 96.0004 59.02C95.3904 59.21 94.7904 59.5 94.1704 59.56C92.8304 59.7 91.8304 58.94 91.9004 57.75C92.1404 53.44 92.4704 49.14 92.7604 44.84C92.9504 41.97 93.2404 39.1 93.2704 36.23C93.3004 33.96 92.2904 33.09 89.9304 33.21C88.5104 33.28 87.1103 33.68 85.6903 33.89C79.8903 34.77 74.9204 33.39 71.3004 28.47C71.9204 28.13 72.5404 27.79 73.1604 27.45C74.0304 28.14 74.8604 28.89 75.7804 29.5C79.7804 32.15 85.5803 31.9 89.2203 29.09C93.4603 25.81 94.8304 19.87 93.3904 15.88C90.6004 8.14003 80.8503 5.41001 74.6104 10.8C73.7704 11.53 72.9904 12.32 72.1804 13.08L70.3203 12.25L70.3303 12.22ZM98.1304 20.25C97.9704 26.37 103.17 31.94 109.53 32.05C116.03 32.16 121.1 27.94 121.71 20.54C122.22 14.39 116.35 8.50002 110.08 8.43002C103.64 8.36002 98.3104 13.63 98.1404 20.25H98.1304Z" fill="#F0BC6F"/>
<path d="M73.1594 27.4302C72.5394 27.7702 71.9194 28.1102 71.2994 28.4502C67.2394 23.3402 66.9193 18.0002 70.3293 12.2202C70.9493 12.5002 71.5694 12.7702 72.1794 13.0502C71.8494 14.4002 71.4793 15.7402 71.2093 17.1102C70.4693 20.8002 71.6294 24.1602 73.1594 27.4302Z" fill="#F2E7EA"/>
<path d="M95.4302 63.1301C95.5702 63.2701 95.7201 63.2801 95.8801 63.1601C96.7501 64.0201 97.2701 64.8801 95.9801 65.8301C95.6001 66.1001 95.2501 66.4101 94.8801 66.7001C92.3501 66.0901 89.8001 65.5801 87.3201 64.8101C86.5501 64.5701 85.9901 63.6401 85.3301 63.0201C85.4901 62.1401 85.6501 61.2701 85.8301 60.3301C88.2501 60.3301 89.0096 63.2603 91.3096 62.9203C91.5296 63.1203 91.7795 63.1803 92.0695 63.1003C93.1795 64.0003 94.2996 63.9303 95.4196 63.1303L95.4302 63.1301Z" fill="#E7DCE8"/>
<path d="M165.28 61.0601V65.3701C159.83 63.4101 154.9 57.8303 152.77 51.4803C157.34 48.7703 159.81 49.2503 162.4 53.4703C163.13 54.6603 163.689 55.9603 164.319 57.2103C164.599 58.1903 164.88 59.1801 165.16 60.1701C165.14 60.4801 165.18 60.7701 165.28 61.0601Z" fill="#F8F2F9"/>
<path d="M94.8789 66.6901C95.2489 66.4001 95.5989 66.1001 95.9789 65.8201C97.2689 64.8801 96.7489 64.0101 95.8789 63.1501C97.1789 62.3301 98.4789 61.5101 99.8689 60.6401C101.089 60.8501 101.229 62.0801 100.699 62.6901C99.1289 64.4801 97.7289 66.6901 94.8789 66.6901Z" fill="#732F83"/>
<path d="M165.16 60.1701C164.88 59.1801 164.599 58.2003 164.319 57.2103C164.609 57.2203 164.899 57.2503 165.189 57.2903C165.209 57.5903 165.27 57.87 165.36 58.16C165.29 58.83 165.23 59.5 165.16 60.16L165.16 60.1701Z" fill="#7869BA"/>
<path d="M95.4302 63.1301C94.3102 63.9301 93.1901 64.0101 92.0801 63.1001C93.2001 63.1001 94.3202 63.1201 95.4302 63.1301Z" fill="#732F83"/>
<path d="M82.6796 66.7903C82.3496 66.1603 82.0195 65.5303 81.6895 64.9103C82.0195 65.5403 82.3496 66.1703 82.6796 66.7903Z" fill="#732F83"/>
<path d="M165.16 60.1701C165.23 59.5001 165.289 58.8299 165.359 58.1699C166.349 58.9699 166.229 60.0599 166.149 61.1499C165.859 61.0899 165.569 61.0599 165.279 61.0699C165.179 60.7799 165.139 60.4799 165.159 60.1799L165.16 60.1701Z" fill="#4F2679"/>
<path d="M33.5891 72.5199C32.9991 72.8599 32.4201 73.2 31.8301 73.55C32.4201 73.21 32.9991 72.8699 33.5891 72.5199Z" fill="#732F83"/>
<path d="M31.8102 73.5599C31.1802 73.8599 30.5502 74.1599 29.9102 74.4599C30.5402 74.1599 31.1702 73.8599 31.8102 73.5599Z" fill="#732F83"/>
<path d="M106.799 89.76C110.129 89.78 113.459 89.89 116.779 89.79C118.319 89.74 119.839 89.28 121.299 89.02C121.749 87.67 122.089 86.65 122.499 85.42C124.959 85.04 127.389 84.43 129.709 86.03C128.289 86.15 126.849 86.16 125.459 86.41C124.409 86.6 123.729 88.39 124.329 89.13C125.549 90.64 127.239 90.98 129.059 90.79C130.779 90.61 131.529 89.52 131.669 87.9C138.939 87.17 146.159 86.1 153.329 84.7C156.439 84.09 159.539 83.4 162.789 82.72C162.869 81.79 162.809 80.83 163.059 79.96C163.499 78.42 164.969 77.64 166.389 78.02C167.669 78.36 168.239 79.27 168.129 80.98C168.089 81.6 167.879 82.2 167.729 82.86C168.369 83.62 169.069 84.29 169.579 85.08C171.029 87.32 170.769 89.85 168.549 91.4C167.189 92.35 166.399 93.66 165.329 94.79C164.956 92.5633 163.799 91.23 161.859 90.79C160.949 90.58 160.049 90.35 159.229 90.14C157.563 91.4733 156.979 93.01 157.479 94.75C155.899 94.89 154.319 94.96 152.749 95.19C147.569 95.95 142.389 96.75 137.209 97.59C135.189 97.92 133.179 98.37 131.209 98.75C130.999 99.38 130.789 99.81 130.719 100.26C130.529 101.61 130.089 102.83 128.589 103.08C127.019 103.35 125.839 102.56 124.999 101.26C124.669 100.74 124.399 100.19 124.079 99.61C120.299 99.42 116.679 99.29 113.409 101.37C112.739 100.94 112.079 100.49 111.409 100.07C109.939 99.15 108.289 99.28 106.769 99.63C105.979 99.81 105.379 100.8 104.699 101.42H87.9193C87.7293 100.27 87.5892 99.38 87.4492 98.5C88.1492 96.3 88.8493 94.1 89.5593 91.9C93.1193 91.55 96.6893 91.24 100.239 90.83C101.149 90.72 102.009 90.29 102.899 90C102.969 91.06 103.029 92.12 103.089 93C104.809 93.78 106.179 94.56 107.649 95.02C108.809 95.39 110.099 95.55 111.309 95.48C112.649 95.4 113.409 94.21 113.379 92.76C113.349 91.59 112.679 90.99 111.139 90.86C110.349 90.79 109.519 90.96 108.769 90.77C108.069 90.6 107.449 90.1 106.789 89.75L106.799 89.76ZM166.089 86.75C165.999 85.11 164.999 84.22 163.459 84.06C161.609 83.86 160.369 84.57 160.099 85.97C159.839 87.35 161.379 88.84 163.189 88.85C163.799 88.85 164.539 88.72 164.979 88.35C165.539 87.88 165.839 87.12 166.089 86.74V86.75Z" fill="#CDACE0"/>
<path d="M45.2103 108.9C43.9803 109.15 42.6904 109.24 41.5404 109.67C36.9104 111.4 31.9304 110.37 28.5204 106.73C27.5604 105.7 26.8604 104.43 26.0404 103.26C25.7704 102.61 25.4903 101.97 25.2203 101.32C25.1103 101.05 25.0303 100.78 24.9703 100.49C22.6503 90.19 31.7704 83.65 38.5304 84.08C43.9704 84.43 49.5804 88.86 50.9104 94.26C51.1004 95.02 51.1504 95.82 51.2604 96.6C51.2104 97.82 51.1703 99.04 51.1203 100.26C50.4104 101.9 49.7104 103.53 49.0004 105.17C47.7404 106.4 46.4803 107.64 45.2103 108.87V108.9ZM31.9703 102.47C33.9603 104.73 35.8303 105.35 37.9903 105.34C39.9903 105.33 41.7403 104.67 43.2403 103.36C46.2303 100.75 46.8504 96.25 44.6704 92.93C43.4704 91.11 41.7604 90.0101 39.6504 89.5301C38.4504 89.2601 37.2003 88.8001 36.0803 90.1501C39.1703 91.8701 41.2703 94.19 40.2403 97.82C39.2103 101.45 36.1303 102.35 31.9703 102.47Z" fill="#331F70"/>
<path d="M45.209 108.9C46.469 107.67 47.729 106.43 48.999 105.2C49.239 106.71 49.969 108.07 51.359 108.55C52.649 109 54.279 109.27 55.509 108.85C56.909 108.37 58.159 107.18 59.229 106.07C61.039 104.19 60.9291 101.76 59.1691 99.63C57.5191 97.63 54.959 97.21 52.819 98.66C52.179 99.09 51.679 99.74 51.119 100.29C51.169 99.07 51.209 97.85 51.259 96.63C53.619 95.24 56.109 95.3101 58.609 96.09C65.539 98.26 66.429 105.63 64.849 110.07C64.049 112.32 62.929 114.44 60.819 115.8C60.099 116.11 59.3891 116.44 58.6591 116.74C54.6791 118.39 50.3191 117.56 47.4291 114.47C46.8291 113.83 46.559 112.86 46.229 112.01C45.839 111 45.549 109.94 45.209 108.9Z" fill="#FE9ABB"/>
<path d="M89.5588 91.8902C88.8588 94.0902 88.1587 96.2902 87.4487 98.4902C87.0787 99.3202 86.6887 100.15 86.3287 100.99C86.0787 101.56 85.9488 102.2 85.6288 102.72C84.3488 104.84 82.2188 104.66 80.9988 102.34C80.8588 102.07 80.8688 101.73 80.7988 101.42L80.8088 101.39C81.0488 100.73 81.2888 100.06 81.5288 99.4002C81.9288 98.1402 82.3187 96.8702 82.7188 95.6102C83.6687 94.8502 83.7388 93.8202 83.5988 92.7302V92.7002C84.0988 91.4102 84.5387 90.1002 85.0887 88.8302C85.7787 87.2402 87.0788 86.6102 88.4688 87.0802C89.8087 87.5302 90.2488 88.5802 89.8988 90.5302C89.8188 90.9902 89.6588 91.4302 89.5388 91.8802L89.5588 91.8902Z" fill="#2F1F70"/>
<path d="M177.059 91.8399C174.039 91.8999 171.899 89.7799 171.999 86.8299C172.089 84.0299 174.049 82.0899 176.829 82.0599C179.649 82.0299 182.309 84.3099 182.389 86.8299C182.469 89.3399 179.869 91.7899 177.059 91.8399Z" fill="#CAA9DF"/>
<path d="M112.379 74.5799C113.459 74.7199 114.889 74.8098 116.279 75.1198C117.789 75.4598 118.489 76.5499 118.299 77.8799C118.109 79.1898 117.149 80.0298 115.659 80.1698C115.339 80.1998 115.019 80.1898 114.709 80.1898C112.839 80.1599 111.039 79.4398 109.079 80.0498C107.929 80.4098 106.679 79.0299 106.509 77.7599C106.299 76.2499 107.269 74.7698 108.729 74.6098C109.829 74.4898 110.949 74.5899 112.399 74.5899L112.379 74.5799Z" fill="#EFCDEC"/>
<path d="M74.7897 101.24C73.8697 100.99 72.9497 100.75 72.0297 100.5L72.0096 100.46C71.9796 99.1501 71.9597 97.83 71.9297 96.5201C72.3297 95.5701 72.7191 94.6199 73.1191 93.6799C73.5791 92.7399 74.0396 91.8 74.5096 90.86C74.9996 89.87 75.5496 88.9301 76.8296 88.9001C78.4796 88.8501 79.4096 89.69 79.6896 91.3C79.7196 91.45 79.7497 91.6 79.7797 91.75C79.4697 92.39 79.1596 93.03 78.8596 93.68C78.1896 95.27 77.5296 96.8601 76.8596 98.4601C76.5096 99.0601 76.1597 99.6701 75.8097 100.27C75.4697 100.59 75.1297 100.92 74.7897 101.24Z" fill="#352172"/>
<path d="M109.28 114.09C107.95 113.73 106.11 113.37 104.36 112.73C103.18 112.3 102.72 111.08 102.97 110.03C103.22 108.97 104.17 108.05 105.38 108.19C107.87 108.46 110.36 108.87 112.81 109.4C113.78 109.61 114.3 110.57 114.24 111.61C114.19 112.64 113.62 113.44 112.62 113.71C111.72 113.95 110.76 113.94 109.27 114.11L109.28 114.09Z" fill="#F7BFEA"/>
<path d="M73.1191 93.6799C72.7191 94.6299 72.329 95.5803 71.939 96.5203C70.789 97.8603 70.5591 99.1703 72.0191 100.46L72.0391 100.5C71.5191 100.79 70.989 101.36 70.479 101.33C67.859 101.22 65.429 98.4703 65.609 95.9703C65.799 93.1903 69.579 90.9703 72.379 92.0903C72.779 92.2503 72.8891 93.1303 73.1391 93.6803L73.1191 93.6799Z" fill="#C7A7DD"/>
<path d="M74.7897 101.24C75.1297 100.92 75.4697 100.59 75.8097 100.27C76.7197 99.9901 76.9396 99.3101 76.8596 98.4601C77.5296 96.8701 78.1896 95.28 78.8596 93.68C79.1696 93.04 79.4797 92.4 79.7797 91.75C81.1097 91.87 82.619 91.2903 83.629 92.7103V92.7403C82.639 93.4903 82.589 94.5203 82.749 95.6203C82.349 96.8803 81.9591 98.1502 81.5591 99.4102C81.3191 100.07 81.079 100.74 80.839 101.4L80.829 101.43C78.789 102.28 76.7491 103.09 74.7991 101.24L74.7897 101.24Z" fill="#C3A4D9"/>
<path d="M106.799 89.76C107.459 90.11 108.08 90.61 108.78 90.78C109.53 90.96 110.36 90.8 111.15 90.87C112.69 91 113.36 91.6 113.39 92.77C113.42 94.22 112.66 95.41 111.32 95.49C110.11 95.56 108.82 95.39 107.66 95.03C106.19 94.56 104.82 93.79 103.1 93.01C103.05 92.13 102.98 91.07 102.91 90.01C104.14 88.89 105.42 88.47 106.8 89.78L106.799 89.76Z" fill="#FBF8FC"/>
<path d="M104.709 101.42C105.389 100.8 105.999 99.8102 106.779 99.6302C108.299 99.2802 109.949 99.1502 111.419 100.07C112.089 100.49 112.749 100.94 113.419 101.37C113.689 101.93 114.039 102.47 114.199 103.06C114.419 103.9 114.119 104.76 113.299 104.98C110.989 105.61 108.649 105.68 106.459 104.53C105.249 103.9 104.719 102.77 104.709 101.41L104.709 101.42Z" fill="#F8C3EC"/>
<path d="M97.3402 78.1598C97.5902 78.2398 98.2602 78.2398 98.4602 78.5398C99.4902 80.1098 100.48 81.7298 101.3 83.4198C101.49 83.8098 101.07 84.6499 100.72 85.1199C99.8302 86.2899 98.5102 86.2799 97.2302 86.0499C95.9802 85.8298 95.3601 84.9798 95.1901 83.7298C95.0601 82.7898 94.7902 81.8598 94.6702 80.9198C94.4502 79.3198 95.5602 78.1099 97.3602 78.1499L97.3402 78.1598Z" fill="#F1CEED"/>
<path d="M157.48 94.7399C156.98 92.9999 157.563 91.4632 159.23 90.1299C160.05 90.3299 160.95 90.5699 161.86 90.7799C163.793 91.2266 164.95 92.5599 165.33 94.7799C164.74 95.2199 164.03 96.1399 163.59 96.0299C161.57 95.5099 159.29 96.1799 157.48 94.7399Z" fill="#F8E6F6"/>
<path d="M131.66 87.9003C131.52 89.5203 130.77 90.6102 129.05 90.7902C127.22 90.9802 125.54 90.6403 124.32 89.1302C123.72 88.3903 124.4 86.6002 125.45 86.4102C126.84 86.1602 128.28 86.1403 129.7 86.0303C130.35 86.6603 131 87.2802 131.65 87.9102L131.66 87.9003Z" fill="#F9DDF4"/>
<path d="M130.271 110.05C129.751 109.8 128.561 109.4 127.561 108.72C126.721 108.15 126.621 107.12 126.931 106.15C127.271 105.07 128.431 104.21 129.461 104.46C130.511 104.72 131.561 105.13 132.481 105.69C133.331 106.2 133.711 107.1 133.441 108.15C133.171 109.21 132.141 109.98 130.271 110.06V110.05Z" fill="#F1BBE8"/>
<path d="M196.859 112.26C196.979 113.75 195.809 114.97 194.259 114.98C193.059 114.98 192.129 114.17 192.009 113C191.839 111.37 192.829 110.07 194.299 109.99C195.569 109.92 196.749 110.96 196.859 112.26Z" fill="#F4F1F8"/>
<path d="M199.669 124.34C199.199 124.4 198.719 124.54 198.249 124.52C196.109 124.41 195.069 122.68 196.229 121C196.609 120.45 197.569 119.95 198.189 120.03C198.799 120.11 199.619 120.86 199.789 121.48C200.029 122.34 199.769 123.35 199.719 124.29L199.669 124.34Z" fill="#EAE8F3"/>
<path d="M25.21 101.34C25.48 101.99 25.7601 102.63 26.0301 103.28C25.3201 102.82 24.99 102.2 25.21 101.34Z" fill="#7869BA"/>
<path d="M98.1288 20.2499C98.2988 13.6299 103.629 8.35989 110.069 8.42989C116.339 8.49989 122.209 14.3899 121.699 20.5399C121.089 27.9299 116.029 32.1599 109.519 32.0499C103.159 31.9399 97.9588 26.3699 98.1188 20.2499H98.1288ZM110.189 13.1399C106.099 13.0099 102.779 16.1999 102.769 20.2599C102.759 24.0899 105.879 27.3299 109.679 27.4199C113.549 27.5199 116.879 24.5399 117.109 20.7799C117.349 16.7399 114.199 13.2599 110.189 13.1399Z" fill="#7D3385"/>
<path d="M73.1594 27.4302C71.6294 24.1602 70.4693 20.8102 71.2093 17.1102C71.4793 15.7502 71.8494 14.4002 72.1794 13.0502C72.9894 12.2902 73.7695 11.5 74.6095 10.77C80.8395 5.37999 90.5996 8.11001 93.3896 15.85C94.8296 19.84 93.4595 25.78 89.2195 29.06C85.5795 31.88 79.7796 32.12 75.7796 29.47C74.8596 28.86 74.0296 28.11 73.1596 27.42L73.1594 27.4302ZM82.0895 26.74C85.9695 26.79 89.2195 23.78 89.3795 20.01C89.5396 16 86.4095 12.63 82.3595 12.46C78.4795 12.3 75.0095 15.76 75.0795 19.73C75.1495 23.56 78.2795 26.69 82.0895 26.74Z" fill="#783284"/>
<path d="M166.089 86.75C165.839 87.13 165.529 87.8999 164.979 88.3599C164.539 88.7199 163.799 88.8599 163.189 88.8599C161.379 88.8599 159.839 87.3599 160.099 85.9799C160.359 84.5799 161.599 83.8699 163.459 84.0699C164.999 84.2299 165.999 85.1199 166.089 86.7599L166.089 86.75Z" fill="#FDF8FD"/>
<path d="M31.9688 102.47C36.1287 102.36 39.1988 101.46 40.2388 97.8199C41.2688 94.1899 39.1687 91.87 36.0787 90.15C37.1987 88.8 38.4488 89.26 39.6488 89.53C41.7588 90.01 43.4688 91.1099 44.6688 92.9299C46.8488 96.2499 46.2288 100.75 43.2388 103.36C41.7388 104.67 39.9788 105.33 37.9888 105.34C35.8288 105.35 33.9588 104.73 31.9688 102.47Z" fill="#F2EEF4"/>
<path d="M51.1102 100.29C51.6702 99.7398 52.1703 99.0898 52.8103 98.6598C54.9503 97.2098 57.5203 97.6399 59.1603 99.6299C60.9203 101.76 61.0302 104.18 59.2202 106.07C58.1502 107.18 56.9002 108.38 55.5002 108.85C54.2802 109.27 52.6402 109 51.3502 108.55C49.9602 108.07 49.2302 106.7 48.9902 105.2C49.6902 103.56 50.4002 101.93 51.1102 100.29Z" fill="#FEDBE0"/>
<path d="M82.7296 95.6202C82.5796 94.5202 82.6296 93.4902 83.6096 92.7402C83.7496 93.8302 83.6796 94.8602 82.7296 95.6202Z" fill="#7869BA"/>
<path d="M80.8301 101.4C81.0701 100.74 81.3102 100.07 81.5502 99.4102C81.3102 100.08 81.0701 100.74 80.8301 101.4Z" fill="#7869BA"/>
<path d="M72.0098 100.47C70.5498 99.1802 70.7798 97.8603 71.9298 96.5303C71.9498 97.8403 71.9798 99.1602 72.0098 100.47Z" fill="#7869BA"/>
<path d="M79.7797 91.75C79.4697 92.39 79.1596 93.03 78.8596 93.68C79.1696 93.04 79.4797 92.4 79.7797 91.75Z" fill="#7869BA"/>
<path d="M76.8596 98.4601C76.9396 99.3201 76.7197 99.9901 75.8097 100.27C76.1597 99.6701 76.5096 99.0601 76.8596 98.4601Z" fill="#7869BA"/>
</svg>
