<svg width="245" height="153" viewBox="0 0 245 153" fill="none" xmlns="http://www.w3.org/2000/svg">
<path d="M242.109 43.63C245.329 47.81 245.189 52.59 244.309 57.36C243.079 64.05 240.409 70.17 236.309 75.66C233.029 80.04 229.179 83.86 225.099 87.47C222.349 89.9 219.579 92.3 216.699 94.82C217.299 98.97 217.999 103.05 218.449 107.16C219.379 115.62 219.639 124.09 217.919 132.48C217.279 135.59 216.339 138.68 215.189 141.64C213.429 146.18 210.149 149.3 205.539 151.06C200.599 152.94 196.119 152.12 191.949 149.11C189.299 147.2 187.499 144.55 185.889 141.76C182.899 136.59 181.029 130.98 179.629 125.22C178.649 121.19 177.449 117.19 177.259 113C177.219 112.08 176.819 111.18 176.509 109.97C170.809 111.64 165.519 113.78 160.089 115.48C154.449 117.24 148.819 119.08 143.129 120.69C137.599 122.26 132.029 123.72 126.419 124.99C120.849 126.25 115.219 127.21 109.479 128.33C110.299 130.44 111.069 132.19 111.679 134C114.849 143.51 109.459 152.59 97.2692 151.7C91.2592 151.26 85.8192 148.82 80.5092 146.17C73.4692 142.64 66.9191 138.35 61.4391 132.62C60.2491 131.38 58.9392 130.86 57.2392 130.72C49.5792 130.08 41.9592 129.2 34.5392 127.06C27.9192 125.15 21.4392 122.88 15.2792 119.76C11.1192 117.65 7.25913 115.11 3.82913 111.94C3.23913 111.4 2.66918 110.84 2.13918 110.24C-0.410816 107.32 -0.420811 106.89 1.76919 103.16C3.12919 102.56 3.00914 101.42 2.83914 100.26L2.81912 100.31C3.78912 99.92 3.95913 99.18 3.70913 98.27L3.67922 98.34C5.94922 96.25 7.15914 93.63 7.58914 90.61L7.55923 90.64C8.79923 90.9 10.0692 91.11 10.2992 92.76C9.95922 94.7 8.16915 96.28 8.72915 98.49V98.47C7.79915 98.85 7.61912 99.56 7.81912 100.45V100.42C5.46912 102.14 5.49921 104.58 5.91921 107.08C5.97921 107.42 6.55919 107.68 6.89919 107.98C12.9192 113.07 19.7991 116.62 27.1891 119.25C34.2391 121.76 41.3492 123.98 48.8892 124.44C49.7992 124.66 50.6892 125.01 51.6092 125.08C54.2892 125.28 56.9792 125.43 59.6792 125.49C61.7092 125.54 63.2391 126.21 64.5691 127.86C69.6391 134.14 76.2291 138.39 83.5691 141.57C85.0091 142.57 86.4492 143.56 88.2892 143.65C91.8992 145.75 95.7991 146.82 99.9691 146.47C103.039 146.21 105.839 145.28 106.689 141.73C107.919 140.15 107.509 138.4 107.059 136.73C106.399 134.26 105.439 131.91 103.579 130.06C102.909 129 102.139 127.98 101.579 126.86C100.799 125.31 101.749 123.61 103.489 123.24C103.949 123.14 104.439 123.1 104.909 123.08C113.549 122.68 121.949 120.76 130.309 118.76C144.279 115.42 157.869 110.83 171.399 106.07C172.889 105.55 174.429 105.11 175.979 104.84C178.639 104.38 180.319 105.22 181.259 107.67C181.879 109.28 182.199 111.05 182.429 112.77C183.349 119.59 185.039 126.22 187.399 132.67C188.709 136.24 190.249 139.73 192.899 142.58C198.029 148.25 204.819 148.14 208.959 142.18C210.869 139.43 212.029 136.31 212.209 132.72C209.309 131.28 206.359 130.17 203.389 129.12C202.319 128.5 201.259 127.85 200.169 127.27C199.079 126.68 198.629 125.78 198.729 124.58C199.059 123.57 199.399 122.55 199.729 121.54C200.949 121.95 202.159 122.36 203.379 122.77C206.249 124.81 209.509 125.9 213.029 127.02C214.209 124.19 213.959 121.55 213.699 118.57C211.869 117.73 210.019 116.86 208.149 116.03C207.129 115.58 205.969 115.31 205.569 114.1C204.719 111.47 202.829 111.32 200.589 111.92C200.649 110.31 201.329 109.29 203.069 109.21C203.529 109.19 203.979 109.09 204.439 109.03C207.229 110.14 210.009 111.27 213.149 111.9C213.259 111.09 213.459 110.47 213.389 109.88C213.029 106.55 213.109 103.06 212.079 99.95C210.299 94.58 212.369 91.28 216.379 88.03C220.829 84.43 224.829 80.28 228.999 76.33C229.509 75.84 230.279 75.29 229.639 74.16C226.619 73.4 223.459 74.34 220.209 74.22C220.069 73.29 219.979 72.54 219.819 71.8C219.669 71.1 219.439 70.41 219.189 69.52C224.379 67.98 229.549 69.18 234.489 68.43C235.569 67.1 236.509 65.86 236.379 63.97C235.249 63.97 234.149 63.84 233.089 63.99C229.769 64.46 226.469 65.03 223.169 65.57C221.129 65.9 219.089 66.48 217.049 65.57C216.909 64.61 217.099 63.76 217.869 63.1C220.856 61.16 224.453 59.89 228.659 59.29C230.379 59.04 232.089 58.77 233.809 58.53C235.489 58.29 237.159 58.08 238.639 57.88C240.099 54.27 239.379 50.98 238.999 47.71C239.079 46.82 238.929 46.06 237.929 45.75L237.949 45.79C237.679 44.95 237.559 44.01 237.109 43.28C236.339 42.06 236.809 41.29 237.709 40.52C239.199 41.59 240.669 42.64 242.139 43.69L242.109 43.63Z" fill="#0F1464"/>
<path d="M32.5804 67.6599C33.5004 67.0599 34.3705 66.3499 35.3405 65.8799C43.0105 62.1599 51.1304 59.8699 59.4504 58.1499C66.6804 56.6599 73.9005 55.6099 81.3105 56.1899C84.4705 56.4399 86.4405 54.6699 86.7805 51.5099C87.2205 47.3999 87.4205 43.2699 87.7505 38.8199C86.5305 38.8199 85.6305 38.7399 84.7505 38.8299C81.3605 39.2099 78.0505 39.0499 74.8405 37.7899C66.7805 34.6199 61.5205 25.7999 62.7505 17.5199C64.0905 8.47986 70.6405 2.03986 79.9905 0.809864C84.2605 0.249864 88.2205 1.55986 91.8605 3.77986C93.0805 4.52986 94.2205 5.40986 95.6305 6.38986C97.0605 5.56986 98.5305 4.66986 100.051 3.87986C107.701 -0.140136 116.591 1.23986 122.541 7.33986C128.321 13.2799 129.691 22.2799 125.901 29.5099C122.071 36.8299 114.02 40.8799 105.86 39.5999C104.61 39.3999 103.37 39.1699 102.13 38.9799C102 38.9599 101.851 39.1099 101.411 39.3299C101.261 40.3699 101.021 41.5899 100.921 42.8199C100.721 45.3699 100.74 47.9399 100.38 50.4599C100.09 52.5199 100.381 54.2099 101.801 55.7699C102.311 56.3299 102.53 57.1599 102.88 57.8599C101.96 58.4399 101.04 59.0299 100.19 59.5699C100.19 60.7999 100.57 62.0699 100.11 62.8499C99.2605 64.3099 98.0405 65.6599 96.1005 65.8099C96.0605 64.7599 95.7305 63.8899 94.4805 64.0199C91.2705 64.3599 88.6105 63.2999 86.3505 61.0499C86.1805 60.8799 85.7705 60.9599 85.3505 60.9099C84.0505 61.5699 84.6105 62.6999 84.7805 63.7299C82.9605 63.8899 81.7205 64.6699 81.6105 66.6699C79.5605 65.5699 80.2304 62.8499 78.4504 61.3999C76.1804 60.9799 73.8505 61.0099 71.5005 61.5899C69.5105 62.0799 67.5005 62.6199 65.4604 62.7999C58.4504 63.4199 51.7605 65.3299 45.1805 67.6599C41.9105 68.8199 38.7105 70.1999 35.4805 71.4799C35.9505 70.1999 38.0305 69.1899 36.0205 67.4499C34.9605 67.5099 33.7605 67.5799 32.5605 67.6499L32.5804 67.6599ZM70.1405 28.5899C73.7105 33.5599 78.7105 34.9399 84.5005 34.2199C85.9205 34.0399 87.3205 33.6199 88.7405 33.4599C91.2205 33.1799 92.3605 34.1299 92.3105 36.7099C92.2305 40.3799 91.8905 44.0499 91.6805 47.7099C91.4805 51.0599 91.2505 54.4099 91.1305 57.7599C91.0805 59.3099 91.7905 59.9999 93.0205 59.9499C94.2805 59.8999 94.9004 59.3199 95.0804 57.7999C95.4104 54.9399 95.7004 52.0799 95.9404 49.2199C96.3104 44.9199 96.6304 40.6199 96.9504 36.3199C97.0904 34.3699 97.8905 32.9899 100.041 32.4699C103.201 34.4499 106.64 35.3299 110.46 35.2099C116.93 34.9999 123.87 28.6299 123.61 20.6299C123.22 8.66986 110.67 2.65986 101.46 8.30986C100.51 8.88986 99.6205 9.58986 98.6505 10.1499C95.8205 11.7699 94.6405 11.6799 92.1405 9.70986C91.5105 9.21986 90.9405 8.63986 90.2805 8.19986C86.3505 5.56986 82.1605 4.67986 77.5205 6.13986C73.8105 7.30986 71.1205 9.59986 69.2205 12.9199C66.1905 18.3399 66.2705 23.5699 70.1305 28.5899H70.1405Z" fill="#702E82"/>
<path d="M242.109 43.6299C240.639 42.5799 239.169 41.5199 237.679 40.4599C236.779 41.2299 236.309 41.9999 237.079 43.2199C237.539 43.9499 237.649 44.8899 237.919 45.7299C237.449 45.3299 236.939 44.9599 236.499 44.5299C232.929 40.9299 228.689 40.0499 223.909 41.4899C220.079 42.6399 216.619 44.4099 214.059 47.5999C213.429 48.0699 212.729 48.4599 212.189 49.0099C208.679 52.5399 205.709 56.4999 203.169 60.7799C200.809 64.7699 198.609 68.8499 196.179 72.7999C193.349 77.4099 190.249 78.6199 185.219 76.8099C179.209 74.6499 173.309 72.1999 167.369 69.8399C166.079 69.3299 165.359 68.3599 165.309 66.8999C165.239 64.9899 165.079 63.0799 164.949 61.1699V57.6099C167.049 56.3499 167.769 58.3399 168.979 59.0799C169.389 60.6099 169.799 62.1399 170.199 63.6699C170.449 64.6399 170.939 65.4099 171.919 65.7999C176.809 67.7399 181.669 69.7699 186.599 71.6199C189.369 72.6599 190.289 72.2999 191.779 69.8499C193.429 67.1199 194.919 64.2999 196.509 61.5299C200.169 55.1299 204.399 49.1599 209.759 44.0399C213.269 40.6899 217.199 37.9899 221.869 36.5599C227.689 34.7799 233.239 35.2899 238.269 38.9699C239.939 40.1899 241.549 41.4999 242.129 43.6499L242.109 43.6299Z" fill="#261B6B"/>
<path d="M168.979 59.0602C167.769 58.3302 167.049 56.3402 164.949 57.5902C164.949 58.7202 164.949 59.9402 164.949 61.1502C164.719 61.1502 164.489 61.1402 164.259 61.1502C163.409 58.7702 162.839 56.2302 161.639 54.0402C159.409 49.9802 156.899 49.4402 152.549 51.5702C149.269 53.8202 147.619 57.2902 145.869 60.6602C145.139 62.0702 144.639 63.6002 143.919 65.0202C142.639 67.5502 140.589 68.7502 137.679 68.4502C131.189 67.8002 124.679 67.2202 118.189 66.5702C117.249 66.4802 116.329 66.0702 115.389 66.0002C111.919 65.7502 108.539 64.3802 104.709 65.1502C100.899 70.1202 95.3689 71.0702 89.3989 70.6302C86.2889 70.4002 83.4889 69.4002 81.6289 66.6602C81.7389 64.6602 82.979 63.8702 84.799 63.7202C86.309 64.5602 87.7489 65.5502 89.3389 66.1902C91.5989 67.1002 93.9389 67.3502 96.1089 65.7902C98.0589 65.6402 99.2689 64.2902 100.119 62.8302C100.579 62.0502 100.199 60.7702 100.199 59.5502C101.049 59.0102 101.969 58.4202 102.889 57.8402C102.889 57.8402 102.889 57.8802 102.879 57.8802C103.519 60.4402 103.779 60.8702 105.609 60.9002C109.219 60.9702 112.829 60.8702 116.449 60.8402C121.839 61.3702 127.239 61.9202 132.629 62.4202C134.669 62.6102 136.729 62.7002 138.879 62.8402C139.729 61.0102 140.429 59.4102 141.189 57.8502C142.879 54.3802 144.999 51.1902 147.889 48.5902C154.269 42.8602 160.909 43.6302 165.789 50.6802C167.529 53.1902 168.889 55.8702 168.969 59.0302L168.979 59.0602Z" fill="#502679"/>
<path d="M32.5792 67.66C33.7792 67.59 34.9793 67.52 36.0393 67.46C38.0493 69.21 35.9693 70.21 35.4993 71.49L35.4792 71.5C34.8492 71.82 34.2292 72.15 33.5992 72.47H33.5792C32.7492 72.45 32.0592 72.67 31.7292 73.53H31.7393C30.2893 73.41 29.3392 74.06 28.8192 75.39C27.9392 76.07 27.0693 76.76 26.1793 77.42C20.6193 81.55 15.9292 86.47 12.4392 92.49C11.1892 94.48 9.94922 96.47 8.69922 98.45C8.13922 96.24 9.92929 94.66 10.2693 92.72C10.0393 91.08 8.7693 90.86 7.5293 90.6C8.0293 88.16 9.79927 86.47 11.2493 84.65C15.8093 78.92 21.0092 73.88 27.5992 70.46C29.7692 70.4 31.6093 69.74 32.6293 67.63L32.5892 67.65L32.5792 67.66Z" fill="#402575"/>
<path d="M116.449 60.8702C112.839 60.9002 109.219 61.0002 105.609 60.9302C103.779 60.9002 103.519 60.4702 102.879 57.9102C104.299 59.3002 105.929 59.8102 107.979 59.8502C110.809 59.9002 113.619 60.5101 116.439 60.8801L116.449 60.8702Z" fill="#702E82"/>
<path d="M7.56042 90.5801C7.13042 93.6001 5.92039 96.2201 3.65039 98.3101C4.31039 95.4101 5.50042 92.7701 7.56042 90.5801Z" fill="#402575"/>
<path d="M32.6296 67.6401C31.6096 69.7501 29.7696 70.4101 27.5996 70.4701C28.9996 69.0301 30.6396 68.0301 32.6296 67.6401Z" fill="#702E82"/>
<path d="M12.4401 92.4999C15.9301 86.4799 20.6202 81.5599 26.1802 77.4299C27.0702 76.7699 27.9401 76.0799 28.8201 75.3999C30.1301 75.2999 31.1201 74.6999 31.7401 73.5299H31.7301C32.3501 73.1799 32.9601 72.8299 33.5801 72.4799H33.6001C34.2301 72.1599 34.8501 71.8299 35.4801 71.5099L35.5001 71.4999C38.7301 70.2199 41.9301 68.8399 45.2001 67.6799C51.7801 65.3399 58.4701 63.4399 65.4801 62.8199C67.5101 62.6399 69.5301 62.1099 71.5201 61.6099C73.8701 61.0299 76.2001 60.9999 78.4701 61.4199C80.2401 62.8699 79.5801 65.5999 81.6301 66.6899C83.5001 69.4299 86.2901 70.4299 89.4001 70.6599C95.3701 71.0899 100.9 70.1399 104.71 65.1799C108.54 64.4099 111.92 65.7799 115.39 66.0299C116.33 66.0999 117.25 66.4999 118.19 66.5999C124.69 67.2399 131.19 67.8199 137.68 68.4799C140.59 68.7699 142.63 67.5799 143.92 65.0499C144.64 63.6299 145.14 62.0999 145.87 60.6899C147.62 57.3199 149.27 53.8599 152.55 51.5999C152.77 52.8099 152.72 54.1699 153.26 55.2099C155.48 59.4499 158.72 62.8099 162.81 65.3199C163.02 65.4499 163.41 65.3099 163.88 65.2799C164 63.9299 164.13 62.5499 164.26 61.1799C164.49 61.1799 164.72 61.1799 164.95 61.1799C165.07 63.0899 165.24 64.9999 165.31 66.9099C165.36 68.3699 166.09 69.3399 167.37 69.8499C173.31 72.2099 179.21 74.6599 185.22 76.8199C190.25 78.6299 193.35 77.4199 196.18 72.8099C198.6 68.8599 200.8 64.7799 203.17 60.7899C205.71 56.5099 208.68 52.5599 212.19 49.0199C212.74 48.4699 213.44 48.0699 214.06 47.6099C216.62 50.0799 215.78 53.4999 216.61 56.3299C216.02 57.4299 215.3 58.3499 215.04 59.3799C214.83 60.2199 214.88 61.4299 215.36 62.0599C215.82 62.6699 216.98 62.7499 217.83 63.0599C217.06 63.7199 216.87 64.5699 217.01 65.5299C216.45 65.2899 215.9 65.0499 215.47 64.8699C213.82 68.8099 212.39 72.8599 210.46 76.6499C208.52 80.4799 206.38 84.2799 203.79 87.6899C201.21 91.0799 197.95 93.9599 194.81 97.2499C196.68 101.1 199.65 104.1 200.88 107.47C202.41 108.14 203.4 108.58 204.38 109.01C203.92 109.07 203.47 109.17 203.01 109.19C201.27 109.27 200.59 110.29 200.53 111.9C198.49 115.34 201.1 116.89 203.32 118.41V122.75C202.1 122.34 200.89 121.93 199.67 121.52C199.39 121.38 199.1 121.26 198.85 121.08C197.68 120.27 196.54 120.17 195.49 121.25C194.69 122.07 194.64 123.27 195.32 124.24C196.31 125.65 197.51 124.92 198.67 124.55C198.58 125.75 199.02 126.65 200.11 127.24C201.2 127.83 202.26 128.47 203.33 129.1C202.88 129.54 202.22 129.89 202.02 130.42C200.38 134.87 197.4 138.19 193.6 140.9C193.17 141.2 193.09 141.99 192.84 142.56C190.19 139.71 188.64 136.22 187.34 132.65C184.98 126.2 183.29 119.57 182.37 112.75C182.14 111.02 181.82 109.26 181.2 107.65C180.26 105.2 178.58 104.37 175.92 104.82C174.37 105.09 172.83 105.52 171.34 106.05C157.81 110.82 144.22 115.4 130.25 118.74C121.88 120.74 113.49 122.66 104.85 123.06C104.37 123.08 103.89 123.12 103.43 123.22C101.68 123.59 100.74 125.29 101.52 126.84C102.08 127.96 102.85 128.98 103.52 130.04C102.44 130.3 101.27 130.37 100.31 130.85C96.8902 132.56 93.4701 134.29 90.2001 136.27C87.7701 137.73 85.0901 138.97 83.5201 141.56C76.1801 138.39 69.5901 134.14 64.5201 127.85C63.1901 126.2 61.6601 125.53 59.6301 125.48C56.9401 125.42 54.2502 125.27 51.5602 125.07C50.6402 125 49.7501 124.65 48.8401 124.43C53.4601 123.8 57.0302 121.53 59.5502 117.61C60.3202 116.61 61.1401 115.64 61.8501 114.61C63.7101 111.91 64.5401 108.96 64.3501 105.62C64.0701 100.57 60.1602 96.0899 55.1702 95.7199C54.0202 95.6299 52.6302 96.1499 51.6802 96.8399C51.1302 97.2399 51.2402 98.5399 51.0602 99.4399C50.7102 100.02 50.3601 100.61 50.0001 101.19C50.0101 99.5999 50.0202 98.0099 50.0302 96.4199C50.0401 94.2699 49.3901 92.3099 48.1301 90.6099C44.2001 85.2799 39.4002 83.8299 33.4302 85.2199C27.7902 86.5299 24.1201 91.4999 23.8501 97.4999C23.8101 98.4499 23.8002 99.4099 23.7802 100.36C19.8102 98.5599 16.1002 96.3699 13.1602 93.0599C12.9602 92.8399 12.6602 92.6999 12.4102 92.5199L12.4401 92.4999ZM157.4 95.5999C158.04 96.4999 158.72 96.4699 159.43 95.6699C159.7 95.6399 159.98 95.6299 160.26 95.6199C161.68 96.9399 163.3 96.9599 164.41 95.5199C165.48 94.1299 166.68 92.9999 167.99 91.8599C170.36 89.7799 170.41 87.4899 168.33 84.8099C167.51 83.7399 167.06 82.8399 167.3 81.3999C167.57 79.8099 166.47 78.6599 165.03 78.4099C163.83 78.2099 162.56 78.9099 162.4 80.5099C162.24 82.1499 161.27 83.0099 160.32 84.0299C159.36 84.0399 158.38 83.9299 157.45 84.0899C150.87 85.2199 144.32 86.4899 137.72 87.5099C135.56 87.8399 133.31 87.5699 131.09 87.5799C128.44 85.2999 125.13 86.0399 121.96 85.2799C121.33 86.8099 120.81 88.0799 120.27 89.3899C117.27 89.8599 114.3 90.3199 111.33 90.7799C109.36 90.6399 107.38 90.8799 105.47 89.9099C104.17 89.2499 102.76 89.4999 101.75 90.7799C100.33 91.5499 98.8101 91.6999 97.2201 91.6799C94.5701 91.6499 91.9201 91.6999 89.2701 91.7099C89.2701 91.2399 89.2701 90.7699 89.2501 90.2999C89.2501 89.9899 89.2701 89.6599 89.2001 89.3599C88.9001 88.0699 88.0501 87.0699 87.0701 87.2399C86.2301 87.3899 85.1401 87.8399 84.7601 88.4999C83.8501 90.0999 83.2901 91.9099 82.5801 93.6299C81.7501 91.7399 81.5702 91.6099 80.0402 92.0799C79.6102 92.2099 79.2102 92.4499 78.7902 92.6399C78.7402 92.1799 78.7401 91.7099 78.6401 91.2499C78.3901 90.0299 77.5201 89.3899 76.3801 89.1999C75.1201 88.9999 74.3601 89.8299 73.8301 90.8299C73.1801 92.0399 72.5901 93.2799 71.9801 94.4999C71.8501 93.5999 72.1801 92.4499 71.1001 91.9899C69.3201 91.2399 66.1901 92.6699 65.4901 94.4199C64.3001 97.3999 65.9801 100.96 69.1401 102.04C69.9901 102.33 70.6502 101.88 71.1702 101.21L74.7501 101.27C76.1401 102.93 78.0601 102.04 79.7401 102.32C79.9601 102.73 80.1202 103.2 80.4202 103.54C82.0502 105.37 83.6801 105.26 84.8801 103.22C85.4201 102.3 85.8202 101.3 86.2802 100.34C86.5702 101.56 87.2401 102.29 88.6101 102.23C92.4101 102.05 96.2601 102.61 100.02 101.51C100.88 101.26 101.88 101.47 102.7 101.47C105.12 105.42 107.28 106.59 110.88 106.02C112.61 105.74 113.74 104.59 113.86 102.85C113.91 102.14 113.79 101.43 113.73 100.61C117.05 100.36 120.03 100.13 123.15 99.8899C123.34 100.19 123.68 100.55 123.83 100.97C124.39 102.53 125.46 103.31 127.1 103.18C128.58 103.06 129.33 102.11 129.61 100.72C129.96 98.9699 131.22 98.4799 132.79 98.4599C136.79 98.4099 140.64 97.3699 144.57 96.8299C148.8 96.2499 152.99 94.9399 157.35 95.5899H157.37L157.4 95.5999ZM181.41 87.2999C181.39 84.5799 178.94 82.1499 176.21 82.1299C173.65 82.1199 171 84.7699 170.99 87.3599C170.97 89.9899 174.02 92.7099 176.82 92.5699C179.1 92.4499 181.43 89.7699 181.41 87.2999ZM109.49 114.64C111.93 114.68 113.17 113.72 113.27 112.07C113.36 110.72 112.41 109.58 110.63 109.22C108.63 108.82 106.59 108.47 104.56 108.38C103.4 108.33 102.55 109.26 102.15 110.37C101.77 111.44 102.46 112.17 103.18 112.8C103.53 113.11 103.94 113.42 104.38 113.53C106.21 113.97 108.07 114.33 109.48 114.63L109.49 114.64ZM111.5 80.1599C111.5 80.1599 111.5 80.1299 111.5 80.1099C112.94 80.1099 114.4 80.2699 115.79 80.0299C116.39 79.9299 117.15 79.0699 117.3 78.4299C117.45 77.8199 117.04 76.9299 116.62 76.3699C116.28 75.9199 115.56 75.5599 114.98 75.5199C112.59 75.3599 110.2 75.2599 107.81 75.2799C106.44 75.2799 105.66 76.1399 105.61 77.3299C105.55 78.7599 106.36 79.9799 107.68 80.1199C108.94 80.2599 110.23 80.1499 111.5 80.1499V80.1599ZM100.7 84.2699C99.8801 82.5599 99.2001 80.9899 98.3901 79.4899C97.9101 78.5899 97.0201 78.1999 95.9901 78.4099C94.9701 78.6099 94.1701 79.2899 94.1201 80.2799C94.0401 81.6699 94.1201 83.1199 94.4501 84.4799C94.9801 86.6999 96.8602 87.4699 98.8102 86.2799C99.5602 85.8199 100.07 84.9799 100.71 84.2799L100.7 84.2699ZM128.71 105.11C127.5 105.11 126.53 105.56 126.02 106.7C125.54 107.79 126.16 109 127.55 109.82C128.87 110.6 130.18 110.89 131.53 109.86C132.43 109.17 132.78 107.94 132.3 106.89C131.58 105.35 130.22 105.08 128.72 105.1L128.71 105.11ZM193.64 110.25C192.19 110.35 190.98 111.68 191.06 113.07C191.14 114.43 192.18 115.54 193.41 115.57C194.81 115.61 195.97 114.31 195.93 112.75C195.9 111.36 194.81 110.17 193.64 110.25Z" fill="#D879AD"/>
<path d="M204.41 108.99C203.42 108.56 202.44 108.12 200.91 107.45C199.68 104.08 196.7 101.09 194.84 97.2302C197.98 93.9402 201.23 91.0602 203.82 87.6702C206.41 84.2702 208.55 80.4602 210.49 76.6302C212.42 72.8302 213.85 68.7802 215.5 64.8502C215.92 65.0302 216.48 65.2702 217.04 65.5102C219.08 66.4102 221.12 65.8302 223.16 65.5102C226.47 64.9802 229.77 64.4002 233.08 63.9302C234.14 63.7802 235.24 63.9102 236.37 63.9102C236.5 65.8002 235.56 67.0402 234.48 68.3702C229.54 69.1202 224.37 67.9202 219.18 69.4602C219.43 70.3502 219.66 71.0402 219.81 71.7402C219.97 72.4802 220.05 73.2302 220.2 74.1602C223.45 74.2802 226.61 73.3502 229.63 74.1002C230.26 75.2302 229.5 75.7802 228.99 76.2702C224.83 80.2202 220.82 84.3702 216.37 87.9702C212.36 91.2202 210.29 94.5302 212.07 99.8902C213.1 103 213.02 106.49 213.38 109.82C213.45 110.41 213.24 111.04 213.14 111.84C210 111.21 207.22 110.08 204.43 108.97L204.41 108.99Z" fill="#FECAE9"/>
<path d="M12.4402 92.5C12.6902 92.68 12.9902 92.81 13.1902 93.04C16.1302 96.35 19.8402 98.54 23.8202 100.34C24.1602 101.22 24.4802 102.12 24.8402 102.99C26.2402 106.38 28.7303 108.72 32.0603 110.12C35.2703 111.47 38.4903 111.56 41.6203 109.77C41.8703 109.63 42.2403 109.68 42.5503 109.64C43.7503 110 44.8502 110.22 45.1902 111.86C45.9802 115.62 48.8102 117.26 52.3502 117.56C54.1802 117.71 56.0603 117.17 57.9303 117.06C58.4703 117.03 59.0302 117.41 59.5802 117.6C57.0602 121.52 53.4903 123.79 48.8703 124.42C41.3303 123.97 34.2203 121.74 27.1703 119.23C19.7803 116.6 12.9003 113.05 6.88027 107.96C6.31027 106.62 6.41026 105.29 6.87026 103.93C7.26026 102.78 7.50032 101.58 7.81032 100.4L7.80031 100.43C8.10031 99.77 8.41023 99.11 8.71023 98.45V98.47C9.96023 96.48 11.2002 94.49 12.4502 92.51L12.4402 92.5Z" fill="#FEC9E9"/>
<path d="M217.84 63.0401C216.99 62.7301 215.83 62.6501 215.37 62.0401C214.89 61.4101 214.84 60.2101 215.05 59.3601C215.3 58.3301 216.02 57.4201 216.62 56.3101C215.79 53.4801 216.62 50.0601 214.07 47.5901C216.64 44.4001 220.09 42.6301 223.92 41.4801C228.7 40.0401 232.93 40.9201 236.51 44.5201C236.94 44.9601 237.45 45.3201 237.93 45.7201L237.91 45.6801C238.27 46.3301 238.62 46.9801 238.98 47.6401C239.37 50.9201 240.08 54.2001 238.62 57.8101C237.14 58.0101 235.46 58.2201 233.79 58.4601C232.07 58.7001 230.36 58.9701 228.64 59.2201C224.434 59.8201 220.837 61.0901 217.85 63.0301L217.84 63.0401Z" fill="#FECAE9"/>
<path d="M192.879 142.55C193.119 141.98 193.209 141.2 193.639 140.89C197.449 138.18 200.419 134.86 202.059 130.41C202.259 129.88 202.919 129.52 203.369 129.09C206.339 130.14 209.289 131.25 212.189 132.69C212.009 136.28 210.849 139.4 208.939 142.15C204.799 148.12 198.009 148.22 192.879 142.55Z" fill="#FBC7E7"/>
<path d="M83.5491 141.55C85.1191 138.96 87.799 137.73 90.229 136.26C93.499 134.29 96.929 132.56 100.339 130.84C101.299 130.36 102.479 130.29 103.549 130.03C105.409 131.89 106.369 134.23 107.029 136.7C107.479 138.38 107.889 140.12 106.659 141.7C106.459 140.49 106.249 139.29 106.079 138.25C105.469 138.02 105.169 137.81 104.889 137.82C99.439 137.97 94.289 139.42 89.379 141.69C88.829 141.95 88.629 142.96 88.259 143.62C86.419 143.52 84.9791 142.53 83.5391 141.54L83.5491 141.55Z" fill="#FDC9E8"/>
<path d="M203.359 122.73V118.39C201.139 116.87 198.529 115.31 200.569 111.88C202.809 111.28 204.699 111.43 205.549 114.06C205.939 115.28 207.109 115.54 208.129 115.99C209.999 116.82 211.859 117.69 213.679 118.53C213.939 121.51 214.189 124.16 213.009 126.98C209.489 125.86 206.229 124.77 203.359 122.73Z" fill="#F5C9E6"/>
<path d="M88.2695 143.64C88.6295 142.98 88.8395 141.96 89.3895 141.71C94.2995 139.44 99.4495 137.99 104.9 137.84C105.19 137.84 105.479 138.04 106.089 138.27C106.259 139.31 106.47 140.51 106.67 141.72C105.82 145.27 103.019 146.2 99.9495 146.46C95.7895 146.81 91.8795 145.75 88.2695 143.64Z" fill="#FBF9FB"/>
<path d="M198.71 124.54C197.55 124.9 196.35 125.64 195.36 124.23C194.68 123.26 194.73 122.06 195.53 121.24C196.58 120.16 197.72 120.26 198.89 121.07C199.14 121.25 199.44 121.36 199.71 121.51C199.38 122.52 199.04 123.54 198.71 124.55V124.54Z" fill="#F5EBF2"/>
<path d="M7.81039 100.4C7.50039 101.58 7.26033 102.77 6.87033 103.93C6.41033 105.3 6.31034 106.62 6.88034 107.96C6.54034 107.66 5.96036 107.41 5.90036 107.06C5.48036 104.56 5.45039 102.12 7.81039 100.4Z" fill="#402575"/>
<path d="M238.97 47.6499C238.61 46.9999 238.26 46.3499 237.9 45.6899C238.89 45.9899 239.05 46.7599 238.97 47.6499Z" fill="#261B6B"/>
<path d="M8.71042 98.4502C8.41042 99.1102 8.10051 99.7702 7.80051 100.43C7.60051 99.5402 7.79042 98.8202 8.71042 98.4502Z" fill="#402575"/>
<path d="M69.2305 12.93C71.1305 9.60998 73.8205 7.31998 77.5305 6.14998C82.1605 4.68998 86.3505 5.57998 90.2905 8.20998C90.9505 8.64998 91.5205 9.22998 92.1505 9.71998C94.6505 11.69 95.8305 11.78 98.6605 10.16C99.6305 9.59998 100.51 8.90998 101.47 8.31998C110.68 2.67998 123.23 8.68998 123.62 20.64C123.88 28.64 116.94 35.01 110.47 35.22C106.65 35.34 103.211 34.46 100.051 32.48C97.9105 33 97.1104 34.38 96.9604 36.33C96.6404 40.63 96.3104 44.93 95.9504 49.23C95.7104 52.09 95.4205 54.96 95.0905 57.81C94.9205 59.33 94.2905 59.91 93.0305 59.96C91.8105 60.01 91.0905 59.31 91.1405 57.77C91.2505 54.42 91.4904 51.07 91.6904 47.72C91.9104 44.05 92.2404 40.39 92.3204 36.72C92.3804 34.14 91.2305 33.19 88.7505 33.47C87.3305 33.63 85.9305 34.05 84.5105 34.23C78.7205 34.95 73.7205 33.57 70.1405 28.6C70.8305 28.25 71.5205 27.9 72.2205 27.55C73.0705 28.27 73.8605 29.08 74.7905 29.68C77.7205 31.55 80.7604 32.16 84.3304 31.42C90.0304 30.22 94.4405 23.43 92.7205 16.92C91.1805 11.09 83.8105 6.51998 77.5905 8.98998C74.9505 10.04 72.8604 11.54 71.3304 13.88C70.6404 13.57 69.9405 13.25 69.2505 12.94L69.2305 12.93ZM108.94 32.32C114.58 32.98 120.961 27.2 120.891 20.59C120.821 13.92 114.46 8.87998 109.22 8.98998C103.13 9.10998 97.2905 13.65 97.3105 20.82C97.3305 27.72 103.38 32.77 108.95 32.33L108.94 32.32Z" fill="#EFBA6F"/>
<path d="M72.2199 27.5402C71.5299 27.8902 70.8299 28.2402 70.1399 28.5902C66.2799 23.5802 66.2099 18.3402 69.2299 12.9302C69.9199 13.2402 70.62 13.5502 71.31 13.8702C71.1 14.7902 70.97 15.7402 70.68 16.6302C69.73 19.4702 70.01 22.2102 71.16 24.9202C71.53 25.7902 71.8699 26.6702 72.2199 27.5402Z" fill="#F2E8ED"/>
<path d="M96.1094 65.8202C93.9394 67.3702 91.5994 67.1302 89.3394 66.2202C87.7494 65.5802 86.3095 64.5802 84.7995 63.7502C84.6295 62.7202 84.0694 61.5902 85.3694 60.9302C85.7894 60.9802 86.1994 60.9002 86.3694 61.0702C88.6294 63.3202 91.2894 64.3802 94.4994 64.0402C95.7494 63.9102 96.0794 64.7802 96.1194 65.8302L96.1094 65.8202Z" fill="#E9E0EA"/>
<path d="M164.259 61.16C164.129 62.54 164.009 63.91 163.879 65.26C163.409 65.29 163.019 65.43 162.809 65.3C158.719 62.79 155.479 59.43 153.259 55.19C152.709 54.15 152.769 52.79 152.549 51.58C156.899 49.45 159.409 49.99 161.639 54.05C162.839 56.24 163.409 58.78 164.259 61.16Z" fill="#FBF5FA"/>
<path d="M31.7501 73.53C31.1301 74.7 30.1401 75.3 28.8301 75.4C29.3501 74.07 30.3101 73.41 31.7501 73.53Z" fill="#702E82"/>
<path d="M33.5902 72.49C32.9702 72.84 32.3602 73.19 31.7402 73.54C32.0702 72.69 32.7602 72.47 33.5902 72.49Z" fill="#702E82"/>
<path d="M111.34 90.76C114.31 90.3 117.28 89.83 120.28 89.37C120.81 88.07 121.34 86.79 121.97 85.26C125.13 86.01 128.44 85.27 131.1 87.56C133.31 87.56 135.57 87.82 137.73 87.49C144.32 86.47 150.88 85.2 157.46 84.07C158.39 83.91 159.37 84.02 160.33 84.01C160.03 84.73 159.64 85.42 159.46 86.17C159.19 87.34 159.55 88.3 160.66 88.94C162.06 89.75 163.25 89.84 164.14 89.06C165.06 88.26 165.28 87.23 164.99 86.08C164.69 84.88 163.86 84.24 162.66 84.11C161.89 84.03 161.1 84.04 160.32 84.01C161.27 83 162.24 82.14 162.4 80.49C162.56 78.89 163.83 78.18 165.03 78.39C166.48 78.64 167.57 79.78 167.3 81.38C167.06 82.82 167.51 83.73 168.33 84.79C170.4 87.47 170.36 89.76 167.99 91.84C166.68 92.99 165.48 94.11 164.41 95.5C163.3 96.94 161.68 96.92 160.26 95.6C161.46 94.56 163.21 94.07 163.89 92.18C162.12 91.69 160.66 91.19 159.17 90.89C157.69 90.59 156.43 91.82 156.59 93.4C156.67 94.14 157.11 94.85 157.39 95.57C153.03 94.92 148.85 96.23 144.61 96.81C140.68 97.35 136.83 98.39 132.83 98.44C131.26 98.46 130 98.95 129.65 100.7C129.37 102.09 128.62 103.05 127.14 103.16C125.5 103.29 124.43 102.5 123.87 100.95C123.72 100.53 123.38 100.17 123.19 99.87C120.07 100.11 117.08 100.33 113.77 100.59C113.82 101.4 113.95 102.12 113.9 102.83C113.78 104.57 112.65 105.72 110.92 106C107.32 106.57 105.16 105.41 102.74 101.45C101.93 101.45 100.93 101.23 100.06 101.49C96.3004 102.6 92.4504 102.03 88.6504 102.21C87.2804 102.28 86.6203 101.55 86.3203 100.32C87.3103 97.44 88.3004 94.56 89.3004 91.68C91.9504 91.66 94.6004 91.62 97.2504 91.65C98.8304 91.67 100.36 91.52 101.78 90.75C101.65 92.69 102.18 94.12 104.35 94.61C105.4 94.85 106.34 95.58 107.39 95.86C108.42 96.13 109.57 96.38 110.57 96.17C111.82 95.91 112.75 94.96 113.05 93.37C112.53 92.57 111.94 91.66 111.34 90.75V90.76Z" fill="#FFBCD3"/>
<path d="M42.5504 109.65C42.2404 109.69 41.8704 109.63 41.6204 109.78C38.4904 111.57 35.2604 111.48 32.0604 110.13C28.7304 108.73 26.2503 106.39 24.8403 103C24.4803 102.13 24.1603 101.23 23.8203 100.35C23.8403 99.4 23.8404 98.44 23.8904 97.49C24.1604 91.49 27.8203 86.52 33.4703 85.21C39.4503 83.82 44.2404 85.28 48.1704 90.6C49.4204 92.3 50.0803 94.26 50.0703 96.41C50.0603 98 50.0504 99.59 50.0404 101.18C49.6604 102.26 49.2704 103.33 48.8904 104.41C48.5804 104.96 48.2803 105.51 47.9703 106.06V106.07C46.2203 107.34 44.7404 109.03 42.5504 109.65ZM31.2604 102.75C34.9004 106.3 38.3804 106.69 41.6204 104.47C44.7104 102.36 45.9604 98.22 44.5504 94.74C43.8704 93.07 42.8003 91.71 41.2203 90.82C39.4003 89.79 37.4904 89.35 35.3004 90.06C39.2304 93.73 40.3004 95.86 39.2904 98.58C38.0604 101.88 35.2304 102.76 31.2604 102.75Z" fill="#331E70"/>
<path d="M42.5488 109.65C44.7388 109.03 46.2088 107.34 47.9688 106.07C48.4387 106.7 48.8388 107.39 49.3888 107.94C51.6788 110.25 53.4188 110.47 56.0588 108.76C56.8388 108.25 57.5187 107.58 58.1987 106.92C59.8987 105.28 59.8888 103.18 59.2488 101.21C58.6588 99.4001 56.8688 98.8001 55.1288 98.4801C53.6788 98.2101 52.3188 98.5701 51.0988 99.4201C51.2888 98.5201 51.1687 97.2201 51.7188 96.8201C52.6687 96.1301 54.0587 95.6101 55.2087 95.7001C60.1987 96.0701 64.1088 100.55 64.3888 105.6C64.5788 108.94 63.7488 111.89 61.8888 114.59C61.1788 115.63 60.3587 116.59 59.5887 117.59C59.0387 117.4 58.4787 117.02 57.9387 117.05C56.0687 117.16 54.1888 117.7 52.3588 117.55C48.8188 117.25 45.9887 115.62 45.1987 111.85C44.8587 110.21 43.7488 109.99 42.5588 109.63L42.5488 109.65Z" fill="#FE9ABB"/>
<path d="M51.089 99.4198C52.309 98.5698 53.669 98.2098 55.119 98.4798C56.859 98.8098 58.649 99.4098 59.239 101.21C59.889 103.19 59.889 105.28 58.189 106.92C57.509 107.57 56.8291 108.25 56.0491 108.76C53.4091 110.47 51.659 110.25 49.379 107.94C48.829 107.39 48.429 106.69 47.959 106.07V106.06C48.269 105.51 48.569 104.96 48.879 104.41C49.259 103.33 49.6391 102.26 50.0291 101.18C50.3791 100.59 50.729 100.01 51.089 99.4298V99.4198Z" fill="#FEDBE0"/>
<path d="M89.2898 91.7001C88.2998 94.5801 87.3098 97.4601 86.3098 100.34C85.8498 101.3 85.4398 102.3 84.8998 103.22C83.6998 105.26 82.0697 105.37 80.4397 103.54C80.1397 103.2 79.9798 102.73 79.7598 102.32C80.0698 101.36 80.3797 100.39 80.6897 99.4301L80.7097 99.3901C81.5697 98.6201 81.7298 97.6201 81.6198 96.5301L81.6398 96.4901C82.5298 95.7401 82.7097 94.7501 82.5997 93.6601L82.6097 93.6301C83.3097 91.9101 83.8698 90.1001 84.7898 88.5001C85.1698 87.8401 86.2597 87.3901 87.0997 87.2401C88.0797 87.0701 88.9297 88.0701 89.2297 89.3601C89.2997 89.6601 89.2798 89.9801 89.2798 90.3001C89.2898 90.7701 89.2998 91.2401 89.2998 91.7101L89.2898 91.7001Z" fill="#342070"/>
<path d="M181.41 87.2999C181.43 89.7699 179.09 92.4499 176.82 92.5699C174.02 92.7099 170.97 89.9899 170.99 87.3599C171.01 84.7699 173.66 82.1199 176.21 82.1299C178.94 82.1399 181.39 84.5799 181.41 87.2999Z" fill="#FEB9D1"/>
<path d="M72 94.4999C72.61 93.2699 73.2 92.0299 73.85 90.8299C74.39 89.8299 75.14 88.9999 76.4 89.1999C77.54 89.3799 78.41 90.0199 78.66 91.2499C78.75 91.6999 78.7601 92.1699 78.8101 92.6399C77.4701 95.5199 76.12 98.3999 74.78 101.29C73.59 101.27 72.3899 101.25 71.1899 101.23C70.1299 98.8299 71.22 96.6899 72 94.5099V94.4999Z" fill="#3D2574"/>
<path d="M109.489 114.64C108.079 114.34 106.219 113.98 104.389 113.54C103.949 113.44 103.539 113.12 103.189 112.81C102.469 112.17 101.779 111.45 102.159 110.38C102.559 109.26 103.409 108.33 104.569 108.39C106.599 108.48 108.639 108.83 110.639 109.23C112.419 109.59 113.369 110.73 113.279 112.08C113.179 113.73 111.939 114.68 109.499 114.65L109.489 114.64Z" fill="#FCC4E5"/>
<path d="M72.0004 94.5001C71.2304 96.6801 70.1304 98.8201 71.1904 101.22C70.6704 101.89 70.0005 102.34 69.1605 102.05C66.0005 100.97 64.3204 97.4001 65.5104 94.4301C66.2104 92.6801 69.3504 91.2501 71.1204 92.0001C72.2004 92.4501 71.8704 93.6101 72.0004 94.5101V94.5001Z" fill="#F9B5CF"/>
<path d="M111.34 90.7601C111.93 91.6701 112.53 92.5801 113.05 93.3801C112.75 94.9701 111.82 95.9201 110.57 96.1801C109.57 96.3901 108.41 96.1501 107.39 95.8701C106.34 95.5901 105.4 94.8601 104.35 94.6201C102.18 94.1301 101.65 92.7101 101.78 90.7601C102.79 89.4801 104.2 89.2301 105.5 89.8901C107.4 90.8501 109.39 90.6201 111.36 90.7601H111.34Z" fill="#FEF8FA"/>
<path d="M111.499 80.1601C110.229 80.1601 108.939 80.2701 107.679 80.1301C106.359 79.9801 105.549 78.7701 105.609 77.3401C105.659 76.1501 106.429 75.3001 107.809 75.2901C110.199 75.2701 112.599 75.3701 114.979 75.5301C115.559 75.5701 116.279 75.9301 116.619 76.3801C117.049 76.9501 117.449 77.8301 117.299 78.4401C117.149 79.0801 116.389 79.9401 115.789 80.0401C114.389 80.2801 112.929 80.1201 111.499 80.1201C111.499 80.1401 111.499 80.1501 111.499 80.1701V80.1601Z" fill="#FCD8ED"/>
<path d="M100.699 84.2699C100.059 84.9599 99.5495 85.8099 98.7995 86.2699C96.8495 87.4599 94.9694 86.6999 94.4394 84.4699C94.1194 83.1199 94.0394 81.6599 94.1094 80.2699C94.1594 79.2899 94.9594 78.6099 95.9794 78.3999C97.0194 78.1999 97.8994 78.5899 98.3794 79.4799C99.1894 80.9799 99.8694 82.5499 100.689 84.2599L100.699 84.2699Z" fill="#FAD0E8"/>
<path d="M74.7798 101.28C76.1198 98.4 77.4698 95.52 78.8098 92.63C79.2298 92.44 79.6298 92.2 80.0598 92.07C81.5898 91.6 81.7797 91.73 82.5997 93.62L82.5897 93.65C81.5097 94.34 81.5198 95.39 81.6298 96.48L81.6097 96.52C80.5297 97.22 80.5597 98.29 80.6997 99.38L80.6798 99.42C79.5298 100.11 79.5898 101.2 79.7498 102.31C78.0698 102.03 76.1498 102.92 74.7598 101.26L74.7798 101.28Z" fill="#F6B4CE"/>
<path d="M128.71 105.11C130.21 105.09 131.58 105.36 132.29 106.9C132.78 107.95 132.42 109.18 131.52 109.87C130.17 110.9 128.86 110.62 127.54 109.83C126.15 109.01 125.53 107.79 126.01 106.71C126.52 105.57 127.49 105.11 128.7 105.11H128.71Z" fill="#FCC4E4"/>
<path d="M157.38 95.5803C157.1 94.8603 156.65 94.1503 156.58 93.4103C156.42 91.8303 157.68 90.6103 159.16 90.9003C160.66 91.2003 162.12 91.7003 163.88 92.1903C163.2 94.0803 161.45 94.5703 160.25 95.6103C159.97 95.6103 159.7 95.6303 159.42 95.6603C158.74 95.6403 158.07 95.6103 157.39 95.5903H157.37L157.38 95.5803Z" fill="#FFF7FA"/>
<path d="M193.64 110.25C194.8 110.17 195.9 111.37 195.93 112.75C195.97 114.31 194.81 115.61 193.41 115.57C192.18 115.54 191.14 114.42 191.06 113.07C190.98 111.68 192.19 110.35 193.64 110.25Z" fill="#F9E9F1"/>
<path d="M157.4 95.6001C158.08 95.6201 158.75 95.6501 159.43 95.6701C158.72 96.4701 158.05 96.5001 157.4 95.6001Z" fill="#FFBCD3"/>
<path d="M108.939 32.32C103.369 32.77 97.3189 27.71 97.2989 20.81C97.2789 13.64 103.119 9.10998 109.209 8.97998C114.449 8.87998 120.809 13.92 120.879 20.58C120.949 27.19 114.569 32.97 108.929 32.31L108.939 32.32ZM116.209 20.98C116.289 16.77 113.269 13.67 109.089 13.68C105.149 13.69 102.049 16.64 101.919 20.51C101.779 24.58 104.969 27.81 109.109 27.78C113.199 27.75 116.139 24.94 116.209 20.99V20.98Z" fill="#7C3285"/>
<path d="M72.219 27.5399C71.869 26.6699 71.519 25.7899 71.159 24.9199C70.019 22.2099 69.7391 19.4699 70.6791 16.6299C70.9791 15.7399 71.1091 14.7899 71.3091 13.8699C72.8391 11.5199 74.9289 10.0199 77.5689 8.96988C83.7889 6.49988 91.169 11.0799 92.699 16.8999C94.419 23.4099 90.0091 30.1999 84.3091 31.3999C80.7491 32.1499 77.699 31.5399 74.769 29.6599C73.839 29.0699 73.049 28.2499 72.199 27.5299L72.219 27.5399ZM88.529 20.0699C88.479 16.0499 85.099 12.7999 81.109 12.9399C77.369 13.0799 74.1689 16.4099 74.1889 20.1399C74.2089 24.0399 77.799 27.4699 81.669 27.2899C85.429 27.1199 88.579 23.7999 88.539 20.0599L88.529 20.0699Z" fill="#763183"/>
<path d="M160.309 84.0098C161.089 84.0398 161.879 84.0298 162.649 84.1098C163.849 84.2398 164.679 84.8798 164.979 86.0798C165.269 87.2298 165.049 88.2598 164.129 89.0598C163.239 89.8298 162.049 89.7498 160.649 88.9398C159.539 88.2998 159.179 87.3398 159.449 86.1698C159.629 85.4198 160.019 84.7298 160.319 84.0098H160.309Z" fill="#FFF6FA"/>
<path d="M31.2598 102.75C35.2298 102.75 38.0598 101.88 39.2898 98.5803C40.2998 95.8703 39.2298 93.7403 35.2998 90.0603C37.4898 89.3503 39.3997 89.7903 41.2197 90.8203C42.7997 91.7103 43.8698 93.0703 44.5498 94.7403C45.9598 98.2103 44.7098 102.35 41.6198 104.47C38.3798 106.69 34.8998 106.29 31.2598 102.75Z" fill="#EEEAF1"/>
<path d="M81.6306 96.4799C81.5106 95.3899 81.5106 94.3399 82.5906 93.6499C82.7106 94.7399 82.5206 95.7299 81.6306 96.4799Z" fill="#D879AD"/>
<path d="M80.7002 99.3903C80.5702 98.3003 80.5302 97.2403 81.6102 96.5303C81.7202 97.6203 81.5602 98.6103 80.7002 99.3903Z" fill="#D879AD"/>
<path d="M79.7589 102.32C79.5989 101.21 79.5389 100.12 80.6889 99.4302C80.3789 100.39 80.0689 101.36 79.7589 102.32Z" fill="#D879AD"/>
</svg>
