<svg width="203" height="132" viewBox="0 0 203 132" fill="none" xmlns="http://www.w3.org/2000/svg">
<path d="M19.7905 35.3099C20.1105 35.0899 20.4306 34.8799 20.7606 34.6599C22.8606 34.4599 24.7806 33.9699 25.6106 31.6899L25.5706 31.7199C27.9306 32.1399 29.2772 33.4899 29.6106 35.7699L29.6306 35.7499C28.7506 35.6899 27.9906 35.8599 27.7106 36.8499L27.8006 36.7899C26.2606 36.5799 25.2706 37.2399 24.8106 38.7199L24.8806 38.6699C23.4006 38.4999 22.4506 39.1999 21.8706 40.4999C20.8406 41.4499 19.8106 42.3999 18.7806 43.3499C16.7106 43.7199 15.4906 44.9299 15.1406 47.0099C14.5306 47.7099 13.9206 48.4199 13.3106 49.1199C11.8806 49.6999 11.2306 50.7399 11.4306 52.2899C10.3006 55.0699 8.92056 57.7699 8.11056 60.6299C7.04056 64.3999 6.10059 68.2799 7.33059 72.2599C7.42059 72.8499 7.50057 73.4399 7.62057 74.2399C9.36057 74.1499 10.9206 74.0099 12.4806 73.9999C17.6606 73.9699 22.1906 75.6599 25.8206 79.3799C29.6206 83.2799 29.6906 88.7699 25.8706 92.6399C24.4606 94.0699 22.5106 94.9799 20.8006 96.1099C20.1806 96.5199 19.5106 96.8699 18.8306 97.2699C19.6506 98.8599 20.7806 99.6899 22.1406 100.25C22.3506 100.48 22.5305 100.76 22.7905 100.93C27.3105 103.93 32.3905 105.23 37.7205 105.58C47.6705 106.23 57.5006 105.01 67.2806 103.27C68.0106 103.14 68.7006 102.76 69.2306 102.57C68.8605 100.28 68.5306 98.2499 68.2006 96.2199C68.3806 95.9699 68.5406 95.6999 68.7406 95.4699C70.9906 92.8399 71.8505 92.8299 74.1605 95.3799C74.3705 95.6099 74.5106 95.8899 74.6906 96.1399C74.4706 97.4799 74.9406 98.5999 75.7106 99.6799C77.7406 102.53 80.0005 105.14 82.9105 107.15C87.6905 110.77 92.4706 110.67 97.5706 107.15C96.0006 104.84 94.2205 103.13 91.9705 101.9C91.3705 100.97 90.6005 100.1 90.2205 99.0899C89.4805 97.1699 91.3006 95.0499 93.3006 95.4899C94.3506 95.7199 95.3106 96.3999 96.3106 96.8799C98.2506 98.9399 100.301 100.88 102.641 102.74C104.691 100.73 105.791 98.5899 106.281 95.9599C103.741 94.3499 101.501 92.5799 98.5706 92.1299C97.6706 91.5499 96.6206 91.1199 95.8906 90.3699C94.2506 88.6899 95.0306 86.1299 97.3006 85.7099C98.3406 85.5199 99.4605 85.7099 100.541 85.7299C101.911 86.4599 103.291 87.1999 104.661 87.9299C105.351 88.2999 106.051 88.7099 106.781 87.7799C106.161 84.8599 105.281 82.0799 102.201 80.6699C99.5806 78.6199 96.6906 77.1999 93.3106 76.9499C92.0406 76.9099 90.7806 76.9199 89.5206 76.8199C88.0706 76.7099 86.9906 75.7999 86.7506 74.5999C86.5306 73.4899 87.2306 72.0599 88.3906 71.3999C90.1406 70.3999 92.0206 70.2999 93.9406 70.6799C101.971 72.2399 108.621 75.7799 112.251 83.5799C113.021 86.0899 112.871 88.8499 113.981 91.4499C117.391 91.1799 120.401 90.0999 123.401 89.1899C126.381 88.2899 129.641 88.2199 132.381 86.4599C132.271 84.0499 131.061 82.3499 129.881 80.6799C128.511 78.7399 127.001 76.8899 125.561 74.9999C125.861 72.6699 126.781 70.9899 129.511 71.1399C133.831 74.4499 136.411 78.9799 138.501 83.8699C138.971 84.9699 138.801 85.9399 138.441 87.0799C137.84 88.9299 138.311 89.5899 140.131 90.3099C140.701 90.5399 141.331 90.6299 141.801 90.7399C142.041 91.2099 142.221 91.4799 142.311 91.7799C142.491 92.3899 142.641 93.0099 142.771 93.6299C144.311 100.72 146.991 107.35 150.671 113.59C152.391 116.49 154.411 119.16 157.031 121.32C160.251 123.98 163.951 125.29 168.131 124.97C171.651 124.7 174.481 123.19 176.391 119.77C175.151 118.95 174.141 118.2 173.061 117.59C171.531 116.72 169.881 116.05 168.421 115.1C167.101 114.24 165.861 113.21 164.771 112.07C163.961 111.22 163.861 110.06 164.521 108.96C165.201 107.82 166.541 107.21 167.811 107.65C168.701 107.96 169.511 108.5 170.341 108.96C171.601 109.65 172.821 110.43 174.111 111.05C175.481 111.71 176.711 112.79 178.311 112.96C179.321 108.93 179.261 107.87 177.971 104.24C175.041 102.94 172.271 101.73 169.521 100.45C168.811 100.12 168.011 99.6599 167.641 99.0399C167.201 98.2899 166.941 97.2599 167.051 96.3999C167.201 95.1999 168.181 94.3699 169.401 94.3999C170.481 94.4299 171.551 94.8799 172.621 95.1499C173.041 95.9199 173.661 96.2699 174.551 96.0899C175.051 96.3199 175.541 96.6199 176.071 96.7099C176.191 96.7299 176.661 95.9399 176.571 95.6299C176.341 94.7999 175.891 94.0399 175.521 93.2399C174.431 90.7699 173.431 88.2599 172.211 85.8599C171.391 84.2599 171.411 82.8999 172.361 81.3999C173.371 79.7899 174.571 78.8399 176.611 78.9299C177.661 78.9799 178.841 78.6699 179.791 78.1799C182.621 76.7399 185.381 75.1699 188.111 73.5599C188.691 73.2199 189.031 72.4599 189.581 71.7599C188.531 71.0499 187.741 70.5299 186.961 69.9899C185.781 69.1799 184.531 68.4599 183.451 67.5399C182.351 66.6099 182.171 65.2099 182.781 64.0799C183.491 62.7499 184.951 62.0999 186.431 62.7099C187.751 63.2399 188.961 64.0199 190.211 64.7099C191.431 65.3799 192.631 66.0799 193.951 66.8299C195.951 64.1899 196.861 61.5699 196.661 58.6099C196.501 56.1799 195.411 54.3799 192.871 53.7799C192.821 53.5399 192.761 53.2999 192.701 53.0499C192.341 52.7499 192.011 52.2199 191.631 52.1899C187.371 51.8499 183.111 51.4999 178.881 52.5299C178.611 52.5999 178.281 52.4499 177.741 52.3699C177.401 51.6999 176.991 50.8999 176.571 50.0799C177.091 49.5999 177.381 49.1699 177.771 49.0099C181.971 47.3399 186.261 46.6799 190.761 47.6399C192.131 47.9299 193.561 47.8999 194.971 48.0099C200.511 50.0099 203.271 54.1699 202.831 60.1599C202.421 65.8099 199.911 70.5599 196.141 74.6899C192.741 78.4199 188.461 80.8799 184.001 83.1099C182.471 83.8699 180.611 84.1799 179.491 86.0699C179.991 87.4399 180.571 88.8999 181.071 90.3899C183.271 96.9099 185.34 103.46 185.191 110.47C185.131 113.37 184.801 116.19 183.811 118.94C180.141 129.15 170.611 133.71 160.271 130.2C154.561 128.26 150.281 124.47 147.131 119.51C144.741 115.75 142.631 111.76 140.851 107.68C139.261 104.04 138.261 100.14 137.061 96.3299C136.281 93.8599 135.011 92.9599 132.471 93.3299C131.531 93.4699 130.601 93.7299 129.671 93.9799C124.731 95.3099 119.811 96.7099 114.861 97.9599C113.001 98.4299 111.841 99.3199 111.041 101.14C108.501 106.95 104.051 110.99 98.4806 113.83C92.2606 117.01 86.1606 116.81 80.3306 112.86C78.3606 111.52 76.5105 110 74.4105 108.4C72.9805 108.65 71.4205 108.94 69.8505 109.21C60.2305 110.86 50.5606 112.19 40.7706 111.81C37.1206 111.67 33.4305 111.27 29.8505 110.55C21.4205 108.86 15.0906 103.95 10.2406 97.0099C8.89056 95.0699 9.15056 93.7299 11.2406 92.7799C12.8206 92.0599 14.5806 91.7499 16.2106 91.1399C17.6806 90.5899 19.2806 90.1199 20.4906 89.1799C23.1306 87.1399 23.0906 84.9099 20.5306 82.8699C17.9306 80.7999 14.9206 79.8799 11.5806 80.1199C8.73059 80.3299 5.89057 80.5499 3.19057 80.7499C-1.26943 72.9099 0.670568 56.6599 6.31057 49.9999C7.29057 49.6999 7.47059 48.9399 7.40059 48.0499C7.60059 47.7199 7.81058 47.3799 8.01058 47.0499C9.73058 46.8299 10.3506 45.7699 10.2506 44.1399C12.1006 41.5499 14.2006 39.2199 16.9406 37.5299C18.5306 37.5999 19.5805 36.9799 19.7905 35.2899V35.3099Z" fill="#220C50"/>
<path d="M194.969 48.0303C193.569 47.9203 192.129 47.9503 190.759 47.6603C186.259 46.7003 181.969 47.3603 177.769 49.0303C177.379 49.1903 177.089 49.6203 176.569 50.1003C176.989 50.9203 177.399 51.7203 177.739 52.3903C178.279 52.4803 178.609 52.6203 178.879 52.5503C183.109 51.5203 187.369 51.8703 191.629 52.2103C192.009 52.2403 192.349 52.7703 192.699 53.0703C191.429 53.0203 190.159 52.9603 188.889 52.9103C187.169 52.8503 185.409 52.5203 183.729 52.7803C177.139 53.8103 171.439 56.6803 166.759 61.4803C164.759 61.9703 163.709 63.6503 162.409 64.9903C161.639 65.7803 161.049 66.7603 160.259 67.5303C158.399 69.3403 156.609 69.2703 154.989 67.2803C153.999 66.0603 153.329 64.5303 151.559 64.2203C147.429 60.9703 143.429 57.5603 139.159 54.5103C126.389 45.3903 112.919 37.5303 97.9589 32.5003C95.9389 31.8203 95.1488 30.4903 95.6989 28.4403C96.0289 27.2203 96.6388 26.0703 97.0588 24.8703C98.4188 20.8803 99.1788 16.8503 97.9088 12.6703C96.4788 7.95028 93.3188 5.99028 88.4288 6.81028C84.9788 7.39028 82.1489 9.20029 79.7689 11.6103C77.0889 14.3303 74.6388 17.2903 72.1188 20.1603C71.2988 21.1003 70.5488 22.1003 69.7188 23.1403C69.1388 22.8503 68.7489 22.6103 68.3289 22.4603C66.5189 21.7903 65.6789 21.9203 64.9489 22.9403C64.1989 23.9903 64.4588 24.8703 65.6588 26.2903C66.7788 27.6103 67.9489 28.9403 68.7689 30.4503C70.1989 33.1003 71.3689 35.8903 72.6389 38.6303C73.0889 40.6503 73.5588 42.6603 73.9688 44.6903C74.3688 46.6903 74.6988 48.7003 75.0688 50.7703C75.8988 50.8903 76.5188 51.0503 77.1288 51.0603C86.0088 51.0803 94.5888 52.7803 102.999 55.5003C103.739 55.7403 104.549 55.7903 105.329 55.9303C106.929 56.5603 108.519 57.1903 110.119 57.8203C112.599 59.1903 115.119 60.5103 117.549 61.9603C121.889 64.5503 126.299 67.0703 129.479 71.1603C126.759 71.0103 125.829 72.6903 125.529 75.0203C125.259 75.0203 124.989 75.0403 124.729 75.0703C123.949 74.2803 123.229 73.4203 122.379 72.7303C116.229 67.7803 109.329 64.2103 101.879 61.6203C93.1988 58.6003 84.2688 57.2403 75.0988 57.2303C73.6688 57.2303 72.2188 57.2003 70.8088 56.9903C68.9988 56.7203 68.0688 55.4603 68.1588 53.6103C68.2288 52.1903 68.6588 50.7303 68.4688 49.3503C67.5288 42.3003 65.2288 35.7503 61.1588 29.8403C59.7988 27.8703 58.2588 27.2903 55.9088 27.5903C47.9188 28.5903 40.3289 30.8603 33.0789 34.3103C31.9389 34.8503 30.7489 35.2903 29.5889 35.7703C29.2555 33.4903 27.9088 32.1403 25.5488 31.7203C29.7288 28.3403 34.7589 26.7303 39.6989 24.9503C46.2089 22.6103 52.9888 21.4803 59.8788 21.0403C64.0288 20.7703 63.6389 21.4503 66.4589 17.4403C69.5989 12.9803 73.1788 8.90028 77.4088 5.42028C79.6588 3.57028 82.1788 2.22028 84.9188 1.27028C94.3688 -2.00972 102.979 3.29029 104.449 13.6503C104.929 17.0003 104.699 20.3503 103.859 23.6403C103.589 24.7103 103.339 25.7803 103.019 27.0503C103.939 27.5703 104.699 28.1003 105.529 28.4703C120.759 35.2703 135.339 43.1903 148.339 53.7703C150.689 55.6903 153.169 57.4603 155.649 59.2103C157.229 60.3303 157.909 60.2603 159.509 59.0203C161.909 57.1603 164.159 55.0903 166.689 53.4303C169.479 51.6003 172.409 49.8703 175.469 48.5603C181.209 46.1003 187.209 45.6103 193.309 47.1703C193.889 47.3203 194.409 47.7403 194.949 48.0403L194.969 48.0303Z" fill="#242552"/>
<path d="M25.6 31.6899C24.77 33.9699 22.85 34.4599 20.75 34.6599C22.12 33.2599 23.65 32.1399 25.6 31.6899Z" fill="#242552"/>
<path d="M19.7894 35.3101C19.5794 37.0001 18.5295 37.6201 16.9395 37.5501C17.8895 36.8001 18.8394 36.0601 19.7894 35.3101Z" fill="#242552"/>
<path d="M10.2595 44.1602C10.3695 45.7802 9.73953 46.8502 8.01953 47.0702C8.76953 46.1002 9.50952 45.1302 10.2595 44.1602Z" fill="#242552"/>
<path d="M7.41028 48.0601C7.48028 48.9501 7.30031 49.7101 6.32031 50.0101C6.68031 49.3601 7.05028 48.7101 7.41028 48.0601Z" fill="#242552"/>
<path d="M29.6 35.77C30.77 35.28 31.9501 34.85 33.0901 34.31C40.3501 30.86 47.93 28.59 55.92 27.59C58.27 27.3 59.82 27.87 61.17 29.84C65.2401 35.75 67.54 42.3 68.48 49.35C68.66 50.73 68.24 52.19 68.17 53.61C68.08 55.46 69.0001 56.72 70.8201 56.99C72.2301 57.2 73.6801 57.23 75.1101 57.23C84.2801 57.24 93.2101 58.6 101.89 61.62C109.34 64.21 116.23 67.78 122.39 72.73C123.25 73.42 123.96 74.29 124.74 75.07C121.12 78.73 117.35 82.15 112.23 83.59C108.6 75.78 101.95 72.25 93.9201 70.69C91.9901 70.31 90.1101 70.41 88.3701 71.41C87.2101 72.07 86.51 73.49 86.73 74.61C86.97 75.81 88.0501 76.72 89.5001 76.83C90.7601 76.93 92.03 76.92 93.29 76.96C92.73 82.29 91.0501 87.2 87.9301 91.6C85.7301 94.7 82.7801 96.22 78.9601 96.1C77.5301 96.05 76.1001 96.14 74.6701 96.16C74.5001 95.91 74.3501 95.63 74.1401 95.4C71.8301 92.85 70.96 92.87 68.72 95.49C68.52 95.72 68.3601 95.99 68.1801 96.24C63.4101 95.87 58.6101 95.69 53.8701 95.07C46.5801 94.13 39.3601 92.79 32.6401 89.6C32.5801 87.85 32.4301 86.11 32.4901 84.37C32.5901 81.64 31.51 79.52 29.72 77.53C26.85 74.34 23.1501 72.66 19.2801 71.14C16.2001 69.93 13.0401 70.24 9.88007 70.35C8.65007 70.39 7.94009 71.31 7.34009 72.28C6.11009 68.31 7.05006 64.43 8.12006 60.65C8.93006 57.79 10.3201 55.08 11.4401 52.31C12.4101 51.46 13.3801 50.6 13.3201 49.14C13.9301 48.44 14.5401 47.73 15.1501 47.03C16.8201 46.27 18.05 45.06 18.79 43.37C19.82 42.42 20.8501 41.47 21.8801 40.52C23.3201 40.63 24.1201 39.68 24.8901 38.69L24.8201 38.74C25.8201 38.1 26.8101 37.46 27.8101 36.81L27.72 36.87C28.36 36.5 29.0001 36.14 29.6401 35.77L29.6201 35.79L29.6 35.77ZM37.3901 64.47C37.3901 63.36 37.48 62.24 37.35 61.15C37.01 58.35 34.0301 55.58 31.2501 55.37C27.3901 55.08 24.0401 58.01 23.8801 61.83C23.7101 65.86 27.0301 69.26 31.0101 69.03C32.1001 68.97 33.1601 68.58 34.2401 68.34C34.0901 69.26 33.7901 70.18 33.8201 71.09C33.8701 72.5 34.34 73.92 34.29 75.32C34.02 82.29 38.3101 87.68 44.8301 90.26C51.4701 92.89 51.44 92.61 58.6101 90.57C62.89 89.35 65.9601 86.77 68.4401 83.43C72.9501 77.35 72.8 70.49 68.29 64.49C66.68 62.35 64.7701 60.38 62.2101 59.2C61.2101 58.74 60.3201 58.04 59.4301 57.37C55.4801 54.42 51.2201 54.31 46.7001 57.06C46.2201 56.07 45.7701 55.07 45.2701 54.09C41.9201 47.54 34.1101 44.1 27.0901 46.2C25.6101 46.64 24.18 47.46 22.91 48.36C21.6 49.29 21.3601 50.96 22.0301 52.19C22.7201 53.45 24.2701 54.14 25.7101 53.36C28.5201 51.81 31.5101 51.9 34.5301 51.91C37.4001 51.92 37.9301 52.37 39.0901 55.1C40.1001 57.49 40.6601 59.92 40.1501 62.52C38.6701 62.36 38.33 63.83 37.41 64.47H37.3901Z" fill="#FFCDC5"/>
<path d="M151.56 64.2298C153.34 64.5498 154 66.0798 154.99 67.2898C156.61 69.2798 158.4 69.3398 160.26 67.5398C161.05 66.7698 161.64 65.7998 162.41 64.9998C163.71 63.6498 164.76 61.9698 166.76 61.4898C166.02 62.6398 165.27 63.7998 164.43 65.0998C165.17 65.2598 165.62 65.4598 166.05 65.4198C166.99 65.3198 167.93 65.1598 168.84 64.9098C170.22 64.5298 171.54 63.9198 172.94 63.6398C179.61 62.3298 185.45 59.0298 191.4 56.0098C192.19 55.6098 192.63 55.0398 192.52 54.1298C192.64 54.0198 192.75 53.9098 192.87 53.7998C195.41 54.3998 196.5 56.1998 196.66 58.6298C196.86 61.5898 195.95 64.2098 193.95 66.8498C192.63 66.0998 191.43 65.3998 190.21 64.7298C188.96 64.0398 187.74 63.2598 186.43 62.7298C184.94 62.1298 183.49 62.7698 182.78 64.0998C182.18 65.2298 182.35 66.6298 183.45 67.5598C184.53 68.4798 185.78 69.1998 186.96 70.0098C187.74 70.5398 188.53 71.0698 189.58 71.7798C189.02 72.4798 188.69 73.2398 188.11 73.5798C185.38 75.1898 182.61 76.7598 179.79 78.1998C178.84 78.6798 177.66 78.9898 176.61 78.9498C174.57 78.8598 173.37 79.8198 172.36 81.4198C171.42 82.9298 171.4 84.2798 172.21 85.8798C173.43 88.2798 174.43 90.7898 175.52 93.2598C175.18 94.2098 175.86 95.4998 174.55 96.1098C174.14 95.3098 173.5 95.0098 172.62 95.1698C171.55 94.8998 170.48 94.4498 169.4 94.4198C168.18 94.3898 167.21 95.2198 167.05 96.4198C166.94 97.2698 167.2 98.2998 167.64 99.0598C168 99.6898 168.81 100.14 169.52 100.47C172.26 101.75 175.04 102.96 177.97 104.26C179.27 107.89 179.33 108.95 178.31 112.98C176.71 112.81 175.48 111.73 174.11 111.07C172.82 110.45 171.6 109.68 170.34 108.98C169.51 108.52 168.7 107.98 167.81 107.67C166.54 107.23 165.21 107.84 164.52 108.98C163.86 110.08 163.96 111.24 164.77 112.09C165.86 113.23 167.1 114.26 168.42 115.12C169.89 116.07 171.54 116.74 173.06 117.61C174.14 118.23 175.15 118.97 176.39 119.79C174.48 123.21 171.66 124.72 168.13 124.99C163.96 125.31 160.26 123.99 157.03 121.34C154.41 119.18 152.38 116.51 150.67 113.61C146.98 107.38 144.3 100.74 142.77 93.6498C142.64 93.0298 142.49 92.4098 142.31 91.7998C142.22 91.4998 142.03 91.2298 141.8 90.7598C141.33 90.6398 140.7 90.5498 140.13 90.3298C138.31 89.6098 137.84 88.9498 138.44 87.0998C138.81 85.9598 138.97 84.9898 138.5 83.8898C136.41 78.9998 133.83 74.4698 129.51 71.1598C126.32 67.0698 121.92 64.5498 117.58 61.9598C115.15 60.5098 112.63 59.1998 110.15 57.8198C112 57.4998 113.45 58.5398 115.03 59.2098C117.91 60.4298 120.87 61.4498 123.71 62.7498C125.75 63.6798 127.63 63.5798 129.58 62.6898C129.49 63.1598 129.38 63.6198 129.31 64.0898C129.12 65.5198 129.67 66.6098 131 67.1598C132.12 67.6198 133.18 67.3798 134.04 66.4698C134.37 66.1298 134.68 65.7698 135 65.4198C137.99 65.6498 140.88 66.9598 143.92 66.3898C146.86 65.8398 149.63 68.0898 152.73 67.0498C152.27 65.9398 151.91 65.0798 151.56 64.2298ZM141.93 77.4198C143.37 77.5198 144.71 76.4098 144.9 74.9898C145.11 73.3798 143.93 71.7798 142.37 71.5698C140.88 71.3698 139.22 72.7398 139.09 74.2798C138.97 75.8298 140.3 77.3198 141.92 77.4298L141.93 77.4198Z" fill="#E8DEF9"/>
<path d="M32.6294 89.5998C39.3494 92.7898 46.5794 94.1298 53.8594 95.0698C58.5994 95.6798 63.3994 95.8598 68.1694 96.2398C68.4994 98.2698 68.8294 100.3 69.1994 102.59C68.6794 102.78 67.9894 103.16 67.2494 103.29C57.4794 105.04 47.6494 106.25 37.6894 105.6C32.3594 105.25 27.2794 103.95 22.7594 100.95C22.5094 100.78 22.3294 100.5 22.1094 100.27C25.6694 98.8398 28.9994 97.1398 30.5794 93.3098C30.8694 92.6898 31.1594 92.0598 31.4494 91.4398L31.4994 91.3298C31.8594 90.7398 32.2194 90.1398 32.5794 89.5498L32.6094 89.5998H32.6294Z" fill="#AFB51E"/>
<path d="M74.6602 96.1502C76.0902 96.1202 77.5302 96.0402 78.9502 96.0902C82.7702 96.2202 85.7202 94.7002 87.9202 91.5902C91.0402 87.1902 92.7203 82.2802 93.2803 76.9502C96.6603 77.2002 99.5502 78.6202 102.17 80.6702C101.62 82.3602 101.06 84.0502 100.51 85.7402C99.4302 85.7202 98.3102 85.5202 97.2702 85.7202C95.0003 86.1402 94.2202 88.7002 95.8602 90.3802C96.5902 91.1302 97.6402 91.5602 98.5402 92.1402C97.7802 93.7202 97.0303 95.3102 96.2702 96.8902C95.2702 96.4102 94.3202 95.7302 93.2602 95.5002C91.2502 95.0602 89.4402 97.1802 90.1802 99.1002C90.5702 100.11 91.3402 100.98 91.9302 101.91C89.9902 103.82 87.5602 104.82 85.0202 105.58C84.0703 105.86 83.3002 106.23 82.8602 107.15C79.9602 105.15 77.7002 102.53 75.6602 99.6802C74.8902 98.6002 74.4202 97.4802 74.6402 96.1402L74.6602 96.1502Z" fill="#AFB51F"/>
<path d="M30.6 93.3098C29.01 97.1398 25.6801 98.8398 22.1301 100.27C20.7701 99.7098 19.6501 98.8797 18.8301 97.2897C19.5201 96.8897 20.18 96.5398 20.8 96.1298C22.52 94.9998 24.4601 94.0898 25.8701 92.6598C29.6901 88.7898 29.6201 83.2998 25.8201 79.3998C22.1901 75.6698 17.66 73.9798 12.48 74.0198C10.92 74.0298 9.36006 74.1698 7.62006 74.2598C7.50006 73.4598 7.41008 72.8698 7.33008 72.2798C7.93008 71.3098 8.64006 70.3898 9.87006 70.3398C13.0301 70.2298 16.1901 69.9298 19.2701 71.1298C23.1401 72.6498 26.8401 74.3298 29.7101 77.5198C31.5001 79.5098 32.58 81.6398 32.48 84.3598C32.42 86.0998 32.5701 87.8498 32.6301 89.5898L32.6 89.5397C31.69 89.7998 31.4801 90.4798 31.5201 91.3198L31.47 91.4297C31.18 92.0498 30.89 92.6798 30.6 93.2998V93.3098Z" fill="#F4F2EA"/>
<path d="M112.23 83.59C117.35 82.15 121.13 78.72 124.74 75.07C125.01 75.04 125.271 75.03 125.541 75.02C126.991 76.91 128.49 78.76 129.86 80.7C131.04 82.37 132.25 84.07 132.36 86.48C129.62 88.23 126.35 88.31 123.38 89.21C120.37 90.12 117.37 91.2 113.96 91.47C112.84 88.87 113 86.11 112.23 83.6L112.23 83.59Z" fill="#AEB420"/>
<path d="M96.2793 96.8901C97.0393 95.3101 97.7893 93.7201 98.5493 92.1401C101.479 92.5901 103.719 94.3601 106.259 95.9701C105.759 98.5901 104.669 100.74 102.619 102.75C100.279 100.89 98.2292 98.9501 96.2892 96.8901H96.2793Z" fill="#E7E6E2"/>
<path d="M82.8789 107.15C83.3089 106.23 84.0889 105.86 85.0389 105.58C87.5789 104.82 90.0089 103.82 91.9489 101.91C94.1989 103.14 95.9789 104.85 97.5489 107.16C92.4489 110.68 87.6689 110.77 82.8889 107.16L82.8789 107.15Z" fill="#EAE9E0"/>
<path d="M100.52 85.7399C101.08 84.0499 101.63 82.3599 102.18 80.6699C105.25 82.0799 106.14 84.8699 106.76 87.7799C106.03 88.7099 105.34 88.2999 104.64 87.9299C103.27 87.1999 101.89 86.4699 100.52 85.7299V85.7399Z" fill="#DDDED3"/>
<path d="M18.7689 43.3599C18.0289 45.0499 16.8089 46.2599 15.1289 47.0199C15.4689 44.9399 16.6889 43.7299 18.7689 43.3599Z" fill="#242552"/>
<path d="M174.539 96.1098C175.849 95.4998 175.179 94.1998 175.509 93.2598C175.869 94.0498 176.319 94.8198 176.559 95.6498C176.649 95.9598 176.179 96.7498 176.059 96.7298C175.529 96.6398 175.049 96.3398 174.539 96.1198V96.1098Z" fill="#8470A3"/>
<path d="M27.7888 36.7902C26.7888 37.4302 25.7988 38.0702 24.7988 38.7202C25.2588 37.2402 26.2388 36.5902 27.7888 36.7902Z" fill="#242552"/>
<path d="M24.8694 38.67C24.0994 39.66 23.2994 40.61 21.8594 40.5C22.4394 39.19 23.3894 38.5 24.8694 38.67Z" fill="#242552"/>
<path d="M13.2991 49.1299C13.3591 50.5899 12.3891 51.4499 11.4191 52.2999C11.2091 50.7499 11.8691 49.7099 13.2991 49.1299Z" fill="#242552"/>
<path d="M188.889 52.9199C190.159 52.9699 191.429 53.0299 192.699 53.0799C192.759 53.3199 192.819 53.5599 192.869 53.8099C192.749 53.9199 192.639 54.0299 192.519 54.1399C191.299 53.7699 189.749 54.3699 188.879 52.9199H188.889Z" fill="#E8DEF9"/>
<path d="M29.629 35.7499C28.989 36.1199 28.349 36.4799 27.709 36.8499C27.989 35.8599 28.749 35.6899 29.629 35.7499Z" fill="#242552"/>
<path d="M172.609 95.1701C173.489 95.0001 174.129 95.3098 174.539 96.1098C173.649 96.2998 173.029 95.9501 172.609 95.1701Z" fill="#8470A3"/>
<path d="M129.559 62.6901C127.609 63.5801 125.719 63.6801 123.689 62.7501C120.849 61.4601 117.889 60.4301 115.009 59.2101C113.429 58.5401 111.989 57.5001 110.129 57.8201C108.529 57.1901 106.939 56.5601 105.339 55.9301C104.559 54.5401 103.089 54.3401 101.779 53.8301C100.519 53.3401 99.0094 53.1601 98.4294 51.8101C99.1594 51.1101 99.7994 50.4901 100.439 49.8601C100.719 49.1201 101.139 48.3901 101.259 47.6301C101.529 45.9601 100.779 44.7001 99.3794 44.2001C97.9394 43.6801 96.4394 44.1001 95.6494 45.4701C95.1894 46.2701 95.0894 47.2701 94.8294 48.1801C94.5994 48.7301 94.3794 49.2801 94.0994 49.9501C92.7994 49.3101 91.7294 48.7001 90.5994 48.2201C87.406 46.8735 84.9194 44.9768 83.1394 42.5301C81.9294 42.1901 80.7094 41.8601 79.4994 41.5201C76.7194 41.7401 74.8494 39.7901 72.6394 38.6401C71.3594 35.9101 70.1894 33.1101 68.7694 30.4601C67.9594 28.9501 66.7794 27.6201 65.6594 26.3001C64.4494 24.8801 64.1994 24.0001 64.9494 22.9501C65.6794 21.9301 66.5194 21.8001 68.3294 22.4701C68.7494 22.6301 69.1394 22.8601 69.7194 23.1501C70.5494 22.1101 71.2894 21.1101 72.1194 20.1701C74.6394 17.2901 77.0894 14.3401 79.7694 11.6201C82.1394 9.21014 84.9794 7.40014 88.4294 6.82014C93.3194 6.00014 96.4694 7.96014 97.9094 12.6801C99.1794 16.8601 98.4294 20.8901 97.0594 24.8801C96.6494 26.0801 96.0294 27.2301 95.6994 28.4501C95.1494 30.5001 95.9294 31.8301 97.9594 32.5101C112.919 37.5501 126.389 45.4101 139.159 54.5201C143.429 57.5701 147.429 60.9801 151.559 64.2301C151.909 65.0801 152.269 65.9401 152.729 67.0501C149.629 68.0901 146.859 65.8501 143.919 66.3901C140.879 66.9501 137.979 65.6501 134.999 65.4201C133.629 61.4101 133.299 61.2401 129.569 62.6901H129.559ZM120.929 54.0701C120.869 52.4201 119.519 51.0901 117.869 51.0601C116.209 51.0201 114.909 52.3301 114.869 54.0601C114.819 55.9001 116.379 57.4501 118.159 57.3401C119.739 57.2401 121.009 55.7501 120.939 54.0701H120.929Z" fill="#FFF4F3"/>
<path d="M188.889 52.9103C189.759 54.3503 191.3 53.7599 192.53 54.1299C192.63 55.0399 192.2 55.6098 191.4 56.0098C185.44 59.0298 179.61 62.3298 172.94 63.6398C171.55 63.9098 170.22 64.5298 168.84 64.9098C167.93 65.1598 166.99 65.3298 166.05 65.4198C165.62 65.4598 165.17 65.2598 164.43 65.0998C165.27 63.7898 166.02 62.6398 166.76 61.4898C171.44 56.6898 177.14 53.8199 183.73 52.7899C185.4 52.5299 187.159 52.8599 188.889 52.9199L188.889 52.9103Z" fill="#FCF2F2"/>
<path d="M72.6504 38.6299C74.8504 39.7799 76.7204 41.7399 79.5104 41.5099C79.0304 42.1299 78.4004 42.6899 78.0904 43.3899C77.4004 44.9499 78.3003 46.6699 79.9103 47.1199C81.5703 47.5799 83.1504 46.6199 83.4004 44.8699C83.5104 44.1199 83.2394 43.3101 83.1394 42.5301C84.9194 44.9901 87.406 46.8868 90.5994 48.2201C91.7294 48.7001 92.7994 49.3001 94.0994 49.9501C94.3694 49.2801 94.5994 48.7301 94.8294 48.1801C96.2094 50.3801 98.0904 50.8999 100.44 49.8699C99.8004 50.4899 99.1504 51.1099 98.4304 51.8199C99.0104 53.1699 100.52 53.3499 101.78 53.8399C103.09 54.3499 104.56 54.5399 105.34 55.9399C104.56 55.7999 103.76 55.7499 103.01 55.5099C94.6004 52.7799 86.0204 51.0899 77.1404 51.0699C76.5304 51.0699 75.9104 50.8999 75.0804 50.7799C74.7104 48.7099 74.3803 46.6999 73.9803 44.6999C73.5703 42.6699 73.1004 40.6599 72.6504 38.6399V38.6299Z" fill="#E2D8F2"/>
<path d="M46.7001 57.06C51.2301 54.31 55.4901 54.43 59.4301 57.37C60.3201 58.03 61.2101 58.74 62.2101 59.2C64.7701 60.38 66.68 62.35 68.29 64.49C72.8 70.48 72.9501 77.35 68.4401 83.43C65.9601 86.77 62.89 89.35 58.6101 90.57C51.44 92.61 51.4701 92.89 44.8301 90.26C38.3201 87.68 34.02 82.3 34.29 75.32C34.34 73.92 33.8701 72.51 33.8201 71.09C33.7901 70.18 34.0901 69.26 34.2401 68.34C35.2901 67.05 36.3405 65.7599 37.3905 64.4599C38.3105 63.8199 38.6505 62.3599 40.1305 62.5099C41.0205 63.9099 42.0405 65.0899 43.9605 64.4999C45.5405 64.0199 46.1505 62.7099 46.3905 61.2799C46.6205 59.8899 46.6105 58.4599 46.7005 57.0399L46.7001 57.06Z" fill="#FFDCFF"/>
<path d="M46.7001 57.06C46.6101 58.47 46.6199 59.9099 46.3899 61.2999C46.1499 62.7299 45.5399 64.0399 43.9599 64.5199C42.0399 65.1099 41.0299 63.9199 40.1299 62.5299C40.6499 59.9299 40.0899 57.4999 39.0699 55.1099C37.9099 52.3699 37.3799 51.9299 34.5099 51.9199C31.4999 51.8999 28.5099 51.8199 25.6899 53.3699C24.2599 54.1599 22.6999 53.4599 22.0099 52.1999C21.3299 50.9699 21.5699 49.2999 22.8899 48.3699C24.1599 47.4699 25.5899 46.6499 27.0699 46.2099C34.0899 44.1099 41.8899 47.5499 45.2499 54.0999C45.7499 55.0799 46.2099 56.0799 46.6799 57.0699L46.7001 57.06Z" fill="#2A2157"/>
<path d="M37.3901 64.47C36.3401 65.76 35.29 67.0502 34.24 68.3502C33.16 68.5902 32.1 68.9802 31.01 69.0402C27.02 69.2602 23.7 65.8702 23.88 61.8402C24.04 58.0202 27.39 55.0902 31.25 55.3802C34.03 55.5902 37.01 58.3602 37.35 61.1602C37.48 62.2502 37.3801 63.3702 37.39 64.4802L37.3901 64.47Z" fill="#281956"/>
<path d="M141.93 77.4198C140.31 77.3098 138.971 75.8299 139.101 74.2699C139.221 72.7399 140.891 71.3599 142.381 71.5599C143.941 71.7699 145.121 73.3699 144.911 74.9799C144.721 76.3999 143.38 77.5099 141.94 77.4099L141.93 77.4198Z" fill="#392C66"/>
<path d="M129.559 62.6901C133.289 61.2401 133.62 61.41 134.99 65.42C134.67 65.77 134.35 66.13 134.03 66.47C133.17 67.37 132.1 67.61 130.99 67.16C129.66 66.61 129.11 65.52 129.3 64.09C129.36 63.62 129.479 63.1501 129.569 62.6901H129.559Z" fill="#463E6D"/>
<path d="M30.6 93.3098C30.89 92.6798 31.1796 92.0599 31.4696 91.4399C31.1796 92.0699 30.89 92.6898 30.6 93.3098Z" fill="#FFCDC5"/>
<path d="M31.5105 91.3201C31.4704 90.4801 31.6805 89.8 32.5905 89.54C32.2305 90.13 31.8705 90.7301 31.5105 91.3201Z" fill="#FFCDC5"/>
<path d="M100.44 49.8699C98.0904 50.8999 96.2094 50.3801 94.8294 48.1801C95.0894 47.2701 95.1894 46.2701 95.6494 45.4701C96.4294 44.1001 97.9294 43.6801 99.3794 44.2001C100.779 44.7001 101.539 45.9601 101.259 47.6301C101.129 48.4001 100.719 49.1201 100.439 49.8601L100.44 49.8699Z" fill="#3D3E63"/>
<path d="M120.929 54.0701C120.989 55.7501 119.73 57.24 118.15 57.34C116.37 57.45 114.82 55.9 114.86 54.06C114.9 52.32 116.21 51.02 117.86 51.06C119.51 51.1 120.86 52.42 120.92 54.07L120.929 54.0701Z" fill="#1E7517"/>
<path d="M83.1493 42.5303C83.2493 43.3102 83.5192 44.1203 83.4092 44.8703C83.1592 46.6303 81.5692 47.5803 79.9192 47.1203C78.2992 46.6703 77.3992 44.9503 78.0992 43.3903C78.4092 42.6903 79.0293 42.1303 79.5193 41.5103C80.7293 41.8503 81.9492 42.1802 83.1592 42.5202L83.1493 42.5303Z" fill="#4A496D"/>
</svg>
