<svg width="208" height="242" viewBox="0 0 208 242" fill="none" xmlns="http://www.w3.org/2000/svg">
<path d="M16.9096 158.5C13.7396 155.22 12.6396 151.1 12.3196 146.73C11.7396 138.85 13.8896 131.55 17.3196 124.56C17.9496 123.28 18.6996 122.06 19.5396 120.55C18.4597 119.53 17.4697 118.53 16.4197 117.61C12.1697 113.9 8.55962 109.65 5.62962 104.84C3.61962 101.54 2.12958 98.0103 1.33958 94.2203C0.399577 89.7103 0.689621 85.3303 2.75962 81.1303C4.82962 76.9203 8.20967 74.4902 12.8097 73.8903C19.5897 73.0103 25.8296 74.5703 31.4796 78.4403C33.7596 80.0003 35.5196 82.0503 36.7896 84.5203C37.2896 85.4803 37.7796 86.4502 38.5196 87.8702C49.2096 73.3902 62.1396 62.3802 79.0696 56.2402C78.7496 53.6502 78.3997 51.3003 78.1697 48.9403C77.2597 39.6703 77.1296 30.4203 79.4096 21.3003C80.6596 16.3003 82.5096 11.5303 85.6296 7.39025C86.9596 5.63025 88.5297 3.93025 90.3097 2.64025C94.3397 -0.279748 98.6096 -0.319747 102.87 2.32025C105.24 3.79025 106.94 5.89025 108.35 8.25025C110.85 12.4203 112.14 17.0203 113.17 21.7303C114.37 27.1903 115.48 32.6803 116.99 38.0503C118.9 44.8703 122.13 51.0903 126.2 56.9103C128.32 59.9503 131.04 61.9902 134.49 63.0703C137.54 64.0303 140.65 64.7703 143.71 65.6603C145.08 66.0503 146.41 66.5703 147.76 67.0303C148.2 67.6702 148.64 68.3203 149.24 69.1903C148.54 69.7603 147.93 70.5003 147.15 70.8402C146.46 71.1403 145.58 71.0103 144.79 71.0703C142.6 70.7203 140.4 70.3603 138.21 70.0103C134.11 68.3203 130.04 66.5602 125.9 64.9703C124.75 64.5303 124.03 63.8902 123.51 62.8402C123.08 61.9902 122.59 61.1603 122.05 60.3703C115.25 50.4803 111.12 39.5503 109.01 27.7703C108.43 24.5203 108.16 21.1303 106.51 18.1303C106.47 15.4703 105.24 13.2203 103.87 11.0903C102.94 9.64025 101.82 8.22025 100.49 7.13025C98.0696 5.14025 95.4996 5.13025 93.0996 7.15025C91.5496 8.46025 90.1597 10.0703 89.0497 11.7803C86.6997 15.4103 85.0796 19.3903 84.2596 23.6603C82.4896 32.8003 82.3997 41.9703 83.9297 51.1603C83.8397 53.1203 84.4896 54.8703 85.2296 56.6503C86.0196 58.5303 85.5096 59.5703 83.6096 60.4603C82.6096 60.9303 81.5196 61.2002 80.4796 61.5902C78.5496 62.3202 76.5796 62.9702 74.6996 63.8102C67.1996 67.1502 60.6197 71.8602 54.6697 77.4502C49.3097 82.4802 44.3896 87.8803 41.1096 94.5703C40.7596 95.2803 40.3697 95.9802 39.9197 96.6403C39.0397 97.9202 37.8897 98.4102 36.6797 98.0902C35.4797 97.7602 34.8296 96.9102 34.5796 95.7302C34.1796 93.8602 33.9296 91.9603 33.3996 90.1303C32.5896 87.3603 31.4096 84.7603 28.6896 83.2703C24.5096 79.4403 19.3997 78.5703 14.0497 79.0602C9.91966 79.4303 7.45959 81.9102 6.59959 86.0003C5.71959 90.1702 6.09957 94.2002 8.32957 97.9502C8.65957 98.8302 8.88957 99.7702 9.32957 100.59C12.1396 105.86 15.9696 110.3 20.5096 114.15C21.9696 115.39 23.4296 116.63 24.7596 117.99C25.9796 119.24 26.0396 120.41 25.2196 121.91C24.9896 122.33 24.7097 122.72 24.4297 123.1C20.4197 128.49 18.4596 134.67 17.6196 141.24C16.9496 146.47 17.6897 151.4 21.0597 155.7C21.7297 156.55 22.2997 157.48 22.9197 158.38C22.3297 159.45 21.7296 160.51 20.5196 160.67C19.2296 159.89 18.0797 159.19 16.9297 158.5H16.9096Z" fill="#111564"/>
<path d="M93.9794 226.49C92.9594 227.88 92.0594 229.39 90.8894 230.64C87.8194 233.92 84.4294 236.83 80.5994 239.21C72.9494 243.97 66.2494 242.12 60.2594 237.25C57.6894 235.16 56.3293 232.23 55.5793 229.05C54.3593 223.89 53.7893 218.63 54.2093 213.34C54.6393 207.92 55.2194 202.51 55.9094 197.12C56.9094 189.34 57.7294 181.55 57.7594 173.7C57.7794 169.55 57.5693 165.4 57.4593 161.25C60.0793 161.14 60.3294 159.18 60.6094 157.24C61.2094 158.33 62.1193 159.35 62.3393 160.51C62.8293 163 62.9494 165.55 63.2394 168.08C63.3994 169.46 62.8094 170.96 63.9794 172.28C67.8394 172.78 71.7693 173.29 75.6893 173.8C76.8493 177.2 76.1894 178.45 73.0394 178.49C70.9794 178.51 68.9294 178.27 66.8694 178.14C65.8094 178.08 64.7394 178.01 63.5094 177.94C63.0094 179.84 62.5394 181.45 63.7594 183.14C64.7494 183.04 65.6894 182.99 66.6194 182.85C67.5594 182.71 68.4694 182.4 69.4094 182.31C70.9494 182.16 72.0493 182.91 72.3193 184.15C72.5793 185.34 71.9194 186.62 70.5394 187.13C69.2094 187.62 67.8094 187.9 66.4194 188.2C65.1994 188.47 63.9594 188.64 62.7294 188.85C61.2894 193.17 60.6493 199.58 61.4593 202.34C63.1193 201.97 64.8094 201.6 66.4994 201.22C67.0994 201.35 67.7694 201.37 68.2994 201.65C69.8294 202.46 70.0894 203.46 69.2694 205.07C69.0594 205.47 68.6994 205.8 68.4094 206.16C65.6494 206.79 62.8893 207.42 60.0693 208.06C59.4393 210.71 59.1094 213.13 59.7594 215.42C60.2294 215.62 60.3694 215.73 60.5094 215.74C61.6194 215.76 62.7293 215.74 63.8393 215.76C64.9493 215.78 66.0694 215.76 67.1694 215.88C68.5294 216.03 69.6293 217.24 69.5793 218.38C69.5293 219.55 68.4694 220.6 67.0194 220.76C65.7594 220.9 64.4693 220.84 63.2093 220.98C62.1493 221.1 61.0994 221.38 59.8894 221.62C59.7594 224.07 60.1994 226.24 60.8094 228.34C62.8594 235.41 70.8994 238.75 77.2194 235.05C79.5194 233.7 81.4994 231.8 83.6294 230.16C85.7094 228.27 87.7894 226.38 89.8694 224.49C91.4594 224.71 92.9194 225.19 93.9894 226.49H93.9794Z" fill="#5A2066"/>
<path d="M93.9794 226.49C92.9194 225.19 91.4494 224.71 89.8594 224.49C90.1794 223.94 90.4293 223.34 90.8293 222.86C98.2693 213.96 103.989 204.01 108.759 193.48C110.469 189.7 112.269 185.95 114.129 182.23C115.059 180.38 116.149 178.6 117.319 176.89C118.349 175.39 119.359 175.29 121.009 176.16C121.689 176.52 122.439 177.26 123.049 177.16C125.859 176.69 128.819 177.07 131.459 175.68H131.419C132.839 175.77 134.219 175.68 135.399 174.74C144.949 172.79 153.969 169.44 162.239 164.25C166.649 161.48 171.249 158.91 174.689 154.85C179.619 151.27 183.279 146.59 186.279 141.35C187.969 139.67 189.329 137.79 189.989 135.46C190.979 134.58 191.469 133.48 191.539 132.11C190.939 131.63 190.339 131.14 189.729 130.66C191.069 130.62 192.509 130.88 193.719 130.46C195.549 129.83 196.339 131.96 197.919 131.66C194.409 140.17 189.329 147.67 183.059 154.35C172.679 165.41 160.059 173.01 145.619 177.45C134.569 180.85 133.709 181.46 120.399 182.72C119.029 183.46 118.609 184.88 117.989 186.16C115.079 192.19 112.249 198.26 109.269 204.25C105.639 211.56 101.099 218.31 96.0594 224.71C95.5094 225.41 94.6794 225.9 93.9694 226.48L93.9794 226.49Z" fill="#732464"/>
<path d="M197.92 131.67C196.35 131.98 195.55 129.85 193.72 130.47C192.51 130.88 191.07 130.63 189.73 130.67C181.56 127.94 177.04 118.42 180.21 110.58C181.88 106.46 184.78 103.32 188.31 100.71C189.56 99.7899 190.84 98.8899 192.11 97.9699C191.62 96.5099 191.22 95.3199 190.82 94.1299C192.57 94.7099 194.34 95.8199 195.98 93.8999C197.19 95.5799 198.48 97.0699 200.44 98.0199C202.62 99.0699 204.35 100.75 205.69 102.81C207.49 105.57 207.87 108.42 206.37 111.43C205.95 112.28 205.52 113.13 205.01 114.15C206.93 117.68 208.47 121.4 206.43 125.42C204.66 128.9 201.88 131.11 197.92 131.65V131.67ZM195.67 126.61C196.14 126.64 196.65 126.79 197.08 126.68C201.06 125.61 204.03 122.08 200.65 117.65C198.86 115.3 199.02 113.1 200.65 110.64C202.53 107.8 202.12 106.22 199.67 104.03C198.08 102.61 196.44 102.18 194.44 103.22C191.41 104.79 188.82 106.87 186.77 109.57C185.2 111.64 184.23 114.04 184.44 116.69C184.87 122.12 188.98 125.99 194.82 126.6L195.24 126.7L195.66 126.61H195.67Z" fill="#5A2169"/>
<path d="M195.979 93.9103C194.339 95.8203 192.569 94.7103 190.819 94.1403L190.829 94.1503C190.919 92.5803 190.309 91.5503 188.659 91.3203C185.169 88.4503 181.979 85.1803 177.759 83.3003C174.979 81.7803 172.269 80.1003 169.399 78.7803C163.569 76.1003 157.279 74.7703 151.129 73.0403C148.999 72.4403 146.889 71.7303 144.779 71.0703C145.579 71.0103 146.459 71.1403 147.139 70.8403C147.919 70.5003 148.529 69.7703 149.229 69.1903C148.629 68.3103 148.189 67.6703 147.749 67.0303C149.459 67.3503 151.199 67.5403 152.859 68.0303C158.349 69.6203 163.889 71.1203 169.269 73.0403C172.839 74.3203 176.289 76.0603 179.589 77.9503C185.129 81.1303 190.199 84.9403 193.759 90.4003C193.799 91.2003 194.059 91.8403 194.939 92.0503L194.889 91.9703C194.759 92.8903 194.899 93.6703 195.969 93.9403V93.9203L195.979 93.9103Z" fill="#381F68"/>
<path d="M60.6003 157.25C60.3303 159.2 60.0703 161.16 57.4503 161.26V161.28C57.4903 160.42 57.3203 159.68 56.3303 159.45C53.3903 158.54 50.7003 159.19 48.0703 160.62C45.6903 161.91 43.2704 163.13 40.7904 164.22C37.2304 165.79 33.4603 166.47 29.5803 165.93C24.3703 165.2 19.7604 163.31 16.9004 158.51C18.0504 159.21 19.2004 159.9 20.4904 160.68C21.7004 160.52 22.3004 159.46 22.8904 158.39C23.3404 158.46 23.8703 158.39 24.2303 158.61C29.3303 161.59 34.5204 161.14 39.6704 158.92C42.2704 157.8 44.7003 156.31 47.2103 154.99C49.0003 154.23 50.8003 153.46 52.5903 152.7V152.67C53.6903 153.82 55.1004 153.72 56.5004 153.65C56.8204 153.95 57.1403 154.25 57.4703 154.55C58.1703 155.83 59.0303 156.95 60.5703 157.29L60.5903 157.26L60.6003 157.25Z" fill="#371E68"/>
<path d="M56.3398 159.44C57.3298 159.67 57.4998 160.41 57.4598 161.27C57.0898 160.66 56.7098 160.05 56.3398 159.44Z" fill="#5A2066"/>
<path d="M195.969 93.9403C194.899 93.6703 194.759 92.9003 194.889 91.9703C195.249 92.6303 195.609 93.2803 195.969 93.9403Z" fill="#5A2169"/>
<path d="M194.949 92.0499C194.069 91.8499 193.81 91.1999 193.77 90.3999C194.68 90.5799 194.899 91.2499 194.949 92.0499Z" fill="#5A2169"/>
<path d="M52.61 152.69C50.82 153.45 49.02 154.22 47.23 154.98C46.54 153.38 44.93 152.82 43.64 151.95C38.54 148.54 35.13 143.85 33.11 138.13C31.14 132.53 31.02 126.89 33.21 121.31C34.07 119.11 35.15 116.99 36.2 114.69C35.67 114.14 35.2199 113.39 34.5699 113.05C31.5199 111.46 29.96 108.74 28.77 105.72C27.66 102.89 26.94 99.9599 26.88 96.8999C26.83 94.3499 26.8 91.7999 26.75 89.2599C27.39 87.2599 28.03 85.2599 28.67 83.2599C31.39 84.7599 32.57 87.3499 33.38 90.1299C33.91 91.9499 34.1701 93.8599 34.5601 95.7299C34.8101 96.8999 35.45 97.7599 36.66 98.0899C37.87 98.4199 39.02 97.9199 39.9 96.6399C40.35 95.9899 40.74 95.2899 41.09 94.5699C44.36 87.8699 49.29 82.4699 54.65 77.4499C60.6 71.8599 67.1901 67.1399 74.6801 63.8099C76.5601 62.9699 78.53 62.3099 80.46 61.5899C81.5 61.1999 82.59 60.9299 83.59 60.4599C85.5 59.5699 86 58.5299 85.21 56.6499C84.47 54.8699 83.81 53.1199 83.91 51.1599C84.32 50.6899 84.98 50.2899 85.1 49.7599C86.11 45.2199 88.08 41.0499 90.14 36.9599C92.87 31.5599 96.2099 26.5499 100.94 22.6299C102.77 21.1199 104.63 19.6399 106.48 18.1499C108.13 21.1499 108.4 24.5399 108.98 27.7899C111.09 39.5699 115.22 50.4999 122.02 60.3899C122.56 61.1799 123.05 62.0099 123.48 62.8599C124 63.9099 124.72 64.5499 125.87 64.9899C130.01 66.5799 134.08 68.3399 138.18 70.0299C135.05 70.0499 132.51 71.9299 129.67 72.8399C125.49 74.1799 121.51 76.0399 117.94 78.6899C115.92 80.1899 113.71 81.4399 111.65 82.8899C110.75 83.5199 109.97 84.3299 109.21 85.1299C108.53 85.8499 109.06 86.5999 109.32 87.3199C107.73 87.2499 106.14 87.2199 104.56 87.0999C100.91 86.8399 97.26 86.4099 93.61 86.2999C85.17 86.0599 76.73 86.0299 68.33 87.2999C65.94 87.6599 64.5 88.6099 63.9 90.8899C63.62 91.9699 63.31 93.0399 63.1 94.1299C62.09 99.2899 61.39 104.49 60.96 109.75C60.16 119.69 60.7899 129.48 63.3199 139.13C62.7199 138.98 62.12 138.82 61.54 138.67C59.67 141.18 57.64 143.45 56.15 146.03C54.9 148.2 53.08 150.11 52.61 152.71V152.69Z" fill="#FEAF56"/>
<path d="M109.329 87.2998C109.059 86.5798 108.529 85.8298 109.219 85.1098C109.979 84.3098 110.769 83.4998 111.659 82.8698C113.719 81.4198 115.929 80.1698 117.949 78.6698C121.519 76.0198 125.499 74.1598 129.679 72.8198C132.529 71.9098 135.059 70.0298 138.189 70.0098C140.379 70.3598 142.579 70.7098 144.769 71.0698C146.889 71.7298 148.989 72.4398 151.119 73.0398C157.269 74.7798 163.549 76.0998 169.389 78.7798C172.259 80.0998 174.969 81.7798 177.749 83.2998C171.119 82.3398 164.509 81.4598 157.769 82.4498C151.039 83.4498 144.609 85.1998 139.059 89.2798C132.999 93.7298 129.359 99.4798 130.479 107.32C130.819 109.66 131.759 111.92 132.429 114.22C132.129 114.94 132.019 115.89 131.489 116.35C128.609 118.85 127.809 122.16 127.539 125.72C127.149 126.21 126.859 126.94 126.349 127.16C122.799 128.67 119.839 131.05 116.859 133.42C116.579 131.06 116.139 128.71 116.069 126.35C115.869 119.8 115.819 113.24 115.709 106.69C117.199 105.9 118.089 104.78 117.999 102.97C117.909 101.17 116.979 100.11 115.339 99.5498C116.009 96.2098 115.809 92.9098 114.949 89.6298C114.689 88.2098 113.799 87.4698 112.399 87.3698C111.629 87.3098 110.849 87.3798 110.079 87.3898C109.799 87.5498 109.539 87.5198 109.299 87.2998H109.329Z" fill="#FEBF60"/>
<path d="M26.7601 89.27C26.8001 91.82 26.8401 94.37 26.8901 96.91C26.9401 99.97 27.6602 102.9 28.7802 105.73C29.9702 108.74 31.5301 111.47 34.5801 113.06C35.2401 113.4 35.6801 114.15 36.2101 114.7C35.1601 117 34.0801 119.12 33.2201 121.32C31.0301 126.9 31.1501 132.55 33.1201 138.14C35.1401 143.86 38.5501 148.54 43.6501 151.96C44.9401 152.82 46.5401 153.39 47.2401 154.99C44.7301 156.31 42.3001 157.8 39.7001 158.92C34.5501 161.13 29.3501 161.59 24.2601 158.61C23.8901 158.4 23.3702 158.45 22.9202 158.39C22.3002 157.5 21.7302 156.56 21.0602 155.71C17.6902 151.41 16.9501 146.48 17.6201 141.25C18.4601 134.68 20.4202 128.5 24.4302 123.11C24.7102 122.73 25.0001 122.34 25.2201 121.92C26.0301 120.42 25.9801 119.25 24.7601 118C23.4301 116.63 21.9701 115.39 20.5101 114.16C15.9701 110.31 12.1401 105.87 9.33008 100.6C8.89008 99.78 8.66008 98.84 8.33008 97.96C11.0201 99.3 13.9201 98.91 16.7401 98.83C19.6601 98.74 22.7001 99.52 25.8401 97.98C25.8401 95.94 25.7501 93.89 25.8801 91.85C25.9401 90.98 26.4601 90.14 26.7701 89.29L26.7601 89.27Z" fill="#FFECF2"/>
<path d="M106.489 18.13C104.639 19.62 102.779 21.1 100.949 22.61C96.2192 26.53 92.8793 31.54 90.1493 36.94C88.0793 41.04 86.1193 45.2 85.1093 49.74C84.9893 50.27 84.3293 50.68 83.9193 51.14C82.3893 41.96 82.4793 32.78 84.2493 23.64C85.0693 19.38 86.6893 15.39 89.0393 11.76C90.1493 10.05 91.5293 8.43996 93.0892 7.12996C95.4893 5.10996 98.0593 5.11996 100.479 7.10996C101.799 8.19996 102.919 9.61996 103.859 11.07C105.229 13.2 106.459 15.45 106.499 18.11L106.489 18.13Z" fill="#FEEFF4"/>
<path d="M26.7589 89.2701C26.4489 90.1201 25.9189 90.9601 25.8689 91.8301C25.7389 93.8701 25.8289 95.9201 25.8289 97.9601C22.6889 99.5001 19.6489 98.73 16.7289 98.8101C13.9089 98.8901 11.0189 99.2801 8.31886 97.9401C6.08886 94.2001 5.70888 90.1701 6.58888 85.9901C7.44888 81.9001 9.90895 79.4301 14.039 79.0501C19.399 78.5701 24.499 79.43 28.679 83.26C28.039 85.26 27.3989 87.26 26.7589 89.26V89.2701Z" fill="#FEFBFD"/>
<path d="M131.471 175.68C128.831 177.07 125.871 176.7 123.061 177.16C122.451 177.26 121.701 176.53 121.021 176.16C119.381 175.28 118.361 175.39 117.331 176.89C116.161 178.6 115.071 180.38 114.141 182.23C112.271 185.94 110.481 189.69 108.771 193.48C104.001 204.01 98.2806 213.96 90.8406 222.86C90.4406 223.34 90.1906 223.94 89.8706 224.49C87.7906 226.38 85.7106 228.27 83.6306 230.16C83.1106 229.26 82.6407 228.31 82.0507 227.45C80.9507 225.82 79.7806 224.24 78.6406 222.64C79.2506 221.95 80.1207 221.35 80.4207 220.54C81.1307 218.61 81.5106 216.56 82.1406 214.6C85.4606 204.36 90.6107 195.07 97.0507 186.48C98.1907 184.96 99.2306 183.3 100.601 182.01C103.961 178.87 106.641 175.08 110.131 172.07C112.661 169.89 114.871 167.33 117.541 165.36C123.411 161.02 129.401 156.86 135.731 153.17C145.731 147.34 156.201 142.97 167.621 140.95C169.801 140.56 172.051 140.39 174.151 139.73C176.841 138.88 179.531 139.2 182.221 139.2C183.871 139.2 185.321 139.9 186.281 141.35C183.281 146.59 179.621 151.26 174.691 154.84C175.451 153.52 176.211 152.2 176.921 150.96C176.081 149.64 174.891 149.5 173.831 149.76C169.681 150.76 165.401 151.07 161.291 152.36C152.751 155.04 144.611 158.52 136.971 163.21C132.231 166.12 127.791 169.44 123.331 172.74C122.601 173.28 121.821 174.02 122.681 175.49C125.471 175.55 128.461 175.61 131.461 175.67L131.471 175.68Z" fill="#FFEE8F"/>
<path d="M116.89 133.43C119.86 131.06 122.82 128.68 126.38 127.17C126.89 126.95 127.18 126.22 127.57 125.73C128.66 126.47 128.44 127.66 128.58 128.73C128.97 131.68 130.19 134.03 133 135.48C134.65 136.34 136.33 137.32 137.17 139.17C135.48 140.34 133.88 141.68 132.07 142.63C125.15 146.28 118.7 150.59 112.55 155.44C110.16 157.32 108.16 159.64 105.7 161.36C99.2 165.92 94.3 172.02 89.49 178.12C83.29 186.01 77.79 194.42 73.72 203.67C73.4 204.4 73 205.09 72.62 205.79C72.02 206.88 71 207.26 69.84 207.39C69.37 206.98 68.89 206.57 68.42 206.16C68.71 205.8 69.07 205.48 69.28 205.07C70.1 203.46 69.8401 202.46 68.3101 201.65C67.7801 201.37 67.12 201.36 66.51 201.22C66.11 197 64.9601 192.99 63.0601 189.2C62.9901 189.06 62.85 188.97 62.75 188.85C63.98 188.64 65.2199 188.46 66.4399 188.2C67.8299 187.9 69.2401 187.62 70.5601 187.13C71.9501 186.62 72.6 185.34 72.34 184.15C72.07 182.91 70.9701 182.16 69.4301 182.31C68.4901 182.4 67.57 182.71 66.64 182.85C65.72 182.99 64.78 183.04 63.78 183.14C62.56 181.44 63.03 179.84 63.53 177.94C64.77 178.01 65.83 178.07 66.89 178.14C68.95 178.26 71.0101 178.51 73.0601 178.49C76.2101 178.46 76.88 177.2 75.71 173.8C75.64 171.62 76.56 169.85 77.9 168.19C81.48 163.74 85.38 159.6 89.48 155.64C91.88 153.33 94.16 150.89 96.6 148.63C98.55 146.83 100.67 145.21 103.35 142.98C104.6 142.98 106.65 142.98 108.7 142.98C109.67 142.98 110.61 142.9 111.26 142.04C111.83 141.81 112.39 141.51 112.99 141.35C115.2 140.75 116.49 139.44 116.49 137.05C116.49 136.78 116.74 136.5 116.88 136.23C118.02 135.66 118 135.03 116.98 134.34C116.81 134.04 116.78 133.74 116.91 133.42L116.89 133.43Z" fill="#FFCC6E"/>
<path d="M111.239 142.06C110.589 142.92 109.649 143 108.679 143C106.629 143 104.579 143 103.329 143C100.659 145.22 98.5293 146.84 96.5793 148.65C94.1393 150.91 91.8594 153.35 89.4594 155.66C85.3594 159.62 81.4594 163.76 77.8794 168.21C76.5394 169.88 75.6293 171.64 75.6893 173.82C71.7593 173.31 67.8394 172.8 63.9794 172.3C62.7994 170.98 63.3994 169.47 63.2394 168.1C62.9394 165.58 62.8194 163.02 62.3394 160.53C62.1094 159.37 61.1994 158.34 60.6094 157.26L60.5894 157.29C60.2194 155.62 59.1894 154.72 57.4894 154.55C57.1694 154.25 56.8494 153.95 56.5194 153.65C55.5194 152.13 53.9894 152.71 52.6094 152.67V152.7C53.0794 150.11 54.8994 148.19 56.1494 146.02C57.6394 143.44 59.6694 141.17 61.5394 138.66C62.1194 138.81 62.7193 138.96 63.3193 139.12C63.9093 139.48 64.4994 139.83 65.0894 140.18C68.7494 141.22 72.5094 141.68 76.2694 142.11C84.2394 143.03 92.2194 142.97 100.209 142.39C103.869 142.13 107.549 142.15 111.229 142.04L111.239 142.06Z" fill="#FFC061"/>
<path d="M68.4001 206.17C68.8701 206.58 69.35 206.99 69.83 207.4C71.91 212.98 74.7701 218.1 78.6401 222.65C79.7801 224.25 80.9501 225.83 82.0501 227.46C82.6301 228.32 83.1101 229.26 83.6301 230.17C81.5101 231.82 79.52 233.71 77.22 235.06C70.91 238.77 62.8701 235.42 60.8101 228.35C60.2001 226.24 59.7601 224.07 59.8901 221.63C61.1001 221.39 62.15 221.11 63.21 220.99C64.47 220.85 65.7601 220.91 67.0201 220.77C68.4701 220.61 69.53 219.55 69.58 218.39C69.63 217.25 68.5301 216.04 67.1701 215.89C66.0701 215.77 64.95 215.79 63.84 215.77C62.73 215.75 61.6201 215.77 60.5101 215.75C60.3701 215.75 60.2301 215.64 59.7601 215.43C59.1101 213.14 59.44 210.73 60.07 208.07C62.89 207.43 65.6501 206.8 68.4101 206.17H68.4001Z" fill="#FEFAFC"/>
<path d="M62.7305 188.87C62.8405 188.99 62.9706 189.09 63.0406 189.22C64.9406 193.01 66.0905 197.01 66.4905 201.24C64.8105 201.61 63.1205 201.99 61.4605 202.36C60.6505 199.6 61.2905 193.2 62.7305 188.87Z" fill="#FAF2F0"/>
<path d="M132.45 114.23C131.78 111.93 130.83 109.68 130.5 107.33C129.37 99.4799 133.01 93.7399 139.08 89.2899C144.63 85.2099 151.06 83.4599 157.79 82.4599C164.52 81.4599 171.14 82.3399 177.77 83.3099C181.99 85.1899 185.19 88.4599 188.67 91.3299C189.39 92.2699 190.12 93.2099 190.84 94.1599L190.829 94.1503C191.229 95.3403 191.63 96.5299 192.12 97.9899C190.85 98.8999 189.58 99.7999 188.32 100.73C184.79 103.33 181.89 106.48 180.22 110.6C177.04 118.44 181.57 127.96 189.74 130.69C190.34 131.18 190.95 131.66 191.55 132.14C191.49 133.51 191 134.61 190 135.49C189.64 135.52 189.28 135.55 188.92 135.58C187.58 135.42 186.21 135.13 185.11 136.26C184.49 136.28 183.86 136.29 183.24 136.31C181.32 136.31 179.41 136.29 177.49 136.28C176.88 136.26 176.28 136.25 175.67 136.23C173.55 134.79 171.14 135.54 168.86 135.32C168.56 135.26 168.26 135.25 167.96 135.29C166.87 134.11 165.43 134.41 164.07 134.4C161.53 133.68 158.99 132.96 156.45 132.24C156.59 131.32 156.77 130.4 156.84 129.47C156.91 128.56 156.95 127.63 156.84 126.72C156.37 122.49 154.26 119.38 150.48 117.35C149.24 116.68 148.19 115.64 146.95 114.98C143.79 113.31 140.48 112.53 136.95 113.83C135.77 114.27 134.58 114.69 133.4 115.12C133.08 114.83 132.77 114.53 132.45 114.24V114.23ZM156.75 89.9299C149.93 89.5499 143.29 95.0499 143.04 102.98C142.81 110.44 149.11 116.72 156.69 116.67C163.83 116.62 169.74 110.73 169.87 103.52C170.01 96.0399 164.19 90.0099 156.75 89.9299Z" fill="#FFFCFD"/>
<path d="M156.44 132.23C158.98 132.95 161.52 133.67 164.06 134.39C165.11 135.76 166.6 135.23 167.95 135.28C168.25 135.24 168.55 135.25 168.85 135.31C169.54 135.63 170.21 136.17 170.92 136.22C172.49 136.35 174.08 136.23 175.67 136.22C176.28 136.24 176.88 136.25 177.49 136.27C179.4 137.72 181.32 137.71 183.24 136.3C183.86 136.28 184.49 136.27 185.11 136.25C186.42 136.21 187.81 136.69 188.92 135.56C189.28 135.53 189.64 135.5 190 135.47C189.34 137.8 187.98 139.68 186.29 141.36C185.33 139.91 183.88 139.21 182.23 139.21C179.54 139.21 176.85 138.89 174.16 139.74C172.06 140.4 169.81 140.57 167.63 140.96C156.21 142.98 145.74 147.35 135.74 153.18C129.4 156.87 123.41 161.03 117.55 165.37C114.88 167.34 112.66 169.91 110.14 172.08C106.64 175.09 103.97 178.88 100.61 182.02C99.2399 183.3 98.1999 184.96 97.0599 186.49C90.6199 195.08 85.4699 204.37 82.1499 214.61C81.5099 216.57 81.1399 218.62 80.4299 220.55C80.1299 221.36 79.2599 221.95 78.6499 222.65C74.7799 218.1 71.9198 212.98 69.8398 207.4C70.9998 207.27 72.0199 206.89 72.6199 205.8C72.9999 205.1 73.3998 204.41 73.7198 203.68C77.7999 194.44 83.2899 186.02 89.4899 178.13C94.2899 172.03 99.1998 165.93 105.7 161.37C108.16 159.65 110.16 157.33 112.55 155.45C118.7 150.61 125.15 146.29 132.07 142.64C133.88 141.69 135.47 140.34 137.17 139.18C137.64 139.27 138.13 139.3 138.58 139.46C141.22 140.45 144.07 140.78 146.53 139.61C149.48 138.2 152.82 137.16 154.84 134.26C155.18 133.77 155.25 133.08 155.44 132.48C155.78 132.4 156.12 132.32 156.46 132.24L156.44 132.23Z" fill="#FFDF43"/>
<path d="M131.471 175.68C128.481 175.62 125.48 175.56 122.69 175.5C121.83 174.03 122.6 173.3 123.34 172.75C127.8 169.45 132.24 166.13 136.98 163.22C144.62 158.53 152.76 155.06 161.3 152.37C165.42 151.08 169.69 150.77 173.84 149.77C174.9 149.51 176.09 149.66 176.93 150.97C176.22 152.21 175.46 153.53 174.7 154.85C171.25 158.91 166.65 161.48 162.25 164.25C153.98 169.44 144.96 172.78 135.41 174.74C134.01 174.75 132.48 174.19 131.43 175.69H131.47L131.471 175.68Z" fill="#FFFCA1"/>
<path d="M131.43 175.69C132.47 174.19 134.01 174.75 135.41 174.74C134.23 175.68 132.85 175.77 131.43 175.69Z" fill="#FFEE8F"/>
<path d="M194.83 126.6C188.99 125.99 184.87 122.12 184.45 116.69C184.24 114.04 185.21 111.64 186.78 109.57C188.83 106.87 191.41 104.78 194.45 103.22C196.46 102.18 198.09 102.61 199.68 104.03C202.13 106.22 202.53 107.8 200.66 110.64C199.03 113.1 198.86 115.3 200.66 117.65C204.04 122.08 201.06 125.61 197.09 126.68C196.66 126.8 196.15 126.64 195.68 126.61C196.15 126.19 196.7 125.84 197.06 125.34C197.81 124.33 197.62 123.16 196.69 122.45C195.73 121.72 194.6 121.77 193.7 122.62C192.85 123.43 193.02 124.29 193.65 125.14C194.02 125.64 194.44 126.11 194.84 126.6H194.83Z" fill="#FE99BB"/>
<path d="M194.83 126.6C194.43 126.11 194.02 125.64 193.64 125.14C193.01 124.3 192.85 123.43 193.69 122.62C194.59 121.77 195.72 121.72 196.68 122.45C197.61 123.17 197.81 124.33 197.05 125.34C196.68 125.83 196.13 126.19 195.67 126.61L195.25 126.7L194.83 126.6Z" fill="#FFECF2"/>
<path d="M190.84 94.1599C190.12 93.2199 189.39 92.2799 188.67 91.3299C190.32 91.5599 190.93 92.5899 190.84 94.1599Z" fill="#5A2169"/>
<path d="M57.4805 154.54C59.1705 154.71 60.2104 155.61 60.5804 157.28C59.0504 156.93 58.1905 155.82 57.4805 154.54Z" fill="#5A2066"/>
<path d="M52.6094 152.66C53.9794 152.7 55.5194 152.12 56.5194 153.64C55.1194 153.71 53.7094 153.81 52.6094 152.66Z" fill="#FEAF56"/>
<path d="M65.1006 140.19C64.5106 139.84 63.9205 139.48 63.3305 139.13C60.8005 129.48 60.1706 119.69 60.9706 109.75C61.3906 104.49 62.1006 99.3001 63.1106 94.1301C63.3206 93.0401 63.6306 91.9701 63.9106 90.8901C64.5106 88.6101 65.9506 87.6601 68.3406 87.3001C76.7406 86.0301 85.1806 86.0601 93.6206 86.3001C97.2806 86.4001 100.921 86.8401 104.571 87.1001C106.151 87.2101 107.741 87.2501 109.331 87.3201C109.571 87.5501 109.831 87.5801 110.111 87.4101C111.731 88.1501 113.361 88.9001 114.981 89.6401C115.841 92.9201 116.041 96.2201 115.371 99.5601C114.651 99.6701 113.941 99.7701 113.231 99.8801C112.031 99.6801 111.441 99.0401 111.321 97.7601C111.171 96.1901 111.971 94.3701 110.301 93.1301C109.371 92.9201 108.451 92.6001 107.501 92.5001C97.9806 91.5201 88.4306 90.9801 78.8506 91.4501C78.0706 91.4901 77.3106 91.7601 76.5406 91.9301C74.2406 91.8701 71.9205 91.6401 69.8306 92.9401C68.2306 93.4001 68.3606 94.8701 68.1006 96.0501C65.8806 106.26 65.5905 116.6 66.3205 126.98C66.5105 129.65 67.1306 132.28 67.5206 134.73C68.9006 135.31 69.9107 135.74 70.9306 136.17C71.7607 136.82 72.5906 137.48 73.4206 138.13C73.2906 139.49 72.3606 139.98 71.1806 140.03C69.1507 140.13 67.1206 140.13 65.0906 140.18L65.1006 140.19Z" fill="#211864"/>
<path d="M65.1006 140.19C67.1306 140.15 69.1596 140.14 71.1896 140.04C72.3696 139.98 73.3097 139.5 73.4297 138.14C72.5897 137.48 71.7596 136.83 70.9396 136.18C74.1096 136.52 77.2696 137.1 80.4396 137.14C89.0496 137.25 97.6697 137.14 106.29 137.06C107.37 137.05 108.45 136.64 109.53 136.42L109.94 136.5L110.29 136.27C111.01 136.11 111.36 135.62 111.34 134.93C111.3 133.03 111.2 131.13 111.13 129.23C110.9 122.11 110.63 114.99 110.46 107.86C110.34 102.95 110.351 98.0401 110.301 93.1301C111.971 94.3701 111.161 96.1901 111.321 97.7601C111.451 99.0301 112.041 99.6801 113.231 99.8801C112.901 100.39 112.49 100.86 112.25 101.41C111.24 103.7 111.72 105.14 113.96 106.31C114.48 106.58 115.15 106.58 115.75 106.7C115.86 113.25 115.91 119.81 116.11 126.36C116.18 128.72 116.63 131.08 116.9 133.43C116.77 133.75 116.79 134.06 116.97 134.35C116.94 134.98 116.9 135.61 116.87 136.24C116.73 136.51 116.48 136.79 116.48 137.06C116.48 139.46 115.19 140.76 112.98 141.36C112.39 141.52 111.83 141.82 111.25 142.05C107.58 142.16 103.9 142.13 100.23 142.4C92.2396 142.97 84.2497 143.03 76.2897 142.12C72.5297 141.69 68.7696 141.23 65.1096 140.19L65.1006 140.19Z" fill="#4D2166"/>
<path d="M155.419 132.47C155.229 133.07 155.159 133.76 154.819 134.25C152.799 137.15 149.459 138.2 146.509 139.6C144.059 140.77 141.199 140.43 138.559 139.45C138.119 139.28 137.619 139.26 137.149 139.17C136.309 137.33 134.629 136.34 132.979 135.48C130.169 134.03 128.959 131.68 128.559 128.73C128.419 127.66 128.649 126.48 127.549 125.73C127.809 122.17 128.619 118.86 131.499 116.36C132.029 115.9 132.139 114.95 132.439 114.23C132.759 114.53 133.069 114.82 133.389 115.11C133.999 116.1 134.609 117.08 135.219 118.07C135.079 118.84 135.109 119.7 134.759 120.35C133.719 122.25 132.529 124.06 131.459 125.81C132.339 127.53 132.929 129.03 133.829 130.33C134.629 131.49 135.819 132.38 136.739 133.47C138.109 135.12 139.949 135.78 141.859 135.22C144.489 134.45 147.699 135.01 149.529 132.21C149.789 131.82 149.889 131.28 150.229 131C150.559 130.72 151.099 130.68 151.539 130.53C152.829 131.17 154.119 131.82 155.409 132.46L155.419 132.47Z" fill="#FFAE9E"/>
<path d="M115.74 106.69C115.14 106.57 114.479 106.57 113.949 106.3C111.719 105.13 111.23 103.69 112.24 101.4C112.48 100.85 112.89 100.38 113.22 99.8698C113.93 99.7598 114.64 99.6598 115.36 99.5498C116.99 100.11 117.93 101.18 118.02 102.97C118.11 104.77 117.22 105.9 115.73 106.69H115.74Z" fill="#F9F3F2"/>
<path d="M114.979 89.63C113.359 88.89 111.739 88.14 110.109 87.4C110.879 87.39 111.659 87.32 112.429 87.38C113.829 87.48 114.719 88.22 114.979 89.64V89.63Z" fill="#FEAF56"/>
<path d="M116.85 136.24C116.88 135.61 116.92 134.98 116.95 134.35C117.97 135.04 117.99 135.67 116.85 136.24Z" fill="#FEBF60"/>
<path d="M156.749 89.9301C164.189 90.0101 170.009 96.0401 169.869 103.52C169.739 110.72 163.819 116.62 156.689 116.67C149.109 116.72 142.819 110.43 143.039 102.98C143.279 95.0601 149.919 89.5501 156.749 89.9301ZM156.479 111.45C161.019 111.45 164.759 107.79 164.809 103.3C164.859 98.9501 161.009 95.0701 156.569 95.0101C152.089 94.9501 148.419 98.6201 148.349 103.22C148.279 107.8 151.879 111.45 156.479 111.45Z" fill="#4A2068"/>
<path d="M155.42 132.47C154.13 131.83 152.84 131.18 151.55 130.54C151.53 128.81 151.69 127.06 151.44 125.37C151.27 124.21 150.54 123.13 150.06 122.01C148.86 119.2 146.7 118.02 143.71 117.42C141.47 116.97 139.59 116.85 137.57 117.95C136.95 118.29 136.03 118.05 135.24 118.08C134.63 117.09 134.02 116.11 133.41 115.12C134.59 114.69 135.78 114.27 136.96 113.83C140.49 112.53 143.8 113.31 146.96 114.98C148.21 115.64 149.25 116.68 150.49 117.35C154.26 119.38 156.37 122.5 156.85 126.72C156.95 127.63 156.91 128.56 156.85 129.47C156.78 130.4 156.59 131.32 156.46 132.24C156.12 132.32 155.78 132.4 155.44 132.48L155.42 132.47Z" fill="#FFBFD5"/>
<path d="M175.66 136.23C174.08 136.25 172.49 136.36 170.91 136.23C170.2 136.17 169.53 135.64 168.84 135.32C171.12 135.54 173.54 134.79 175.65 136.23H175.66Z" fill="#FFEE8F"/>
<path d="M183.23 136.3C181.31 137.71 179.39 137.72 177.48 136.27C179.4 136.27 181.31 136.29 183.23 136.3Z" fill="#FFEE8F"/>
<path d="M188.92 135.56C187.81 136.68 186.41 136.21 185.11 136.25C186.22 135.11 187.58 135.41 188.92 135.56Z" fill="#FFEE8F"/>
<path d="M167.95 135.28C166.6 135.23 165.11 135.75 164.06 134.39C165.42 134.4 166.86 134.1 167.95 135.28Z" fill="#FFEE8F"/>
<path d="M109.529 136.41C108.449 136.63 107.369 137.04 106.289 137.05C97.6691 137.14 89.059 137.24 80.439 137.13C77.269 137.09 74.099 136.5 70.939 136.17C69.929 135.74 68.9191 135.32 67.5291 134.73C67.1391 132.28 66.519 129.65 66.329 126.98C65.589 116.6 65.889 106.26 68.109 96.0499C68.369 94.8699 68.239 93.3999 69.839 92.9399C69.959 93.0699 70.089 93.1999 70.209 93.3299C70.919 95.7099 71.069 95.8499 72.819 95.5099C73.579 95.3599 74.329 95.0799 75.099 95.0099C76.419 94.8999 77.7391 95.1799 78.2491 96.5399C78.7991 97.9899 79.2991 99.6099 77.4291 100.65C77.4891 99.5599 77.8091 98.3999 77.5491 97.3999C77.1191 95.7299 74.9191 95.3399 73.6591 96.5599C72.4291 97.7499 72.3991 99.8099 73.7991 100.73C74.5191 101.21 75.5891 101.17 76.4991 101.36C78.1591 104.05 80.119 106.6 81.439 109.45C84.949 117.06 87.889 124.91 90.089 133.02C90.899 136.02 91.1191 136.2 94.3091 136.26C96.3691 136.3 98.4391 136.23 100.499 136.26C103.509 136.29 106.519 136.36 109.529 136.41ZM74.1391 130.85C75.3891 130.75 76.519 129.52 76.489 128.31C76.439 126.64 74.8991 125.34 73.2891 125.62C72.0291 125.84 71.089 127.08 71.209 128.36C71.359 129.83 72.6991 130.97 74.1391 130.86V130.85Z" fill="#ECEAEA"/>
<path d="M110.299 93.1301C110.349 98.0401 110.34 102.95 110.46 107.86C110.64 114.98 110.9 122.11 111.13 129.23C111.19 131.13 111.29 133.03 111.34 134.93C111.36 135.62 111.01 136.11 110.29 136.27C110.24 133.58 110.189 130.89 110.139 128.34C107.289 126.03 104.699 123.94 102.119 121.82C101.629 121.42 101.179 120.95 100.769 120.47C99.1293 118.54 97.2993 116.72 95.9193 114.61C94.0193 111.68 91.3192 109.38 89.8192 106.11C88.0992 102.36 85.8093 98.8801 84.0093 95.1601C82.9593 93.0001 81.5892 91.9301 79.1892 92.2101C78.3992 92.3001 77.5993 92.3001 76.7993 92.3401C76.7093 92.2001 76.6193 92.0701 76.5293 91.9401C77.2993 91.7701 78.0592 91.5001 78.8392 91.4601C88.4192 90.9901 97.9593 91.5301 107.489 92.5101C108.429 92.6101 109.359 92.9201 110.289 93.1401L110.299 93.1301ZM103.579 102.07C103.009 101.34 102.449 100.62 101.869 99.9101C101.309 99.2301 102.099 97.9401 100.839 97.5901C99.5492 97.9501 98.9793 98.9301 98.8993 100.07C98.8493 100.8 99.1093 101.65 99.5093 102.28C100.379 103.64 101.479 103.56 103.569 102.08L103.579 102.07Z" fill="#EBEAEA"/>
<path d="M69.8306 92.9401C71.9205 91.6401 74.2406 91.8701 76.5406 91.9301C76.6306 92.0601 76.7202 92.2002 76.8102 92.3302C75.8102 92.5802 74.8302 92.9202 73.8102 93.0702C72.6202 93.2402 71.4101 93.2502 70.2101 93.3302C70.0801 93.2002 69.9601 93.0702 69.8401 92.9402L69.8306 92.9401Z" fill="#ECEAEA"/>
<path d="M70.209 93.3299C71.409 93.2499 72.6191 93.2402 73.8091 93.0702C74.8191 92.9202 75.8091 92.5902 76.8091 92.3302C77.6091 92.2902 78.409 92.3002 79.199 92.2002C81.599 91.9102 82.979 92.9902 84.019 95.1502C85.819 98.8702 88.109 102.35 89.829 106.1C91.329 109.37 94.0291 111.67 95.9291 114.6C97.2991 116.71 99.1291 118.53 100.779 120.46C101.189 120.94 101.639 121.41 102.129 121.81C104.709 123.92 107.299 126.02 110.149 128.33C110.199 130.89 110.249 133.57 110.299 136.26L109.949 136.49L109.539 136.41C106.529 136.36 103.519 136.29 100.509 136.26C98.449 136.24 96.379 136.31 94.319 136.26C91.129 136.19 90.909 136.01 90.099 133.02C87.899 124.91 84.959 117.07 81.449 109.45C80.139 106.6 78.179 104.05 76.519 101.36C76.829 101.12 77.139 100.89 77.449 100.65C79.319 99.6002 78.819 97.9902 78.269 96.5402C77.749 95.1802 76.439 94.8902 75.119 95.0102C74.349 95.0802 73.599 95.3602 72.839 95.5102C71.099 95.8502 70.939 95.7102 70.229 93.3302L70.209 93.3299ZM102.629 132C103.879 131.99 105.129 130.89 105.259 129.68C105.419 128.16 103.779 126.57 102.229 126.73C100.999 126.86 99.859 128.1 99.849 129.31C99.829 130.7 101.199 132.02 102.639 132H102.629Z" fill="#FEFEFE"/>
<path d="M135.229 118.08C136.009 118.05 136.939 118.28 137.559 117.95C139.579 116.85 141.459 116.97 143.699 117.42C146.689 118.02 148.849 119.2 150.049 122.01C150.529 123.13 151.259 124.21 151.429 125.37C151.679 127.06 151.529 128.82 151.539 130.54C151.089 130.69 150.559 130.73 150.229 131.01C149.889 131.29 149.789 131.83 149.529 132.22C147.699 135.02 144.479 134.46 141.859 135.23C139.949 135.79 138.119 135.12 136.739 133.48C135.829 132.39 134.639 131.5 133.829 130.34C132.939 129.04 132.339 127.54 131.459 125.82C132.529 124.07 133.729 122.26 134.759 120.36C135.119 119.71 135.079 118.85 135.219 118.08H135.229Z" fill="#FFA2B9"/>
<path d="M156.479 111.45C151.889 111.45 148.279 107.8 148.349 103.22C148.419 98.6201 152.099 94.9501 156.569 95.0101C161.009 95.0701 164.859 98.9501 164.809 103.3C164.759 107.79 161.019 111.44 156.479 111.45ZM155.729 98.35C153.109 98.19 150.949 100.22 150.749 103C150.559 105.61 152.849 107.99 155.809 108.27C158.619 108.53 161.159 106.37 161.299 103.58C161.449 100.71 159.149 98.56 155.729 98.35Z" fill="#F1EBF2"/>
<path d="M74.1391 130.85C72.6991 130.97 71.3592 129.82 71.2092 128.35C71.0792 127.07 72.0293 125.83 73.2893 125.61C74.8893 125.34 76.4392 126.63 76.4892 128.3C76.5292 129.52 75.3992 130.74 74.1392 130.84L74.1391 130.85Z" fill="#4D3D7C"/>
<path d="M77.4306 100.66C77.1206 100.9 76.8105 101.13 76.5105 101.37C75.6005 101.18 74.5406 101.21 73.8106 100.74C72.4106 99.82 72.4406 97.75 73.6706 96.57C74.9306 95.36 77.1306 95.75 77.5606 97.41C77.8206 98.42 77.5005 99.57 77.4405 100.66H77.4306Z" fill="#373678"/>
<path d="M103.58 102.07C101.49 103.55 100.39 103.63 99.5204 102.27C99.1204 101.65 98.8604 100.79 98.9104 100.06C98.9904 98.9201 99.5604 97.9401 100.85 97.5801C102.11 97.9301 101.32 99.2301 101.88 99.9001C102.46 100.61 103.02 101.33 103.59 102.06L103.58 102.07Z" fill="#66568D"/>
<path d="M102.63 132C101.19 132.01 99.8201 130.69 99.8401 129.31C99.8501 128.1 101 126.86 102.22 126.73C103.77 126.57 105.41 128.16 105.25 129.68C105.12 130.89 103.88 131.99 102.62 132H102.63Z" fill="#6B4983"/>
<path d="M155.729 98.35C159.149 98.55 161.449 100.71 161.299 103.58C161.159 106.37 158.619 108.54 155.809 108.27C152.849 107.99 150.559 105.62 150.749 103C150.949 100.21 153.109 98.19 155.729 98.35Z" fill="#4C246B"/>
</svg>
