<svg width="228" height="212" viewBox="0 0 228 212" fill="none" xmlns="http://www.w3.org/2000/svg">
<path d="M103.06 2.47032C102.01 3.86032 100.55 3.47037 99.1602 3.39037C100.29 2.36037 101.66 2.33032 103.06 2.47032Z" fill="#9162A1"/>
<path d="M215.33 132.79C215.39 131.96 215.7 131.35 216.61 131.23C216.46 131.98 216.23 132.66 215.33 132.79Z" fill="#5E4587"/>
<path d="M220.269 110.86C220.029 109.8 220.119 108.84 221.049 108.12C221.339 109.19 221.379 110.19 220.269 110.86Z" fill="#9163A2"/>
<path d="M129.11 12.0501C128.61 14.7801 127.95 15.8401 126.84 15.5401C125.01 15.0501 125.15 13.4801 125.07 12.0601C126.41 10.6901 127.76 10.7401 129.11 12.0401V12.0501Z" fill="#FFF9F7"/>
<path d="M129.989 169.48C129.579 167.34 129.179 165.2 128.739 162.9C126.859 162.86 125.319 163.3 124.129 164.7C123.809 165.54 123.289 166.37 123.209 167.24C123.039 169.11 123.139 171 123.069 172.88C122.969 175.27 122.239 175.72 119.309 175.27C119.129 172.74 118.959 170.22 118.759 167.69C118.689 166.8 118.569 165.92 118.459 164.86H111.529C110.649 164.58 109.759 164.27 108.859 165.09C108.529 166.83 108.179 168.64 107.829 170.45C106.189 172.59 106.829 174.99 107.019 177.35C106.969 177.92 106.909 178.5 106.859 179.07C106.709 179.13 106.569 179.21 106.419 179.26C103.639 180.21 103.159 179.94 103.099 177.4C103.039 174.7 102.989 171.99 102.939 169.29C103.039 167.71 103.259 166.11 103.149 164.54C103.109 164 102.239 163.52 101.329 162.58C100.709 167.87 100.759 172.65 99.1988 177.16C98.8988 177.51 98.4788 177.82 98.3288 178.23C97.9788 179.16 97.6188 179.94 96.4288 179.97C94.9788 180.01 94.5788 179.06 94.2988 177.93C94.5488 176.06 94.8288 174.19 95.0488 172.31C95.4488 168.88 95.9888 165.44 95.0488 161.87C92.1388 160.63 89.1088 159.92 85.9388 159.81C85.0788 159.62 84.2188 159.42 83.0088 159.15C84.1288 166.09 81.6388 171.71 78.3288 177.09C77.5788 178.31 76.8188 179.53 75.9688 180.68C73.5188 184.01 71.0288 187.31 68.5488 190.62C67.6888 190.98 67.4188 191.64 67.5788 192.53C65.9588 193.65 66.5388 195.37 66.4188 196.88C66.2188 199.33 65.6888 199.69 62.6188 199.32L62.6288 199.34C62.6288 196.98 62.6188 194.63 62.6088 192.27C63.2188 188.83 65.4888 186.3 67.3888 183.56C69.9288 179.89 72.5088 176.24 74.9288 172.5C75.8688 171.04 76.5488 169.38 77.1488 167.74C78.4788 164.09 78.3988 163.44 76.8188 158.8C74.8488 158.31 72.7788 158.69 70.8088 159.16C67.0888 160.05 63.4188 161.14 59.7388 162.2C55.4488 163.43 51.2088 164.85 46.8788 165.92C38.5588 167.98 30.3788 166.76 22.3388 164.32C18.5088 163.16 15.9388 160.19 13.5888 157.14C10.7488 153.46 8.64878 149.34 6.97878 144.99C2.79878 134.15 0.788782 122.88 0.468782 111.32C0.178782 100.84 2.20878 90.6902 5.79878 80.8502C8.09878 74.5502 10.6588 68.3802 14.4388 62.7902C15.5088 62.5702 15.7388 61.8302 15.6088 60.8702L15.5788 60.9202C16.5288 60.6202 16.7888 59.9203 16.6588 59.0103C16.8788 58.6703 17.0988 58.3202 17.3188 57.9802C18.3688 57.8602 18.6588 57.1702 18.6388 56.2402C20.2488 57.0502 21.3588 58.2603 21.5888 60.1302L21.5988 60.1102C20.1188 60.5702 19.4688 61.5403 19.7388 63.0903L19.7688 63.0502C18.7688 63.3002 18.5688 64.0102 18.6788 64.9102C17.8088 65.2302 17.5588 65.9003 17.6488 66.7603C16.2388 69.9403 14.8288 73.1202 13.4288 76.3002C9.82877 83.5802 7.58878 91.2602 6.60878 99.3102C6.46878 100.09 6.25878 100.87 6.18878 101.66C5.44878 110.29 5.75877 118.88 7.39877 127.38C8.75877 134.44 10.6488 141.37 13.9888 147.79C15.3088 150.32 16.9688 152.68 18.6388 155.01C20.1588 157.13 22.2788 158.6 24.7688 159.4C31.0688 161.41 37.4388 162.42 44.0688 161.16C50.3688 159.96 56.3488 157.75 62.3888 155.7C62.8388 155.48 63.2988 155.27 63.7488 155.05L63.6988 155.08C64.6188 154.99 65.5488 154.94 66.4688 154.8C70.3088 154.19 74.1388 153.54 77.9688 152.91C84.3288 153.57 90.4988 155.17 96.7188 156.54C101.699 157.64 106.689 158.68 111.729 159.45C116.689 160.21 121.649 159.77 126.259 157.64C130.599 155.64 134.799 153.34 138.509 150.25C141.689 147.6 144.919 145 148.129 142.37C151.759 140.75 155.439 139.33 159.509 139.37C164.739 139.42 169.979 139.49 175.119 140.65C176.089 142.3 178.179 141.12 179.569 142.54C179.179 143.06 178.859 143.93 178.329 144.1C177.319 144.43 176.169 144.39 175.079 144.46C173.829 144.54 172.529 144.38 171.339 144.67C170.279 144.93 170.499 145.76 171.189 146.42C171.429 146.58 171.499 146.79 171.399 147.06C171.439 147.68 171.369 148.33 171.539 148.92C171.799 149.81 171.449 150.41 170.919 151.05C170.099 152.03 169.219 151.52 168.339 151.24C168.439 150.39 168.189 149.71 167.359 149.34C167.469 148.48 167.219 147.79 166.359 147.44C165.589 146.46 164.809 145.48 164.039 144.49C161.579 144.27 159.219 144.07 156.919 144.93C155.659 144.97 154.449 145.11 153.539 146.68C153.799 148.09 154.069 149.76 154.419 151.42C154.929 153.85 155.489 156.26 156.029 158.69C155.949 160.94 155.109 162.73 152.979 163.74C153.159 162.6 153.189 161.51 151.919 160.91C152.159 160.09 151.959 159.4 151.229 158.89C150.509 156.15 149.809 153.41 149.039 150.68C148.909 150.22 148.449 149.86 147.609 148.77C147.519 151.03 147.459 152.41 147.409 153.79C147.239 155.26 146.739 156.81 148.289 157.92L148.269 157.88C148.149 158.97 148.129 160.09 147.879 161.15C147.589 162.37 146.489 162.59 145.389 161.75C145.019 161.47 144.669 161.14 144.319 160.84C143.669 158.76 143.019 156.68 142.269 154.31C139.769 155.76 137.669 157.33 135.649 159.03C134.159 159.46 133.809 160.5 133.979 161.92C134.309 164.71 134.579 167.5 134.869 170.3C134.319 171.7 134.139 173.51 131.819 173.04C131.219 171.86 130.619 170.66 130.019 169.46L129.989 169.48Z" fill="#0E1463"/>
<path d="M103.06 2.47032C105.87 1.91032 108.65 1.12985 111.48 0.829853C125.75 -0.690147 139.83 0.149836 153.54 4.74984C165.46 8.74984 176.33 14.7098 186.03 22.6698C191.07 26.8098 195.82 31.3299 200.55 35.8299C202.48 37.6699 204 39.9298 205.71 41.9998C206.1 44.3298 204.35 44.9698 202.76 45.7298C202.16 45.0698 201.56 44.3998 200.96 43.7398C200.96 42.2398 200.32 41.2698 198.79 40.9898C194.79 37.3198 190.88 33.5398 186.77 29.9898C176.51 21.1098 165.13 14.0998 152.15 9.90981C148.37 8.68981 144.6 7.27981 140.53 7.28981C136.76 5.88981 132.81 5.53983 128.84 5.42983C121.85 5.21983 114.86 5.28983 107.92 6.36983C106.03 6.34983 104.13 6.33982 102.24 6.29982C100.34 6.25982 99.3499 5.24985 99.1899 3.38985L99.1699 3.39986C100.56 3.47986 102.03 3.86982 103.07 2.47982L103.06 2.47032Z" fill="#6D4D91"/>
<path d="M177.87 156.14C182.41 160.13 186.97 164.09 191.48 168.12C192.42 168.96 193.27 169.95 193.97 171C199.14 178.76 194.63 188.6 185.37 189.71C179.45 190.42 173.99 188.99 168.96 185.78C164.43 182.88 161.04 178.9 157.98 174.58C157.25 173.54 156.56 172.46 155.85 171.4C155.89 171.08 155.94 170.76 155.98 170.44C156.69 170.74 157.38 171.15 158.13 171.3C159.48 171.57 159.87 171.21 160.69 169.37C163.34 172.94 165.86 176.61 169.23 179.6C173.13 183.06 177.71 184.56 182.81 184.63C183.9 184.65 185.05 184.41 186.07 184.03C190.85 182.28 192.25 177.05 188.98 173.15C188.07 172.06 186.89 171.2 185.84 170.24C184.88 169.41 183.92 168.59 182.96 167.76C181.92 166.82 180.85 165.91 179.86 164.93C178.2 163.3 176.58 161.63 174.95 159.98C176.08 159.56 177.21 159.14 178.29 158.74C178.11 157.67 177.98 156.91 177.85 156.15L177.87 156.14Z" fill="#715192"/>
<path d="M202.76 45.7397C204.35 44.9797 206.1 44.3298 205.71 42.0098C206.11 42.2398 206.61 42.3897 206.89 42.7197C216.98 54.8797 223.49 68.7997 226.62 84.2197C228.42 93.0697 227.88 102 225.82 110.81C225.72 111.25 225.36 111.62 225.12 112.03C225.06 111.08 224.98 110.14 224.94 109.19C224.9 108.02 224.7 106.73 223.38 106.63C222.65 106.58 221.85 107.49 221.08 107.97C221.1 106.51 221.13 105.05 221.15 103.59C221.36 103.17 221.7 102.77 221.75 102.33C222.37 96.9898 222.53 91.6298 221.63 86.3198C221.16 83.5698 221.04 80.6498 219.4 78.1998C219.25 77.2598 219.24 76.2698 218.92 75.3898C216.76 69.3898 214.55 63.3897 211.08 57.9897C208.41 53.8397 205.54 49.8198 202.76 45.7498V45.7397Z" fill="#9163A2"/>
<path d="M99.1802 3.37988C99.3502 5.23988 100.34 6.25986 102.23 6.28986C104.12 6.32986 106.02 6.33986 107.91 6.35986C106.19 7.83986 103.96 7.33988 101.99 7.80988C90.9502 10.4399 80.3402 14.2799 70.1002 19.0799C62.7402 22.5299 55.7602 26.6799 49.2802 31.6099C47.1402 33.2399 44.9102 34.7399 42.7202 36.2999C42.6702 35.7099 42.5802 35.1099 42.5902 34.5199C42.6102 33.0799 41.8802 32.3299 40.4902 32.1499C43.4702 28.4799 47.5602 26.1799 51.3902 23.6399C61.2902 17.0699 71.9102 11.8899 83.1602 8.02991C87.3902 6.57991 91.6402 5.1799 95.9002 3.8399C96.9402 3.5099 98.0902 3.51988 99.1902 3.37988H99.1802Z" fill="#9162A1"/>
<path d="M154.899 173.3C156.029 176.27 157.209 179.21 158.269 182.2C159.489 185.68 160.199 189.28 159.799 192.97C159.599 194.84 159.179 196.74 158.509 198.49C157.559 200.96 155.679 202.68 153.219 203.71C148.559 205.66 142.149 204.45 138.619 200.79C137.309 199.43 136.049 197.88 135.289 196.18C133.419 191.98 131.859 187.63 131.859 182.92C132.149 183.05 132.429 183.21 132.729 183.3C134.869 183.94 135.559 183.6 135.649 181.78C135.729 180.2 135.739 178.62 135.789 177.03C136.069 178.26 136.429 179.47 136.619 180.71C137.179 184.33 137.579 187.97 138.969 191.4C139.429 194 140.719 196.05 143.009 197.44C144.669 199.41 146.939 199.28 149.179 199.21C151.099 199.15 152.619 198.24 153.419 196.55C154.089 195.14 154.569 193.59 154.809 192.04C155.149 189.79 154.659 187.6 153.679 185.53C152.799 183.04 151.939 180.54 151.029 178.06C150.439 176.46 149.779 174.9 149.159 173.32C150.249 173.86 151.259 173.9 152.039 172.78C152.399 172.27 152.759 171.75 153.119 171.23C153.709 171.92 154.309 172.6 154.899 173.29V173.3Z" fill="#7A5696"/>
<path d="M124.3 177C124.81 179.97 125.44 182.92 125.79 185.91C126.3 190.18 126.79 194.47 126.96 198.76C127.16 203.96 125.12 208.24 120.29 210.52C115.36 212.85 110.66 211.84 106.37 208.55C103.4 206.28 101.78 203.19 101.27 199.64C100.89 196.99 101.14 194.26 101.11 191.56C102.48 192.34 103.65 192.01 104.69 190.93C105.1 190.51 105.47 190.06 105.86 189.63C105.9 191.37 105.86 193.12 105.99 194.85C106.12 196.58 106.32 198.32 106.69 200.01C107.19 202.32 108.74 203.91 110.73 205.06C115.8 207.99 120.8 205.62 121.77 199.89C122.15 197.63 121.64 195.48 121.15 193.31C121.02 191.74 120.89 190.18 120.76 188.61C120.65 187.36 120.54 186.11 120.43 184.86C120.66 185.07 120.9 185.29 121.13 185.49C122.43 186.63 123.57 186.47 123.91 185.05C124.09 184.29 124.14 183.49 124.17 182.7C124.24 180.8 124.26 178.9 124.3 177Z" fill="#7C5798"/>
<path d="M221.079 107.96C221.849 107.48 222.649 106.57 223.379 106.62C224.689 106.72 224.899 108.01 224.939 109.18C224.969 110.13 225.059 111.07 225.119 112.02C223.689 119.04 221.089 125.55 216.629 131.23C215.709 131.34 215.399 131.96 215.349 132.79C214.679 133.49 213.999 134.19 213.329 134.89C211.619 134.18 210.269 133.22 210.569 131.07C211.949 128.81 213.339 126.56 214.719 124.3C217.429 120.17 218.639 115.43 220.289 110.86C221.399 110.19 221.359 109.19 221.069 108.12L221.099 107.96H221.079Z" fill="#3B3078"/>
<path d="M95.4488 190.66C93.0788 198.55 87.8388 204.01 80.5388 207.42C76.8788 209.13 72.9187 209.4 69.2188 207.07C69.6687 207.01 70.1488 207.04 70.5488 206.87C71.3388 206.53 72.4388 206.24 72.7388 205.62C73.0288 205 72.4887 203.99 72.3087 203.15C77.7087 203.94 81.8087 201.62 85.2387 197.74C85.8587 197.04 86.3587 196.23 86.9088 195.47C87.4688 194.59 88.0387 193.7 88.6087 192.81C89.2187 192.05 89.8287 191.28 90.4287 190.52C90.6887 191.21 90.7488 192.17 91.8888 191.83C93.0888 191.48 94.2588 191.06 95.4488 190.67V190.66Z" fill="#6B4E90"/>
<path d="M210.55 131.06C210.25 133.21 211.61 134.18 213.31 134.88C213.24 135.18 213.27 135.57 213.09 135.76C205.31 143.62 196.02 147.78 184.83 147.2C184.07 147.16 183.33 146.78 182.58 146.56C184.46 146.49 186.34 146.42 188.22 146.34C190.2 146.26 190.92 145.1 190.93 142.92C189.48 142.82 188.12 142.72 186.75 142.64C185.66 142.58 184.52 142.7 183.69 141.76C184.8 141.76 185.91 141.69 187.01 141.74C193.84 142.09 199.81 139.75 205.19 135.77C207.09 134.36 208.76 132.63 210.54 131.05L210.55 131.06Z" fill="#5E4587"/>
<path d="M40.4787 32.1501C41.8687 32.3301 42.5988 33.0801 42.5788 34.5201C42.5788 35.1101 42.6588 35.7101 42.7088 36.3001C41.5988 37.4301 40.4487 38.5301 39.3687 39.6901C37.5387 41.6601 35.7387 43.6601 33.9287 45.6401C32.9687 46.6001 32.0387 47.5701 31.0587 48.5001C30.4287 49.1001 29.7287 49.6301 29.0587 50.2001C29.3187 48.3101 31.0287 46.5501 29.5387 44.4701C28.3487 45.1401 27.1588 45.8001 25.9688 46.4601C26.4888 45.6801 26.9187 44.8001 27.5587 44.1301C31.6487 39.9001 35.4987 35.4001 40.4787 32.1401V32.1501Z" fill="#745393"/>
<path d="M25.9596 46.47C27.1496 45.81 28.3396 45.14 29.5296 44.48C31.0196 46.56 29.3096 48.32 29.0496 50.21C26.5496 53.53 24.0496 56.84 21.5496 60.16C21.3196 58.29 20.2096 57.09 18.5996 56.26C20.3096 52.44 23.1896 49.51 25.9496 46.47H25.9596Z" fill="#352E75"/>
<path d="M183.7 141.77C184.54 142.71 185.67 142.59 186.76 142.65C188.13 142.72 189.49 142.83 190.94 142.93C190.94 145.12 190.21 146.27 188.23 146.35C186.35 146.43 184.47 146.5 182.59 146.57C179.59 146.21 176.59 145.84 173.59 145.51C172.64 145.41 171.65 145.32 171.16 146.45C170.47 145.79 170.25 144.96 171.31 144.7C172.5 144.4 173.8 144.56 175.05 144.49C176.14 144.42 177.28 144.46 178.3 144.13C178.84 143.96 179.15 143.09 179.54 142.57C178.15 141.14 176.06 142.33 175.09 140.68C176.03 140.64 176.96 140.6 177.9 140.56C179.84 140.97 181.77 141.37 183.71 141.78L183.7 141.77Z" fill="#352F75"/>
<path d="M105.869 189.63C105.479 190.07 105.109 190.51 104.699 190.93C103.659 192 102.479 192.33 101.119 191.56C101.159 189.96 101.199 188.36 101.229 186.75C102.609 184.56 102.059 182.18 101.919 179.83C102.259 176.32 102.599 172.8 102.929 169.29C102.979 171.99 103.029 174.7 103.089 177.4C103.149 179.94 103.629 180.21 106.409 179.26C106.559 179.21 106.699 179.13 106.849 179.07C106.519 182.59 106.189 186.11 105.859 189.62L105.869 189.63Z" fill="#44397E"/>
<path d="M95.4488 190.66C94.2688 191.05 93.0897 191.47 91.8897 191.82C90.7497 192.15 90.6997 191.19 90.4297 190.51V190.53C91.6997 189.95 91.6097 188.85 91.4797 187.74C91.5697 187.4 91.6697 187.05 91.7597 186.71C91.9697 186.09 92.1797 185.48 92.3997 184.86C93.0297 182.55 93.6697 180.25 94.2997 177.94C94.5697 179.07 94.9797 180.02 96.4297 179.98C97.6197 179.95 97.9797 179.17 98.3297 178.24C98.4797 177.83 98.8997 177.53 99.1997 177.17C98.8497 179.09 98.4997 181.01 98.1397 182.94C97.3897 183.46 97.2097 184.18 97.4397 185.03C97.4797 185.32 97.4097 185.58 97.2297 185.82C96.3997 186.34 96.2497 187.08 96.5097 187.96C96.5497 188.25 96.4597 188.49 96.2497 188.69C95.4397 189.13 95.2297 189.82 95.4397 190.67L95.4488 190.66Z" fill="#332C72"/>
<path d="M177.87 156.14C178 156.9 178.131 157.66 178.311 158.73C177.231 159.13 176.101 159.55 174.971 159.97C172.131 157.54 169.661 154.83 168.311 151.26C169.191 151.54 170.071 152.05 170.891 151.07C171.421 150.43 171.771 149.83 171.511 148.94C171.341 148.36 171.411 147.71 171.371 147.08C173.541 150.1 175.711 153.12 177.871 156.13L177.87 156.14Z" fill="#352F75"/>
<path d="M124.299 177C124.259 178.9 124.239 180.8 124.169 182.7C124.139 183.49 124.089 184.29 123.909 185.05C123.569 186.46 122.429 186.63 121.129 185.49C120.889 185.28 120.659 185.07 120.429 184.86C119.859 181.69 118.869 178.56 119.309 175.27C122.239 175.72 122.979 175.27 123.069 172.88C123.149 171 123.049 169.11 123.209 167.24C123.289 166.37 123.809 165.55 124.129 164.7C124.189 168.8 124.239 172.9 124.299 177Z" fill="#463A7C"/>
<path d="M135.79 177.04C135.75 178.62 135.73 180.21 135.65 181.79C135.56 183.6 134.87 183.95 132.73 183.31C132.43 183.22 132.15 183.06 131.86 182.93C130.72 178.52 129.98 174.06 129.99 169.49C130.59 170.69 131.19 171.88 131.79 173.07C134.1 173.53 134.29 171.73 134.84 170.33C136.01 172.45 135.58 174.8 135.78 177.05L135.79 177.04Z" fill="#534286"/>
<path d="M72.3096 203.14C72.4896 203.98 73.0296 204.99 72.7396 205.61C72.4396 206.24 71.3396 206.52 70.5496 206.86C70.1496 207.03 69.6696 207 69.2196 207.06C65.5996 205.69 63.1196 203.34 62.5996 199.32C65.6696 199.69 66.1996 199.34 66.3996 196.88C66.5296 195.37 65.9496 193.66 67.5596 192.54C67.4596 193.64 67.2996 194.73 67.2696 195.83C67.1896 198.38 68.1696 200.44 70.2696 201.92C70.9196 202.37 71.6296 202.73 72.3096 203.13V203.14Z" fill="#473C80"/>
<path d="M154.901 173.3C154.311 172.61 153.711 171.93 153.121 171.24C153.081 170.97 152.991 170.72 152.831 170.49C152.551 169.85 152.261 169.2 151.981 168.56C150.741 165 149.491 161.44 148.251 157.88L148.271 157.92C147.981 156.54 147.681 155.17 147.391 153.79C147.451 152.41 147.501 151.04 147.591 148.77C148.421 149.86 148.891 150.23 149.021 150.68C149.791 153.4 150.491 156.15 151.211 158.89C151.441 159.57 151.671 160.24 151.901 160.92V160.91C151.891 161.99 151.961 163.04 152.961 163.74C153.271 166.29 154.761 168.31 156.021 170.43C155.981 170.75 155.931 171.07 155.891 171.39C155.571 172.03 155.251 172.66 154.931 173.3H154.901Z" fill="#D5D5E3"/>
<path d="M62.5897 192.28C62.5897 194.64 62.6097 196.99 62.6097 199.35C61.2697 197 61.3097 194.64 62.5897 192.28Z" fill="#473C80"/>
<path d="M101.921 179.83C102.061 182.17 102.611 184.56 101.231 186.75C100.941 184.39 101.001 182.07 101.921 179.83Z" fill="#7C5798"/>
<path d="M15.5899 60.9004C15.7199 61.8604 15.4899 62.5904 14.4199 62.8204C14.8099 62.1804 15.1999 61.5404 15.5899 60.9004Z" fill="#352E75"/>
<path d="M97.4392 185.02C97.2092 184.17 97.3892 183.45 98.1392 182.93C97.9092 183.63 97.6692 184.32 97.4392 185.02Z" fill="#6B4E90"/>
<path d="M16.6288 59.04C16.7588 59.95 16.4988 60.6501 15.5488 60.9501C15.9088 60.3101 16.2688 59.68 16.6288 59.04Z" fill="#352E75"/>
<path d="M96.5089 187.95C96.2489 187.07 96.4089 186.32 97.2289 185.81C97.3989 186.66 97.2889 187.42 96.5089 187.95Z" fill="#6B4E90"/>
<path d="M95.4488 190.67C95.2388 189.81 95.4492 189.13 96.2592 188.69C96.4092 189.52 96.2288 190.22 95.4488 190.67Z" fill="#6B4E90"/>
<path d="M18.6091 56.27C18.6291 57.2 18.3491 57.9 17.2891 58.01C17.7291 57.43 18.1691 56.85 18.6091 56.27Z" fill="#352E75"/>
<path d="M148.1 142.4C144.89 145.02 141.67 147.62 138.48 150.28C134.77 153.37 130.57 155.67 126.23 157.67C121.62 159.8 116.66 160.24 111.7 159.48C106.67 158.71 101.67 157.66 96.69 156.57C90.47 155.2 84.3 153.6 77.95 152.94C77.69 152.21 77.53 151.58 78.0499 150.79C79.31 148.88 81.1 147.2 81.09 144.65C81.37 144.62 81.65 144.58 81.93 144.52C83.81 144.79 85.71 144.95 87.56 145.36C91.44 146.22 95.24 147.61 99.15 148.07C103.86 148.63 108.65 148.92 113.39 147.67C116.77 146.78 120.12 146.04 123.2 144.19C125.78 142.65 128.82 141.87 131.38 140.31C135.49 137.81 139.73 135.67 144.24 134.05C144.56 134.66 144.88 135.27 145.2 135.88C146.16 138.06 147.12 140.23 148.08 142.41L148.1 142.4Z" fill="#FFF250"/>
<path d="M6.58984 99.3303C7.57984 91.2803 9.80985 83.6003 13.4099 76.3203C15.3299 76.3403 17.2499 76.4203 19.1599 76.3803C21.5799 76.3203 23.9398 76.5203 26.2198 77.4003C25.7098 79.3803 25.3399 81.4203 24.6599 83.3403C21.5499 92.0503 19.9398 101.12 18.7999 110.21C17.9298 117.13 18.9098 124.11 20.8298 130.9C21.8699 134.58 22.8999 138.23 24.7999 141.57C25.2598 142.38 25.1099 143.07 24.3799 143.65C21.7399 142.21 20.6099 139.4 18.7099 137.3C16.0399 134.34 13.9098 130.94 12.4298 127.2C9.40984 119.62 7.23985 111.83 7.02985 103.59C6.98985 102.17 6.74985 100.75 6.59985 99.3303H6.58984Z" fill="#FFDF43"/>
<path d="M6.58984 99.3303C6.73984 100.75 6.98047 102.17 7.02047 103.59C7.23047 111.83 9.39047 119.61 12.4205 127.2C13.9105 130.93 16.0305 134.34 18.7005 137.3C20.6005 139.41 21.7305 142.21 24.3705 143.65C25.5805 145.8 27.7105 146.94 29.5405 148.43C31.0305 149.64 32.5405 150.68 34.4305 151.2C39.9405 152.75 45.5105 153.68 51.2505 153.14C52.6505 153.94 54.1705 154.05 55.7505 154.05C58.0805 154.05 60.4005 154.13 62.7305 154.18C63.0505 154.48 63.3705 154.79 63.6905 155.09L63.7405 155.06C63.2905 155.28 62.8305 155.49 62.3805 155.71C56.3405 157.75 50.3705 159.97 44.0605 161.17C37.4305 162.43 31.0505 161.42 24.7605 159.41C22.2605 158.61 20.1505 157.15 18.6305 155.02C16.9605 152.7 15.3005 150.33 13.9805 147.8C10.6405 141.38 8.75047 134.45 7.39047 127.39C5.75047 118.88 5.44046 110.29 6.18046 101.67C6.25046 100.88 6.46047 100.11 6.60047 99.3203L6.58984 99.3303Z" fill="#FEF9DC"/>
<path d="M26.2198 77.4003C23.9498 76.5103 21.5799 76.3203 19.1599 76.3803C17.2399 76.4203 15.3199 76.3403 13.4099 76.3203C14.8199 73.1403 16.2302 69.9602 17.6302 66.7802C17.9702 66.1602 18.3202 65.5401 18.6602 64.9201V64.9301C19.0202 64.3101 19.3902 63.6901 19.7502 63.0701L19.7202 63.1101C20.8002 62.4001 21.4102 61.4001 21.5802 60.1301L21.5702 60.1502C24.0702 56.8302 26.5702 53.5201 29.0702 50.2001C29.7402 49.6401 30.4402 49.1001 31.0702 48.5001C32.0502 47.5701 32.9902 46.5901 33.9402 45.6401C36.7802 45.7001 39.5901 45.7602 42.3401 44.7702C43.9902 44.1702 45.7301 44.2001 47.4301 44.6801C46.2801 45.9801 45.1202 47.2601 43.9902 48.5801C41.6402 51.3401 39.0401 53.9301 37.0401 56.9301C32.8201 63.2501 29.5402 70.0701 27.2702 77.3501C26.9202 77.3701 26.5701 77.3902 26.2301 77.4002L26.2198 77.4003Z" fill="#FEEA9B"/>
<path d="M72.3096 203.14C71.6296 202.74 70.9202 202.38 70.2702 201.93C68.1602 200.46 67.1902 198.39 67.2702 195.84C67.3002 194.74 67.4602 193.64 67.5602 192.55C67.8802 191.91 68.2102 191.28 68.5302 190.64C71.0102 187.33 73.5002 184.03 75.9502 180.7C76.8002 179.55 77.5602 178.33 78.3102 177.11C81.6302 171.73 84.1102 166.11 82.9902 159.17C84.2102 159.44 85.0702 159.64 85.9202 159.83C87.5302 165.33 86.7902 170.71 84.9102 175.98C84.4402 177.31 83.7002 178.54 84.0202 180.03C81.6002 182.2 80.9802 185.42 79.0602 188C81.3402 190.03 82.9902 192.35 85.6802 193.56C86.2602 193.82 86.5002 194.8 86.9002 195.45C86.3502 196.21 85.8502 197.02 85.2302 197.72C81.8002 201.61 77.7002 203.93 72.3002 203.13L72.3096 203.14Z" fill="#FDEEDA"/>
<path d="M185.87 170.23C186.92 171.19 188.1 172.06 189.01 173.14C192.28 177.04 190.87 182.27 186.1 184.02C185.07 184.4 183.92 184.64 182.84 184.62C177.74 184.54 173.16 183.04 169.26 179.59C165.89 176.6 163.37 172.93 160.72 169.36C159.15 165.81 157.58 162.25 156.01 158.7C155.47 156.28 154.91 153.86 154.4 151.43C154.05 149.77 153.78 148.09 153.52 146.69C154.42 145.12 155.63 144.98 156.89 144.94C157.48 146.22 158.11 147.49 158.64 148.8C159.35 150.54 159.86 152.37 160.66 154.07C163.48 160.09 168.16 164.56 173.14 168.77C172.73 169.62 172.33 170.46 171.92 171.31C170.56 174.07 171.02 176.57 173.21 178.65C175.05 180.4 177.26 180.8 179.73 181.1C184.5 181.67 188.37 176.85 185.81 172.73C185.5 172.23 185.4 171.56 185.33 170.95C185.31 170.73 185.68 170.47 185.88 170.23H185.87Z" fill="#FEF8DC"/>
<path d="M105.869 189.63C106.199 186.11 106.529 182.59 106.859 179.08C106.909 178.51 106.969 177.93 107.019 177.36C108.129 175.16 107.939 172.81 107.829 170.46C108.179 168.65 108.519 166.83 108.859 165.1C109.759 164.27 110.639 164.59 111.529 164.87C111.649 171.82 111.759 178.76 111.879 185.71C112.149 187.24 112.289 188.81 112.729 190.28C113.279 192.14 113.999 192.68 115.849 192.2C117.199 191.85 118.299 192.04 119.489 192.47C120.049 192.75 120.609 193.03 121.159 193.31C121.649 195.48 122.159 197.63 121.779 199.89C120.809 205.62 115.809 207.99 110.739 205.06C108.749 203.91 107.189 202.32 106.699 200.01C106.339 198.32 106.139 196.58 105.999 194.85C105.869 193.12 105.909 191.37 105.869 189.63Z" fill="#FDEBD8"/>
<path d="M135.789 177.04C135.579 174.78 136.019 172.44 134.849 170.32C134.559 167.53 134.289 164.73 133.959 161.94C133.789 160.52 134.139 159.47 135.629 159.05C136.879 159.36 137.379 160.23 137.549 161.44C137.869 163.78 138.169 166.12 138.619 168.44C139.399 172.46 140.189 176.5 142.539 179.99C144.559 183.1 147.199 185.09 151.119 184.82C151.969 185.06 152.829 185.3 153.679 185.54C154.659 187.61 155.149 189.8 154.809 192.05C154.579 193.59 154.089 195.15 153.419 196.56C152.619 198.25 151.099 199.16 149.179 199.22C146.939 199.29 144.669 199.42 143.009 197.45C143.889 194.97 143.319 193.11 140.719 192.12C140.129 191.9 139.549 191.65 138.969 191.41C137.569 187.98 137.169 184.33 136.619 180.72C136.429 179.48 136.069 178.27 135.789 177.04Z" fill="#FDE2D6"/>
<path d="M148.099 142.4C147.139 140.22 146.179 138.05 145.219 135.88C145.239 135.24 145.249 134.6 145.269 133.95C150.069 133.08 154.849 132.06 159.769 132.06C166.739 132.06 173.699 132.04 180.669 132.03C179.749 134.87 178.819 137.71 177.899 140.55C176.959 140.59 176.029 140.63 175.089 140.67C169.949 139.51 164.709 139.44 159.479 139.39C155.409 139.35 151.729 140.77 148.099 142.39V142.4Z" fill="#FD9469"/>
<path d="M173.119 168.77C168.139 164.57 163.459 160.09 160.639 154.07C159.839 152.37 159.329 150.54 158.619 148.8C158.089 147.49 157.459 146.23 156.869 144.94C159.169 144.08 161.529 144.28 163.989 144.5C164.769 145.49 165.539 146.47 166.309 147.45C166.639 148.09 166.979 148.72 167.309 149.36C167.639 149.99 167.969 150.63 168.289 151.26C169.649 154.82 172.109 157.54 174.949 159.97C176.579 161.62 178.199 163.3 179.859 164.92C180.859 165.9 181.929 166.81 182.959 167.75C179.779 169.12 176.449 169.06 173.099 168.77H173.119Z" fill="#FEE244"/>
<path d="M84.0395 180.02C83.7195 178.53 84.4495 177.3 84.9295 175.97C86.8095 170.7 87.5495 165.32 85.9395 159.82C89.1095 159.93 92.1395 160.64 95.0495 161.88C95.9995 165.44 95.4495 168.88 95.0495 172.32C94.8295 174.2 94.5597 176.07 94.2997 177.94C93.6697 180.25 93.0297 182.55 92.3997 184.86C92.1897 185.48 91.9797 186.09 91.7597 186.71C91.6697 187.05 91.5697 187.4 91.4797 187.74C91.1297 188.67 90.7797 189.6 90.4297 190.53V190.51C89.8197 191.27 89.2095 192.04 88.6095 192.8C88.7895 191.73 88.8795 190.63 89.1795 189.59C89.7295 187.7 89.7395 185.88 88.7695 184.15C87.6895 182.22 86.4495 180.44 84.0395 180.03V180.02Z" fill="#FDE244"/>
<path d="M153.681 185.54C152.831 185.3 151.971 185.06 151.121 184.82C150.921 182.77 149.311 181.65 148.221 179.99H142.551C140.201 176.49 139.411 172.46 138.631 168.44C138.181 166.13 137.881 163.78 137.561 161.44C137.391 160.23 136.891 159.36 135.641 159.05C137.661 157.35 139.761 155.78 142.261 154.33C143.001 156.7 143.651 158.78 144.311 160.86C144.711 164.72 146.371 168.13 148.171 171.49C148.501 172.09 148.831 172.7 149.161 173.3L149.181 173.34C149.811 174.92 150.471 176.49 151.051 178.08C151.961 180.56 152.821 183.06 153.701 185.55L153.681 185.54Z" fill="#FCE045"/>
<path d="M121.159 193.3C120.599 193.02 120.039 192.74 119.489 192.46C118.339 188.65 116.459 185.65 111.879 185.69C111.759 178.74 111.649 171.8 111.529 164.85C113.739 164.85 115.949 164.85 118.459 164.85C118.579 165.91 118.699 166.79 118.759 167.68C118.949 170.21 119.129 172.73 119.309 175.26C118.869 178.55 119.869 181.67 120.429 184.85C120.539 186.1 120.649 187.35 120.759 188.6C120.889 190.17 121.019 191.73 121.149 193.3H121.159Z" fill="#FADE44"/>
<path d="M63.6802 155.1C63.3602 154.8 63.0402 154.49 62.7202 154.19C62.0502 153.84 61.4102 153.32 60.7002 153.19C59.4802 152.98 58.2102 153.02 55.9902 152.9C60.3502 151.59 63.8302 150.64 66.8002 148.54C71.1002 145.5 75.9402 144.51 81.0902 144.64C81.1002 147.19 79.3102 148.87 78.0502 150.78C77.5302 151.57 77.7002 152.2 77.9502 152.93C74.1102 153.56 70.2802 154.2 66.4502 154.82C65.5402 154.97 64.6102 155.01 63.6802 155.1Z" fill="#FC865E"/>
<path d="M148.139 171.48C146.339 168.12 144.679 164.72 144.279 160.85C144.639 161.15 144.979 161.48 145.349 161.76C146.449 162.6 147.549 162.38 147.839 161.16C148.089 160.1 148.109 158.98 148.229 157.89C149.469 161.45 150.719 165.01 151.959 168.57C152.239 169.21 152.529 169.86 152.809 170.5C152.959 170.73 153.059 170.98 153.099 171.25C152.739 171.77 152.379 172.28 152.019 172.8C151.229 173.92 150.229 173.88 149.139 173.34L149.119 173.3C149.219 172.46 148.949 171.82 148.129 171.49L148.139 171.48Z" fill="#322C74"/>
<path d="M155.99 158.71C157.56 162.26 159.13 165.82 160.7 169.37C159.88 171.21 159.49 171.57 158.14 171.3C157.4 171.15 156.71 170.73 155.99 170.44C154.73 168.32 153.25 166.3 152.93 163.75C155.07 162.74 155.9 160.95 155.98 158.7L155.99 158.71Z" fill="#4A3C81"/>
<path d="M107.829 170.45C107.939 172.79 108.129 175.15 107.019 177.35C106.829 175 106.189 172.59 107.829 170.45Z" fill="#44397E"/>
<path d="M147.379 153.8C147.669 155.18 147.969 156.55 148.259 157.93C146.709 156.82 147.209 155.28 147.379 153.8Z" fill="#322C74"/>
<path d="M19.7202 63.1101C20.8002 62.4001 21.4102 61.4001 21.5802 60.1301C20.1002 60.5901 19.4502 61.5601 19.7202 63.1101Z" fill="#352E75"/>
<path d="M152.94 163.75C151.94 163.05 151.87 162 151.88 160.92C153.15 161.52 153.12 162.61 152.94 163.75Z" fill="#4A3C81"/>
<path d="M167.32 149.36C166.99 148.72 166.65 148.09 166.32 147.45C167.19 147.81 167.43 148.49 167.32 149.36Z" fill="#352F75"/>
<path d="M168.311 151.26C167.981 150.63 167.65 149.99 167.33 149.36C168.17 149.73 168.411 150.41 168.311 151.26Z" fill="#352F75"/>
<path d="M151.889 160.94C151.659 160.26 151.429 159.59 151.199 158.91C151.929 159.42 152.129 160.1 151.889 160.94Z" fill="#4A3C81"/>
<path d="M17.6302 66.7802C17.9702 66.1602 18.3202 65.5401 18.6602 64.9201C17.7902 65.2501 17.5402 65.9202 17.6302 66.7802Z" fill="#352E75"/>
<path d="M19.74 63.0703C19.38 63.6903 19.01 64.3103 18.65 64.9303C18.54 64.0303 18.74 63.3203 19.74 63.0703Z" fill="#352E75"/>
<path d="M68.5388 190.63C68.2188 191.27 67.8888 191.9 67.5688 192.54C67.3988 191.66 67.6788 190.99 68.5388 190.63Z" fill="#473C80"/>
<path d="M47.4197 44.69C45.7097 44.2 43.9697 44.18 42.3297 44.78C39.5797 45.78 36.7697 45.71 33.9297 45.65C35.7397 43.66 37.5397 41.66 39.3697 39.7C40.4497 38.54 41.5897 37.44 42.7097 36.31C44.8997 34.75 47.1297 33.25 49.2697 31.62C55.7597 26.68 62.7297 22.53 70.0897 19.09C80.3397 14.29 90.9497 10.45 101.98 7.82001C103.95 7.35001 106.18 7.86 107.9 6.37C114.84 5.29 121.83 5.21999 128.82 5.42999C132.78 5.54999 136.74 5.89998 140.51 7.28998C140.42 9.00998 140.34 10.72 140.26 12.31C138.3 12.9633 136.773 13.8467 135.68 14.96C133.95 14.92 132.22 14.89 130.71 14.86C130.03 13.69 129.56 12.87 129.09 12.05C127.74 10.75 126.39 10.7 125.05 12.07C123.97 13.29 122.78 14 120.99 14.06C116.56 14.21 112.14 14.66 107.71 15.01C107.24 15.05 106.77 15.19 106.31 15.31C103.55 16.02 100.79 16.74 98.0297 17.44C87.8197 20.01 78.0797 23.8 68.9997 29.15C61.7397 33.42 54.5497 37.82 48.5997 43.92C48.2797 44.25 47.8097 44.45 47.4097 44.7L47.4197 44.69Z" fill="#FFC4AD"/>
<path d="M135.699 14.9601C136.793 13.8468 138.319 12.9634 140.279 12.3101C140.359 10.7201 140.44 9.00981 140.53 7.28981C144.6 7.27981 148.37 8.68981 152.15 9.90981C165.13 14.0998 176.51 21.1098 186.77 29.9898C190.87 33.5398 194.79 37.3198 198.79 40.9898C199.51 41.9098 200.24 42.8198 200.96 43.7398C201.56 44.3998 202.16 45.0698 202.76 45.7298C205.54 49.8098 208.409 53.8201 211.079 57.9701C214.549 63.3701 216.759 69.3601 218.919 75.3701C219.239 76.2501 219.249 77.2401 219.399 78.1801C217.029 80.6501 214.379 80.7901 211.509 79.1601C209.479 76.9101 207.949 74.3401 206.749 71.5701C206.589 70.6401 206.609 69.6301 206.249 68.7801C204.889 65.5601 203.409 62.3901 201.979 59.2001C197.889 50.1101 191.099 43.0901 183.689 36.8201C175.649 30.0201 166.409 24.9501 156.559 21.1401C154.809 20.4601 152.889 20.2001 151.049 19.7401C148.039 18.0601 145.039 16.3801 142.029 14.7001C141.919 14.7901 141.729 14.8501 141.699 14.9601C141.179 16.5401 140.489 17.9001 138.489 17.7901C136.689 17.6901 136.359 16.1601 135.699 14.9501V14.9601Z" fill="#FFF5EF"/>
<path d="M200.959 43.75C200.239 42.83 199.509 41.92 198.789 41C200.319 41.28 200.969 42.26 200.959 43.75Z" fill="#9163A2"/>
<path d="M173.12 168.77C176.47 169.06 179.8 169.12 182.98 167.75C183.94 168.58 184.91 169.4 185.87 170.23C185.68 170.47 185.3 170.73 185.32 170.95C185.38 171.56 185.49 172.22 185.8 172.73C188.35 176.85 184.48 181.67 179.72 181.1C177.25 180.8 175.04 180.4 173.2 178.65C171 176.57 170.55 174.07 171.91 171.31C172.32 170.47 172.73 169.62 173.13 168.77H173.12Z" fill="#FFD8D4"/>
<path d="M220.269 110.86C218.619 115.43 217.41 120.17 214.7 124.3C213.78 124.88 212.88 125.51 211.93 126.02C208.25 128.01 206.04 127.58 202.89 124.3C202.91 123.99 202.89 123.69 202.84 123.38C203.23 122.54 203.49 121.6 204.03 120.87C206.7 117.29 208.8 113.45 209.77 109.05C210.75 104.58 211.71 100.12 211.52 95.51C211.47 94.25 211.54 92.98 211.55 91.71C212.17 91.56 212.81 91.48 213.4 91.26C215.73 90.4 217.55 91.39 218.81 93.14C220.19 95.06 221.31 97.21 221.16 99.76C221.09 101.03 221.16 102.31 221.16 103.58C221.14 105.04 221.11 106.5 221.09 107.96L221.06 108.12C220.13 108.84 220.04 109.8 220.28 110.86L220.269 110.86Z" fill="#FFFADE"/>
<path d="M221.15 103.58C221.15 102.31 221.08 101.03 221.15 99.7599C221.3 97.2099 220.18 95.06 218.8 93.14C217.54 91.39 215.72 90.3999 213.39 91.2599C212.8 91.4799 212.16 91.56 211.54 91.71C211.45 88.69 211.73 85.66 210.7 82.7C210.3 81.5499 210.31 80.1399 211.5 79.1699C214.37 80.7999 217.03 80.6699 219.39 78.1899C221.04 80.6499 221.16 83.5599 221.62 86.3099C222.52 91.6199 222.35 96.9799 221.74 102.32C221.69 102.76 221.35 103.16 221.14 103.58H221.15Z" fill="#FEF698"/>
<path d="M138.98 191.41C139.56 191.65 140.14 191.9 140.73 192.12C143.33 193.11 143.9 194.96 143.02 197.45C140.73 196.07 139.44 194.02 138.98 191.41Z" fill="#F4D05F"/>
<path d="M202.879 124.3C206.029 127.58 208.239 128.01 211.919 126.02C212.879 125.5 213.769 124.88 214.689 124.3C213.309 126.55 211.919 128.81 210.539 131.07C208.759 132.65 207.099 134.38 205.189 135.79C199.809 139.77 193.839 142.11 187.009 141.76C185.899 141.7 184.789 141.76 183.689 141.78C181.749 141.37 179.819 140.97 177.879 140.56C178.799 137.72 179.729 134.88 180.649 132.04L180.739 131.87C187.629 131.36 193.999 129.23 199.939 125.73C200.869 125.18 201.889 124.78 202.879 124.31V124.3Z" fill="#FEE244"/>
<path d="M84.0395 180.02C86.4495 180.43 87.6903 182.22 88.7703 184.14C89.7403 185.87 89.7303 187.69 89.1803 189.58C88.8803 190.62 88.7903 191.71 88.6103 192.79C88.0403 193.68 87.4803 194.56 86.9103 195.45C86.5103 194.8 86.2603 193.82 85.6903 193.56C83.0103 192.34 81.3503 190.02 79.0703 188C80.9903 185.42 81.6103 182.2 84.0303 180.03L84.0395 180.02Z" fill="#FED295"/>
<path d="M90.4395 190.52C90.7895 189.59 91.1394 188.66 91.4894 187.73C91.6194 188.84 91.7094 189.94 90.4395 190.52Z" fill="#6B4E90"/>
<path d="M91.7695 186.7C91.9795 186.08 92.1895 185.47 92.4095 184.85C92.1995 185.47 91.9895 186.08 91.7695 186.7Z" fill="#6B4E90"/>
<path d="M81.0893 144.63C75.9393 144.5 71.0993 145.49 66.7993 148.53C63.8293 150.63 60.3493 151.58 55.9893 152.89C58.2193 153.01 59.4793 152.97 60.6993 153.18C61.4093 153.3 62.0493 153.83 62.7193 154.18C60.3893 154.13 58.0693 154.04 55.7393 154.05C54.1593 154.05 52.6393 153.94 51.2393 153.14C49.9593 151.55 48.6693 149.95 47.3893 148.36C46.5993 146.46 45.5693 144.62 45.0793 142.65C43.8593 137.73 43.9993 132.91 47.1493 128.59C48.1693 127.19 49.1593 125.77 50.1593 124.35C50.5193 124.06 50.8693 123.76 51.2293 123.47C52.1393 124.33 53.1793 125.08 53.9493 126.05C58.4193 131.68 63.4593 136.64 69.9393 140.2C71.3993 139.87 72.9293 139.5 74.4693 139.18C77.2993 138.59 80.1193 138.3 82.8193 139.72C82.0593 141.23 81.8293 142.84 81.9393 144.51C81.6593 144.56 81.3793 144.61 81.0993 144.64L81.0893 144.63Z" fill="#FFA79A"/>
<path d="M81.9289 144.51C81.8289 142.84 82.0489 141.23 82.8089 139.72L82.9789 139.69C84.5689 139.76 86.1889 139.65 87.7389 139.93C91.4689 140.63 95.1289 141.86 98.8789 142.24C103.129 142.67 107.569 143.04 111.699 142.27C117.279 141.22 122.669 139.14 127.509 135.91C132.679 132.45 138.099 129.48 144.279 128.19C144.309 130.1 144.339 132.01 144.369 133.91L144.239 134.04C139.719 135.66 135.479 137.8 131.379 140.3C128.819 141.86 125.769 142.64 123.199 144.18C120.119 146.02 116.759 146.76 113.389 147.66C108.649 148.91 103.859 148.62 99.1489 148.06C95.2389 147.59 91.4389 146.21 87.5589 145.35C85.7089 144.94 83.8089 144.78 81.9289 144.51Z" fill="#FFDA9F"/>
<path d="M145.26 133.95C145.24 134.59 145.23 135.23 145.21 135.88C144.89 135.27 144.57 134.66 144.25 134.05L144.38 133.92L144.82 133.95H145.26Z" fill="#FFDA9F"/>
<path d="M47.3905 148.36C48.6705 149.95 49.9605 151.55 51.2405 153.14C45.5005 153.67 39.9305 152.74 34.4205 151.2C32.5305 150.67 31.0205 149.64 29.5305 148.43C27.7005 146.94 25.5805 145.79 24.3605 143.65C25.0905 143.08 25.2405 142.39 24.7805 141.58C22.8805 138.24 21.8505 134.59 20.8105 130.91C18.8905 124.12 17.9205 117.13 18.7805 110.22C19.9205 101.13 21.5405 92.0603 24.6405 83.3503C25.3305 81.4303 25.6905 79.3903 26.2005 77.4103C26.5505 77.3903 26.9005 77.3704 27.2405 77.3604C28.8105 77.6703 30.3805 77.9803 31.9505 78.2903C31.9705 78.6103 32.0005 78.9304 32.0205 79.2504C30.5505 83.7904 29.0305 88.3204 27.6305 92.8904C25.7005 99.1504 25.0105 105.66 24.4205 112.13C23.9805 117.02 24.2305 121.96 25.2105 126.89C26.7305 134.52 29.9805 141.02 35.9505 146.1C38.9405 148.64 42.5005 149.17 46.2205 149.17C46.6005 149.17 46.9805 148.65 47.3605 148.37L47.3905 148.36Z" fill="#FFCE93"/>
<path d="M31.9698 78.2801C30.3998 77.9701 28.8298 77.66 27.2598 77.35C29.5298 70.07 32.8198 63.2501 37.0298 56.9301C39.0298 53.9401 41.6298 51.3401 43.9798 48.5801C45.0998 47.2601 46.2698 45.9801 47.4198 44.6801C47.8198 44.4201 48.2898 44.2301 48.6098 43.9001C54.5598 37.8001 61.7598 33.4001 69.0098 29.1301C78.0898 23.7901 87.8298 20 98.0398 17.42C100.8 16.72 103.56 16 106.32 15.29C106.78 15.17 107.25 15.0301 107.72 14.9901C112.14 14.6401 116.57 14.19 121 14.04C122.79 13.98 123.98 13.27 125.06 12.05C125.14 13.47 125 15.0401 126.83 15.5301C127.94 15.8301 128.6 14.77 129.1 12.04C129.57 12.86 130.04 13.67 130.72 14.85C132.23 14.88 133.96 14.9201 135.69 14.9501C136.35 16.1601 136.68 17.7 138.48 17.79C140.48 17.9 141.18 16.5401 141.69 14.9601C141.73 14.8501 141.91 14.7901 142.02 14.7001C145.03 16.3801 148.03 18.0601 151.04 19.7401C155.11 23.4801 159.93 26.1601 164.41 29.3301C165.15 29.8601 165.73 30.6101 166.39 31.2601C165.63 31.0401 164.84 30.8901 164.13 30.5701C160.92 29.1801 157.78 27.5901 154.52 26.3401C145.72 22.9601 136.68 20.6801 127.16 20.7001C124.29 20.7001 121.41 20.87 118.55 20.66C114.05 20.34 109.62 20.98 105.29 21.86C96.8698 23.58 88.6398 26.1201 80.8898 29.9001C75.7398 32.4101 70.6398 35.0601 65.7398 38.0201C61.8298 40.3801 57.7598 42.6801 55.0398 46.5901C54.1998 46.9801 53.1998 47.1901 52.5298 47.7801C48.3598 51.4801 44.8198 55.75 41.5198 60.23C37.4298 65.77 34.4998 71.9201 31.9598 78.2801H31.9698Z" fill="#FFC5C2"/>
<path d="M111.879 185.69C116.459 185.66 118.329 188.65 119.489 192.46C118.299 192.03 117.199 191.84 115.849 192.19C113.999 192.67 113.279 192.13 112.729 190.27C112.289 188.79 112.149 187.22 111.879 185.7L111.879 185.69Z" fill="#FFCF97"/>
<path d="M148.209 179.98C149.299 181.64 150.919 182.76 151.109 184.81C147.189 185.08 144.549 183.08 142.529 179.98H148.209Z" fill="#FFCE95"/>
<path d="M145.26 133.95H144.82L144.38 133.92C144.35 132.01 144.319 130.1 144.289 128.2H144.309C145.199 127.89 146.069 127.53 146.979 127.29C148.589 126.86 149.549 127.76 150.409 129.23C153.369 128.32 156.359 127.37 159.369 126.51C160.489 126.19 161.199 125.52 161.999 124.7C165.299 121.32 168.759 118.09 172.149 114.8C176.359 117.63 179.389 121.34 180.799 126.27C180.779 128.13 180.759 129.99 180.749 131.85L180.659 132.02C173.689 132.03 166.719 132.05 159.759 132.05C154.839 132.05 150.059 133.07 145.259 133.94L145.26 133.95Z" fill="#FFB4A7"/>
<path d="M148.141 171.48C148.961 171.82 149.231 172.45 149.131 173.29C148.801 172.69 148.471 172.08 148.141 171.48Z" fill="#7A5696"/>
<path d="M166.399 31.27C165.739 30.62 165.159 29.87 164.419 29.34C159.939 26.17 155.119 23.49 151.049 19.75C152.889 20.2 154.799 20.47 156.559 21.15C166.419 24.96 175.649 30.03 183.689 36.83C191.099 43.1 197.879 50.12 201.979 59.21C203.419 62.4 204.889 65.57 206.249 68.79C206.609 69.64 206.589 70.65 206.749 71.58C204.839 69.05 203.049 66.43 200.989 64.03C199.039 61.76 198.059 58.67 195.209 57.17C192.859 53.98 190.579 50.73 187.569 48.1C185.059 45.92 182.609 43.66 179.999 41.6C175.529 38.08 170.939 34.7 166.409 31.26L166.399 31.27Z" fill="#FFD6DF"/>
<path d="M195.199 57.1702C198.049 58.6702 199.029 61.7602 200.979 64.0302C203.039 66.4302 204.829 69.0602 206.739 71.5802C207.939 74.3502 209.46 76.9199 211.5 79.1699C210.31 80.1299 210.3 81.5399 210.7 82.7C211.73 85.67 211.46 88.69 211.54 91.71C211.53 92.98 211.449 94.2502 211.509 95.5102C211.699 100.13 210.739 104.59 209.759 109.05C208.789 113.46 206.689 117.29 204.019 120.87C203.479 121.6 203.219 122.54 202.829 123.38C201.759 122.58 201.779 121.46 202.119 120.38C203.099 117.23 204.159 114.11 205.219 110.99C205.679 109.63 206.299 108.29 204.849 107.12C204.849 107.12 204.849 107.01 204.839 107.01C205.989 103.55 206.429 99.9602 206.699 96.3502C206.929 93.3202 206.339 90.3802 205.819 87.4102C205.169 83.6802 204.489 79.9802 203.379 76.3302C201.849 71.2802 199.459 66.6402 197.099 61.9702L195.189 57.1602L195.199 57.1702Z" fill="#FFD8C1"/>
<path d="M204.86 107.13C206.31 108.29 205.69 109.64 205.23 111C204.17 114.12 203.11 117.24 202.13 120.39C201.79 121.47 201.78 122.59 202.84 123.39C202.89 123.69 202.9 124 202.89 124.31C201.91 124.78 200.89 125.18 199.95 125.73C194.01 129.24 187.65 131.37 180.75 131.87C180.77 130.01 180.79 128.15 180.8 126.29C184.62 125.93 188.18 124.59 191.8 123.45C193.83 122.81 195.54 121.77 196.98 120.21C197.84 119.28 198.73 118.36 199.68 117.51C202.8 114.73 204.17 111.11 204.84 107.13H204.86Z" fill="#FFD094"/>
<path d="M47.3893 148.36C47.0093 148.64 46.6294 149.16 46.2494 149.16C42.5294 149.16 38.9594 148.63 35.9794 146.09C30.0094 141.01 26.7594 134.51 25.2394 126.88C24.2594 121.96 24.0094 117.01 24.4494 112.12C25.0294 105.65 25.7294 99.1403 27.6594 92.8802C29.0594 88.3203 30.5894 83.7902 32.0494 79.2402C35.2494 80.8502 38.4494 82.4603 41.6494 84.0703C42.2294 84.6302 42.8094 85.2003 43.3794 85.7603C44.4694 87.7103 46.3994 88.3503 48.3494 88.9503C48.2594 90.5803 49.6994 91.3703 50.3394 92.5903C48.9094 92.6803 47.4394 92.5703 46.0694 92.9003C44.0194 93.3903 42.5594 95.5903 42.6594 97.5803C42.7594 99.5603 44.5294 101.22 46.8894 101.37C47.9994 101.44 49.1194 101.25 50.2294 101.17C49.5694 101.54 48.9394 102.16 48.2594 102.22C46.5594 102.37 44.8294 102.27 42.9794 102.27C42.1994 103.64 41.9794 105.09 42.2994 106.99C43.2094 112.35 44.5994 117.47 47.2694 122.24C47.9394 123.44 48.7093 124.31 50.1593 124.35C49.1593 125.76 48.1693 127.19 47.1493 128.59C43.9993 132.92 43.8593 137.73 45.0793 142.65C45.5693 144.62 46.5993 146.46 47.3893 148.36Z" fill="#FFEC89"/>
<path d="M50.1593 124.35C48.7093 124.32 47.9394 123.44 47.2694 122.24C44.6094 117.47 43.2094 112.35 42.2994 106.99C41.9794 105.09 42.1994 103.65 42.9794 102.27C44.8294 102.27 46.5594 102.37 48.2594 102.22C48.9394 102.16 49.5694 101.54 50.2294 101.17C52.8994 98.5602 55.6899 99.7998 58.6899 100.79C58.7699 102.16 58.8899 103.4 58.8999 104.64C58.9199 106.38 58.8599 108.11 58.8299 109.85C58.7899 112.08 59.4999 113.88 61.6899 114.82C62.4399 115.87 63.4999 115.89 64.6299 115.71C65.8499 115.74 67.0699 115.78 68.2899 115.81C69.6399 116.05 70.9899 116.29 72.3399 116.55C73.3599 116.75 74.3799 116.97 75.6499 117.23C75.4799 118.51 75.3399 119.55 75.1999 120.6C74.8499 121.18 74.4899 121.76 74.1399 122.34C72.9599 121.93 71.7399 121.59 70.5899 121.09C65.3299 118.81 60.1399 119 55.0099 121.47C53.7299 122.09 52.4799 122.79 51.2199 123.45C50.8599 123.74 50.5099 124.04 50.1499 124.33L50.1593 124.35Z" fill="#FCFB9A"/>
<path d="M51.2305 123.47C52.4905 122.81 53.7305 122.1 55.0205 121.49C60.1505 119.02 65.3405 118.83 70.6005 121.11C71.7505 121.61 72.9605 121.94 74.1505 122.36L74.3005 122.51C73.2205 124.21 73.0405 126.08 73.2505 128.03C73.4005 129.41 74.1005 130.34 75.2505 131.09C77.7205 132.7 79.7705 131.89 81.7105 130.14C82.1405 133.33 82.5605 136.51 82.9905 139.7C82.9905 139.7 82.8305 139.73 82.8205 139.73C80.1205 138.31 77.3005 138.59 74.4705 139.19C72.9305 139.51 71.4005 139.88 69.9405 140.21C63.4505 136.65 58.4205 131.69 53.9505 126.06C53.1805 125.09 52.1405 124.33 51.2305 123.48V123.47Z" fill="#FEBFA8"/>
<path d="M82.9789 139.69C82.5489 136.5 82.1292 133.32 81.6992 130.13C81.7892 129.81 81.8692 129.48 81.9592 129.16C82.3492 128.81 82.7392 128.46 83.1192 128.11C83.2992 128.11 83.4692 128.11 83.6492 128.11C84.0392 129.09 84.3792 130.1 84.8392 131.05C85.3992 132.2 86.2292 133.05 87.6492 132.99C90.6625 133.117 92.7759 131.813 93.9892 129.08C94.0492 128.93 94.0992 128.78 94.1592 128.63C94.7392 127.3 95.6692 127.19 96.8192 127.83C97.3392 129.16 97.6592 130.59 98.3992 131.74C99.7792 133.91 102.209 134.61 104.189 133.67C106.069 132.78 107.209 130.22 106.619 127.99C106.299 126.78 105.809 125.61 105.389 124.43C106.629 124.21 107.929 124.13 109.109 123.73C117.079 121.01 125.029 118.22 132.989 115.44C133.129 115.39 133.229 115.23 133.349 115.13C133.729 113.79 134.099 112.45 134.479 111.12C134.479 111.75 134.479 112.38 134.489 113.01C134.599 115.85 136.089 117.71 138.629 118.82C141.299 119.99 143.539 119.34 145.459 117.24C145.669 117.01 145.949 116.85 146.199 116.66C146.529 117.95 146.859 119.25 147.189 120.54C145.559 122.84 144.329 125.29 144.309 128.2H144.289C138.109 129.48 132.689 132.46 127.519 135.92C122.679 139.15 117.289 141.24 111.709 142.28C107.569 143.05 103.129 142.68 98.8892 142.25C95.1392 141.87 91.4792 140.64 87.7492 139.94C86.1992 139.65 84.5792 139.76 82.9892 139.7L82.9789 139.69Z" fill="#FFFFA7"/>
<path d="M41.6505 84.0699C38.4505 82.4599 35.2505 80.8499 32.0505 79.2399C32.0305 78.9199 32.0005 78.5999 31.9805 78.2799C34.5205 71.9199 37.4505 65.7699 41.5405 60.2299C44.8405 55.7499 48.3905 51.4799 52.5505 47.7799C53.2105 47.1899 54.2105 46.9799 55.0605 46.5899C56.1305 46.3999 57.2505 46.3399 58.2605 45.9799C62.1005 44.6099 65.9405 43.2199 69.7105 41.6699C72.0105 40.7199 74.2205 40.6599 76.7505 41.2699C76.9105 42.6299 77.0505 43.8499 77.1805 45.0699C77.3105 46.2799 77.9905 47.0799 79.0805 47.5599C80.3805 49.2799 79.8505 51.1799 79.4805 52.9999C79.3805 53.4999 78.7505 54.0699 78.2305 54.2599C77.5105 54.5199 76.6805 54.5099 75.8905 54.5199C72.7205 54.5299 69.5505 54.4999 66.3805 54.4899C65.0805 54.4899 63.8305 54.6599 62.8505 55.6099C61.8705 56.5499 61.5305 57.7399 61.6705 59.0799C60.5105 60.9799 61.1105 63.1099 60.8705 65.1299C60.6705 66.8199 61.1705 68.6599 59.7705 70.2099C57.4005 70.8799 55.1605 70.2699 52.9505 69.2399C50.6505 68.1699 48.2705 67.9398 46.2205 69.6699C44.0205 71.5299 44.4305 73.8598 45.5405 76.1598C45.7305 76.8898 45.9205 77.6299 46.1705 78.6099C43.9205 79.7899 42.7205 81.8899 41.6305 84.0699H41.6505Z" fill="#FEFDC5"/>
<path d="M79.0805 47.5599C77.9905 47.0799 77.3105 46.2899 77.1805 45.0699C77.0505 43.8499 76.9005 42.6399 76.7505 41.2699C74.2205 40.6599 72.0105 40.7299 69.7105 41.6699C65.9405 43.2199 62.1005 44.6099 58.2605 45.9799C57.2505 46.3399 56.1305 46.3999 55.0605 46.5899C57.7805 42.6799 61.8505 40.3699 65.7605 38.0199C70.6605 35.0699 75.7606 32.4099 80.9106 29.8999C88.6606 26.1199 96.8905 23.5799 105.311 21.8599C109.631 20.9799 114.071 20.3399 118.571 20.6599C121.431 20.8599 124.311 20.6999 127.181 20.6999C136.691 20.6799 145.741 22.9599 154.541 26.3399C157.801 27.5899 160.941 29.1799 164.151 30.5699C164.871 30.8799 165.661 31.0299 166.411 31.2599C170.951 34.6999 175.531 38.0799 180.001 41.5999C182.611 43.6499 185.061 45.9099 187.571 48.0999C190.581 50.7299 192.871 53.9699 195.211 57.1699C195.851 58.7699 196.481 60.3799 197.121 61.9799C195.831 62.0299 194.741 61.6399 193.601 60.9399C190.251 58.8899 186.761 57.0899 183.381 55.0899C182.081 54.3199 181.001 54.6199 179.851 55.2599C179.611 55.0499 179.291 54.8799 179.161 54.6199C176.641 49.4999 173.061 45.3099 168.241 42.2199C164.761 39.9899 161.421 37.4499 157.721 35.6499C150.511 32.1399 142.991 30.4999 135.201 34.0899C135.061 34.1499 134.881 34.1299 134.731 34.1399C134.451 33.5999 134.311 32.7799 133.871 32.5599C132.161 31.7299 130.351 31.1599 128.371 31.2399C126.141 31.3299 123.901 31.3899 121.681 31.2399C116.441 30.8699 111.271 31.2399 106.111 32.2199C100.951 33.1999 95.9306 34.6199 91.0106 36.4199C90.1606 36.7299 89.4605 37.4599 88.6805 37.9899C87.5905 38.4799 86.8605 39.1199 87.4905 40.4699C87.6805 40.8799 87.7005 41.3599 87.8005 41.7999C87.7905 43.0899 87.7706 44.3799 87.7606 45.6699C87.7306 45.9899 87.7006 46.3099 87.6906 46.6299C87.3306 46.6199 86.9606 46.6099 86.6006 46.5999C86.6406 45.1699 86.8505 43.7199 86.6805 42.3199C86.4205 40.1999 83.9705 38.2999 81.9005 38.3699C79.7105 38.4399 77.8805 40.4499 78.0505 42.9699C78.1505 44.5199 78.7305 46.0399 79.0905 47.5799L79.0805 47.5599Z" fill="#FFE3D2"/>
<path d="M204.86 107.13C204.19 111.11 202.82 114.74 199.7 117.51C198.75 118.35 197.86 119.27 197 120.21C195.56 121.76 193.85 122.81 191.82 123.45C188.2 124.58 184.63 125.92 180.82 126.29C179.41 121.35 176.38 117.64 172.17 114.82C171.19 114.2 170.23 113.57 169.24 112.98C168.63 112.61 167.97 112.31 167.34 111.98C167.54 110.98 167.93 110.14 169.11 110.08C170.38 110.02 171.66 110 172.93 109.99C180.26 109.99 187.59 110.01 194.93 109.95C196.34 109.94 197.8 109.79 199.13 109.37C201.09 108.75 202.96 107.82 204.86 107.03V107.14L204.86 107.13Z" fill="#FFF28F"/>
<path d="M167.321 111.96C167.961 112.29 168.611 112.59 169.221 112.96C170.211 113.55 171.181 114.19 172.151 114.8C168.751 118.09 165.301 121.32 162.001 124.7C161.201 125.52 160.491 126.19 159.371 126.51C156.361 127.37 153.371 128.33 150.411 129.23C149.561 127.76 148.591 126.86 146.981 127.29C146.071 127.53 145.201 127.89 144.311 128.2C144.321 125.29 145.561 122.84 147.191 120.54C149.541 120.72 151.271 119.75 151.861 117.47C152.321 115.69 153.571 114.99 154.981 114.21C158.851 112.08 163.011 111.6 167.321 111.96Z" fill="#FFD1B6"/>
<path d="M167.319 111.96C162.999 111.6 158.849 112.08 154.979 114.21C153.569 114.98 152.329 115.69 151.859 117.47C151.259 119.75 149.539 120.72 147.189 120.54C146.859 119.25 146.529 117.95 146.199 116.66V116.65C147.699 115.2 147.489 113.63 146.539 112L146.259 110.95C147.989 110.85 149.739 110.89 151.439 110.61C155.929 109.87 160.389 108.93 164.979 108.96C165.899 108.96 166.819 108.77 167.319 108.71C169.099 106.02 170.639 103.67 172.189 101.33C172.819 101.81 173.559 102.2 174.049 102.8C175.879 105.02 178.409 105.95 181.039 106.68C185.129 107.81 190.449 105.56 192.509 101.85C195.279 96.8601 194.719 91.7501 192.979 86.6201C192.789 86.0501 192.319 85.5201 191.869 85.0901C188.409 81.8201 184.509 80.2201 179.679 81.6901C177.959 82.2101 176.489 83.0701 175.049 84.0501C174.859 82.7001 174.649 81.3501 174.479 79.9901C174.329 78.7801 174.209 77.5701 174.069 76.3601C174.069 76.0401 174.089 75.7301 174.089 75.4101C178.399 73.9001 180.889 70.7201 181.579 66.3801C182.059 63.4301 182.179 60.3301 180.529 57.5101C180.139 56.8501 180.049 56.0101 179.829 55.2501C180.979 54.6101 182.059 54.3101 183.359 55.0801C186.739 57.0801 190.229 58.8801 193.579 60.9301C194.719 61.6301 195.809 62.0202 197.099 61.9702C199.459 66.6402 201.839 71.2802 203.379 76.3302C204.489 79.9702 205.159 83.6702 205.819 87.4102C206.339 90.3802 206.919 93.3202 206.699 96.3502C206.429 99.9602 205.989 103.55 204.839 107.01C202.929 107.81 201.069 108.73 199.109 109.35C197.779 109.77 196.319 109.92 194.909 109.93C187.579 109.99 180.249 109.96 172.909 109.97C171.639 109.97 170.359 110 169.089 110.06C167.909 110.12 167.519 110.96 167.319 111.96Z" fill="#FFFEC5"/>
<path d="M45.5506 76.1598C44.4406 73.8498 44.0306 71.5298 46.2306 69.6698C48.2806 67.9398 50.6606 68.1698 52.9606 69.2398C55.1706 70.2698 57.4106 70.8798 59.7806 70.2098C61.1806 68.6598 60.6806 66.8198 60.8806 65.1298C61.1206 63.1098 60.5206 60.9798 61.6806 59.0798C62.2006 58.4898 62.7706 57.9498 63.2306 57.3198C64.3706 55.7298 65.9006 55.1098 67.8006 55.3098C68.5906 55.3898 69.4206 55.4098 70.1506 55.6798C72.8006 56.6398 75.5306 56.2098 78.2206 56.1598C79.9506 56.1298 80.7806 55.1798 80.9306 53.4198C81.0806 51.6998 81.1206 49.9698 81.2306 47.8398C82.1506 48.2198 82.8806 48.2898 83.1306 48.6798C83.5406 49.3098 83.8606 50.1498 83.8106 50.8798C83.5906 53.9298 84.1306 56.3298 87.8306 56.6298C88.0606 56.6498 88.4206 57.4198 88.3706 57.8098C88.3306 58.1898 87.9206 58.6998 87.5606 58.8498C86.9906 59.0798 86.3206 59.0898 85.6906 59.0998C82.8106 59.1398 79.9406 59.1498 77.0606 59.1698C74.6806 59.1698 72.3006 59.1298 69.9206 59.1998C67.4506 59.2698 66.7906 59.8698 66.6806 62.2898C66.3106 69.8898 65.9806 77.4998 65.6906 85.0998C65.5406 89.0698 65.8206 93.0798 65.3106 96.9998C64.7606 101.28 64.7406 105.54 64.7006 109.82C65.3506 110.19 65.9906 110.85 66.6706 110.88C68.8906 111.01 71.1306 110.92 73.3606 110.91V110.87C74.0906 112.01 75.2506 111.85 76.3606 111.92C78.3906 112.04 80.4906 111.51 82.5406 112.45C82.8006 113.38 83.0506 114.26 83.2806 115.09C79.5606 117.32 79.0206 119.48 81.0506 123.36H81.0406C80.7206 124.98 81.6106 126.84 80.0606 128.2L80.0306 128.17C79.8439 126.15 78.8839 124.89 77.1506 124.39H77.1306C76.7306 123.38 76.2706 122.47 76.7106 121.27C77.3606 119.51 77.5706 117.67 76.2106 115.82H68.3106C67.0906 115.79 65.8706 115.75 64.6506 115.72C63.9206 114.59 62.7906 114.79 61.7106 114.83C59.5106 113.89 58.8106 112.09 58.8506 109.86C58.8806 108.12 58.9306 106.38 58.9206 104.65C58.9106 103.41 58.7906 102.17 58.7106 100.8C55.7206 99.8098 52.9306 98.5698 50.2506 101.18C49.1406 101.25 48.0106 101.45 46.9106 101.38C44.5506 101.23 42.7706 99.5698 42.6806 97.5898C42.5806 95.5998 44.0506 93.3898 46.0906 92.9098C47.4606 92.5798 48.9406 92.6898 50.3606 92.5998C53.0206 94.1898 55.8306 94.8698 58.9406 94.0798C59.9406 92.0398 60.0506 90.1298 59.1806 88.2298C53.3806 87.3398 52.2606 87.4198 48.3706 88.9698C46.4206 88.3598 44.4906 87.7298 43.4006 85.7798C43.4606 85.3098 43.5006 84.8398 43.6006 84.3698C44.5006 80.0398 47.6406 78.3798 51.1606 80.7398C53.8606 82.5498 56.5206 82.0898 59.2306 81.9598C61.1906 76.9998 60.8006 76.2898 56.1706 76.2098C54.9106 76.1898 53.4906 76.0498 52.4206 76.5498C49.9806 77.6998 47.8006 77.2198 45.5706 76.1698L45.5506 76.1598Z" fill="#5687AE"/>
<path d="M48.3494 88.9503C52.2394 87.4003 53.3597 87.3198 59.1597 88.2098C60.0297 90.1098 59.9297 92.0298 58.9197 94.0598C55.8097 94.8598 52.9997 94.1798 50.3397 92.5798C49.6997 91.3498 48.2597 90.5598 48.3497 88.9398L48.3494 88.9503Z" fill="#F8F9CC"/>
<path d="M45.5506 76.1598C47.7806 77.2098 49.9606 77.6902 52.4006 76.5402C53.4706 76.0402 54.8906 76.1702 56.1506 76.2002C60.7806 76.2802 61.1706 76.9902 59.2106 81.9502C56.5106 82.0802 53.8506 82.5502 51.1406 80.7302C47.6206 78.3602 44.4706 80.0302 43.5806 84.3602C43.4806 84.8202 43.4506 85.3002 43.3806 85.7702C42.8006 85.2002 42.2206 84.6402 41.6406 84.0702C42.7306 81.8802 43.9306 79.7802 46.1806 78.6102C45.9306 77.6302 45.7406 76.8998 45.5506 76.1598ZM51.4806 78.4702C53.1606 81.4702 55.4506 81.4202 57.8206 80.8402C58.2306 80.7402 58.6806 79.9302 58.7206 79.4102C58.7606 78.8802 58.4606 77.9502 58.0906 77.8202C56.0006 77.1002 53.8806 76.9302 51.4806 78.4702Z" fill="#E6E9C6"/>
<path d="M68.2988 115.82H76.1988C77.5588 117.67 77.3488 119.51 76.6988 121.27C76.2588 122.47 76.7188 123.38 77.1188 124.38C75.8388 124.38 75.3088 123.56 75.0088 122.48C75.0788 121.85 75.1488 121.22 75.2188 120.6C75.3588 119.56 75.4988 118.52 75.6688 117.23C74.4088 116.97 73.3888 116.74 72.3588 116.55C71.0088 116.29 69.6588 116.06 68.3088 115.81L68.2988 115.82Z" fill="#6486AF"/>
<path d="M61.6992 114.83C62.7792 114.79 63.9092 114.59 64.6392 115.72C63.5192 115.9 62.4492 115.88 61.6992 114.83Z" fill="#6486AF"/>
<path d="M75.2106 120.6C75.1406 121.23 75.0706 121.86 75.0006 122.48C74.7606 122.45 74.5306 122.46 74.2906 122.5L74.1406 122.35C74.4906 121.77 74.8506 121.19 75.2006 120.61L75.2106 120.6Z" fill="#FEBFA8"/>
<path d="M74.2892 122.5C74.5292 122.46 74.7592 122.45 74.9992 122.48C75.3092 123.56 75.8391 124.38 77.1091 124.38H77.1292C78.0892 125.64 79.0492 126.9 80.0092 128.16L80.0392 128.19C80.5192 128.47 80.9992 128.75 81.4692 129.03C81.6192 129.11 81.7792 129.15 81.9492 129.15C81.8692 129.47 81.7792 129.79 81.6892 130.12C79.7492 131.87 77.6992 132.68 75.2292 131.07C74.0692 130.32 73.3792 129.39 73.2292 128.01C73.0192 126.06 73.1992 124.19 74.2792 122.49L74.2892 122.5Z" fill="#A18694"/>
<path d="M172.2 101.34C170.65 103.69 169.11 106.03 167.33 108.72C166.83 108.78 165.91 108.97 164.99 108.97C160.4 108.94 155.94 109.87 151.45 110.62C149.75 110.9 148 110.86 146.27 110.96C145.95 110.62 145.64 110.28 145.31 109.95C141.84 106.47 138.62 106.48 135.31 109.99C134.99 110.33 134.74 110.73 134.46 111.11C134.08 112.45 133.71 113.79 133.33 115.12C133.21 115.23 133.11 115.39 132.97 115.43C125.02 118.21 117.07 121 109.09 123.72C107.91 124.12 106.61 124.19 105.37 124.42C105.26 123.64 105.05 122.85 105.07 122.07C105.18 118.48 105.93 117.8 109.34 118.07C110.93 118.19 112.52 118.42 114.1 118.44C118.38 118.48 120.53 116.71 121.35 112.44C121.71 110.57 121.79 108.64 122.03 106.75C122.21 105.36 122.45 103.98 122.68 102.54C125.5 101.92 127.95 101.61 130.32 103.08C130.86 103.41 131.46 103.68 132.06 103.86C134.16 104.5 136.46 103.21 137.4 100.93C138.36 98.59 137.52 96.35 135.34 95.29C133.92 94.6 132.59 94.74 131.21 95.41C128.49 96.74 125.73 96.6501 122.96 95.7601C122.23 93.9201 122.87 92.5201 123.65 91.1901C126.59 90.7034 129.363 91.0001 131.97 92.0801C134.06 92.9401 136.24 92.4801 137.63 90.8801C138.88 89.4401 139.1 86.6001 138.1 85.0301C137 83.3201 134.95 82.8101 132.58 83.6901C132.13 83.8601 131.73 84.15 131.29 84.3101C128.68 85.2701 126.06 85.26 123.44 84.42C122.98 82.33 122.93 80.4901 124.15 78.6901C126.69 78.1301 129.13 78.2601 131.65 79.0301C134.96 80.0301 136.78 79.3601 138.41 77.0601C139.4 75.66 139.76 74.1501 138.88 72.5801C138.02 71.0601 136.63 70.22 134.91 70.43C133.52 70.6 132.18 71.1701 130.82 71.5601C129 71.34 127.01 72.11 125.48 70.79C125.37 70.45 125.28 70.3001 125.28 70.1501C125.22 67.6101 124.97 65.06 125.16 62.54C125.51 57.84 121.41 53.85 116.81 54.23C114.97 54.38 113.01 54.6601 111.06 53.6901C110.95 52.9501 110.83 52.18 110.71 51.41C111.49 51.32 112.34 51.4101 113.03 51.1201C118.18 48.8901 123.4 47.67 128.99 49.42C129.85 49.69 130.87 49.4801 131.81 49.5001C133.74 52.3301 136.64 54.04 139.48 55.67C145.41 59.08 151.09 62.75 155.62 67.99C156.96 69.55 158.5 70.94 159.99 72.37C162.72 75 165.85 76.6401 169.78 76.4001C171.2 76.3101 172.63 76.37 174.06 76.37C174.19 77.58 174.31 78.7901 174.47 80.0001C174.64 81.3501 174.85 82.7001 175.04 84.0601C174.07 85.51 173.09 86.95 172.14 88.41C171.8 88.94 171.31 89.5301 171.31 90.0901C171.33 93.8601 170.37 97.7101 172.18 101.33L172.2 101.34Z" fill="#FFFFF3"/>
<path d="M130.84 71.5701C132.2 71.1801 133.54 70.62 134.93 70.44C136.65 70.23 138.04 71.0701 138.9 72.5901C139.79 74.1601 139.42 75.66 138.43 77.0701C136.8 79.3701 134.98 80.04 131.67 79.04C129.15 78.27 126.71 78.1401 124.17 78.7001C122.95 80.4901 123 82.34 123.46 84.43C126.08 85.27 128.7 85.2801 131.31 84.3201C131.76 84.16 132.16 83.8601 132.6 83.7001C134.97 82.8201 137.02 83.33 138.12 85.04C139.13 86.61 138.9 89.4501 137.65 90.8901C136.26 92.4901 134.08 92.9501 131.99 92.0901C129.377 91.0101 126.604 90.7134 123.67 91.2001C122.89 92.5301 122.25 93.9301 122.98 95.7701C125.75 96.6601 128.51 96.75 131.23 95.42C132.6 94.75 133.94 94.6 135.36 95.3C137.53 96.36 138.37 98.6001 137.42 100.94C136.48 103.23 134.19 104.51 132.08 103.87C131.47 103.69 130.87 103.42 130.34 103.09C127.97 101.62 125.52 101.93 122.7 102.55C122.48 103.98 122.23 105.37 122.05 106.76C121.81 108.66 121.73 110.58 121.37 112.45C120.55 116.72 118.39 118.49 114.12 118.45C112.53 118.44 110.94 118.21 109.36 118.08C105.95 117.82 105.2 118.5 105.09 122.08C105.07 122.86 105.28 123.64 105.39 124.43C105.81 125.62 106.3 126.78 106.62 127.99C107.21 130.23 106.07 132.78 104.19 133.67C102.21 134.61 99.7803 133.91 98.4003 131.74C97.6603 130.58 97.3403 129.16 96.8203 127.83C95.6703 127.19 94.7403 127.3 94.1603 128.63C94.1003 128.78 94.0603 128.93 93.9903 129.08C92.777 131.807 90.6636 133.11 87.6503 132.99C88.3203 132.37 88.9903 131.76 89.6703 131.14C91.0003 130.09 91.0103 128.78 90.4503 127.34C88.8903 125.86 88.7403 125.85 86.6703 127.09C86.3103 127.42 85.9503 127.75 85.5903 128.08C85.3303 127.48 85.0703 126.88 84.8103 126.29C85.1603 125.68 85.5103 125.07 85.8603 124.46L85.8803 124.43C86.6903 124.02 86.8903 123.33 86.7903 122.49C86.7403 120.79 87.2903 119.02 86.4503 117.44C84.9603 116.63 83.6103 116.6 82.2603 117.33C81.1403 119.21 81.2106 121.31 81.0506 123.36C79.0306 119.48 79.5706 117.32 83.2806 115.09C83.0506 114.26 82.8006 113.37 82.5406 112.45C80.4806 111.5 78.3806 112.04 76.3606 111.92C75.2506 111.85 74.0906 112.01 73.3606 110.87C74.9506 110.87 76.5503 110.81 78.1403 110.87C86.4203 111.21 94.6903 111.57 102.96 111.94C106.3 112.09 109.64 112.28 112.98 112.46C114.55 112.54 115.42 111.9 115.57 110.35C115.75 108.45 115.85 106.54 115.93 104.63C116.06 101.3 116.15 97.9701 116.26 94.6401C117.13 85.6901 117.8 76.73 117.49 67.73C117.65 65.86 117.82 63.9901 117.96 62.3901C116.44 60.7001 114.75 61.16 113.21 61.11C102.06 60.7 90.9003 60.35 79.7503 59.92C78.8503 59.89 77.9603 59.43 77.0703 59.17C79.9503 59.15 82.8203 59.14 85.7003 59.1C86.3303 59.1 87.0003 59.07 87.5703 58.85C87.9403 58.7 88.3403 58.2 88.3803 57.81C88.4203 57.42 88.0703 56.65 87.8403 56.63C84.1303 56.33 83.6003 53.93 83.8203 50.8801C83.8703 50.1501 83.5503 49.31 83.1403 48.68C82.8903 48.29 82.1503 48.2201 81.2403 47.8401C81.1303 49.9801 81.0903 51.71 80.9403 53.42C80.7903 55.18 79.9603 56.13 78.2303 56.16C75.5403 56.21 72.8103 56.64 70.1603 55.68C69.4303 55.42 68.6003 55.4 67.8103 55.31C65.9103 55.11 64.3803 55.73 63.2403 57.32C62.7903 57.9501 62.2103 58.5001 61.6903 59.0801C61.5503 57.7401 61.8903 56.55 62.8703 55.61C63.8503 54.66 65.1003 54.48 66.4003 54.49C69.5703 54.51 72.7403 54.5301 75.9103 54.5201C76.6903 54.5201 77.5303 54.5201 78.2503 54.2601C78.7703 54.0701 79.4003 53.5 79.5003 53C79.8703 51.18 80.4003 49.28 79.1003 47.56C78.7403 46.02 78.1603 44.5001 78.0603 42.9501C77.8903 40.4301 79.7203 38.43 81.9103 38.35C83.9803 38.28 86.4203 40.18 86.6903 42.3C86.8603 43.7 86.6503 45.1501 86.6103 46.5801C85.0103 48.9201 85.6303 51.4201 85.8703 54.0301C87.9903 54.6801 89.9103 55.49 92.0003 53.86C92.4703 51.41 92.6403 48.9201 91.5603 46.4601C91.2403 45.7301 90.9003 44.9801 90.7703 44.2101C90.4403 42.2001 91.8703 39.6501 93.5403 39.0901C95.6103 38.4001 97.6503 39.19 98.9203 41.16C99.9703 42.78 100.07 44.4301 99.1303 46.1401C97.6603 48.8201 97.7203 51.5901 98.3803 54.3301C99.9003 55.3501 101.23 55.23 102.82 54.49C103.42 52.04 103.51 49.56 102.8 47.05C102.63 46.44 102.34 45.84 102.26 45.22C101.99 43.15 103.34 40.75 105.06 40.11C107.25 39.29 109.42 40.23 110.69 42.5C111.55 44.05 111.47 45.56 110.63 47.06C109.77 48.59 108.87 50.0701 108.92 51.9601C108.98 54.3301 109.58 55.0701 111.98 55.2701C114.36 55.4701 116.76 55.56 119.12 55.92C122.05 56.36 123.58 58.4 123.88 61.18C124.1 63.22 123.85 65.3201 123.77 67.3901C123.73 68.5001 123.51 69.62 123.61 70.72C123.66 71.25 124.17 72.09 124.61 72.19C126.73 72.65 128.96 73.4501 130.86 71.5701H130.84ZM96.1103 126.44C96.8503 126.39 97.6603 126.42 98.4303 126.27C100.61 125.87 102.35 123.4 101.77 121.27C100.63 117.05 96.9603 114.42 92.2103 115.99C90.0403 116.71 88.5803 119.14 88.8003 121.21C89.0503 123.64 90.9303 125.83 93.2003 126.23C94.1303 126.39 95.1003 126.37 96.1003 126.44H96.1103ZM97.5003 43.48C96.4003 42.89 95.6803 42.23 94.9603 42.22C94.5503 42.22 93.8703 43.25 93.7803 43.8801C93.6503 44.7901 94.9103 45.7001 95.6903 45.3201C96.2903 45.0301 96.6903 44.34 97.5003 43.49V43.48ZM108.92 44.75C108.15 44.05 107.71 43.39 107.09 43.1301C106.28 42.7901 105.24 43.76 105.22 44.68C105.21 45.61 106.2 46.61 107.02 46.31C107.64 46.08 108.11 45.4401 108.91 44.7601L108.92 44.75ZM134.19 72.98C133.64 73.91 133.02 74.5 132.99 75.11C132.95 76.06 133.78 76.43 134.66 76.3C135.5 76.17 136.29 75.64 136 74.75C135.81 74.15 135.01 73.75 134.19 72.99V72.98ZM84.2603 43.56C83.4303 42.82 82.9803 42.18 82.3803 42C82.0903 41.91 81.3403 42.6001 81.1403 43.0801C80.8403 43.8201 81.6303 44.7801 82.3903 44.6401C82.9103 44.5401 83.3703 44.09 84.2503 43.56H84.2603ZM134.04 86.0101C133.55 86.9501 133.02 87.55 133 88.17C132.99 88.51 133.77 89.0801 134.28 89.2001C134.94 89.3501 135.75 88.2501 135.46 87.5801C135.25 87.0901 134.72 86.7401 134.04 86.0101Z" fill="#6486AF"/>
<path d="M134.469 111.11C134.749 110.74 134.999 110.33 135.319 109.99C138.629 106.48 141.849 106.47 145.319 109.95C145.649 110.28 145.959 110.62 146.279 110.96C146.369 111.31 146.469 111.66 146.559 112.01C146.449 113.56 146.329 115.11 146.219 116.66V116.67C145.969 116.86 145.689 117.02 145.479 117.25C143.559 119.35 141.319 120 138.649 118.83C136.109 117.72 134.609 115.86 134.509 113.02C134.489 112.39 134.499 111.76 134.499 111.13L134.469 111.11Z" fill="#131966"/>
<path d="M81.0398 123.35C81.1998 121.3 81.1398 119.21 82.2498 117.32C83.6098 116.6 84.9498 116.63 86.4398 117.43C87.2798 119.01 86.7298 120.78 86.7798 122.48C85.9798 122.9 85.7798 123.59 85.8698 124.42L85.8498 124.45C84.9698 124.75 84.7297 125.43 84.7997 126.28C84.4097 126.89 84.0298 127.49 83.6398 128.1C83.4598 128.1 83.2897 128.1 83.1097 128.1C82.7697 126.84 83.3598 125.28 81.9098 124.37C81.6098 124.03 81.3098 123.69 81.0098 123.34H81.0197L81.0398 123.35Z" fill="#F6F7E1"/>
<path d="M83.6504 128.11C84.0404 127.5 84.4203 126.9 84.8103 126.29C85.0703 126.89 85.3303 127.49 85.5903 128.08C86.0303 130.007 87.2337 131.02 89.2004 131.12C89.3604 131.12 89.5104 131.12 89.6704 131.13C89.0004 131.75 88.3304 132.36 87.6504 132.98C86.2304 133.04 85.4004 132.19 84.8404 131.04C84.3804 130.09 84.0404 129.08 83.6504 128.1V128.11Z" fill="#B0C7C8"/>
<path d="M81.9205 124.39C83.3705 125.3 82.7805 126.85 83.1205 128.12C82.7305 128.47 82.3504 128.82 81.9604 129.17C81.7905 129.17 81.6305 129.12 81.4805 129.05C81.6305 127.5 81.7805 125.95 81.9205 124.39Z" fill="#B0C7C8"/>
<path d="M179.84 55.2599C180.07 56.0199 180.15 56.86 180.54 57.52C182.2 60.34 182.07 63.4399 181.59 66.3899C180.89 70.7299 178.4 73.9099 174.1 75.4199C172.31 75.3299 171.3 74.4399 171.22 72.5999C171.63 72.3699 172.02 72.11 172.44 71.9C175.62 70.39 177.02 67.8099 177 64.3599C176.99 62.6399 177.07 60.9099 176.92 59.1999C176.86 58.4999 176.29 57.8499 175.96 57.1799C174.9 56.0299 173.84 54.8799 172.79 53.7199C170.65 51.3699 168.61 48.9299 165.85 47.2199C163.42 45.7199 161.14 43.9599 158.72 42.4299C157.09 41.3899 155.55 40.3599 154.64 38.5499C153.99 37.2599 152.74 36.7599 151.39 37.3499C149.54 38.1599 147.64 37.9399 145.74 37.9699C142.71 38.0099 139.68 38.0199 136.65 38.0399C135.56 37.9999 134.43 37.8 133.67 38.9C133.06 38.27 132.45 37.6399 131.83 37.0099C132.46 36.0499 133.1 35.0799 133.73 34.1199H134.7C134.86 34.0999 135.04 34.1199 135.17 34.0699C142.96 30.4899 150.47 32.1199 157.69 35.6299C161.39 37.4299 164.73 39.9699 168.21 42.1999C173.03 45.2899 176.6 49.4799 179.13 54.5999C179.26 54.8599 179.59 55.0299 179.82 55.2399L179.84 55.2599Z" fill="#FFD3C8"/>
<path d="M134.72 34.1402C134.4 34.1402 134.08 34.1402 133.76 34.1402C130.67 33.5102 127.59 32.4802 124.47 32.3202C118.78 32.0302 113.04 31.8902 107.41 33.2502C104.34 33.9902 101.23 34.5502 98.1701 35.3302C97.5401 35.4902 97.0601 36.2502 96.2801 36.9302C98.0101 38.3702 99.4301 39.5502 100.79 40.6802C103.263 39.4869 105.263 38.9102 106.79 38.9502C111.06 39.0502 113.61 42.8902 112 46.9102C111.41 48.3802 110.56 49.7602 110.74 51.4402C110.86 52.2102 110.98 52.9802 111.09 53.7202C113.03 54.6802 114.99 54.4102 116.84 54.2602C121.43 53.8802 125.54 57.8702 125.19 62.5702C125 65.0902 125.25 67.6402 125.31 70.1802C125.31 70.3302 125.4 70.4802 125.51 70.8202C127.04 72.1402 129.03 71.3703 130.85 71.5903C128.94 73.4703 126.72 72.6702 124.6 72.2103C124.16 72.1103 123.65 71.2802 123.6 70.7402C123.5 69.6502 123.72 68.5302 123.76 67.4102C123.83 65.3402 124.09 63.2402 123.87 61.2002C123.57 58.4202 122.04 56.3802 119.11 55.9402C116.75 55.5802 114.35 55.4902 111.97 55.2902C109.57 55.0902 108.97 54.3502 108.91 51.9802C108.87 50.0902 109.76 48.6202 110.62 47.0802C111.46 45.5802 111.55 44.0702 110.68 42.5202C109.41 40.2502 107.24 39.3102 105.05 40.1302C103.33 40.7802 101.98 43.1702 102.25 45.2402C102.33 45.8602 102.62 46.4602 102.79 47.0702C103.5 49.5802 103.41 52.0602 102.81 54.5102C101.23 55.2502 99.8901 55.3702 98.3701 54.3502C97.7101 51.6102 97.6501 48.8302 99.1201 46.1602C100.06 44.4502 99.9601 42.8102 98.9101 41.1802C97.6401 39.2102 95.5901 38.4202 93.5301 39.1102C91.8701 39.6702 90.4401 42.2202 90.7601 44.2302C90.8801 45.0002 91.2301 45.7502 91.5501 46.4802C92.6301 48.9402 92.4601 51.4202 91.9901 53.8802C89.9001 55.5102 87.9801 54.7002 85.8601 54.0502C85.6201 51.4402 85.0106 48.9399 86.6006 46.5999C86.9606 46.6099 87.3306 46.6199 87.6906 46.6299C86.7906 48.1899 86.6001 49.8702 86.8201 51.6202C86.9601 52.6902 87.6501 53.2702 88.7401 53.2202C89.5901 53.1802 90.2901 52.8402 90.4201 51.9202C90.6901 49.8902 90.8301 47.8702 89.7601 45.9802C89.2001 44.9802 88.4701 45.4602 87.7601 45.6802C87.7701 44.3902 87.7901 43.1002 87.8001 41.8102C88.4901 41.5202 89.3401 41.3903 89.8501 40.9003C90.9801 39.8003 90.5601 38.8702 88.6901 38.0002C89.4601 37.4702 90.1601 36.7402 91.0201 36.4302C95.9401 34.6402 100.96 33.2202 106.12 32.2302C111.28 31.2502 116.45 30.8802 121.69 31.2502C123.91 31.4102 126.15 31.3502 128.38 31.2502C130.36 31.1702 132.16 31.7402 133.88 32.5702C134.32 32.7802 134.46 33.6003 134.74 34.1503L134.72 34.1402Z" fill="#F7F8E1"/>
<path d="M87.75 45.6703C88.46 45.4503 89.19 44.9703 89.75 45.9703C90.82 47.8703 90.68 49.8903 90.41 51.9103C90.29 52.8303 89.59 53.1603 88.73 53.2103C87.64 53.2703 86.95 52.6803 86.81 51.6103C86.59 49.8603 86.78 48.1803 87.68 46.6203C87.69 46.3003 87.71 45.9803 87.75 45.6603V45.6703Z" fill="#FEFCE1"/>
<path d="M88.6696 37.98C90.5496 38.85 90.9695 39.78 89.8295 40.88C89.3295 41.37 88.4796 41.5 87.7796 41.79C87.6796 41.34 87.6596 40.86 87.4696 40.46C86.8396 39.11 87.5696 38.47 88.6596 37.98H88.6696Z" fill="#FEFCE1"/>
<path d="M172.2 101.34C170.39 97.7101 171.35 93.86 171.33 90.1C171.33 89.54 171.82 88.95 172.16 88.42C173.1 86.95 174.09 85.52 175.06 84.07C176.5 83.08 177.98 82.23 179.69 81.71C184.52 80.24 188.42 81.84 191.88 85.11C192.33 85.54 192.8 86.07 192.99 86.64C194.73 91.76 195.29 96.88 192.52 101.87C190.46 105.58 185.14 107.84 181.05 106.7C178.42 105.97 175.9 105.04 174.06 102.82C173.57 102.22 172.83 101.84 172.2 101.35L172.2 101.34ZM191.63 93.42C190.51 89.94 189.77 86.44 186.07 84.83C185.4 84.54 184.31 84.28 183.85 84.61C181.02 86.62 177.82 88.35 176.52 91.85C175.58 94.38 175.75 96.71 177.79 98.91C179.73 101 182.42 101.6 184.68 103.04C185.95 103.85 187.98 102.73 187.83 101.24C187.61 98.99 188.78 97.76 190.09 96.34C190.79 95.58 191.11 94.46 191.64 93.42H191.63Z" fill="#FFDBC6"/>
<path d="M171.229 72.6102C171.309 74.4502 172.319 75.3302 174.109 75.4302C174.109 75.7502 174.099 76.0602 174.089 76.3802C172.659 76.3802 171.229 76.3302 169.809 76.4102C165.879 76.6502 162.749 75.0102 160.019 72.3802C158.539 70.9502 156.999 69.5602 155.649 68.0002C151.119 62.7602 145.439 59.0902 139.509 55.6802C136.669 54.0502 133.769 52.3403 131.839 49.5103C131.369 48.5303 130.719 47.6003 130.469 46.5703C129.669 43.2303 129.009 39.8603 131.859 37.0303C132.469 37.6603 133.079 38.2902 133.699 38.9202C132.289 41.8902 132.269 44.8802 134.359 47.4302C135.939 49.3602 137.919 51.0103 139.929 52.5103C142.199 54.2103 144.839 55.4302 147.069 57.1702C150.159 59.5702 153.309 61.8202 155.809 65.0402C159.599 69.9302 164.419 73.5002 171.229 72.6102Z" fill="#FFE3D2"/>
<path d="M146.209 116.65C146.319 115.1 146.439 113.55 146.549 112C147.499 113.63 147.709 115.2 146.209 116.65Z" fill="#FFFFA7"/>
<path d="M77.0592 59.1502C77.9492 59.4102 78.8392 59.8602 79.7392 59.9002C90.8892 60.3302 102.039 60.6802 113.199 61.0902C114.739 61.1502 116.439 60.6801 117.949 62.3701C117.809 63.9801 117.649 65.8401 117.479 67.7102C116.589 67.2802 115.689 67.0102 114.799 67.7102C114.279 66.3001 113.549 65.1301 111.899 64.8501C110.489 64.6101 109.089 64.1601 107.669 64.0701C100.989 63.6401 94.2992 63.3301 87.6192 62.9301C85.0792 62.7801 82.5492 62.4402 80.0092 62.2702C78.0992 62.1402 76.1792 62.0101 74.2692 62.1001C72.0992 62.2001 70.7892 63.4501 70.3792 65.6401C70.0292 67.5201 69.6892 69.4201 69.6092 71.3201C69.3692 76.5701 69.3492 81.8201 68.6892 87.0701C68.0992 91.8001 68.0792 96.6101 67.8292 101.38C67.6992 103.81 68.9392 105.79 71.2592 106.54C72.4492 106.93 73.7492 107.03 75.0092 107.1C81.8492 107.49 88.6992 107.82 95.5492 108.18C96.3392 108.22 97.1292 108.41 97.9192 108.45C101.259 108.65 104.599 108.96 107.939 108.97C110.949 108.97 112.329 107.59 112.629 104.68C112.979 101.36 113.289 98.0301 113.619 94.7001C114.509 95.1001 115.389 95.3401 116.249 94.6201C116.139 97.9501 116.049 101.28 115.919 104.61C115.839 106.52 115.739 108.43 115.559 110.33C115.409 111.88 114.539 112.52 112.969 112.44C109.629 112.26 106.289 112.07 102.949 111.92C94.6792 111.55 86.3992 111.19 78.1292 110.85C76.5392 110.79 74.9392 110.85 73.3492 110.85V110.89C72.4792 110.63 71.6292 110.22 70.7492 110.14C68.7392 109.94 66.7192 109.9 64.6992 109.8C64.7492 105.52 64.7592 101.26 65.3092 96.9801C65.8192 93.0601 65.5292 89.0501 65.6892 85.0801C65.9792 77.4701 66.3092 69.8702 66.6792 62.2702C66.7992 59.8402 67.4592 59.2401 69.9192 59.1801C72.2992 59.1101 74.6792 59.1602 77.0592 59.1502Z" fill="#A1EAF1"/>
<path d="M64.6897 109.8C66.7097 109.9 68.7297 109.94 70.7397 110.14C71.6197 110.23 72.4797 110.63 73.3397 110.89C71.1097 110.89 68.8797 110.99 66.6497 110.86C65.9797 110.82 65.3397 110.17 64.6797 109.8H64.6897Z" fill="#6486AF"/>
<path d="M81.9191 124.39C81.7691 125.94 81.6291 127.49 81.4791 129.05C80.9991 128.77 80.5191 128.49 80.0391 128.21C81.5891 126.84 80.699 124.98 81.019 123.37C81.319 123.71 81.6191 124.05 81.9191 124.4V124.39Z" fill="#6486AF"/>
<path d="M80.0089 128.17C79.0489 126.91 78.0889 125.65 77.1289 124.39C78.8622 124.89 79.8222 126.15 80.0089 128.17Z" fill="#6486AF"/>
<path d="M51.4806 78.4702C53.8806 76.9302 56.0006 77.1002 58.0906 77.8202C58.4606 77.9502 58.7706 78.8802 58.7206 79.4102C58.6806 79.9302 58.2306 80.7402 57.8206 80.8402C55.4506 81.4102 53.1606 81.4702 51.4806 78.4702Z" fill="#FEFDC5"/>
<path d="M131.85 37.0304C129 39.8604 129.67 43.2404 130.46 46.5704C130.71 47.6004 131.36 48.5304 131.83 49.5104C130.89 49.5004 129.87 49.7004 129.01 49.4304C123.42 47.6804 118.2 48.9004 113.05 51.1304C112.36 51.4304 111.51 51.3403 110.73 51.4203C110.55 49.7403 111.4 48.3604 111.99 46.8904C113.6 42.8704 111.05 39.0304 106.78 38.9304C105.253 38.897 103.253 39.4737 100.78 40.6603C99.4295 39.5303 97.9995 38.3503 96.2695 36.9103C97.0495 36.2303 97.5295 35.4704 98.1595 35.3104C101.22 34.5304 104.33 33.9703 107.4 33.2303C113.03 31.8703 118.77 32.0104 124.46 32.3004C127.58 32.4604 130.65 33.4804 133.75 34.1204C133.12 35.0804 132.48 36.0504 131.85 37.0104V37.0304Z" fill="#FEFCE1"/>
<path d="M96.1092 126.44C95.1092 126.37 94.1392 126.4 93.2092 126.23C90.9392 125.83 89.0592 123.64 88.8092 121.21C88.5992 119.14 90.0492 116.71 92.2192 115.99C96.9692 114.42 100.639 117.06 101.779 121.27C102.359 123.4 100.619 125.87 98.4392 126.27C97.6592 126.41 96.8592 126.39 96.1192 126.44H96.1092Z" fill="#0F1665"/>
<path d="M114.799 67.7102C115.689 67.0201 116.589 67.2802 117.479 67.7102C117.789 76.7102 117.129 85.6701 116.249 94.6201C115.389 95.3401 114.509 95.1101 113.619 94.7001C113.599 93.1201 113.48 91.5302 113.57 89.9602C113.95 82.5402 114.389 75.1301 114.799 67.7102Z" fill="#E2E4ED"/>
<path d="M89.6703 131.14C89.5103 131.14 89.3599 131.14 89.1999 131.13C87.2332 131.03 86.0298 130.017 85.5898 128.09C85.9498 127.76 86.3099 127.43 86.6699 127.1C87.9299 127.18 89.1899 127.27 90.4499 127.35C91.0099 128.79 90.9999 130.1 89.6699 131.15L89.6703 131.14Z" fill="#F7FAFB"/>
<path d="M97.4989 43.4799C96.6889 44.3299 96.2889 45.0099 95.6889 45.3099C94.9089 45.6899 93.6489 44.7799 93.7789 43.8699C93.8689 43.2399 94.5488 42.21 94.9588 42.21C95.6788 42.21 96.3989 42.8799 97.4989 43.4699V43.4799Z" fill="#94C8DA"/>
<path d="M108.919 44.7503C108.119 45.4303 107.649 46.0803 107.029 46.3003C106.199 46.6003 105.209 45.6003 105.229 44.6703C105.239 43.7503 106.289 42.7803 107.099 43.1203C107.709 43.3803 108.159 44.0303 108.929 44.7403L108.919 44.7503Z" fill="#93C0D5"/>
<path d="M134.19 72.98C135.01 73.74 135.82 74.1497 136 74.7397C136.28 75.6397 135.5 76.1697 134.66 76.2897C133.78 76.4197 132.95 76.0597 132.99 75.0997C133.02 74.4897 133.63 73.8997 134.19 72.9697L134.19 72.98Z" fill="#C3D5E3"/>
<path d="M84.2592 43.5602C83.3792 44.0902 82.9192 44.5402 82.3992 44.6402C81.6392 44.7802 80.8492 43.8102 81.1492 43.0802C81.3492 42.6002 82.0992 41.9102 82.3892 42.0002C82.9792 42.1802 83.4392 42.8302 84.2692 43.5602H84.2592Z" fill="#97D3E3"/>
<path d="M134.04 86.0101C134.72 86.7401 135.25 87.0901 135.46 87.5801C135.74 88.2501 134.94 89.3501 134.28 89.2001C133.77 89.0801 132.99 88.51 133 88.17C133.02 87.55 133.55 86.9501 134.04 86.0101Z" fill="#A5DBE7"/>
<path d="M90.4503 127.34C89.1903 127.26 87.9303 127.17 86.6703 127.09C88.7403 125.85 88.8903 125.86 90.4503 127.34Z" fill="#B0C7C8"/>
<path d="M85.8793 124.43C85.7893 123.6 85.9893 122.91 86.7893 122.49C86.8893 123.33 86.6893 124.02 85.8793 124.43Z" fill="#B0C7C8"/>
<path d="M84.8102 126.28C84.7402 125.43 84.9802 124.75 85.8602 124.45C85.5102 125.06 85.1602 125.67 84.8102 126.28Z" fill="#B0C7C8"/>
<path d="M136.66 38.0598C139.69 38.0398 142.72 38.0298 145.75 37.9898C147.65 37.9598 149.55 38.1898 151.4 37.3698C152.74 36.7798 154 37.2799 154.65 38.5699C155.56 40.3899 157.1 41.4199 158.73 42.4499C161.15 43.9799 163.42 45.7398 165.86 47.2398C168.63 48.9498 170.67 51.3798 172.8 53.7398C173.85 54.8998 174.91 56.0399 175.97 57.1999C172.54 57.7499 172.37 57.8999 172.18 60.8399C172.14 61.4799 172.25 62.1399 172.13 62.7499C171.95 63.6799 171.72 64.6198 171.34 65.4698C170.36 67.6298 169.29 67.9899 167.15 67.1299C164.74 66.1498 162.76 64.6199 160.93 62.7699C156.57 58.3499 152.47 53.5999 146.89 50.5699C145.63 49.8899 144.32 49.2499 143.18 48.3999C140.77 46.5799 138.09 44.8598 138.56 41.1798C138.76 39.6198 137.42 39.0198 136.67 38.0498L136.66 38.0598Z" fill="#FFFEE3"/>
<path d="M136.659 38.0599C137.409 39.0299 138.749 39.6299 138.549 41.1899C138.079 44.8699 140.759 46.5898 143.169 48.4098C144.309 49.2698 145.619 49.8999 146.879 50.5799C152.459 53.6099 156.559 58.3499 160.919 62.7799C162.749 64.6299 164.729 66.1599 167.139 67.1399C169.279 68.0099 170.339 67.6398 171.329 65.4798C171.719 64.6298 171.939 63.6799 172.119 62.7599C172.239 62.1399 172.119 61.4798 172.169 60.8498C172.359 57.9098 172.529 57.7599 175.959 57.2099C176.299 57.8799 176.859 58.5298 176.919 59.2298C177.069 60.9398 176.979 62.6699 176.999 64.3899C177.029 67.8399 175.619 70.4199 172.439 71.9299C172.019 72.1299 171.619 72.3899 171.219 72.6299C164.409 73.5299 159.589 69.9499 155.799 65.0599C153.299 61.8399 150.149 59.5899 147.059 57.1899C144.819 55.4499 142.189 54.2299 139.919 52.5299C137.909 51.0299 135.929 49.3699 134.349 47.4499C132.259 44.8999 132.279 41.9099 133.689 38.9399C134.439 37.8399 135.579 38.0399 136.659 38.0799V38.0599Z" fill="#FFFEFE"/>
<path d="M191.629 93.4201C191.099 94.4501 190.779 95.5702 190.079 96.3402C188.769 97.7602 187.599 98.9801 187.819 101.24C187.969 102.73 185.939 103.85 184.669 103.04C182.419 101.6 179.729 101 177.779 98.9101C175.729 96.7101 175.569 94.3801 176.509 91.8501C177.819 88.3501 181.009 86.6101 183.839 84.6101C184.309 84.2801 185.389 84.5402 186.059 84.8302C189.759 86.4402 190.499 89.9401 191.619 93.4201H191.629Z" fill="#FFFEE5"/>
<path d="M114.8 67.7102C114.38 75.1302 113.95 82.5402 113.57 89.9602C113.49 91.5402 113.6 93.1202 113.62 94.7002C113.29 98.0302 112.98 101.36 112.63 104.68C112.32 107.58 110.95 108.97 107.94 108.97C104.6 108.97 101.26 108.65 97.9203 108.45C97.1303 108.4 96.3403 108.22 95.5503 108.18C88.7003 107.81 81.8603 107.48 75.0103 107.1C73.7503 107.03 72.4403 106.93 71.2603 106.54C68.9403 105.79 67.7103 103.8 67.8303 101.38C68.0803 96.6102 68.0903 91.8002 68.6903 87.0702C69.3503 81.8202 69.3703 76.5702 69.6103 71.3202C69.7003 69.4202 70.0303 67.5202 70.3803 65.6402C70.7903 63.4502 72.1103 62.2002 74.2703 62.1002C76.1803 62.0102 78.1003 62.1402 80.0103 62.2702C82.5503 62.4502 85.0803 62.7802 87.6203 62.9302C94.3003 63.3302 100.99 63.6402 107.67 64.0702C109.09 64.1602 110.48 64.6102 111.9 64.8502C113.55 65.1302 114.28 66.3002 114.8 67.7102ZM105.59 101.09C106.01 96.4602 106.45 92.3502 106.75 88.2202C107.09 83.6102 107.31 78.9802 107.58 74.3702C107.68 72.6202 107.05 71.7402 105.19 71.4402C103.15 71.1102 101.08 70.8802 99.0203 70.7202C94.5703 70.3802 90.1103 70.0302 85.6503 69.8702C83.0003 69.7802 80.2803 69.2102 77.5403 70.2002C77.1403 73.8302 76.7503 77.2902 76.4003 80.7502C76.2903 81.8602 76.3303 82.9902 76.2503 84.1002C75.9903 87.7602 75.7003 91.4102 75.4503 95.0702C75.3903 96.0202 75.3603 96.9902 75.4403 97.9402C75.5403 99.2202 76.2503 99.9502 77.5703 100.12C78.5203 100.25 79.4803 100.25 80.4403 100.28C83.3203 100.38 86.1903 100.42 89.0703 100.58C93.3703 100.82 97.6603 101.16 101.97 101.39C103.05 101.45 104.14 101.21 105.62 101.08L105.59 101.09Z" fill="#6085AF"/>
<path d="M105.59 101.09C104.11 101.23 103.02 101.46 101.94 101.4C97.6396 101.18 93.3396 100.83 89.0396 100.59C86.1696 100.43 83.2896 100.39 80.4096 100.29C79.4496 100.26 78.4896 100.25 77.5396 100.13C76.2196 99.95 75.5096 99.23 75.4096 97.95C75.3396 97 75.3596 96.03 75.4196 95.08C75.6696 91.42 75.9596 87.76 76.2196 84.11C76.2996 82.99 76.2596 81.87 76.3696 80.76C76.7196 77.3 77.1196 73.8401 77.5096 70.2101C80.2496 69.2101 82.9696 69.78 85.6196 69.88C90.0796 70.04 94.5396 70.39 98.9896 70.73C101.05 70.89 103.12 71.1101 105.16 71.4501C107.02 71.7501 107.65 72.64 107.55 74.38C107.28 79 107.06 83.62 106.72 88.23C106.42 92.35 105.99 96.46 105.56 101.1L105.59 101.09ZM103.32 93.2701C102.56 92.2501 102.02 91.32 101.28 90.61C100.41 89.77 99.0796 90.17 98.5996 91.29C98.0396 92.6 98.1396 93.92 99.1496 94.72C99.6896 95.15 100.69 95.5001 101.24 95.2801C101.99 94.9801 102.5 94.1101 103.32 93.2801V93.2701ZM100.83 75.5301C99.7396 75.4301 98.6696 76.2601 98.4496 77.3901C98.1696 78.8301 99.2596 80.0701 100.91 80.2001C101.94 80.2801 102.84 79.61 102.97 78.67C103.19 77.02 102.27 75.6601 100.84 75.5301H100.83ZM100.65 87.79C101.73 87.8 102.76 86.85 102.89 85.73C103.03 84.44 101.94 83.2101 100.65 83.2001C99.5596 83.2001 98.5296 84.14 98.4096 85.25C98.2696 86.53 99.3696 87.77 100.65 87.79Z" fill="#BBFCFD"/>
<path d="M103.32 93.2701C102.5 94.1001 101.989 94.9799 101.239 95.2699C100.689 95.4899 99.689 95.1399 99.149 94.7099C98.139 93.9199 98.039 92.5899 98.599 91.2799C99.079 90.1599 100.409 89.7499 101.279 90.5999C102.019 91.3199 102.559 92.2399 103.319 93.2599L103.32 93.2701Z" fill="#92D6E4"/>
<path d="M100.83 75.5301C102.25 75.6601 103.18 77.0201 102.96 78.6701C102.84 79.6001 101.93 80.2701 100.9 80.2001C99.2503 80.0701 98.1603 78.8301 98.4403 77.3901C98.6603 76.2601 99.7303 75.4301 100.82 75.5301L100.83 75.5301Z" fill="#90D2E1"/>
<path d="M100.65 87.79C99.3696 87.78 98.2696 86.54 98.4096 85.25C98.5296 84.14 99.5596 83.19 100.65 83.2001C101.94 83.2001 103.03 84.44 102.89 85.73C102.77 86.85 101.74 87.8 100.65 87.79Z" fill="#95D5E3"/>
</svg>
