<svg width="222" height="210" viewBox="0 0 222 210" fill="none" xmlns="http://www.w3.org/2000/svg">
<path d="M15.2188 131.1C15.0588 132.1 16.3488 133.18 15.1888 134.1C13.7488 135.24 13.0488 133.76 12.0988 133.11C11.4788 132.69 10.7888 132.39 10.1288 132.03C9.89875 131.69 9.65874 131.35 9.42874 131.01C9.52874 130.13 9.30876 129.42 8.38876 129.08C5.47876 124.66 3.68875 119.8 2.71875 114.61C2.73875 113.36 2.71875 112.11 2.77875 110.87C2.80875 110.1 2.78875 109.27 3.05875 108.57C3.24875 108.07 3.84875 107.47 4.33875 107.4C4.76874 107.33 5.31874 107.91 5.79874 108.23C6.05874 108.4 6.27874 108.62 6.51874 108.83C7.17874 111.06 7.83875 113.29 8.49875 115.53C8.43875 116.66 8.49874 117.74 9.48874 118.51L9.45874 118.44L10.3687 120.73C10.3087 120.92 10.3487 121.07 10.4987 121.2C10.4387 122.06 10.5587 122.84 11.3987 123.31L11.3587 123.24C11.6987 123.89 12.0388 124.55 12.3888 125.2L12.3587 125.15L13.3587 128.07C13.6687 128.69 13.9687 129.32 14.2787 129.94L15.2288 131.1H15.2188Z" fill="#3D307A"/>
<path d="M192.88 46.3901C192.49 45.5401 192.21 44.6201 191.69 43.8701C190.9 42.7301 190.82 41.5301 190.98 40.2501C191.1 39.2701 191.83 39.0201 192.64 38.8701C197.1 42.9201 200.83 47.5901 204.23 52.5401C204.75 53.3001 205.05 54.2001 205.44 55.0401C204.48 54.5201 203.52 54.0101 202.62 53.5201C201.55 53.8101 201.41 54.6001 201.53 55.4001C201.72 56.6401 202.03 57.8501 202.29 59.0801C201.94 58.7801 201.52 58.5401 201.26 58.1801C198.45 54.2601 195.67 50.3201 192.88 46.3901Z" fill="#543C86"/>
<path d="M8.37891 129.08C9.29891 129.41 9.51892 130.13 9.41891 131.01C9.06891 130.37 8.72891 129.72 8.37891 129.08Z" fill="#5B4187"/>
<path d="M210.279 76.4102C212.629 81.4502 213.809 86.8302 214.829 92.2402C215.439 95.4802 216.309 98.7202 215.789 102.08C215.519 102.64 215.049 103.19 215.019 103.76C214.599 110.65 212.629 117.15 210.169 123.53C206.759 132.36 201.029 139.43 193.719 145.31C194.019 144.59 194.259 143.83 194.639 143.15C195.939 140.79 197.489 138.55 198.589 136.1C202.039 128.44 202.859 120.22 203.349 111.96C203.549 108.63 202.929 105.33 202.609 102.02C201.819 93.9202 199.939 86.0802 197.809 78.2802C200.169 77.0702 202.719 77.2202 205.249 77.1502C206.949 77.1002 208.759 77.6402 210.289 76.4102H210.279Z" fill="#FF228E"/>
<path d="M210.28 76.4098C208.75 77.6398 206.94 77.0998 205.24 77.1498C202.71 77.2198 200.16 77.0698 197.8 78.2798L197.55 78.0398C195.13 70.9798 192.59 63.9798 188.78 57.5098C187.08 54.6298 185.33 51.8197 182.9 49.4697C181.31 47.9297 179.91 46.1898 178.42 44.5398C179.39 42.7298 179.78 42.3298 181.06 42.7798C183.02 43.4598 185 43.5598 187.04 43.6498C188.1 43.6998 189.14 44.1798 190.19 44.4598C191.09 45.0998 191.99 45.7398 192.89 46.3798C195.68 50.3098 198.46 54.2498 201.27 58.1698C201.53 58.5298 201.95 58.7698 202.3 59.0698C204.61 63.7898 206.95 68.4998 209.23 73.2398C209.71 74.2298 209.94 75.3398 210.29 76.3998L210.28 76.4098Z" fill="#FE57EA"/>
<path d="M8.48973 115.51C9.55973 116.26 9.51975 117.38 9.47975 118.49C8.49975 117.71 8.41973 116.63 8.48973 115.51Z" fill="#FE248F"/>
<path d="M9.44922 118.43C10.3592 118.95 10.4292 119.81 10.3592 120.72C10.0592 119.96 9.74922 119.19 9.44922 118.43Z" fill="#FE248F"/>
<path d="M10.4897 121.19C10.7897 121.89 11.0897 122.6 11.3897 123.3C10.5497 122.83 10.4297 122.05 10.4897 121.19Z" fill="#FE248F"/>
<path d="M16.1989 89.6702C16.1489 90.6102 16.2589 91.6102 16.0189 92.4902C14.7989 96.8602 14.9289 101.19 16.1089 105.53C16.2289 105.97 16.1389 106.47 16.1489 106.95C14.3189 105.33 12.0689 104.66 9.75892 104.08C8.70892 103.82 7.68892 103.38 6.65892 103.02C6.54892 100.97 6.68891 99.0202 7.61891 97.0702C9.00891 94.1602 10.6889 91.9002 14.3089 92.4602C15.0089 91.4302 15.5989 90.5402 16.1989 89.6602V89.6702Z" fill="#FF75FD"/>
<path d="M205.449 55.0298C212.679 65.6098 217.119 77.3298 219.679 89.8198C223.079 106.45 220.679 122.57 215.259 138.4C213.439 143.71 211.179 148.82 207.999 153.47C207.189 154.66 206.349 155.83 205.449 156.94C202.239 160.92 198.259 163.5 193.169 164.72C184.879 166.71 176.729 166.85 168.589 164.19C165.249 163.1 161.949 161.86 158.569 160.92C154.879 159.9 151.119 159.11 147.379 158.31C146.489 158.12 145.529 158.28 144.649 158.28C142.799 162.09 143.119 165.56 144.589 169.12C146.259 173.14 148.589 176.75 151.019 180.32C152.549 182.56 154.169 184.77 155.459 187.15C157.169 190.32 158.069 193.69 156.499 197.25C155.319 197.73 155.209 198.71 155.319 199.78C154.709 200.51 154.099 201.25 153.489 201.98C151.699 201.23 151.579 199.6 151.399 198L151.419 197.97C153.159 195.38 153.189 193.61 151.539 190.51C150.519 188.9 149.519 187.27 148.469 185.68C146.719 183.02 144.849 180.44 143.169 177.74C139.839 172.37 137.499 166.69 138.209 160.16C138.239 159.88 138.039 159.58 137.849 159C136.999 159.22 136.139 159.45 135.269 159.67C132.969 160.07 130.649 160.43 128.359 160.91C127.379 161.11 126.729 161.83 126.579 162.87C126.449 163.8 126.279 164.74 126.309 165.67C126.379 168.8 126.529 171.93 126.649 175.06C126.649 177.02 125.839 179.11 127.559 180.8V180.82C127.309 181.54 127.249 182.43 126.249 182.55C125.169 182.68 124.349 182.13 124.049 181.17C123.529 179.53 123.239 177.82 122.769 176.17C122.559 175.45 122.139 174.8 121.819 174.12C121.769 173.55 121.709 172.97 121.659 172.4C121.699 169.27 121.789 166.13 121.729 163C121.729 162.61 120.939 161.97 120.469 161.93C120.049 161.9 119.569 162.52 119.119 162.86L119.189 162.8C118.789 163.22 118.059 163.64 118.049 164.08C117.989 166.73 118.059 169.39 118.179 172.04C118.199 172.42 118.699 172.77 118.979 173.14C118.999 173.72 119.009 174.29 119.029 174.87C118.729 175.91 118.549 177 118.109 177.97C117.719 178.84 116.109 178.77 115.789 177.88C115.429 176.88 115.289 175.79 115.129 174.73C114.899 173.23 115.519 171.55 114.229 170.26C114.079 168.84 113.959 167.43 113.789 166.01C113.609 164.53 113.349 164.41 111.079 164.54C108.729 164.49 106.369 164.29 103.909 164.96C103.719 167.86 103.549 170.55 103.369 173.23C102.269 174.31 102.499 175.62 102.719 176.93C102.659 177.28 102.589 177.63 102.529 177.98C101.939 178.82 101.339 179.67 100.779 180.47C99.3389 180.22 98.8889 179.31 98.8389 178.14C98.7689 176.15 98.7489 174.16 98.6989 172.17V164.46C97.4189 163 96.1889 162.5 94.7189 162.62C94.4889 162.88 94.1989 163.07 94.0989 163.34C93.7389 164.37 93.4489 165.43 93.1289 166.48C92.4589 167.59 91.7889 168.71 91.1189 169.82C89.4189 168.7 89.3189 168.65 89.2889 168.09C89.1989 166.56 89.1489 165.02 89.0889 163.49V163.51C90.5689 162.38 90.3289 160.88 89.7989 159.45C89.5889 158.87 88.8689 158.8 88.2889 159.25C87.8989 159.1 87.4989 158.96 87.1089 158.81C85.8389 156.76 83.8989 155.71 81.5289 154.71C80.7889 156.89 80.1389 158.78 79.4989 160.68C78.7089 161.14 78.5389 161.84 78.7189 162.68V162.66C78.3689 162.92 77.9989 163.19 77.6389 163.45C76.3889 164.37 75.8489 164.33 75.1589 163.11C74.8689 162.59 74.7789 161.96 74.5989 161.38C74.5589 161.11 74.6289 160.87 74.8189 160.67C75.9089 159.93 75.8689 158.86 75.6889 157.74C75.9389 156.35 76.2089 154.97 76.4389 153.58C76.7089 152.03 76.6989 152.03 75.8189 149.47C75.0689 151.5 74.4389 153.21 73.8089 154.92C72.6589 155.63 72.7389 156.73 72.8989 157.85V157.83C71.6989 158.48 71.7789 159.58 71.8989 160.69C68.9589 159.55 68.9589 159.48 69.4489 156.86C69.6989 155.53 69.7189 154.15 69.8389 152.79C70.1789 150.81 70.5189 148.84 70.8589 146.85C70.2989 146.33 69.9089 145.75 69.3689 145.54C68.6789 145.27 67.8689 145.3 67.1089 145.2C65.0389 144 62.9089 144.53 60.6889 144.82C59.2789 146.94 57.8989 149.02 56.5289 151.09C56.1889 151.67 55.8489 152.25 55.4989 152.83C55.1989 153.2 54.8989 153.57 54.5989 153.94C53.8689 154.13 53.0089 154.78 52.4389 153.96C52.0489 153.39 51.9389 152.5 51.9889 151.77C52.0389 150.85 52.3789 149.95 52.5989 149.05L52.5789 149.09C53.5089 148.78 53.7889 148.12 53.6289 147.21C53.8789 145.68 52.9189 145.4 51.7189 145.38C49.9789 145.37 48.2189 145.21 46.4989 145.41C45.6489 145.51 44.8689 146.24 44.0589 146.69C43.7289 146.74 43.3989 146.79 43.0789 146.84C42.8589 146.65 42.6589 146.41 42.4089 146.26C40.9356 145.38 40.5155 144.106 41.1489 142.44C41.4589 142.36 41.7789 142.33 42.0989 142.36C43.4489 142.54 44.8289 142.83 45.9189 141.62C47.1489 141.33 48.3789 141.03 49.6089 140.74C52.1089 140.49 54.6089 140.24 57.1089 139.98C61.6589 139.52 66.2189 139.09 70.6789 140.46C72.6189 141.06 74.4989 141.87 76.4089 142.58C79.5489 145.29 82.5589 148.15 85.8489 150.66C88.6289 152.78 91.6689 154.57 94.6889 156.35C99.8589 159.39 105.489 160.22 111.349 159.2C116.069 158.38 120.759 157.4 125.429 156.37C132.129 154.88 138.769 153.14 145.649 152.67C149.539 153.4 153.429 154.12 157.329 154.85L163.029 156.63C167.819 158.92 172.879 160.3 178.129 160.93C184.089 161.65 189.879 160.7 195.469 158.61C198.069 157.64 200.209 155.9 201.779 153.65C203.689 150.92 205.539 148.1 207.049 145.14C211.059 137.26 213.259 128.79 214.849 120.14C215.949 114.15 216.389 108.14 215.789 102.07C216.309 98.7098 215.449 95.4697 214.829 92.2297C213.799 86.8197 212.629 81.4298 210.279 76.3998C209.929 75.3398 209.699 74.2397 209.219 73.2397C206.949 68.4997 204.609 63.7898 202.289 59.0698C202.029 57.8398 201.719 56.6298 201.529 55.3898C201.409 54.5898 201.549 53.7998 202.619 53.5098C203.519 53.9998 204.479 54.5098 205.439 55.0298H205.449Z" fill="#0F1464"/>
<path d="M22.7988 43.3703C30.4788 33.6003 39.8888 25.7203 49.8988 18.4903C57.4688 13.0203 65.7088 8.82029 74.4888 5.66029C86.3688 1.38029 98.5888 -0.599712 111.239 0.470288C111.949 0.760288 112.649 1.2603 113.379 1.2903C115.279 1.3903 117.189 1.28032 119.099 1.25032C119.369 1.15032 119.629 1.18029 119.869 1.35029C121.259 2.90029 123.059 2.25032 124.729 2.25032L124.689 2.2303C125.699 3.7303 127.189 3.26032 128.589 3.19032L128.549 3.1703C128.989 3.7803 129.429 4.38034 129.849 4.96034C128.749 7.30034 126.609 7.02034 124.639 7.15034H124.659C123.989 6.81034 123.339 6.27032 122.649 6.19032C121.409 6.04032 120.139 6.18032 118.879 6.19032H118.899C118.229 5.87032 117.559 5.25031 116.879 5.24031C110.269 5.17031 103.649 5.17031 97.0388 5.24031C96.3388 5.24031 95.6388 5.79034 94.9388 6.09034C92.0888 6.67034 89.2389 7.26034 86.3889 7.84034C85.6389 8.01034 84.8788 8.17034 84.1288 8.34034L82.6389 8.83033C74.8389 10.6603 67.5688 13.8303 60.6588 17.7903C49.6788 24.0803 40.1088 32.1503 31.3488 41.2203C29.9188 42.7003 28.4588 44.1603 27.0188 45.6303C24.8655 46.1703 23.4688 45.4136 22.8288 43.3603L22.7988 43.3703Z" fill="#6E4D91"/>
<path d="M124.629 7.16016C126.599 7.03016 128.729 7.31015 129.839 4.97015C129.419 4.39015 128.979 3.79018 128.539 3.18018C130.249 3.49018 132.019 3.65021 133.679 4.15021C150.199 9.06021 165.759 16.0202 179.539 26.5102C183.599 29.6002 187.289 33.1702 191.099 36.5802C191.759 37.1802 192.139 38.0902 192.649 38.8602C191.839 39.0102 191.109 39.2702 190.989 40.2402C190.829 41.5202 190.909 42.7302 191.699 43.8602C192.219 44.6102 192.499 45.5302 192.889 46.3802C191.989 45.7402 191.089 45.1002 190.189 44.4602C189.259 43.1902 188.459 41.8002 187.379 40.6802C179.439 32.4902 170.269 25.9402 160.219 20.6202C149.619 15.0102 138.399 10.9702 126.769 8.07019C126.029 7.89019 125.349 7.46021 124.649 7.15021L124.629 7.16016Z" fill="#9061A1"/>
<path d="M67.0489 172.19C64.4189 175.6 61.9189 179.11 58.6489 181.98C54.0689 186 48.8189 188.5 42.7389 189.07C38.7789 189.44 35.0789 188.68 32.0789 185.83C28.5789 182.51 27.6989 178.48 29.2989 174.01C29.8789 172.39 30.9589 170.94 31.9089 169.48C32.3389 168.82 32.9789 168.29 33.5689 167.76C38.3489 163.54 43.1389 159.34 47.9289 155.13C47.7889 157.41 45.2789 158.14 44.5589 160.45C45.6789 160.87 46.7989 161.28 47.9189 161.7C46.5689 162.99 45.2189 164.28 43.8689 165.57C42.9689 166.43 42.0589 167.29 41.1589 168.15C38.4089 169.59 36.1589 171.58 34.7189 174.35C32.4689 178.67 35.0089 183.28 39.9089 183.76C44.1589 184.17 48.1589 183.36 51.8189 181.09C54.2889 179.56 56.4588 177.7 58.2188 175.41C60.2488 172.77 62.1888 170.06 64.1588 167.38C65.0888 169.73 65.5588 169.96 67.9688 169.31C67.6588 170.27 67.3589 171.23 67.0489 172.19Z" fill="#765196"/>
<path d="M22.8005 43.3704C23.4405 45.4237 24.8371 46.1804 26.9905 45.6404C25.9705 47.2204 24.9405 48.8004 23.9205 50.3904C20.8805 53.3304 18.8205 56.9204 17.0005 60.6804C13.2805 66.4004 10.6305 72.6003 8.79048 79.1603C6.10048 86.2103 5.29046 93.5204 5.74046 101C5.78046 101.74 6.23047 102.45 6.50047 103.18C6.50047 105.06 6.50048 106.93 6.51048 108.81C6.27048 108.61 6.05048 108.39 5.79048 108.22C5.31048 107.9 4.76046 107.33 4.33046 107.39C3.84046 107.47 3.25046 108.06 3.05046 108.56C2.78046 109.26 2.80046 110.08 2.77046 110.86C2.72046 112.11 2.73046 113.36 2.71046 114.6C1.33046 111.66 1.10047 108.48 0.780471 105.32C-0.819529 89.3004 3.55046 74.6404 10.8605 60.6304C13.6805 55.2304 17.0305 50.1804 20.7805 45.3804C21.3605 44.6404 22.1105 44.0303 22.7805 43.3604L22.8005 43.3704Z" fill="#9262A3"/>
<path d="M91.0895 178.94C90.8195 184.95 88.9795 190.54 86.1495 195.75C83.5095 200.6 79.2695 203.13 73.5995 203.05C67.8195 202.96 63.8795 199.59 63.2595 193.87C62.9295 190.85 62.9195 187.79 63.9795 184.87C65.2895 181.28 66.6895 177.72 68.0395 174.14C68.6395 173.45 69.2395 172.77 69.8395 172.08C70.8395 173.433 72.2062 173.83 73.9395 173.27C73.1895 175.01 72.3995 176.73 71.6895 178.48C70.8595 180.53 70.0895 182.6 69.2895 184.66C67.9995 187.16 67.7995 189.85 68.1395 192.56C68.6295 196.48 71.7695 198.69 75.6295 197.9C77.1995 197.58 78.6095 196.89 79.7695 195.7C82.0395 193.37 83.6695 190.68 84.3595 187.5C85.0995 184.1 85.6595 180.66 86.3495 177.24C86.4995 176.49 86.8795 175.78 87.1495 175.06C87.1895 175.84 87.1995 176.63 87.2695 177.41C87.3795 178.58 86.7595 180.11 88.4495 180.6C89.7895 180.98 90.0895 179.33 91.0895 178.94Z" fill="#785397"/>
<path d="M98.6902 172.18C98.7302 174.17 98.7602 176.16 98.8302 178.15C98.8702 179.32 99.3202 180.24 100.77 180.48C101.33 179.68 101.93 178.83 102.52 177.99C102.41 179.24 102.33 180.49 102.17 181.73C101.73 185.01 100.36 188.14 100.61 191.54C99.0801 194.38 99.6402 197.41 99.8302 200.39C99.9102 201.73 100.85 202.67 101.91 203.43C104.85 205.54 108.13 204.64 110.76 202.84C113.96 200.65 114.72 197.26 114.96 193.7C115.12 191.33 115.09 188.96 115.15 186.58C115.57 187.4 115.88 188.3 116.43 189.01C116.83 189.53 117.54 189.8 118.17 190.22C118.81 188.8 119.31 187.7 119.81 186.59C120.4 191.22 120.2 195.8 118.6 200.22C116.44 206.18 110.61 210.04 104.56 209.65C99.1802 209.3 95.2402 205.74 94.8202 200.33C94.5802 197.19 94.8201 193.97 95.2301 190.83C95.9901 185.16 97.0301 179.54 97.9901 173.9C98.0901 173.3 98.4502 172.74 98.6902 172.17V172.18Z" fill="#7B5497"/>
<path d="M41.1289 142.46C40.4889 144.127 40.9089 145.4 42.3889 146.28C42.6389 146.43 42.8389 146.66 43.0589 146.86C37.3189 148.17 31.7689 147.47 26.3889 145.23C19.6789 142.43 13.9889 138.35 10.1289 132.04C10.7889 132.4 11.4889 132.7 12.0989 133.12C13.0489 133.76 13.7489 135.25 15.1889 134.11C16.3489 133.19 15.0589 132.12 15.2189 131.11C16.5089 132.25 17.8389 133.34 19.0689 134.54C22.7789 138.16 27.0689 140.76 32.2189 141.62C35.1589 142.11 38.1689 142.2 41.1389 142.47L41.1289 142.46Z" fill="#5B4187"/>
<path d="M151.379 198.02C151.559 199.62 151.689 201.24 153.469 202C153.419 202.3 153.489 202.72 153.319 202.88C149.499 206.35 145.039 207.68 140.129 205.96C133.499 203.64 128.859 199.09 126.449 192.41C127.849 192.75 129.179 194.04 130.699 192.75C130.629 191.93 130.559 191.16 130.499 190.39C130.829 190.5 131.159 190.6 131.489 190.7C132.049 191.63 132.609 192.56 133.169 193.49C133.479 195.17 134.599 196.22 135.949 197.1C139.769 202.38 146.629 203.05 150.979 198.23C151.079 198.12 151.259 198.09 151.399 198.02H151.379Z" fill="#6A4A90"/>
<path d="M130.491 190.38C130.561 191.15 130.621 191.92 130.691 192.74C129.171 194.04 127.841 192.74 126.441 192.4C123.361 186.7 122.021 180.56 121.811 174.14C122.131 174.82 122.561 175.48 122.761 176.19C123.231 177.84 123.531 179.55 124.041 181.19C124.341 182.15 125.161 182.71 126.241 182.57C127.241 182.45 127.301 181.56 127.551 180.84C128.531 184.02 129.501 187.2 130.481 190.38H130.491Z" fill="#4B3780"/>
<path d="M119.8 186.61C119.3 187.71 118.8 188.82 118.16 190.24C117.54 189.82 116.82 189.55 116.42 189.03C115.87 188.32 115.551 187.42 115.141 186.6C114.891 184.27 114.55 181.95 114.43 179.61C114.27 176.5 114.29 173.38 114.23 170.26C115.53 171.55 114.91 173.22 115.13 174.73C115.29 175.79 115.43 176.88 115.79 177.88C116.11 178.77 117.72 178.84 118.11 177.97C118.55 177 118.741 175.91 119.031 174.87C120.271 178.72 119.82 182.67 119.8 186.6V186.61Z" fill="#40327D"/>
<path d="M91.0895 178.94C90.0895 179.32 89.7895 180.98 88.4495 180.6C86.7595 180.12 87.3795 178.58 87.2695 177.41C87.1995 176.63 87.1795 175.84 87.1495 175.06C87.5395 171.17 87.7104 167.24 89.0804 163.51C89.1404 165.04 89.1904 166.58 89.2804 168.11C89.3104 168.67 89.4104 168.72 91.1104 169.84C91.7803 168.73 92.4504 167.61 93.1204 166.5C93.0204 170.74 92.2395 174.87 91.0895 178.94Z" fill="#3E2D7B"/>
<path d="M69.8488 172.08C69.2488 172.77 68.6488 173.45 68.0488 174.14C67.7188 173.49 67.3789 172.84 67.0489 172.19C67.3589 171.23 67.6588 170.27 67.9688 169.31L67.9888 169.27C68.3288 168.66 68.6789 168.06 69.0189 167.45C70.2989 165.34 71.6489 163.27 71.8989 160.72C72.8189 159.97 72.9788 158.95 72.9088 157.86V157.88C73.2088 156.9 73.5188 155.93 73.8188 154.95C74.4488 153.24 75.0789 151.53 75.8289 149.5C76.7089 152.07 76.7188 152.07 76.4489 153.61C76.2089 155 75.9489 156.39 75.6989 157.77C75.4089 158.75 75.1189 159.72 74.8289 160.7C74.6389 160.9 74.5688 161.14 74.6088 161.41C73.0288 164.97 71.4488 168.53 69.8688 172.09L69.8488 172.08Z" fill="#CECDDE"/>
<path d="M47.9206 161.7C46.8006 161.28 45.6805 160.87 44.5605 160.45C45.2905 158.14 47.7905 157.4 47.9305 155.13C49.4805 153.11 51.0305 151.09 52.5805 149.07C52.3605 149.98 52.0306 150.88 51.9706 151.79C51.9305 152.52 52.0306 153.41 52.4206 153.98C52.9906 154.8 53.8506 154.14 54.5806 153.96C54.4006 154.55 54.3905 155.3 54.0005 155.69C52.0205 157.74 49.9506 159.71 47.9106 161.7H47.9206Z" fill="#4F3680"/>
<path d="M119.119 162.87C119.569 162.53 120.049 161.9 120.469 161.94C120.929 161.98 121.719 162.62 121.729 163.01C121.789 166.14 121.699 169.27 121.659 172.41C121.309 169.44 120.959 166.46 120.569 163.1C120.279 163.05 119.699 162.96 119.129 162.87H119.119Z" fill="#40327D"/>
<path d="M118.979 173.15C118.699 172.78 118.189 172.43 118.179 172.05C118.059 169.4 117.989 166.74 118.049 164.09C118.049 163.66 118.789 163.24 119.189 162.81C119.149 164.06 119.089 165.31 119.059 166.56C119.019 168.75 119.009 170.95 118.979 173.14L118.979 173.15Z" fill="#40327D"/>
<path d="M44.0393 146.7C44.8493 146.25 45.6293 145.52 46.4793 145.42C48.1993 145.23 49.9593 145.38 51.6993 145.39C49.2593 146.48 46.6693 146.77 44.0293 146.7H44.0393Z" fill="#5B4187"/>
<path d="M119.091 1.26018C117.181 1.29018 115.27 1.39016 113.37 1.30016C112.64 1.26016 111.94 0.770154 111.23 0.480154C113.9 0.260154 116.561 0.120193 119.091 1.27019V1.26018Z" fill="#9061A1"/>
<path d="M124.719 2.25985C123.039 2.25985 121.249 2.89983 119.859 1.35983C121.559 1.24983 123.249 1.14985 124.719 2.25985Z" fill="#9061A1"/>
<path d="M128.58 3.20002C127.18 3.28002 125.69 3.75 124.68 2.24C126.09 2.12 127.46 2.12002 128.58 3.20002Z" fill="#9061A1"/>
<path d="M155.299 199.79C155.189 198.71 155.299 197.74 156.479 197.26C156.599 198.35 156.529 199.34 155.299 199.79Z" fill="#6A4A90"/>
<path d="M53.6203 147.23C53.7803 148.14 53.5003 148.81 52.5703 149.11C52.9203 148.48 53.2703 147.86 53.6203 147.23Z" fill="#4F3680"/>
<path d="M145.65 152.69C138.77 153.17 132.12 154.91 125.43 156.39C120.76 157.43 116.06 158.4 111.35 159.22C105.49 160.24 99.8602 159.41 94.6902 156.37C91.6702 154.59 88.6302 152.8 85.8502 150.68C82.5602 148.17 79.5402 145.31 76.4102 142.6C77.7402 140.03 79.8902 137.9 80.5802 134.98C84.0202 135.83 87.1402 137.43 90.1202 139.25C95.5502 142.58 101.27 145.26 107.36 147.1C113.27 148.89 119.26 148.68 125.25 147.51C129.76 146.63 134.15 145.14 138.81 145.1C139.21 145.1 139.61 144.65 140.02 144.41C140.29 144.48 140.56 144.53 140.84 144.56C140.95 146.48 141.75 148.11 142.93 149.57C143.79 150.64 144.74 151.65 145.65 152.68V152.69Z" fill="#FE339C"/>
<path d="M193.71 145.31C201.02 139.43 206.749 132.36 210.159 123.53C212.629 117.15 214.59 110.65 215.01 103.76C215.05 103.19 215.52 102.64 215.78 102.08C216.38 108.15 215.94 114.16 214.84 120.15C213.25 128.81 211.059 137.28 207.039 145.15C205.529 148.11 203.68 150.93 201.77 153.66C200.2 155.91 198.05 157.65 195.46 158.62C189.87 160.71 184.08 161.66 178.12 160.94C172.87 160.31 167.81 158.93 163.02 156.64C165.27 155.42 167.52 154.2 169.77 152.99C171.99 153.01 174.209 152.96 176.419 153.06C179.509 153.2 182.33 152.3 185.13 151.12C188.39 149.74 191.11 147.62 193.71 145.3V145.31Z" fill="#FE3CE4"/>
<path d="M169.779 152.99C167.529 154.21 165.279 155.43 163.029 156.64C161.129 156.05 159.229 155.45 157.329 154.86C158.429 154.26 159.469 153.5 160.629 153.11C161.669 152.77 162.849 152.84 163.969 152.73C160.309 151.13 156.929 149.45 153.609 147.52C149.739 145.26 145.459 144 140.849 144.56C140.569 144.53 140.299 144.48 140.029 144.41C140.049 142.78 140.059 141.15 140.079 139.53C144.459 138.42 148.739 139.65 153.009 140.19C154.069 139.36 154.989 138.46 156.059 137.82C161.499 134.63 165.439 129.9 169.239 125.04C169.599 124.58 169.599 123.86 169.769 123.25C170.089 123.26 170.409 123.27 170.729 123.28C171.549 124.23 172.389 125.17 173.189 126.14C175.939 129.42 177.529 133.34 177.169 137.46C176.729 142.35 174.849 146.94 171.529 150.76C170.909 151.47 170.369 152.24 169.789 152.99H169.779Z" fill="#FFA59B"/>
<path d="M64.1601 167.38C62.1801 170.06 60.2501 172.77 58.2201 175.41C56.4601 177.71 54.2902 179.57 51.8202 181.09C48.1502 183.36 44.1502 184.17 39.9102 183.76C35.0202 183.29 32.4802 178.68 34.7202 174.35C36.1602 171.58 38.4102 169.59 41.1602 168.15C41.7902 168.26 42.4201 168.36 43.0501 168.47C41.2201 170.96 39.9902 173.66 40.1801 176.83C40.3001 178.78 41.2902 179.77 43.1702 179.82C45.4702 179.88 47.5202 179.1 49.3902 177.81C51.6502 176.24 52.1302 173.95 51.6002 171.48C51.3802 170.47 50.4802 169.61 49.8802 168.68C52.0302 167.95 53.8102 166.69 55.4402 165.1C61.1402 159.53 65.1401 152.98 67.1001 145.22C67.8601 145.32 68.6701 145.29 69.3601 145.56C69.9001 145.77 70.2901 146.35 70.8501 146.87C70.5101 148.85 70.1702 150.83 69.8302 152.81C68.2502 157.04 66.6801 161.26 65.1001 165.48L64.1502 167.38H64.1601Z" fill="#FE3DE3"/>
<path d="M15.2188 131.1C14.8988 130.71 14.5896 130.33 14.2696 129.94C13.9596 129.32 13.6596 128.69 13.3496 128.07C13.0196 127.1 12.6796 126.12 12.3496 125.15C12.7496 125.4 13.1496 125.64 13.5496 125.89C18.1496 128.76 19.4296 128.69 23.5296 125.32C23.6496 125.22 23.7896 125.15 23.9296 125.06C25.5996 125.95 27.2596 126.86 28.9296 127.74C33.9696 130.4 39.2696 132.26 44.9896 132.78C45.5496 134.54 46.0696 136.32 46.6796 138.07C47.1696 139.45 48.0596 140.48 49.5996 140.76C48.3696 141.05 47.1396 141.35 45.9096 141.64C44.5496 141.43 43.2196 141.39 42.0896 142.38C41.7696 142.35 41.4496 142.38 41.1396 142.46C38.1596 142.19 35.1596 142.1 32.2196 141.61C27.0696 140.75 22.7796 138.15 19.0696 134.53C17.8396 133.33 16.5088 132.24 15.2188 131.1Z" fill="#FE248F"/>
<path d="M49.5905 140.76C48.0505 140.48 47.1605 139.45 46.6705 138.07C46.0605 136.32 45.5405 134.55 44.9805 132.78C45.0405 132.5 45.0805 132.22 45.1205 131.93C46.6905 132.89 48.4405 132.84 50.1905 132.84C56.8505 132.84 63.5205 132.88 70.1805 132.88C73.6905 132.88 77.0505 133.71 80.3705 134.72L80.5605 134.98C79.8705 137.9 77.7305 140.03 76.3905 142.6C74.4805 141.89 72.6004 141.08 70.6604 140.48C66.1904 139.11 61.6305 139.54 57.0905 140C54.5905 140.25 52.0905 140.5 49.5905 140.76Z" fill="#FE9168"/>
<path d="M43.0501 168.47C42.4201 168.36 41.7902 168.26 41.1602 168.15C42.0702 167.29 42.9701 166.43 43.8701 165.57C45.2201 164.28 46.5706 162.99 47.9206 161.7C49.9606 159.71 52.0302 157.74 54.0102 155.69C54.3902 155.3 54.4002 154.55 54.5902 153.96C54.8902 153.59 55.1901 153.22 55.4901 152.85C56.4101 152.61 56.6502 151.97 56.5202 151.11C57.9002 149.04 59.2701 146.96 60.6801 144.84C62.9001 144.55 65.0301 144.02 67.1001 145.22C65.1401 152.98 61.1402 159.52 55.4402 165.1C53.8102 166.69 52.0302 167.95 49.8802 168.68C47.6002 168.61 45.3201 168.55 43.0501 168.48L43.0501 168.47Z" fill="#FE2490"/>
<path d="M114.22 170.26C114.28 173.38 114.26 176.5 114.42 179.61C114.54 181.94 114.89 184.27 115.13 186.6C115.07 188.97 115.1 191.35 114.94 193.72C114.7 197.28 113.94 200.67 110.74 202.86C108.11 204.66 104.84 205.56 101.89 203.45C100.83 202.69 99.8904 201.75 99.8104 200.41C99.6204 197.43 99.0605 194.4 100.59 191.56C101.19 191.49 101.78 191.42 102.38 191.34C102.43 192.44 102.55 193.55 102.53 194.65C102.49 196.4 103.39 197.63 104.59 198.73C107.22 201.15 110.6 200.43 111.68 196.99C112.23 195.24 112.03 193.26 112.24 191.4C112.54 188.74 111.47 186.81 109.27 185.42C110.1 182 110.43 178.53 110.33 175.01C110.3 174.06 110.24 173.04 110.52 172.16C111.33 169.66 111.15 167.12 111.06 164.57C113.33 164.44 113.59 164.57 113.77 166.04C113.95 167.45 114.07 168.87 114.21 170.29L114.22 170.26Z" fill="#FA3EE0"/>
<path d="M89.0788 163.51C87.7087 167.24 87.5395 171.17 87.1495 175.06C86.8795 175.79 86.4995 176.49 86.3495 177.24C85.6595 180.65 85.0995 184.09 84.3595 187.5C83.6695 190.68 82.0395 193.36 79.7695 195.7C78.6095 196.9 77.1995 197.58 75.6295 197.9C71.7695 198.69 68.6195 196.48 68.1395 192.56C67.7995 189.85 67.9995 187.16 69.2895 184.66C69.8495 184.7 70.4087 184.73 70.9687 184.77C70.6987 187.05 71.1687 189.21 71.9887 191.33C72.3587 192.29 72.9887 192.91 73.9987 193.19C78.5487 194.46 83.0187 189.66 82.4687 185.9C82.1187 183.52 80.7587 181.83 79.6087 179.94C79.9887 179.44 80.3987 178.96 80.7287 178.43C83.4587 174.04 84.4788 169.09 85.2788 164.09C85.5788 162.21 85.9187 160.38 87.0987 158.83C87.4887 158.98 87.8888 159.12 88.2788 159.27C89.6688 160.48 88.7687 162.12 89.0687 163.53V163.51H89.0788Z" fill="#FA3DDC"/>
<path d="M130.491 190.38C129.511 187.2 128.54 184.02 127.56 180.84V180.82C127.57 178.86 127.82 176.86 126.65 175.08C126.53 171.95 126.38 168.82 126.31 165.69C126.29 164.76 126.46 163.82 126.58 162.89C126.72 161.85 127.37 161.13 128.36 160.93C130.65 160.46 132.96 160.1 135.27 159.7C135.06 161.11 134.82 162.51 134.66 163.92C134.52 165.17 134.2 166.5 134.44 167.69C135.19 171.4 136.18 175.06 137.07 178.75L137.02 178.87C133.13 180.15 131.07 182.71 131.33 186.93C131.41 188.18 131.43 189.44 131.48 190.7C131.15 190.59 130.821 190.49 130.491 190.38Z" fill="#FD2490"/>
<path d="M87.0988 158.82C85.9188 160.38 85.5789 162.21 85.2789 164.08C84.4889 169.08 83.4688 174.03 80.7288 178.42C80.3988 178.95 79.9788 179.43 79.6088 179.93C79.1888 179.74 78.7789 179.49 78.3389 179.38C75.6789 178.7 75.2889 178.85 73.7089 181.04C72.8089 182.29 71.8888 183.52 70.9788 184.75C70.4188 184.71 69.8588 184.68 69.2988 184.64C70.0988 182.58 70.8689 180.51 71.6989 178.46C72.4089 176.71 73.1989 174.99 73.9489 173.25C75.9688 169.91 78.1888 166.66 78.7288 162.66L78.7189 162.68C78.9789 162.01 79.2389 161.34 79.4989 160.68C80.1389 158.79 80.7889 156.89 81.5289 154.71C83.8989 155.7 85.8489 156.76 87.1089 158.81L87.0988 158.82Z" fill="#FD2490"/>
<path d="M137.06 178.74C136.17 175.06 135.18 171.39 134.43 167.68C134.19 166.49 134.51 165.17 134.65 163.91C134.81 162.5 135.05 161.1 135.26 159.69C136.13 159.46 136.99 159.24 137.84 159.02C138.03 159.59 138.23 159.9 138.2 160.18C137.49 166.71 139.83 172.39 143.16 177.76C144.84 180.46 146.7 183.05 148.46 185.7C149.51 187.29 150.51 188.92 151.53 190.53C151.49 193.02 151.45 195.5 151.41 197.99L151.39 198.02C151.25 198.09 151.07 198.12 150.97 198.23C146.62 203.05 139.76 202.38 135.94 197.1C137.81 197.45 139.67 197.84 141.54 198.14C145.16 198.71 148.3 194.88 148.08 191.07C147.86 187.15 146.14 184.2 143.33 181.55C141.49 179.81 139.67 178.55 137.07 178.74H137.06Z" fill="#FA3FE2"/>
<path d="M111.071 164.54C111.161 167.09 111.341 169.62 110.531 172.13C110.241 173.01 110.311 174.03 110.341 174.98C110.441 178.5 110.111 181.97 109.281 185.4C106.181 185.24 104.161 186.69 103.081 189.55C102.861 190.14 102.621 190.73 102.391 191.32C101.791 191.39 101.201 191.46 100.601 191.54C100.351 188.15 101.721 185.02 102.161 181.74C102.331 180.5 102.401 179.24 102.511 178C102.571 177.65 102.641 177.3 102.701 176.95C103.771 175.87 103.531 174.55 103.351 173.24C103.521 170.55 103.701 167.87 103.891 164.97C106.341 164.3 108.711 164.5 111.061 164.55L111.071 164.54Z" fill="#FC238F"/>
<path d="M140.84 144.57C145.45 144.01 149.74 145.27 153.6 147.53C156.92 149.47 160.3 151.15 163.96 152.74C162.84 152.85 161.66 152.78 160.62 153.12C159.45 153.51 158.41 154.27 157.32 154.87C153.43 154.14 149.54 153.42 145.64 152.69C144.73 151.66 143.78 150.65 142.92 149.58C141.74 148.12 140.94 146.48 140.83 144.57H140.84Z" fill="#FB8660"/>
<path d="M78.7189 162.68C78.1689 166.68 75.9595 169.93 73.9395 173.27C72.2062 173.83 70.8421 173.433 69.8488 172.08C71.4288 168.52 73.0097 164.96 74.5897 161.4C74.7697 161.98 74.8597 162.62 75.1497 163.13C75.8397 164.35 76.3796 164.39 77.6296 163.47C77.9896 163.2 78.3589 162.94 78.7189 162.68Z" fill="#43317B"/>
<path d="M65.1102 165.48C66.6902 161.26 68.2602 157.03 69.8402 152.81C69.7202 154.17 69.6902 155.54 69.4502 156.88C68.9602 159.5 68.9602 159.57 71.9002 160.71C71.6602 163.26 70.3002 165.34 69.0202 167.44C68.6802 168.05 68.3302 168.65 67.9902 169.26L67.9702 169.3C65.5602 169.96 65.0902 169.72 64.1602 167.37C64.9902 166.99 65.2102 166.31 65.1102 165.47V165.48Z" fill="#352A77"/>
<path d="M151.4 197.99C151.44 195.5 151.48 193.02 151.52 190.53C153.17 193.63 153.14 195.4 151.4 197.99Z" fill="#6A4A90"/>
<path d="M127.56 180.82C127.57 178.86 127.82 176.86 126.65 175.08C126.65 177.04 125.85 179.13 127.56 180.82Z" fill="#4B3780"/>
<path d="M89.0791 163.53C88.7791 162.12 89.6791 160.48 88.2891 159.27C88.8691 158.82 89.5891 158.89 89.7991 159.47C90.3291 160.91 90.5691 162.41 89.0791 163.53Z" fill="#3E2D7B"/>
<path d="M42.0801 142.37C43.2101 141.38 44.5401 141.43 45.9001 141.63C44.8101 142.84 43.4401 142.55 42.0801 142.37Z" fill="#5B4187"/>
<path d="M103.361 173.24C103.541 174.55 103.781 175.86 102.711 176.95C102.491 175.64 102.261 174.32 103.361 173.24Z" fill="#7B5497"/>
<path d="M74.8105 160.69C75.1005 159.71 75.3905 158.74 75.6805 157.76C75.8605 158.88 75.9005 159.95 74.8105 160.69Z" fill="#43317B"/>
<path d="M72.9001 157.84C72.9701 158.94 72.8101 159.95 71.8901 160.7C71.7701 159.58 71.6901 158.48 72.9001 157.84Z" fill="#352A77"/>
<path d="M73.8003 154.93C73.5003 155.91 73.1903 156.88 72.8903 157.86C72.7303 156.74 72.6603 155.65 73.8003 154.93Z" fill="#352A77"/>
<path d="M56.5202 151.11C56.6502 151.97 56.4201 152.61 55.4901 152.85C55.8301 152.27 56.1702 151.69 56.5202 151.11Z" fill="#4F3680"/>
<path d="M79.4906 160.69C79.2306 161.36 78.9706 162.03 78.7106 162.69C78.5306 161.85 78.7106 161.15 79.4906 160.69Z" fill="#43317B"/>
<path d="M190.179 44.4598C189.129 44.1698 188.089 43.6898 187.029 43.6498C184.999 43.5598 183.019 43.4698 181.049 42.7798C179.769 42.3298 179.379 42.7298 178.409 44.5398C176.789 43.2798 175.169 42.0098 173.549 40.7498C171.549 39.2098 169.529 37.6798 167.549 36.1098C158.259 28.7798 148.009 23.2498 136.749 19.5898C132.369 18.1698 127.879 17.3398 123.409 16.2998C118.549 15.1698 113.749 14.6898 108.819 14.7798C107.389 14.8098 105.959 14.7798 104.529 14.7798C104.469 14.1498 104.529 13.4598 104.309 12.8898C103.579 10.9998 102.299 10.6198 100.559 11.7498C100.189 11.9898 99.9691 12.4898 99.6891 12.8598C98.2691 14.7398 96.4591 15.3198 94.2391 14.4298C93.7991 14.2498 93.3591 14.0598 92.9191 13.8698C91.7091 13.2798 90.4992 12.6998 89.3892 12.1598C89.1492 10.8098 88.9391 9.62979 88.7291 8.40979C87.8291 8.18979 87.0991 8.01984 86.3691 7.83984C89.2191 7.25984 92.0691 6.66984 94.9191 6.08984C102.909 6.12984 110.889 6.15983 118.879 6.19983L118.859 6.18982C120.619 7.55982 122.669 7.06983 124.639 7.13983H124.619C125.329 7.44983 125.999 7.87981 126.739 8.05981C138.379 10.9598 149.589 14.9898 160.189 20.6098C170.229 25.9298 179.409 32.4798 187.349 40.6698C188.429 41.7898 189.229 43.1798 190.159 44.4498L190.179 44.4598Z" fill="#FE79D5"/>
<path d="M86.3701 7.84979C87.1002 8.01979 87.8301 8.1998 88.7301 8.4198C88.9501 9.6498 89.1502 10.8198 89.3902 12.1698C90.5002 12.7098 91.7101 13.2898 92.9201 13.8798C92.8301 14.9598 92.9601 16.1198 92.6101 17.1098C92.0401 18.7498 89.8302 19.0198 88.7702 17.6398C88.1602 16.8398 87.7701 15.8698 87.3001 15.0298C83.9001 16.9798 80.7702 18.7798 77.6502 20.5698C77.3302 20.6098 77.0002 20.5998 76.7002 20.6898C61.7102 25.4898 48.9602 33.9498 37.6302 44.7098C37.0502 45.2598 36.5001 45.8398 35.9901 46.4498C33.9901 48.8598 32.0101 51.2898 29.8601 53.9098C27.7101 52.6298 25.8102 51.5098 23.9102 50.3798C24.9302 48.7998 25.9602 47.2198 26.9802 45.6298C28.4202 44.1598 29.8801 42.6998 31.3102 41.2198C40.0702 32.1498 49.6401 24.0698 60.6201 17.7898C67.5401 13.8298 74.8001 10.6598 82.6001 8.82983C83.0901 8.66983 83.5902 8.50984 84.0902 8.33984C84.8402 8.16984 85.6001 8.00984 86.3501 7.83984L86.3701 7.84979Z" fill="#FED8F5"/>
<path d="M118.88 6.21998C110.89 6.17998 102.91 6.14999 94.9199 6.10999C95.6199 5.80999 96.32 5.27002 97.02 5.26002C103.63 5.19002 110.25 5.19002 116.86 5.26002C117.54 5.26002 118.21 5.87998 118.88 6.21998Z" fill="#9061A1"/>
<path d="M124.649 7.15996C122.679 7.08996 120.619 7.57001 118.869 6.21001C120.129 6.19001 121.399 6.06001 122.639 6.21001C123.339 6.29001 123.979 6.83997 124.649 7.16997V7.15996Z" fill="#9061A1"/>
<path d="M84.0994 8.3501C83.5994 8.5101 83.0994 8.68015 82.6094 8.84015C83.1094 8.68015 83.6094 8.5101 84.0994 8.3501Z" fill="#FE79D5"/>
<path d="M23.9205 50.3904C25.8205 51.5104 27.7095 52.64 29.8695 53.92C32.0195 51.3 33.9995 48.8701 35.9995 46.4601C36.5095 45.8501 37.0596 45.27 37.6396 44.72C48.9696 33.96 61.7196 25.5001 76.7096 20.7001C77.0096 20.6001 77.3395 20.6201 77.6595 20.5801C77.2695 21.0601 76.9595 21.6601 76.4795 22.0001C73.0495 24.4201 69.5596 26.7701 66.1396 29.2001C65.3996 29.7201 64.8195 30.47 64.1695 31.11C62.7295 32.08 61.2195 32.96 59.8695 34.04C57.2695 36.11 54.7595 38.3001 52.2095 40.4401C48.8095 43.2901 45.3796 46.0901 42.0396 49.0101C40.9795 49.9401 40.1695 51.15 39.2495 52.23C37.3295 54.14 35.4095 56.06 33.4995 57.97C32.6695 58.7 31.6996 59.3201 31.0396 60.1901C27.9596 64.2301 24.9696 68.34 21.9496 72.42C21.2596 71.89 20.8995 71.17 21.2195 70.36C21.8495 68.7701 22.5596 67.21 23.2896 65.66C24.2196 63.69 23.5195 62.24 21.3495 61.91C20.4195 61.77 19.4396 61.8901 18.5396 61.6901C17.9896 61.5601 17.5195 61.0401 17.0195 60.7001C18.8295 56.9401 20.8995 53.35 23.9395 50.41L23.9205 50.3904Z" fill="#FFC4E6"/>
<path d="M23.9297 125.05C23.7997 125.14 23.6498 125.21 23.5298 125.31C19.4298 128.68 18.1397 128.75 13.5497 125.88C13.1497 125.63 12.7498 125.39 12.3498 125.14L12.3798 125.19C12.0398 124.54 11.6997 123.88 11.3597 123.23L11.3997 123.3C11.0997 122.6 10.7998 121.89 10.4998 121.19C10.3498 121.06 10.3098 120.91 10.3698 120.72C10.4398 119.8 10.3697 118.95 9.45975 118.43L9.48975 118.5C9.52975 117.38 9.56976 116.26 8.49976 115.52C7.83976 113.29 7.17974 111.06 6.51974 108.82C6.51974 106.94 6.51977 105.07 6.50977 103.19L6.65976 103.03C7.68976 103.39 8.69977 103.82 9.75977 104.09C12.0698 104.67 14.3197 105.34 16.1497 106.96C16.8997 109.97 17.4597 113.05 18.4597 115.98C19.4697 118.95 21.0597 121.67 23.8597 123.42L23.9398 125.06L23.9297 125.05Z" fill="#FF3EE4"/>
<path d="M16.9991 60.6802C17.4991 61.0202 17.969 61.5502 18.519 61.6702C19.429 61.8702 20.409 61.7502 21.329 61.8902C23.489 62.2202 24.199 63.6602 23.269 65.6402C22.539 67.1902 21.8291 68.7502 21.1991 70.3402C20.8791 71.1502 21.239 71.8702 21.929 72.4002C20.749 74.9002 19.6691 77.4602 17.1891 79.0402C13.1691 81.7602 12.5291 81.7702 8.78906 79.1602C10.6291 72.6002 13.2791 66.4102 16.9991 60.6802Z" fill="#FE99F9"/>
<path d="M8.79048 79.1603C12.5305 81.7703 13.1703 81.76 17.1903 79.04C18.0203 79.73 18.0603 80.6001 17.8003 81.5601C17.0703 84.2201 16.1003 86.84 16.1903 89.67C15.5903 90.55 15.0003 91.44 14.3003 92.47C10.6703 91.91 9.00026 94.1701 7.61026 97.0801C6.68026 99.0201 6.53027 100.98 6.65027 103.03L6.50027 103.19C6.24027 102.46 5.79027 101.75 5.74026 101.01C5.29027 93.5301 6.10028 86.21 8.79028 79.17L8.79048 79.1603Z" fill="#FC4AF3"/>
<path d="M137.06 178.74C139.66 178.55 141.48 179.81 143.32 181.55C146.13 184.2 147.85 187.15 148.07 191.07C148.29 194.88 145.14 198.71 141.53 198.14C139.66 197.84 137.8 197.45 135.93 197.1C134.58 196.22 133.46 195.16 133.15 193.49C133.66 192.9 134.05 192.03 134.69 191.76C137.3 190.7 138.77 188.44 140.87 186.48C139.57 183.91 138.29 181.39 137.01 178.86L137.06 178.74Z" fill="#FF87DC"/>
<path d="M137.02 178.86C138.3 181.38 139.58 183.91 140.88 186.48C138.78 188.44 137.31 190.7 134.7 191.76C134.06 192.02 133.66 192.89 133.16 193.49C132.6 192.56 132.04 191.63 131.48 190.7C131.43 189.45 131.41 188.19 131.33 186.93C131.06 182.71 133.12 180.15 137.02 178.87L137.02 178.86Z" fill="#FE7CB7"/>
<path d="M140.059 139.53C140.039 141.16 140.029 142.79 140.009 144.41C139.609 144.65 139.209 145.1 138.799 145.1C134.139 145.15 129.739 146.63 125.239 147.51C119.249 148.68 113.259 148.89 107.349 147.1C101.259 145.25 95.5389 142.58 90.1089 139.25C87.1289 137.42 83.9989 135.83 80.5689 134.98L80.3789 134.72C80.7389 132.81 81.0889 130.9 81.4389 129C84.3489 128.61 86.6989 130.1 89.0589 131.39C92.0589 133.03 95.0889 134.3 98.6089 133.82C99.0789 133.76 99.5989 133.74 100.039 133.88C104.559 135.4 109.219 134.58 113.819 134.71C114.669 134.73 115.529 134.2 116.259 133.96C116.579 132.14 115.279 130.49 116.769 129.12C116.989 130.04 117.049 131.04 117.459 131.88C118.769 134.62 121.369 135.21 123.719 133.25C124.529 132.57 125.089 131.55 125.599 130.59C125.949 129.93 126.019 129.11 126.239 128.23C127.149 128.17 127.899 128.13 128.819 128.07C129.129 129.1 129.309 130.03 129.679 130.88C130.919 133.74 133.009 134.43 135.849 132.92C136.389 132.63 136.779 132.08 137.229 131.65C137.519 130.89 137.819 130.12 138.109 129.36L139.019 128.11C139.529 128.13 140.049 128.14 140.559 128.16C140.739 128.47 140.919 128.77 141.099 129.08C141.369 129.77 141.639 130.46 141.909 131.16C140.079 133.69 139.769 136.56 140.059 139.56V139.53Z" fill="#FF89C9"/>
<path d="M169.779 152.99C170.359 152.25 170.9 151.47 171.52 150.76C174.84 146.93 176.73 142.34 177.16 137.46C177.53 133.34 175.93 129.42 173.18 126.14C172.37 125.18 171.54 124.24 170.72 123.28C173.72 119.14 175.61 114.47 177.05 109.61C177.64 107.6 177.69 105.6 177.13 103.91C175.75 103.15 174.69 102.57 173.62 101.99C174.73 101.99 175.87 102.15 176.96 101.99C178.67 101.73 179.86 100.65 180.34 98.9901C180.81 97.3501 180.52 95.7601 179.17 94.6301C178.33 93.9301 177.28 93.4901 176.32 92.9401C176.34 92.3801 176.23 91.7701 176.4 91.2501C176.63 90.5401 177.07 89.8901 177.41 89.2101C179.56 87.7201 180.78 85.7501 180.6 83.0601C181.05 83.8101 181.5 84.57 181.97 85.36C185.01 83.68 187.89 82.1401 190.72 80.5101C191.22 80.2201 191.53 79.5901 191.93 79.1201C193.92 79.3901 195.71 78.58 197.54 78.04L197.79 78.2801C199.91 86.0901 201.8 93.9201 202.59 102.03C202.91 105.34 203.53 108.64 203.33 111.97C202.85 120.22 202.02 128.45 198.57 136.11C197.47 138.56 195.92 140.8 194.62 143.16C194.24 143.84 194.01 144.6 193.7 145.32C191.1 147.64 188.38 149.76 185.12 151.14C182.32 152.32 179.51 153.22 176.41 153.08C174.2 152.98 171.98 153.02 169.76 153.01L169.779 152.99Z" fill="#FF6ABA"/>
<path d="M140.059 139.53C139.769 136.53 140.08 133.66 141.91 131.13C142.66 131.37 143.4 131.74 144.17 131.84C146.88 132.19 148.32 131.26 149.32 128.72C150.08 126.79 149.62 124.99 148.81 123.21C149.42 122.58 150.02 121.96 150.63 121.33C152.47 120.96 154.31 120.6 156.14 120.2C161.16 119.09 165.73 119.95 169.76 123.26C169.59 123.86 169.59 124.59 169.23 125.05C165.43 129.91 161.49 134.64 156.05 137.83C154.97 138.46 154.05 139.37 153 140.2C148.72 139.66 144.45 138.44 140.07 139.54L140.059 139.53Z" fill="#FEC0A9"/>
<path d="M169.76 123.26C165.73 119.95 161.16 119.1 156.14 120.2C154.31 120.6 152.47 120.95 150.63 121.33C152 118.75 153.999 117.22 157.069 117.36C157.459 117.38 157.869 116.92 158.269 116.68C158.929 116.34 159.589 116 160.249 115.66L160.229 115.68C160.899 115.35 161.569 115.01 162.229 114.68C163.719 113.96 164.089 112.64 164.189 111.14C164.379 108.45 164.549 105.76 164.859 103.08C164.939 102.36 165.319 101.24 165.809 101.08C167.279 100.61 168.869 100.46 170.419 100.32C171.779 100.2 172.899 100.74 173.599 101.99C174.669 102.57 175.729 103.16 177.109 103.91C177.669 105.6 177.619 107.6 177.029 109.61C175.589 114.48 173.709 119.14 170.699 123.28C170.379 123.27 170.059 123.26 169.739 123.25L169.76 123.26Z" fill="#F97EC9"/>
<path d="M197.54 78.04C195.7 78.58 193.92 79.3901 191.93 79.1201C191.89 78.6401 191.949 78.1403 191.799 77.7003C188.649 68.4503 183.999 60.0502 177.459 52.7502C176.629 51.8202 175.539 51.1202 174.569 50.3102C173.079 48.6802 171.759 46.8503 170.079 45.4603C163.999 40.4203 157.389 36.1102 150.569 32.1302C149.099 31.2702 147.379 30.8202 145.779 30.1802C144.169 29.2102 142.559 28.2503 140.959 27.2803C141.889 27.4303 142.869 27.4402 143.749 27.7402C149.039 29.5202 153.939 32.1103 158.599 35.1403C161.259 36.8603 163.799 38.7702 166.489 40.4402C168.719 41.8202 171.119 42.4798 173.549 40.7498C175.169 42.0098 176.789 43.2798 178.409 44.5398C179.899 46.1898 181.299 47.9302 182.889 49.4702C185.319 51.8202 187.069 54.6303 188.769 57.5103C192.579 63.9803 195.12 70.98 197.54 78.04Z" fill="#FF91DE"/>
<path d="M43.0501 168.47C45.3301 168.54 47.5995 168.6 49.8795 168.67C50.4695 169.6 51.3795 170.46 51.5995 171.47C52.1295 173.94 51.6495 176.23 49.3895 177.8C47.5195 179.1 45.4695 179.87 43.1695 179.81C41.2895 179.76 40.2895 178.77 40.1795 176.82C39.9895 173.65 41.2195 170.95 43.0495 168.46L43.0501 168.47Z" fill="#FF84D9"/>
<path d="M65.1102 165.48C65.2202 166.32 65.0001 167 64.1601 167.38C64.4801 166.75 64.7902 166.11 65.1102 165.48Z" fill="#765196"/>
<path d="M23.9297 125.05C23.8997 124.5 23.879 123.96 23.849 123.41C24.019 120.11 23.959 116.88 22.189 113.89C21.569 112.85 21.349 111.55 21.079 110.33C20.869 109.39 21.039 108.46 21.929 107.83C25.709 109.98 29.679 111.07 34.109 110.83C38.979 110.57 43.879 110.71 48.769 110.67C51.349 110.7 53.939 110.72 56.519 110.75C56.489 111.7 56.469 112.66 56.439 113.61C53.229 114.72 50.659 116.64 48.759 119.49C46.249 123.27 45.119 127.42 45.119 131.91C45.079 132.19 45.039 132.48 44.979 132.76C39.259 132.24 33.969 130.38 28.919 127.72C27.249 126.84 25.589 125.93 23.919 125.04L23.9297 125.05Z" fill="#FF70BD"/>
<path d="M45.1191 131.93C45.1191 127.43 46.2492 123.28 48.7592 119.51C50.6592 116.65 53.2291 114.74 56.4391 113.63C56.7891 113.64 57.1291 113.65 57.4791 113.66C56.5591 114.5 55.6391 115.34 54.5591 116.33C56.5791 120.82 59.9992 123.8 63.8392 126.41C64.0992 126.59 64.4092 126.71 64.7092 126.8C68.0392 127.79 71.3691 128.77 74.8691 129.81C76.2891 127.63 78.4792 128.13 80.5092 128.05C80.8192 128.37 81.1392 128.69 81.4492 129.01C81.0992 130.92 80.7392 132.83 80.3892 134.73C77.0592 133.71 73.7092 132.88 70.1992 132.88C63.5392 132.88 56.8691 132.84 50.2091 132.84C48.4591 132.84 46.7092 132.89 45.1392 131.93H45.1191Z" fill="#FFB0A6"/>
<path d="M102.391 191.33C102.621 190.74 102.851 190.15 103.081 189.55C104.161 186.69 106.171 185.24 109.281 185.4C111.481 186.79 112.561 188.72 112.251 191.38C112.041 193.25 112.251 195.23 111.691 196.97C110.601 200.42 107.231 201.13 104.601 198.71C103.401 197.61 102.511 196.38 102.541 194.63C102.561 193.53 102.451 192.42 102.391 191.32L102.391 191.33Z" fill="#FF82D4"/>
<path d="M70.9687 184.77C71.8787 183.53 72.7992 182.3 73.6992 181.06C75.2793 178.87 75.6693 178.72 78.3293 179.4C78.7693 179.51 79.1792 179.76 79.5992 179.95C80.7492 181.84 82.1093 183.54 82.4593 185.91C83.0093 189.67 78.5392 194.46 73.9892 193.2C72.9792 192.92 72.3592 192.3 71.9792 191.34C71.1592 189.23 70.6893 187.06 70.9593 184.78L70.9687 184.77Z" fill="#FF84D7"/>
<path d="M173.56 40.7501C171.13 42.4801 168.73 41.8201 166.5 40.4401C163.81 38.7701 161.27 36.8701 158.61 35.1401C153.94 32.1101 149.05 29.5101 143.76 27.7401C142.88 27.4401 141.9 27.4302 140.97 27.2802C139.28 26.8902 137.49 26.7401 135.92 26.0601C131.36 24.1101 126.58 23.2401 121.75 22.3301C118.77 21.7701 115.78 21.6601 112.81 21.2501C110.94 21.0001 109.05 20.5301 107.18 20.6001C102.6 20.7901 97.9802 20.9301 93.4702 21.6701C86.7502 22.7701 80.1802 24.6001 73.8502 27.2301C70.6402 28.5701 67.3902 29.8201 64.1602 31.1001C64.8102 30.4601 65.3902 29.7101 66.1302 29.1901C69.5602 26.7601 73.0402 24.4101 76.4702 21.9901C76.9602 21.6501 77.2602 21.0498 77.6502 20.5698C80.7702 18.7798 83.9001 16.9798 87.3001 15.0298C87.7701 15.8798 88.1602 16.8398 88.7702 17.6398C89.8302 19.0298 92.0401 18.7498 92.6101 17.1098C92.9501 16.1198 92.8301 14.9598 92.9201 13.8798C93.3601 14.0698 93.8002 14.2701 94.2402 14.4401C96.4602 15.3301 98.2602 14.7501 99.6902 12.8701C100.71 16.0401 101.08 16.2201 104.12 14.9801C104.26 14.9201 104.39 14.8501 104.53 14.7901C105.96 14.7901 107.39 14.8101 108.82 14.7901C113.75 14.7001 118.55 15.1701 123.41 16.3101C127.87 17.3501 132.37 18.1801 136.75 19.6001C148.02 23.2601 158.26 28.8001 167.55 36.1201C169.54 37.6901 171.55 39.2101 173.55 40.7601L173.56 40.7501Z" fill="#FFA2D6"/>
<path d="M104.53 14.7901C104.39 14.8501 104.26 14.9201 104.12 14.9801C101.09 16.2201 100.71 16.0401 99.6902 12.8701C99.9802 12.4901 100.189 12.0002 100.559 11.7602C102.299 10.6302 103.569 11.0102 104.309 12.9002C104.529 13.4702 104.46 14.1601 104.53 14.7901Z" fill="#FFE5F6"/>
<path d="M64.159 31.1101C67.389 29.8201 70.639 28.5701 73.849 27.2401C80.169 24.6101 86.739 22.7801 93.469 21.6801C97.979 20.9401 102.599 20.8001 107.179 20.6101C109.039 20.5301 110.929 21.0001 112.809 21.2601C115.779 21.6601 118.769 21.7802 121.749 22.3402C126.579 23.2502 131.369 24.1201 135.919 26.0701C137.489 26.7401 139.279 26.9001 140.969 27.2901C142.579 28.2601 144.189 29.2201 145.789 30.1901C145.749 31.6101 145.019 32.5602 143.729 33.0902C140.629 34.3702 137.969 36.3001 135.549 38.6901C133.799 38.0201 132.179 37.6301 130.509 38.7401C129.019 39.7301 127.579 40.6602 127.589 42.7102L127.639 42.7301C126.939 42.7701 126.109 43.4401 125.599 42.5101C124.329 40.1901 122.329 39.4701 119.849 39.7201C119.849 38.5901 119.759 37.6102 118.689 36.7802C116.169 34.8202 113.209 34.4102 110.209 34.0202C108.489 33.7902 106.739 33.3301 105.029 33.4301C102.229 33.5801 99.379 33.6702 96.739 34.8302C96.499 34.9301 96.389 35.3401 96.049 35.8701C96.549 36.9901 97.029 38.3301 97.709 39.5601C98.969 41.8401 98.829 44.0401 97.959 46.4501C96.409 50.7601 93.419 53.7201 89.549 55.8302C81.769 60.0702 74.889 65.4201 68.959 71.9801C66.859 74.3001 64.399 76.0701 61.489 76.9801C57.779 78.1301 56.569 80.7301 56.509 84.2102C56.459 87.5602 56.469 90.9202 56.529 94.2802C56.549 95.2202 56.579 96.2801 57.009 97.0601C58.859 100.4 60.899 103.64 62.809 106.95C64.309 109.55 66.649 110.59 69.509 110.78C70.779 110.86 72.139 110.74 73.289 111.17C75.559 112.02 77.669 111.75 79.809 110.91L78.739 116.26C78.649 116.69 78.569 117.12 78.489 117.55C77.359 116.74 76.109 116.41 74.729 116.63C70.029 113.73 65.029 112 59.399 112.81C58.749 113.1 58.109 113.39 57.459 113.68H57.469C57.119 113.67 56.779 113.66 56.429 113.65C56.459 112.7 56.479 111.74 56.509 110.79C57.559 110.7 58.609 110.61 60.089 110.48C59.159 108.56 58.459 107 57.639 105.49C56.789 103.9 56.269 102.08 54.799 100.63C53.899 101.48 53.169 102.07 52.549 102.76C50.519 105.04 47.869 105.83 44.959 105.99C44.019 106.04 43.069 106.02 42.119 106.03L42.059 105.99C42.079 105.67 42.089 105.35 42.089 105.03C42.889 105.03 43.689 105.09 44.479 105.01C49.429 104.54 53.689 99.9701 53.569 95.0101C53.469 90.9801 51.979 87.6001 48.229 85.5401C47.409 85.0901 46.679 84.4801 45.899 83.9401C46.999 84.0301 48.109 84.0601 49.199 84.2301C50.189 84.3801 50.689 86.0302 52.009 85.2802C52.569 82.6002 53.109 79.9902 53.599 77.6502C52.189 75.9102 51.059 74.4001 49.809 73.0001C46.649 69.4301 46.189 65.4002 47.689 61.0302C48.099 59.8302 48.529 58.6301 49.069 57.4901C49.819 55.8901 49.979 54.2501 49.949 52.2501H39.209C40.129 51.1701 40.939 49.9602 41.999 49.0302C45.339 46.1202 48.769 43.3102 52.169 40.4602C54.719 38.3202 57.229 36.1401 59.829 34.0601C61.179 32.9801 62.689 32.1001 64.129 31.1301L64.159 31.1101ZM59.089 74.3001C61.609 73.9101 64.709 72.7701 67.349 70.6201C68.709 69.5101 69.919 68.2101 71.099 66.9101C75.549 62.0301 80.669 58.0501 86.509 54.9201C89.889 53.1001 92.719 50.5801 94.799 47.1701C97.229 43.1901 95.389 39.1801 91.659 37.8701C88.259 36.6701 84.839 36.2001 81.439 37.8501C80.419 38.3401 79.459 38.7402 78.259 38.2102C76.159 37.2802 74.319 38.0401 73.379 39.9401C72.439 41.8301 70.759 42.7102 69.219 43.7702C65.019 46.6602 60.789 49.5001 56.489 52.2201C53.899 53.8501 52.199 56.1701 51.369 58.9401C50.489 61.9101 49.539 64.9201 50.659 68.2201C51.859 71.7701 54.569 74.2201 59.099 74.3101L59.089 74.3001Z" fill="#FFAAED"/>
<path d="M39.229 52.2202H49.969C49.999 54.2202 49.839 55.8602 49.089 57.4602C48.549 58.6002 48.119 59.8102 47.709 61.0002C46.209 65.3702 46.669 69.4002 49.829 72.9702C51.069 74.3802 52.209 75.8802 53.619 77.6202C53.129 79.9602 52.589 82.5702 52.029 85.2502C50.709 86.0002 50.209 84.3602 49.219 84.2002C48.129 84.0302 47.019 84.0002 45.919 83.9102C43.609 83.6602 41.409 84.2302 39.219 84.8402C38.859 84.5502 38.539 84.0902 38.129 84.0002C36.569 83.6702 35.639 82.8402 35.299 81.2502C35.109 80.3402 34.689 79.4702 34.419 78.5702C33.719 76.2302 32.519 74.3502 30.279 73.1002C29.249 72.5202 28.549 71.3502 27.709 70.4502C28.579 68.4802 29.419 66.5002 30.319 64.5502C31.339 62.3402 32.419 60.1402 33.469 57.9402C35.389 56.0302 37.309 54.1102 39.219 52.2002L39.229 52.2202Z" fill="#FF97FB"/>
<path d="M33.4792 57.96C32.4292 60.16 31.3492 62.3499 30.3292 64.5699C29.4292 66.5199 28.5892 68.4999 27.7192 70.4699C27.2292 71.4399 26.6692 72.39 26.2492 73.39C22.8892 81.39 20.4392 89.5899 20.9692 98.4199C21.0892 100.33 20.8792 102.27 21.0292 104.17C21.1292 105.41 21.6092 106.62 21.9292 107.84C21.0392 108.46 20.8692 109.39 21.0792 110.34C21.3492 111.55 21.5692 112.85 22.1892 113.9C23.9592 116.9 24.0092 120.12 23.8492 123.42C21.0492 121.67 19.4592 118.95 18.4492 115.98C17.4492 113.05 16.8892 109.97 16.1392 106.96C16.1392 106.49 16.2192 105.99 16.0992 105.54C14.9192 101.2 14.7892 96.8699 16.0092 92.4999C16.2592 91.6099 16.1392 90.6199 16.1892 89.6799C16.0992 86.8499 17.0692 84.2399 17.7992 81.5699C18.0592 80.6099 18.0192 79.7399 17.1892 79.0499C19.6692 77.4799 20.7492 74.9099 21.9292 72.4099C24.9492 68.3299 27.9392 64.2199 31.0192 60.1799C31.6792 59.3199 32.6492 58.7 33.4792 57.96Z" fill="#FF8BE1"/>
<path d="M137.229 131.64C136.769 132.07 136.379 132.63 135.849 132.91C133.009 134.43 130.919 133.74 129.679 130.87C129.309 130.02 129.129 129.09 128.819 128.06C127.899 128.12 127.149 128.16 126.239 128.22C126.009 129.1 125.949 129.92 125.599 130.58C125.089 131.54 124.529 132.57 123.719 133.24C121.369 135.2 118.769 134.61 117.459 131.87C117.059 131.03 116.989 130.04 116.779 129.11C117.339 127.8 117.899 126.49 118.469 125.19C118.609 123.94 118.879 122.68 118.849 121.43C118.789 119.25 118.119 118.62 115.899 118.58C113.509 118.54 111.109 118.6 108.719 118.66C106.949 118.7 105.559 118 104.819 116.42C104.219 115.15 103.739 113.78 103.519 112.4C103.289 111 103.429 109.53 103.419 108.1C103.409 106.33 103.259 104.6 101.979 103.24C98.949 102.29 96.3491 103.22 93.689 104.51C91.8491 105.4 89.609 104.16 88.599 102.1C87.599 100.06 88.129 97.7098 89.849 96.5598C92.059 95.0798 94.0591 95.5498 95.9491 97.1798C98.3391 99.1398 100.929 98.4698 103.429 97.5698C103.919 97.3898 104.439 96.1798 104.299 95.5998C103.909 93.9698 103.889 92.1598 102.499 90.5898C100.699 90.5898 98.819 90.5698 96.929 90.5898C95.539 90.6098 94.5191 91.2398 94.0091 92.5798L94.0291 92.5598C92.7191 92.5598 91.419 92.5598 90.109 92.5698H90.0791C89.4591 91.9098 88.8291 91.2598 88.2091 90.6198L88.189 90.5898C88.179 89.2898 88.1591 87.9998 88.1491 86.6998H88.1391C89.1491 86.4298 89.789 85.7798 90.099 84.7798H90.109C91.179 85.0198 92.399 85.0098 93.299 85.5298C95.959 87.0798 98.8091 86.8298 101.639 86.7098C103.749 86.6198 104.809 85.2298 104.379 83.1698C104.029 81.5098 103.419 79.9098 102.889 78.1898C100.889 78.1898 99.149 78.1098 97.429 78.2398C96.909 78.2798 96.439 78.8898 95.939 79.2398C94.439 80.4898 92.679 80.3998 90.939 80.0798C89.009 79.7298 87.4391 77.4998 87.5291 75.4498C87.6191 73.2898 89.2591 71.5798 91.4491 71.3498C92.9291 71.1998 94.299 71.4598 95.489 72.4198C97.309 73.8898 99.4091 73.4298 101.449 73.2398C102.529 73.1298 103.169 72.3098 103.229 71.2898C103.349 69.0698 103.319 66.8398 103.349 64.6098C103.379 62.3798 103.349 60.1298 104.659 58.1598C108.659 55.9298 113.239 56.4198 117.759 55.6998C118.329 52.7898 118.499 50.1898 117.049 47.6898C115.939 45.7698 116.439 44.0298 117.749 42.4198C118.899 40.9898 120.479 40.4198 121.949 40.8598C123.579 41.3598 124.829 42.9398 124.779 44.8398C124.749 46.0798 124.379 47.3198 124.089 48.5498C123.549 50.8898 123.399 53.1998 124.139 55.4298C128.809 56.1998 129.579 55.6298 129.429 51.4198C129.389 50.1898 129.149 48.8698 128.629 47.7698C127.849 46.1198 127.629 44.4498 127.669 42.6898L127.619 42.6698C128.449 41.9398 129.229 41.1298 130.129 40.4898C132.669 38.6998 135.849 40.0798 136.189 43.1598C136.309 44.2198 135.979 45.3398 135.799 46.4298C135.409 48.7698 134.929 51.0998 134.609 53.4498C134.439 54.6998 135.269 55.5998 136.509 55.7298C137.139 55.7998 137.779 55.8198 138.419 55.7698C140.299 55.6298 141.079 54.9498 141.159 53.1498C141.259 50.7698 141.179 48.4298 140.509 46.0698C139.619 42.8698 141.139 40.2398 144.109 39.2598C144.809 39.0298 145.729 39.0098 146.399 39.2698C148.469 40.0698 149.669 42.6198 149.069 44.7698C148.819 45.6798 148.499 46.6298 147.989 47.3998C146.419 49.7498 146.809 52.1698 147.269 54.8498C152.039 55.6898 156.619 55.0598 161.189 55.0398L161.629 55.1498L162.079 55.1098C162.139 55.3998 162.209 55.6898 162.259 55.9898C160.039 56.1498 157.829 56.2998 155.609 56.4598C153.399 56.6298 151.189 56.9598 148.989 56.9398C146.699 56.9298 146.049 56.1098 145.819 53.6598C145.719 52.5598 145.719 51.4298 145.509 50.3498C145.449 50.0298 144.819 49.6298 144.439 49.5998C144.059 49.5798 143.409 49.8998 143.299 50.2198C143.039 50.9498 142.949 51.7698 142.949 52.5498C142.949 54.7398 141.909 56.1398 139.919 56.9198C139.519 57.0798 139.149 57.3198 138.849 57.4798C138.729 59.2398 140.069 59.7198 141.029 60.4998C132.599 60.9298 124.169 61.4498 115.739 61.7798C109.069 62.0398 109.059 61.9298 109.279 68.4898C109.299 77.4598 109.319 86.4398 109.349 95.4098C109.309 98.2798 109.159 101.16 109.269 104.03C109.379 106.83 108.609 109.73 110.019 112.6C111.339 112.66 112.599 112.81 113.849 112.77C119.579 112.58 125.309 112.47 131.039 111.97C140.079 111.18 149.189 111.09 158.269 110.7C157.229 112.11 155.679 111.81 154.329 111.67C150.479 111.27 146.829 112.62 143.059 112.85C141.499 112.94 140.599 114.87 141.629 116.02C142.849 117.37 143.049 118.8 142.919 120.39C142.789 122.1 142.569 123.82 142.259 125.51C142.069 126.52 142.019 127.38 142.939 128.05C142.339 128.38 141.739 128.7 141.129 129.03C140.949 128.72 140.769 128.42 140.589 128.11C140.939 126.74 141.299 125.38 141.639 124.01C142.169 121.87 142.439 119.74 141.309 117.75C136.819 117.38 135.959 118.16 136.379 122.17C136.459 122.93 136.709 123.7 137.039 124.39C137.639 125.65 138.369 126.84 139.039 128.07C138.739 128.49 138.439 128.91 138.129 129.32C137.329 128.57 136.639 127.63 135.709 127.14C134.479 126.5 133.059 127.26 132.579 128.5C132.109 129.71 132.679 131.26 133.999 131.61C135.009 131.88 136.159 131.64 137.249 131.62L137.229 131.64ZM127.169 127.21C128.689 126.82 130.309 126.63 131.709 125.98C133.879 124.98 135.139 122.43 134.739 120.52C133.989 116.98 130.089 115.16 127.459 116.27C125.089 117.27 123.459 118.76 122.429 121.04C121.769 122.5 121.959 123.82 122.979 125.04C124.049 126.34 125.349 127.16 127.179 127.2L127.169 127.21ZM93.869 88.6798C93.869 87.5598 93.2491 86.9098 92.1391 86.8598C91.0191 86.8098 90.289 87.3998 90.189 88.4598C90.069 89.7398 90.8791 90.5898 92.1491 90.5198C93.2291 90.4598 93.859 89.7898 93.859 88.6798H93.869ZM134.409 44.3698C133.419 43.6798 132.789 42.9898 132.029 42.7898C131.179 42.5698 130.599 43.2698 130.549 44.1498C130.489 45.3498 131.609 46.4798 132.569 46.0898C133.179 45.8498 133.609 45.1398 134.409 44.3598V44.3698ZM122.999 45.7598C122.189 44.9198 121.789 44.2398 121.189 43.9398C120.409 43.5498 119.149 44.4498 119.289 45.3598C119.389 45.9998 120.059 47.0298 120.459 47.0298C121.189 47.0198 121.899 46.3598 122.999 45.7598ZM145.229 42.6198C143.719 42.6498 142.909 43.3498 143.169 44.2498C143.309 44.7198 143.849 45.2798 144.329 45.4098C145.159 45.6498 146.379 44.7598 146.269 43.9598C146.189 43.3998 145.499 42.9298 145.229 42.6098V42.6198ZM94.469 75.7698C93.459 75.0998 92.919 74.4998 92.289 74.3798C91.409 74.2098 90.689 74.8998 90.669 75.7398C90.659 76.5898 91.3691 77.2698 92.2591 77.1198C92.8991 77.0098 93.449 76.4198 94.469 75.7698Z" fill="#6485AF"/>
<path d="M118.459 125.21C117.899 126.52 117.339 127.82 116.769 129.13C115.279 130.49 116.569 132.15 116.259 133.97C115.529 134.21 114.669 134.74 113.819 134.72C109.219 134.59 104.559 135.41 100.039 133.89C99.5989 133.74 99.0789 133.76 98.6089 133.83C95.089 134.31 92.059 133.04 89.059 131.4C86.699 130.11 84.349 128.62 81.439 129.01C81.129 128.69 80.809 128.37 80.499 128.05C80.639 126.28 80.3089 124.63 79.4689 123.05C79.0289 122.23 78.789 121.31 78.459 120.43C78.469 119.47 78.479 118.5 78.489 117.54C78.5789 117.11 78.659 116.68 78.749 116.25C78.949 116.49 79.1589 116.73 79.3489 116.98C82.1589 120.72 85.809 121.06 88.939 117.76C89.789 116.86 90.319 115.67 90.999 114.61C91.429 115.23 91.719 116.13 92.309 116.4C94.179 117.26 96.1389 117.95 98.0989 118.59C104.879 120.82 111.669 123.01 118.459 125.22V125.21Z" fill="#FF9CE1"/>
<path d="M139.02 128.09C138.35 126.87 137.63 125.67 137.02 124.41C136.69 123.72 136.44 122.95 136.36 122.19C135.94 118.18 136.8 117.4 141.29 117.77C142.42 119.76 142.15 121.88 141.62 124.03C141.28 125.4 140.92 126.76 140.57 128.13C140.05 128.12 139.54 128.1 139.03 128.09H139.02Z" fill="#EDADF5"/>
<path d="M141.1 129.05C141.7 128.72 142.3 128.4 142.91 128.07L142.92 128.05C143.21 127.42 143.5 126.79 143.79 126.15C144.14 125.8 144.49 125.45 144.85 125.09C145.49 124.8 146.12 124.51 146.76 124.22C147.14 123.86 147.52 123.5 147.91 123.14C148.21 123.16 148.52 123.18 148.82 123.2C149.64 124.97 150.1 126.77 149.33 128.71C148.33 131.25 146.89 132.18 144.18 131.83C143.41 131.73 142.67 131.36 141.92 131.12C141.65 130.43 141.38 129.74 141.11 129.05H141.1Z" fill="#998394"/>
<path d="M137.229 131.64C136.139 131.66 134.989 131.9 133.979 131.63C132.659 131.28 132.099 129.73 132.559 128.52C133.039 127.28 134.459 126.52 135.689 127.16C136.619 127.65 137.309 128.59 138.109 129.34C137.819 130.11 137.519 130.87 137.229 131.64Z" fill="#F1F6F8"/>
<path d="M144.839 125.1C144.489 125.45 144.139 125.8 143.779 126.16C143.489 126.79 143.199 127.42 142.909 128.06L142.899 128.08C141.979 127.42 142.039 126.55 142.219 125.54C142.529 123.85 142.749 122.13 142.879 120.42C143.009 118.83 142.809 117.4 141.589 116.05C140.559 114.91 141.449 112.98 143.019 112.88C146.799 112.65 150.439 111.3 154.289 111.7C155.639 111.84 157.189 112.13 158.229 110.73C158.519 109.35 159.059 107.97 159.069 106.59C159.159 92.1001 159.169 77.6001 159.159 63.1101C159.159 62.2101 158.879 61.3101 158.709 60.3001C155.009 59.7101 151.549 59.9901 148.079 60.2701C145.719 60.4601 143.339 60.46 140.969 60.5401C140.019 59.7601 138.669 59.2801 138.789 57.5201C139.089 57.3601 139.459 57.1201 139.859 56.9601C141.849 56.1701 142.899 54.7701 142.889 52.5901C142.889 51.8101 142.979 50.9901 143.239 50.2601C143.349 49.9401 143.999 49.6101 144.379 49.6401C144.769 49.6601 145.389 50.0601 145.449 50.3901C145.659 51.4701 145.659 52.5901 145.759 53.7001C145.979 56.1501 146.629 56.9701 148.929 56.9801C151.139 56.9901 153.339 56.6601 155.549 56.5001C157.759 56.3301 159.979 56.1801 162.199 56.0301C162.779 56.1501 163.349 56.2701 163.929 56.3901C164.219 58.7501 164.549 61.1101 164.779 63.4801C165.019 65.9701 164.309 68.5501 165.399 70.9901C167.989 71.6501 170.239 70.7101 172.469 69.9601C174.029 69.4301 175.559 69.1301 177.139 69.5901C180.119 70.4601 181.149 73.6601 179.259 76.0501C177.699 78.0201 175.689 78.8201 173.339 77.8401C170.689 76.7301 168.109 76.9301 165.559 77.4901C164.639 80.2701 164.659 80.2701 165.729 82.6401C168.589 83.1501 171.219 82.87 173.789 81.04C175.969 79.48 177.259 79.8301 179.359 81.6301C179.839 82.0401 180.179 82.6001 180.589 83.0901C180.769 85.7901 179.539 87.7501 177.399 89.2401C176.159 89.1301 174.929 89.0301 173.689 88.9301C170.739 87.4001 167.969 88.6101 165.099 89.1701C164.719 91.2901 164.459 93.1301 165.419 95.0201C168.049 95.3601 170.439 94.9801 172.669 93.6201C173.879 93.4001 175.089 93.19 176.299 92.97C177.259 93.53 178.309 93.9701 179.149 94.6701C180.509 95.8 180.799 97.4001 180.319 99.0301C179.839 100.69 178.649 101.77 176.939 102.03C175.849 102.19 174.719 102.04 173.599 102.03C172.899 100.78 171.779 100.24 170.419 100.36C168.869 100.5 167.279 100.65 165.809 101.12C165.319 101.28 164.939 102.4 164.859 103.12C164.559 105.8 164.379 108.49 164.189 111.18C164.089 112.68 163.719 114 162.229 114.72C161.369 114.66 160.589 114.79 160.229 115.72L160.249 115.7C156.899 115.67 153.549 115.65 150.199 115.61C148.639 115.59 147.369 116.01 146.779 117.63L146.839 117.57C145.479 118.95 145.479 118.96 146.809 120.39L146.789 120.36C146.779 121.66 146.769 122.96 146.749 124.27C146.109 124.56 145.479 124.85 144.839 125.15V125.1Z" fill="#5686AF"/>
<path d="M180.6 83.0601C180.19 82.5701 179.851 82.01 179.371 81.6C177.271 79.79 175.981 79.4501 173.801 81.0101C171.231 82.8501 168.601 83.13 165.741 82.61C164.671 80.24 164.651 80.2401 165.571 77.4601C168.121 76.9001 170.691 76.7001 173.351 77.8101C175.701 78.7901 177.711 77.9901 179.271 76.0201C181.161 73.6301 180.131 70.4301 177.151 69.5601C175.561 69.1001 174.041 69.4001 172.481 69.9301C170.251 70.6801 168.011 71.6201 165.411 70.9601C164.321 68.5201 165.031 65.9401 164.791 63.4501C164.561 61.0801 164.231 58.72 163.941 56.36C163.711 55.32 162.931 55.1301 162.031 55.1201L161.581 55.16L161.141 55.05C161.821 53.78 162.731 52.6601 164.171 52.3401C166.271 51.8701 168.421 51.6401 170.541 51.2401C171.891 50.9901 173.221 50.61 174.551 50.29C175.521 51.1 176.611 51.8 177.441 52.73C183.981 60.03 188.631 68.4301 191.781 77.6801C191.931 78.1201 191.871 78.63 191.911 79.1C191.511 79.57 191.201 80.2001 190.701 80.4901C187.871 82.12 184.991 83.6701 181.951 85.3401C181.481 84.5501 181.031 83.79 180.581 83.04L180.6 83.0601Z" fill="#FE89FC"/>
<path d="M173.7 88.9004C174.94 89.0004 176.17 89.1101 177.41 89.2101C177.06 89.8901 176.63 90.5401 176.4 91.2501C176.23 91.7701 176.34 92.3701 176.32 92.9401C175.11 93.1501 173.9 93.3704 172.68 93.5904C173.46 92.4904 174.24 91.3804 175.16 90.0804C174.64 89.6604 174.17 89.2804 173.7 88.9004Z" fill="#F97EC9"/>
<path d="M148.81 123.21C148.51 123.19 148.2 123.17 147.89 123.15C147.52 122.21 147.15 121.26 146.78 120.32L146.799 120.35C146.809 119.41 146.82 118.47 146.83 117.53L146.77 117.59C150.51 116.13 154.39 116.49 158.26 116.68C157.86 116.92 157.45 117.38 157.06 117.36C153.99 117.22 151.99 118.75 150.62 121.33C150.01 121.96 149.41 122.58 148.799 123.21L148.81 123.21Z" fill="#D69AE1"/>
<path d="M158.279 116.68C154.409 116.48 150.529 116.13 146.789 117.59C147.379 115.98 148.649 115.56 150.209 115.57C153.559 115.61 156.909 115.63 160.259 115.66C159.599 116 158.939 116.34 158.279 116.68Z" fill="#6485AF"/>
<path d="M160.24 115.68C160.61 114.74 161.38 114.62 162.24 114.68C161.57 115.01 160.91 115.35 160.24 115.68Z" fill="#6485AF"/>
<path d="M174.57 50.2999C173.23 50.6199 171.91 50.9999 170.56 51.2499C168.44 51.6499 166.29 51.8799 164.19 52.3499C162.75 52.6699 161.84 53.7799 161.16 55.0599C156.59 55.0799 152.01 55.7099 147.24 54.8699C146.78 52.1899 146.39 49.7699 147.96 47.4199C148.48 46.6499 148.79 45.6999 149.04 44.7899C149.63 42.6399 148.43 40.0899 146.37 39.2899C145.7 39.0299 144.78 39.05 144.08 39.28C141.11 40.26 139.59 42.9 140.48 46.09C141.14 48.46 141.23 50.7899 141.13 53.1699C141.05 54.9699 140.27 55.6499 138.39 55.7899C137.76 55.8399 137.11 55.8199 136.48 55.7499C135.24 55.6099 134.41 54.7099 134.58 53.4699C134.9 51.1199 135.39 48.79 135.77 46.45C135.95 45.3699 136.27 44.2499 136.16 43.1799C135.82 40.0899 132.65 38.7199 130.1 40.5099C129.2 41.1399 128.42 41.9599 127.59 42.6899C127.59 40.6399 129.02 39.7199 130.51 38.7199C132.18 37.6099 133.8 37.9899 135.55 38.6699C137.98 36.2899 140.64 34.3499 143.73 33.0699C145.02 32.5399 145.74 31.5899 145.79 30.1699C147.39 30.8099 149.1 31.2599 150.58 32.1199C157.4 36.0999 164.01 40.4 170.09 45.45C171.77 46.84 173.09 48.6699 174.58 50.2999H174.57ZM140.06 51.0599C139.96 50.4799 139.96 49.65 139.64 48.96C139.41 48.47 138.68 47.8099 138.29 47.8799C137.63 48.0099 136.69 48.55 136.56 49.09C136.27 50.28 136.3 51.5799 136.41 52.8199C136.49 53.7499 137.33 54.0199 138.18 54.0099C139.06 53.9899 139.7 53.5999 139.88 52.6899C139.97 52.2299 139.99 51.7499 140.06 51.0599Z" fill="#FC99F4"/>
<path d="M21.9292 107.84C21.6192 106.62 21.1292 105.41 21.0292 104.17C20.8792 102.26 21.0792 100.33 20.9692 98.4199C20.4292 89.5899 22.8792 81.39 26.2492 73.39C26.6692 72.39 27.2292 71.4399 27.7192 70.4699C28.5692 71.3699 29.2593 72.5397 30.2893 73.1198C32.5293 74.3698 33.7193 76.2498 34.4293 78.5898C34.6993 79.4898 35.1193 80.3498 35.3093 81.2698C35.6393 82.8598 36.5793 83.6898 38.1393 84.0198C38.5393 84.1098 38.8693 84.5697 39.2293 84.8597C38.9093 85.1797 38.5793 85.4998 38.2593 85.8198C36.1193 86.9398 35.0793 88.8498 34.4893 91.0798C33.8393 93.5498 33.7893 95.9398 34.3493 98.5098C35.4493 103.59 36.8793 105.17 42.0893 105.97L42.1493 106.01C42.9693 106.35 43.7993 106.67 44.6093 107.05C44.7793 107.13 44.8593 107.41 44.9593 107.58C44.5693 108.19 43.1993 107.94 43.7893 109.49C44.6693 109.59 45.7093 109.64 46.7193 109.86C47.4393 110.02 48.0993 110.41 48.7893 110.69C43.8993 110.73 39.0093 110.58 34.1293 110.85C29.6993 111.09 25.7193 110 21.9493 107.85L21.9292 107.84Z" fill="#FF81FE"/>
<path d="M48.7689 110.68C48.0789 110.39 47.4189 110 46.6989 109.85C45.6989 109.63 44.6489 109.59 43.7689 109.48C43.1889 107.93 44.5589 108.18 44.9389 107.57C44.8289 107.4 44.7589 107.12 44.5889 107.04C43.7789 106.66 42.9489 106.34 42.1289 106C43.0789 105.99 44.0289 106.01 44.9689 105.96C47.8789 105.8 50.5289 105.02 52.5589 102.73C53.1789 102.04 53.9089 101.44 54.8089 100.6C56.2889 102.05 56.7989 103.87 57.6489 105.46C58.4589 106.97 59.1589 108.54 60.0989 110.45C58.6189 110.58 57.5689 110.67 56.5189 110.76C53.9389 110.73 51.3489 110.71 48.7689 110.68Z" fill="#FF97FB"/>
<path d="M78.4589 120.42C78.7889 121.3 79.0388 122.22 79.4688 123.04C80.3088 124.62 80.6388 126.27 80.4988 128.04C78.4688 128.13 76.2788 127.62 74.8588 129.8C71.3588 128.77 68.0289 127.79 64.6989 126.79C64.3989 126.7 64.0889 126.57 63.8289 126.4C59.9889 123.8 56.5688 120.81 54.5488 116.32C55.6288 115.33 56.5488 114.49 57.4688 113.65H57.4589C58.1089 113.36 58.7489 113.07 59.3989 112.78C65.0289 111.97 70.0188 113.69 74.7288 116.6C74.5188 117.02 74.2188 117.43 74.1188 117.87C73.6088 120.27 74.7688 121.46 77.1688 120.99C77.6188 120.9 78.0289 120.61 78.4589 120.41V120.42Z" fill="#FFCFB6"/>
<path d="M118.46 125.21C111.67 123 104.88 120.82 98.1003 118.58C96.1403 117.93 94.1803 117.25 92.3103 116.39C91.7203 116.12 91.4303 115.21 91.0003 114.6C90.9403 113.98 90.8903 113.35 90.8103 112.74C90.3403 109.25 86.1503 106.72 82.0103 109.16C81.2103 109.63 80.5503 110.31 79.8203 110.9C77.6803 111.75 75.5703 112.01 73.3003 111.16C72.1503 110.73 70.7903 110.86 69.5203 110.77C66.6603 110.58 64.3203 109.54 62.8203 106.94C60.9103 103.63 58.8703 100.39 57.0203 97.0497C56.5903 96.2697 56.5603 95.2098 56.5403 94.2698C56.4803 90.9198 56.4703 87.5598 56.5203 84.1998C56.5803 80.7197 57.7903 78.1197 61.5003 76.9697C64.4103 76.0697 66.8803 74.2897 68.9703 71.9697C74.9003 65.4097 81.7803 60.0497 89.5603 55.8197C93.4303 53.7097 96.4203 50.7497 97.9703 46.4397C98.8403 44.0297 98.9803 41.8297 97.7203 39.5497C97.0403 38.3197 96.5603 36.9897 96.0603 35.8597C96.4003 35.3297 96.5103 34.9197 96.7503 34.8197C99.3903 33.6597 102.24 33.5697 105.04 33.4197C106.75 33.3297 108.49 33.7897 110.22 34.0098C113.21 34.3997 116.18 34.8098 118.7 36.7698C119.77 37.5998 119.86 38.5798 119.86 39.7098C119.27 39.8998 118.56 39.9497 118.1 40.3097C115.17 42.5997 114.6 44.9398 116.12 48.5898C117 50.6898 117.55 52.7197 116.02 55.1297C114.05 55.1297 112.01 55.0297 109.99 55.1597C107.76 55.2997 105.57 55.6898 104.65 58.2098C103.33 60.1798 103.36 62.4197 103.34 64.6597C103.31 66.8897 103.34 69.1198 103.22 71.3398C103.16 72.3498 102.52 73.1797 101.44 73.2897C99.4003 73.4897 97.3003 73.9397 95.4803 72.4697C94.2903 71.5097 92.9203 71.2498 91.4403 71.3998C89.2403 71.6298 87.6103 73.3297 87.5203 75.4997C87.4303 77.5497 89.0103 79.7797 90.9303 80.1297C92.6703 80.4497 94.4303 80.5297 95.9303 79.2897C98.0703 79.5897 100.36 78.6197 102.44 80.0497C102.68 81.9397 103.27 83.7997 101.92 85.5397C99.1403 85.9897 96.5203 85.9697 94.0103 84.5697C92.7203 83.8497 91.3103 83.5497 90.0903 84.8497C88.8303 84.8697 88.1703 85.5098 88.1303 86.7698H88.1403C86.8803 88.0798 86.8703 89.3797 88.1803 90.6597L88.2003 90.6897C88.2403 91.8997 88.8303 92.5797 90.0703 92.6297L90.1003 92.6398C91.4103 94.0298 92.7203 93.9497 94.0203 92.6297L94.0003 92.6498C96.7303 91.8198 99.4503 90.9298 102.25 92.2698C102.4 92.8598 102.61 93.3098 102.63 93.7698C102.7 96.3298 102.17 96.9497 99.7703 97.1297C98.5003 97.2197 97.2203 97.2097 95.9503 97.2397C94.0603 95.6197 92.0503 95.1397 89.8503 96.6197C88.1403 97.7697 87.6103 100.12 88.6003 102.16C89.6103 104.22 91.8503 105.46 93.6903 104.57C96.3503 103.28 98.9603 102.35 101.98 103.3C103.27 104.66 103.41 106.39 103.42 108.16C103.42 109.6 103.29 111.06 103.52 112.46C103.74 113.84 104.23 115.21 104.82 116.48C105.56 118.06 106.95 118.76 108.72 118.72C111.11 118.67 113.51 118.6 115.9 118.64C118.12 118.68 118.8 119.31 118.85 121.49C118.88 122.74 118.61 124 118.47 125.25L118.46 125.21Z" fill="#FFC1FF"/>
<path d="M59.089 74.3001C54.549 74.2101 51.8496 71.76 50.6496 68.21C49.5396 64.92 50.4796 61.9 51.3596 58.93C52.1796 56.17 53.8896 53.85 56.4796 52.21C60.7896 49.49 65.0196 46.65 69.2096 43.76C70.7496 42.7 72.4296 41.83 73.3696 39.93C74.3196 38.03 76.1496 37.27 78.2496 38.2C79.4496 38.73 80.4096 38.34 81.4296 37.84C84.8396 36.19 88.2597 36.66 91.6497 37.86C95.3797 39.17 97.2196 43.1899 94.7896 47.1599C92.7096 50.5699 89.8796 53.0899 86.4996 54.9099C80.6596 58.0399 75.5396 62.02 71.0897 66.9C69.9097 68.2 68.6997 69.5 67.3397 70.61C64.6997 72.76 61.5996 73.8999 59.0796 74.2899L59.089 74.3001Z" fill="#FFC7FE"/>
<path d="M38.2487 85.8102C38.5687 85.4902 38.8987 85.1702 39.2187 84.8502C41.4087 84.2402 43.6087 83.6602 45.9187 83.9202C46.6887 84.4602 47.4287 85.0702 48.2487 85.5202C51.9987 87.5802 53.4987 90.9602 53.5887 94.9902C53.7087 99.9502 49.4487 104.52 44.4987 104.99C43.7087 105.07 42.9087 105 42.1087 105.01C38.9987 104.45 37.6087 101.79 35.7587 99.7202C35.4887 99.4102 35.4487 98.8202 35.4387 98.3602C35.3587 94.6002 34.8387 90.7502 37.7187 87.5802C38.0887 87.1702 38.0787 86.4102 38.2487 85.8102Z" fill="#FFB5FE"/>
<path d="M79.82 110.88C80.55 110.29 81.21 109.61 82.01 109.14C86.15 106.7 90.34 109.24 90.81 112.72C90.89 113.34 90.94 113.96 91 114.58C90.32 115.64 89.79 116.84 88.94 117.73C85.81 121.03 82.17 120.69 79.35 116.95C79.16 116.7 78.95 116.46 78.75 116.22C79.11 114.44 79.46 112.65 79.82 110.87V110.88Z" fill="#141767"/>
<path d="M104.629 58.1901C105.549 55.6701 107.739 55.2801 109.969 55.1401C111.999 55.0101 114.039 55.1101 115.999 55.1101C117.529 52.7001 116.979 50.6801 116.099 48.5701C114.579 44.9201 115.159 42.5801 118.079 40.2901C118.539 39.9301 119.249 39.8801 119.839 39.6901C122.329 39.4401 124.319 40.1601 125.589 42.4801C126.099 43.4101 126.929 42.7501 127.629 42.7001C127.589 44.4601 127.809 46.1301 128.589 47.7801C129.109 48.8801 129.349 50.2001 129.389 51.4301C129.539 55.6301 128.769 56.2101 124.099 55.4401C123.359 53.2101 123.499 50.9001 124.049 48.5601C124.329 47.3401 124.709 46.1001 124.739 44.8501C124.789 42.9501 123.539 41.3701 121.909 40.8701C120.439 40.4201 118.859 41.0001 117.709 42.4301C116.409 44.0401 115.899 45.7801 117.009 47.7001C118.459 50.2101 118.299 52.8001 117.719 55.7101C113.199 56.4301 108.619 55.9401 104.619 58.1701L104.629 58.1901Z" fill="#E6AFF0"/>
<path d="M38.2487 85.8102C38.0787 86.4102 38.0987 87.1702 37.7187 87.5802C34.8287 90.7402 35.3587 94.6002 35.4387 98.3602C35.4387 98.8202 35.4887 99.4102 35.7587 99.7202C37.6087 101.79 38.9987 104.45 42.1087 105.01C42.1087 105.33 42.0997 105.65 42.0797 105.97C36.8697 105.17 35.4397 103.58 34.3397 98.5101C33.7797 95.9401 33.8297 93.5501 34.4797 91.0801C35.0697 88.8501 36.1097 86.9401 38.2497 85.8201L38.2487 85.8102Z" fill="#FF97FB"/>
<path d="M78.4604 120.42C78.0304 120.62 77.6203 120.92 77.1703 121C74.7703 121.47 73.6103 120.27 74.1203 117.88C74.2203 117.43 74.5203 117.03 74.7303 116.61C76.1103 116.4 77.3603 116.73 78.4903 117.53C78.4803 118.49 78.4704 119.46 78.4604 120.42Z" fill="#FFEDEF"/>
<path d="M140.989 60.5298C143.359 60.4498 145.739 60.4498 148.099 60.2598C151.569 59.9798 155.029 59.7098 158.729 60.2898C158.899 61.2998 159.179 62.1998 159.179 63.0998C159.179 77.5898 159.179 92.0898 159.089 106.58C159.089 107.96 158.539 109.34 158.249 110.72C149.169 111.11 140.059 111.2 131.019 111.99C125.279 112.49 119.559 112.6 113.829 112.79C112.579 112.83 111.319 112.68 109.999 112.62C108.579 109.75 109.359 106.84 109.249 104.05C109.139 101.18 109.289 98.3098 109.329 95.4298C110.199 95.8798 111.079 96.1898 111.949 95.4298C112.029 96.2198 112.159 97.0098 112.179 97.8098C112.229 100.21 112.129 102.61 112.299 105C112.519 108.09 114.089 109.54 117.239 109.71C118.669 109.79 120.109 109.69 121.549 109.58C124.569 109.36 127.569 109.04 130.589 108.86C137.109 108.47 143.639 108.14 150.169 107.78C150.799 107.74 151.449 107.67 152.049 107.49C153.829 106.95 155.269 105.99 155.589 104C155.859 102.28 156.239 100.53 156.199 98.8098C156.069 92.9198 155.699 87.0298 155.549 81.1298C155.429 76.6598 155.569 72.1798 155.469 67.7098C155.389 64.1398 154.039 62.8098 150.439 62.8898C148.059 62.9398 145.699 63.4698 143.319 63.6098C136.159 64.0398 128.989 64.3498 121.829 64.7998C119.609 64.9398 117.389 65.2798 115.219 65.7598C113.039 66.2398 112.299 67.2498 112.199 69.4298C112.119 71.1798 112.179 72.9398 112.169 74.6998C112.119 79.6498 112.059 84.5898 111.999 89.5398C111.039 88.4798 111.339 87.1698 111.329 85.9398C111.289 80.7498 111.309 75.5598 111.279 70.3698C111.279 69.6398 111.549 68.7798 110.619 68.2698C110.189 68.3498 109.739 68.4298 109.279 68.5198C109.059 61.9598 109.059 62.0698 115.739 61.8098C124.169 61.4898 132.599 60.9698 141.029 60.5298H140.989Z" fill="#9EE6EF"/>
<path d="M127.169 127.21C125.339 127.17 124.049 126.35 122.969 125.05C121.959 123.82 121.769 122.5 122.419 121.05C123.449 118.77 125.079 117.28 127.449 116.28C130.079 115.17 133.979 116.99 134.729 120.53C135.129 122.44 133.879 125 131.699 125.99C130.289 126.63 128.679 126.82 127.159 127.22L127.169 127.21Z" fill="#0F1565"/>
<path d="M109.24 68.5098C109.7 68.4298 110.151 68.3398 110.581 68.2598C111.511 68.7698 111.24 69.6297 111.24 70.3597C111.27 75.5497 111.26 80.7397 111.29 85.9297C111.29 87.1598 111.001 88.4698 111.961 89.5298C111.951 91.4898 111.93 93.4597 111.92 95.4197C111.05 96.1897 110.17 95.8697 109.3 95.4197C109.28 86.4497 109.26 77.4698 109.23 68.4998L109.24 68.5098Z" fill="#E5E6EE"/>
<path d="M90.0801 84.8101C91.3001 83.5101 92.7101 83.8102 94.0001 84.5302C96.5101 85.9402 99.13 85.9501 101.91 85.5001C103.26 83.7601 102.66 81.9001 102.43 80.0101C100.35 78.5901 98.06 79.5601 95.92 79.2501C96.41 78.9001 96.89 78.2901 97.41 78.2501C99.13 78.1201 100.87 78.2001 102.87 78.2001C103.4 79.9201 104.01 81.5201 104.36 83.1801C104.79 85.2401 103.73 86.6301 101.62 86.7201C98.7901 86.8401 95.9401 87.1001 93.2801 85.5401C92.3801 85.0101 91.1601 85.0201 90.0901 84.7901L90.0801 84.8101Z" fill="#7B98BC"/>
<path d="M95.9188 97.2C97.1888 97.17 98.4688 97.1801 99.7388 97.0901C102.149 96.9101 102.669 96.29 102.599 93.73C102.589 93.27 102.379 92.82 102.219 92.23C99.4187 90.89 96.6888 91.78 93.9688 92.61C94.4788 91.27 95.4988 90.64 96.8888 90.63C98.7688 90.6 100.659 90.63 102.459 90.63C103.839 92.2 103.859 94.01 104.259 95.64C104.399 96.22 103.879 97.43 103.389 97.61C100.889 98.51 98.2988 99.18 95.9088 97.22L95.9188 97.2Z" fill="#7B98BC"/>
<path d="M93.869 88.6798C93.869 89.7898 93.2492 90.4604 92.1592 90.5204C90.8892 90.5904 90.0792 89.7404 90.1992 88.4604C90.2992 87.4104 91.0193 86.8103 92.1493 86.8603C93.2593 86.9103 93.8792 87.5603 93.8792 88.6803L93.869 88.6798Z" fill="#7B98BC"/>
<path d="M134.409 44.3698C133.609 45.1498 133.179 45.8501 132.569 46.1001C131.609 46.4801 130.489 45.3501 130.549 44.1601C130.599 43.2801 131.179 42.5801 132.029 42.8001C132.789 43.0001 133.419 43.6901 134.409 44.3801L134.409 44.3698Z" fill="#91C3D7"/>
<path d="M123 45.7599C121.9 46.3599 121.18 47.01 120.46 47.03C120.06 47.03 119.39 45.9999 119.29 45.3599C119.15 44.4599 120.41 43.5499 121.19 43.9399C121.79 44.2399 122.19 44.9199 123 45.7599Z" fill="#94C1D5"/>
<path d="M145.229 42.6198C145.489 42.9398 146.189 43.4101 146.269 43.9701C146.379 44.7601 145.159 45.6601 144.329 45.4201C143.859 45.2801 143.309 44.7301 143.169 44.2601C142.909 43.3601 143.719 42.6601 145.229 42.6301L145.229 42.6198Z" fill="#94CEDF"/>
<path d="M94.47 75.77C93.45 76.42 92.9 77.0099 92.26 77.1199C91.3801 77.2699 90.66 76.5899 90.67 75.7399C90.68 74.8999 91.4 74.2099 92.29 74.3799C92.92 74.4999 93.47 75.1 94.47 75.77Z" fill="#C3D1E0"/>
<path d="M94.0001 92.5898C92.7001 93.9098 91.3901 93.9898 90.0801 92.5998C91.3901 92.5998 92.6901 92.5998 94.0001 92.5898Z" fill="#7B98BC"/>
<path d="M88.1596 90.6097C86.8496 89.3297 86.8596 88.0297 88.1196 86.7197C88.1296 88.0197 88.1496 89.3097 88.1596 90.6097Z" fill="#7B98BC"/>
<path d="M88.1094 86.7198C88.1494 85.4498 88.8094 84.8198 90.0694 84.7998C89.7694 85.7998 89.1194 86.4498 88.1094 86.7198Z" fill="#7B98BC"/>
<path d="M90.0497 92.5904C88.8097 92.5404 88.2097 91.8604 88.1797 90.6504C88.7997 91.3004 89.4297 91.9404 90.0497 92.5904Z" fill="#7B98BC"/>
<path d="M162.039 55.1299C162.939 55.1299 163.719 55.3299 163.949 56.3699C163.369 56.2499 162.789 56.1299 162.219 56.0099C162.159 55.7199 162.099 55.4199 162.039 55.1299Z" fill="#FC99F4"/>
<path d="M146.79 120.32C147.16 121.26 147.53 122.21 147.9 123.15C147.52 123.51 147.14 123.87 146.76 124.22C146.77 122.92 146.78 121.62 146.8 120.31L146.79 120.32Z" fill="#6485AF"/>
<path d="M144.84 125.1C145.48 124.81 146.11 124.52 146.75 124.22C146.11 124.51 145.48 124.8 144.84 125.1Z" fill="#6485AF"/>
<path d="M142.92 128.05C143.21 127.42 143.5 126.79 143.79 126.15C143.5 126.78 143.21 127.41 142.92 128.05Z" fill="#6485AF"/>
<path d="M173.7 88.9004C174.17 89.2804 174.64 89.6604 175.16 90.0804C174.24 91.3904 173.46 92.4904 172.68 93.5904C170.46 94.9504 168.06 95.33 165.43 94.99C164.47 93.1 164.73 91.27 165.11 89.14C167.97 88.58 170.75 87.3704 173.7 88.9004Z" fill="#F492F7"/>
<path d="M146.85 117.53C146.84 118.47 146.83 119.41 146.82 120.35C145.49 118.92 145.49 118.91 146.85 117.53Z" fill="#6485AF"/>
<path d="M140.06 51.0599C139.99 51.7499 139.97 52.2199 139.88 52.6899C139.7 53.5999 139.06 53.9899 138.18 54.0099C137.33 54.0299 136.49 53.7599 136.41 52.8199C136.3 51.5799 136.27 50.28 136.56 49.09C136.69 48.55 137.64 48.0099 138.29 47.8799C138.67 47.8099 139.41 48.46 139.64 48.96C139.96 49.65 139.96 50.4799 140.06 51.0599Z" fill="#FFAAED"/>
<path d="M111.93 95.4301C111.94 93.4701 111.96 91.5101 111.97 89.5401C112.03 84.5901 112.09 79.6501 112.14 74.7001C112.16 72.9401 112.09 71.1801 112.17 69.4301C112.27 67.2401 113.01 66.2401 115.19 65.7601C117.36 65.2801 119.58 64.9401 121.8 64.8001C128.96 64.3501 136.13 64.0401 143.29 63.6101C145.67 63.4701 148.03 62.9401 150.41 62.8901C154 62.8101 155.36 64.1401 155.44 67.7101C155.54 72.1801 155.4 76.6601 155.52 81.1301C155.67 87.0201 156.03 92.9101 156.17 98.8101C156.21 100.54 155.84 102.28 155.56 104C155.24 105.99 153.8 106.95 152.02 107.49C151.42 107.67 150.77 107.74 150.14 107.78C143.61 108.15 137.09 108.47 130.56 108.86C127.54 109.04 124.53 109.37 121.52 109.58C120.09 109.68 118.64 109.78 117.21 109.71C114.06 109.54 112.49 108.09 112.27 105C112.1 102.61 112.2 100.21 112.15 97.8101C112.13 97.0201 112 96.2301 111.92 95.4301H111.93ZM148.49 99.4501C148.56 98.2001 148.7 96.7901 148.69 95.3801C148.68 89.0001 148.63 82.6201 148.58 76.2301C148.53 70.4401 148.42 70.3001 142.65 70.5901C137.08 70.8601 131.52 71.1901 125.96 71.6201C123.77 71.7901 121.61 72.2801 119.22 72.6601C119.09 74.1001 118.87 75.3301 118.87 76.5701C118.87 82.9501 118.94 89.3301 118.99 95.7201C118.99 97.0001 118.97 98.2801 119.08 99.5501C119.24 101.43 119.93 102.07 121.83 102.17C122.78 102.22 123.75 102.19 124.7 102.13C131.06 101.77 137.42 101.41 143.78 101C145.35 100.9 146.95 100.71 148.5 99.4701L148.49 99.4501Z" fill="#6286AF"/>
<path d="M148.49 99.4501C146.94 100.69 145.349 100.88 143.769 100.98C137.409 101.39 131.049 101.75 124.689 102.11C123.739 102.16 122.769 102.2 121.819 102.15C119.919 102.05 119.229 101.41 119.069 99.5298C118.959 98.2598 118.989 96.9798 118.979 95.6998C118.929 89.3198 118.869 82.9398 118.859 76.5498C118.859 75.3198 119.069 74.0798 119.209 72.6398C121.599 72.2598 123.759 71.7598 125.949 71.5998C131.509 71.1798 137.069 70.8498 142.639 70.5698C148.419 70.2898 148.519 70.4198 148.569 76.2098C148.629 82.5898 148.669 88.9698 148.679 95.3598C148.679 96.7698 148.539 98.1698 148.479 99.4298L148.49 99.4501ZM127.439 78.1198C127.029 77.6798 126.529 76.7898 125.779 76.4698C125.229 76.2398 124.189 76.5598 123.669 76.9898C122.419 78.0398 122.459 80.0498 123.649 81.1698C123.949 81.4498 124.529 81.6598 124.929 81.5798C126.209 81.3398 127.429 79.7598 127.439 78.1098V78.1198ZM122.599 94.1898C122.959 94.7098 123.289 95.6798 123.949 96.0598C124.819 96.5498 126.089 95.6298 126.419 94.4898C126.549 94.0498 126.689 93.4898 126.529 93.1098C126.249 92.4398 125.859 91.6998 125.289 91.3198C124.699 90.9198 123.259 91.7398 122.979 92.4698C122.819 92.8998 122.769 93.3798 122.589 94.1998L122.599 94.1898Z" fill="#BDFEFF"/>
<path d="M127.439 78.1198C127.429 79.7698 126.219 81.3503 124.929 81.5903C124.539 81.6603 123.959 81.4603 123.649 81.1803C122.459 80.0603 122.419 78.0403 123.669 77.0003C124.189 76.5703 125.229 76.2403 125.779 76.4803C126.529 76.8003 127.029 77.6903 127.439 78.1303L127.439 78.1198Z" fill="#93D4E3"/>
<path d="M122.599 94.1898C122.779 93.3698 122.83 92.8902 122.99 92.4602C123.27 91.7302 124.71 90.9101 125.3 91.3101C125.87 91.6901 126.26 92.4401 126.54 93.1001C126.7 93.4801 126.55 94.0401 126.43 94.4801C126.1 95.6201 124.83 96.5501 123.96 96.0501C123.29 95.6701 122.96 94.7101 122.61 94.1801L122.599 94.1898Z" fill="#8FD4E3"/>
</svg>
