<svg width="714" height="371" viewBox="0 0 714 371" fill="none" xmlns="http://www.w3.org/2000/svg">
<path d="M120.03 262.84C122.59 266.27 125.38 269.57 127.67 273.17C133.26 281.96 130.22 296.14 119.58 302.37C111.8 306.93 103.32 309.08 94.34 308.58C79.8 307.76 66.4901 303.25 54.6701 294.58C48.9601 290.4 43.99 285.45 39.45 280.06C31.98 271.19 26.3 261.21 21.36 250.79C12.89 232.94 6.75008 214.33 3.43008 194.83C0.790082 179.35 -0.870021 163.81 0.949979 148.08C1.51998 143.15 2.4 138.29 3.97 133.57C4.85 130.92 6.29001 128.72 8.48001 126.94C21.64 116.27 36.23 113.95 52.14 119.43C55.48 120.58 58.61 122.18 61.47 124.27C66.19 127.72 69.2501 132.23 70.1801 138.08C70.3801 139.34 70.67 140.59 70.84 141.86C71.18 144.43 72.51 145.93 75.44 146.09C75.96 145.51 76.54 144.78 77.22 144.15C78.15 143.28 79.06 142.35 80.14 141.7C82.99 139.97 85.86 139.82 88.59 142.02C89.33 142.62 90.03 143.26 90.76 143.88C93.46 144 95.8801 143.06 98.3001 142.37C109.06 139.33 119.78 136.16 130.53 133.06C131.74 132.71 133.01 132.52 134.25 132.26C135.64 132.2 137.25 132.91 138.17 131.17L138.08 131.22C139.21 131.37 140.37 131.61 141.1 130.35L141.07 130.36C143.563 130.56 145.213 131.893 146.02 134.36V134.33C144.65 134.38 143.07 133.72 142.15 135.42L142.25 135.36C141.11 135.23 139.95 135 139.24 136.29C138.83 136.52 138.45 136.85 138.01 136.98C123.74 141.1 109.46 145.2 95.1801 149.31C94.1401 149.61 93.14 150.01 91.98 150.41C91.98 151.55 91.86 152.51 92 153.42C92.87 158.94 93.86 164.42 95.87 169.68C101.37 184.09 108.54 197.6 117.7 210.02C118.17 210.66 118.6 211.32 118.88 211.73C125 211.03 130.55 210.41 136.09 209.75C136.37 209.72 136.63 209.45 136.9 209.29C137.05 209.02 137.26 208.76 137.33 208.47C137.44 208.01 137.5 207.53 137.52 207.05C137.83 200.93 137.29 194.94 135.33 189.08C134.73 187.29 134.5 185.36 134.27 183.48C134.09 182.05 134.92 181.03 136.22 180.5C138.18 179.7 140.14 179.37 142.29 179.98C146.99 181.32 149.94 184.48 151.72 188.82C153.52 193.21 153.77 197.81 153.23 202.49C153.05 204.02 152.43 205.57 153.15 207.23C154.98 207.47 156.68 207.52 158.44 206.72C158.68 205.64 159.01 204.57 159.13 203.47C159.69 198.37 159.67 193.26 158.96 188.17C158.78 186.9 158.49 185.65 158.42 184.38C158.26 181.21 161.36 178.22 164.49 178.44C169.56 178.8 173.34 181.98 174.72 187.1C175.65 190.54 175.68 194.04 175.27 197.57C174.98 200.06 174.44 202.54 174.67 205.29H179.2C179.65 204.14 180.14 203.14 180.44 202.1C181.67 197.9 181.96 193.61 181.5 189.28C181.19 186.42 182.66 184.72 185 183.62C189.67 181.42 194.17 183.65 195.3 188.69C195.58 189.93 195.76 191.23 195.71 192.49C195.59 195.36 195.26 198.21 195.09 201.08C195.01 202.45 194.26 203.86 195.35 205.36C196.22 205.4 197.17 205.56 198.09 205.46C201.58 205.08 205.06 204.64 208.53 204.18C209.46 204.06 210.37 203.78 211.28 203.58C215.9 203.5 220.52 203.39 225.14 203.34C243.82 203.16 262.48 203.81 281.15 204.52C283.37 204.6 285.61 204.47 287.84 204.44C289.23 204.66 290.62 204.98 292.02 205.08C296.6 205.43 301.2 205.66 305.78 206C311.31 206.41 316.84 206.87 322.36 207.31C322.96 207.51 323.55 207.81 324.16 207.88C329.86 208.59 335.57 209.29 341.28 209.92C342.69 210.08 344.13 209.97 345.56 209.98C353.51 210.69 361.46 211.4 369.42 212.11C370.49 212.34 371.56 212.71 372.64 212.76C375.82 212.9 379 212.97 382.18 212.98C395.71 213.01 409.21 212.13 422.66 210.83C430.72 210.05 438.7 208.52 446.72 207.31C449.07 206.95 451.41 206.51 453.76 206.11C457.52 206.31 461 205.33 464.3 203.58C464.42 203.52 464.46 203.32 464.54 203.19L464.48 203.23C465.62 203.38 466.78 203.59 467.43 202.27L467.38 202.3C469.38 202.62 471 201.98 472.24 200.38L472.21 200.4C473.05 200.51 473.76 200.34 474.2 199.53H474.23C477.21 200.6 477.32 200.79 476.51 203.48C476.42 203.78 476.29 204.07 476.18 204.37C473.33 204.61 470.54 205 468.5 207.33L468.56 207.3C467.42 207.15 466.28 206.97 465.61 208.26L465.66 208.24C463.11 207.86 460.86 208.54 458.89 210.2C458.47 210.41 458.07 210.72 457.62 210.83C448.45 213.07 439.21 214.97 429.81 215.84C419.15 216.83 408.49 217.81 397.8 218.36C390.15 218.76 382.46 218.68 374.81 218.4C367.79 218.14 360.78 217.41 353.78 216.74C343.28 215.73 332.78 214.7 322.3 213.49C309.59 212.02 296.85 210.91 284.07 210.46C269.7 209.96 255.32 209.57 240.94 209.16C225.42 208.72 209.96 209.16 194.65 212.12C192.91 212.46 191.77 213.16 191.06 214.82C190.24 216.72 189.25 218.56 188.21 220.35C185.52 224.95 182.16 228.99 177.9 232.22C176.76 233.08 175.49 233.78 174.22 234.43C172.96 235.07 171.68 234.79 170.63 233.92C169.55 233.03 169.2 231.78 169.63 230.46C170.07 229.1 170.64 227.77 171.19 226.45C173.05 222.03 174.94 217.63 176.77 213.21C176.92 212.84 176.72 212.32 176.67 211.71H172.49C172.13 212.5 171.84 213.06 171.6 213.64C168.85 220.21 164.72 225.88 159.98 231.12C158.83 232.39 157.37 233.52 155.83 234.25C153.57 235.32 151.15 233.51 151.33 231C151.42 229.76 151.87 228.51 152.29 227.32C153.63 223.56 155.06 219.83 156.38 216.06C156.67 215.22 157.17 214.22 155.84 213.21C154.42 213.47 152.74 213.77 151.13 214.07C150.28 216.26 149.57 218.2 148.78 220.12C147.13 224.13 145.19 227.98 142.29 231.25C141.45 232.2 140.54 233.13 139.51 233.86C138.01 234.91 136.32 235.46 134.58 234.36C132.88 233.28 132.46 231.59 132.79 229.75C133.1 228.02 133.61 226.34 134.05 224.63C134.75 221.87 135.47 219.11 136.23 216.13C131.73 215.57 127.73 216.71 123.7 217.15C123.41 217.77 123.09 218.16 123.03 218.6C122.49 222.23 120.02 223.59 116.75 224.18C114.58 224.57 112.57 224.33 110.89 222.87C109.33 221.51 107.75 220.13 106.44 218.55C104.71 216.46 103.18 214.21 101.68 211.95C95.3201 202.35 89.23 192.61 85.12 181.76C81.95 173.37 79.87 164.66 77.51 156.04C77.18 154.84 76.7801 153.66 76.4301 152.55C75.2601 152.24 74.3501 151.92 73.4101 151.77C68.4201 151 66.01 147.78 65.12 143.11C64.91 142.01 64.7201 140.91 64.5501 139.8C63.4801 132.94 59.39 128.71 52.98 126.5C52.62 126.21 52.3 125.82 51.89 125.63C44.98 122.52 37.7001 121.76 30.3001 122.93C25.2201 123.73 20.44 125.63 16.08 128.43C12.18 130.93 9.51997 134.24 8.43997 138.97C6.93997 145.56 6.29006 152.22 6.03006 158.93C5.71006 167.1 6.56998 175.21 7.57998 183.31C10.58 207.5 17.64 230.45 28.49 252.25C33.06 261.44 38.3901 270.14 45.1601 277.91C56.2501 290.63 69.76 299.16 86.6 301.89C91.97 302.76 97.36 303.56 102.77 302.13C103.91 302.36 104.97 302.26 105.86 301.43L106.23 301.47L106.5 301.22C110.06 300.85 113.31 299.46 116.3 297.67C123.62 293.28 126.58 284.09 122.94 276.9C121.67 274.39 119.74 272.21 118.12 269.88C116.71 267.59 115.3 265.3 113.88 263.01C114.94 263.55 115.95 264.23 117.07 264.59C117.71 264.8 118.59 264.67 119.2 264.37C119.61 264.17 119.73 263.39 119.98 262.87L120.03 262.84ZM164.09 215.73C164.42 215.12 164.75 214.51 165.09 213.89C165.21 213.43 165.24 212.92 165.46 212.52C168.76 206.5 169.62 199.92 169.75 193.22C169.79 191.21 169.29 189.11 168.61 187.2C168.04 185.61 166.78 184.36 164.49 184.66C164.72 186.93 164.98 188.95 165.11 190.98C165.54 197.34 165.22 203.67 164.05 209.94C163.27 210.82 163.11 211.85 163.31 212.97C163.2 213.25 163.15 213.53 163.14 213.83C161.99 216.29 162.03 216.29 162.51 218.77C163.16 217.52 163.62 216.62 164.08 215.72L164.09 215.73ZM182.33 218.63C188.18 210.7 190.02 201.59 190.01 191.98C190.01 191.07 189.6 190.15 189.29 189.26C189.23 189.08 188.74 188.93 188.46 188.96C188.19 188.99 187.78 189.22 187.72 189.44C187.53 190.2 187.36 190.99 187.39 191.76C187.52 196.28 186.92 200.68 185.51 204.98C184.12 209.22 182.75 213.46 181.38 217.7C180.16 218.84 180 220.32 180.15 222.07C180.83 221.82 181.15 221.29 181.41 220.74C181.74 220.05 182.02 219.34 182.32 218.64L182.33 218.63ZM86.4301 158.23C86.3801 157.28 86.3801 156.33 86.2801 155.38C86.0301 152.85 85.78 150.32 85.46 147.79C85.35 146.95 84.79 146.27 83.86 146.39C82.96 146.51 82.54 147.24 82.59 148.13C82.77 151.29 82.8901 154.46 84.3001 157.4C85.1801 163.56 87.03 169.48 88.98 175.36C91.39 182.6 94.24 189.66 98.69 195.96C102.15 203 106.6 209.4 111.39 215.57C111.97 216.32 112.7 216.97 113.46 217.54C113.88 217.85 114.45 218.48 115.23 217.47C114.82 216.6 114.47 215.56 113.89 214.67C112.59 212.67 111.11 210.77 109.81 208.77C106.78 204.09 103.82 199.38 100.83 194.68C99.01 190.95 97.17 187.24 95.39 183.49C91.53 175.38 88.7001 166.9 86.4101 158.23H86.4301ZM141.35 221.37C142.1 220.34 142.44 219.98 142.64 219.57C145.82 213.01 147.27 206.01 147.63 198.8C147.74 196.61 147.3 194.36 146.82 192.2C146.28 189.81 144.98 187.78 142.82 186.48C142.36 186.2 141.72 186.2 140.88 186C141.65 190.07 142.62 193.75 142.98 197.49C143.35 201.44 143.37 205.46 143.1 209.42C142.85 213.2 142.03 216.94 141.35 221.38V221.37Z" fill="#0D166F"/>
<path d="M146.02 134.35C145.214 131.89 143.564 130.557 141.07 130.35C143.79 129.47 146.46 128.43 149.23 127.74C165.67 123.64 182.18 119.86 198.83 116.69C201.65 116.15 204.44 115.46 207.5 114.78C210.48 110.24 212.88 105.19 215.45 100.24C215.93 99.3199 215.86 98.4699 215.54 97.4899C214.77 95.1099 215.02 92.7299 215.98 90.4599C217.08 87.8699 218.62 85.6299 221.65 85.1199C223.47 84.8199 224.33 83.6399 225.14 82.1899C233.59 67.0799 243.51 52.9699 254.3 39.4599C255.6 37.8399 256.94 36.2499 258.31 34.6899C260.1 32.6399 261.5 30.7199 261.53 27.5899C261.57 23.2799 266.02 19.2099 270.53 19.1099C273.25 19.0499 275.01 17.8899 276.86 16.3299C282.63 11.4799 288.7 7.02993 295.69 4.08993C298.62 2.85993 301.69 1.80993 304.8 1.19993C315.4 -0.900069 324.69 4.65993 328.08 14.9399C329.55 19.3899 330.13 24.0199 329.96 28.6599C329.76 34.0799 329.35 39.5099 328.64 44.8899C327.57 52.9699 326.05 60.9899 324.92 69.0599C323.34 80.3999 325.73 95.0299 332.34 106.2C333.12 106.46 334 106.93 334.93 107.03C340.23 107.59 345.09 109.59 350.1 111.2C361.66 114.92 373.32 118.33 384.98 121.71C404.62 127.41 424.41 132.67 443.49 140.13C453.01 143.85 462.41 147.9 471.82 151.91C474 152.84 476 154.2 478.08 155.36C480.41 158.08 483.46 159.42 486.91 160L486.88 159.96C486.48 162.38 485.137 163.74 482.85 164.04L482.76 164.13C482.46 163.66 482.15 163.2 481.85 162.73L479.91 162.16L479.95 162.18C479.6 161.26 478.86 161.11 478 161.19L478.03 161.21C477.66 160.34 476.94 160.15 476.09 160.2C475.12 159.87 474.15 159.54 473.18 159.21C472.96 158.98 472.78 158.66 472.52 158.54C461.93 153.64 451.16 149.2 440.24 145.11C439.51 144.84 438.7 144.77 437.92 144.61V144.66L435.85 143.85C434.89 143.51 433.94 143.17 432.98 142.83L433.01 142.84C432.04 142.51 431.08 142.17 430.11 141.84C428.65 141.23 427.23 140.49 425.72 140.03C411.95 135.87 398.2 131.63 384.38 127.65C369.63 123.4 354.83 119.36 340.38 114.12C339.41 113.77 338.32 113.79 336.76 113.56C337.26 114.61 337.42 115.22 337.78 115.67C339.27 117.54 340.8 119.39 342.36 121.2C342.98 121.92 343.78 122.49 344.37 123.24C345.04 124.09 344.96 125.56 344.35 126.4C343.71 127.27 342.37 127.83 341.36 127.33C340.1 126.71 338.75 126 337.83 124.97C335.8 122.72 333.85 120.36 332.17 117.84C326.27 108.97 322.09 99.3799 319.76 88.9299C317.91 80.6599 318.3 72.4699 319.37 64.2099C319.88 61.3099 320.39 58.3999 320.9 55.4999C321.06 55.2299 321.33 54.9699 321.36 54.6799C322.32 46.9199 323.4 39.1799 324.13 31.3999C324.59 26.4499 324.08 21.4899 322.49 16.7399C321.31 13.1999 319.5 10.0499 315.78 8.52993C315.1 7.53993 314.11 7.35993 313.01 7.42993L313.08 7.46993C310.38 5.85993 307.54 6.49993 304.79 7.14993C296.07 9.20993 288.84 13.9999 282.18 19.7699C280.51 20.4699 279.32 21.6599 278.28 23.2899C278.89 23.9299 279.39 24.5299 279.96 25.0499C284.64 29.2399 287.18 34.6399 288.77 40.5699C289.26 42.4099 289.65 44.2799 290.08 46.1299C290.1 51.3999 290.13 56.6799 290.15 61.9499C290.07 63.0499 290 64.1499 289.92 65.2499C289.65 66.1599 289.39 67.0699 289.11 67.9799C287.85 71.9099 286.92 75.9899 285.27 79.7499C280.04 91.5999 271.21 99.5999 258.8 103.58C253.61 105.24 248.28 106.01 242.88 106.54C239.24 106.08 235.54 105.88 231.98 105.09C228.46 104.31 225.07 102.92 221.5 101.77C220.8 102.99 220.14 104.08 219.54 105.19C215.72 112.22 212.59 119.56 209.54 126.94C209.11 127.97 208.75 129.04 208.21 130.01C207.21 131.78 205.68 132.43 204.27 131.81C202.76 131.15 202.28 129.76 202.95 127.74C203.3 126.68 203.82 125.68 204.18 124.62C204.46 123.79 204.62 122.92 204.92 121.7C203.69 121.82 202.92 121.83 202.17 121.98C195.44 123.35 188.71 124.71 182 126.16C178.9 126.83 175.85 127.67 172.77 128.43L172.84 128.41C171.41 128.35 170 128.38 168.8 129.36C163.54 130.23 158.31 131.23 153.31 133.17C150.89 133.56 148.47 133.95 146.05 134.34L146.02 134.35ZM284.29 51.4799C284.25 50.9099 284.21 50.3399 284.16 49.7699C284.39 47.7199 284.34 45.7199 283.3 43.8599C283.23 43.2299 283.19 42.5999 283.07 41.9699C281.83 35.1799 277.31 30.4199 272.89 25.6199C272.02 24.6699 270.89 24.5699 269.85 25.1899C269.1 25.6399 268.54 26.3999 267.69 27.2199C268.98 28.3199 269.96 29.3999 271.15 30.1199C273.69 31.6799 275.51 33.9099 276.78 36.4599C278.48 39.8599 279.81 43.4399 281.3 46.9399C281.56 48.2899 281.82 49.6399 282.09 50.9899C281.95 51.2599 281.98 51.4999 282.18 51.7299C281.92 56.1799 281.65 60.6299 281.39 65.0699C281.01 66.2799 280.64 67.4999 280.25 68.7099C277.23 78.1299 271.65 85.6199 263.48 91.2199C257.54 95.2899 250.91 97.2199 243.84 97.9099C242.89 97.8199 241.94 97.7299 240.99 97.6399C235.37 97.1299 229.87 96.2999 225.51 92.1999C225.05 91.7699 224.48 91.4199 223.9 91.1899C223.5 91.0299 222.93 91.0099 222.53 91.1599C221.29 91.6299 220.74 94.0099 221.71 94.7999C222.57 95.4999 223.51 96.1499 224.52 96.5899C231.52 99.6399 238.83 101 246.47 100.46C247.08 100.42 247.68 100.13 248.28 99.9599C267.79 97.7099 280.41 84.6599 283.48 65.7899C283.93 62.2499 284.46 58.7099 284.78 55.1499C284.89 53.9499 284.47 52.6999 284.29 51.4799ZM262.27 39.2499C262.01 39.4399 261.71 39.5799 261.51 39.8099C249.8 54.0099 239.22 68.9899 230.21 85.0599C229.69 85.9899 228.9 86.8699 229.13 88.0699C244.87 98.5399 269.73 86.8899 274.66 66.2799C278.35 56.2899 276.43 46.9899 271.1 38.1599C270.11 36.5199 268.62 35.3299 266.78 34.4299C264.86 35.7699 263.26 37.2099 262.27 39.2499Z" fill="#0D197D"/>
<path d="M120.03 262.84C119.78 263.36 119.66 264.14 119.25 264.34C118.64 264.64 117.75 264.77 117.12 264.56C116 264.2 114.99 263.52 113.93 262.98C112.75 261.1 111.53 259.25 110.41 257.35C107.56 252.53 108.4 248.16 112.8 244.71C114.72 243.2 116.92 242.3 119.27 241.7C123.18 240.71 127.16 240.42 131.17 240.57C139.67 240.89 148.01 242.29 156.28 244.25C164.21 246.13 172.15 247.98 180.09 249.82C183.2 250.54 186.28 251.37 189.55 251.1C191.57 250.93 192.73 252.07 193.39 253.99C194.27 256.55 195.3 259.07 196.44 261.53C200.63 270.51 204.75 279.53 209.17 288.4C212.73 295.55 216.51 302.6 220.52 309.51C230.56 326.79 243.79 341.15 260.49 352.21C265.54 355.55 270.62 358.91 276.49 360.74C280.69 363.11 285.24 364.3 290.03 364.62C293.45 364.85 295.79 363.24 297.14 360.15C297.52 359.28 297.87 358.38 298.05 357.46C299.19 351.81 299.27 346.17 297.66 340.57C297.84 338.84 297.77 337.16 296.75 335.66C296.26 333.16 295.87 330.63 295.27 328.16C292.14 315.39 287.271 303.22 282.361 291.06C277.751 279.65 273.28 268.18 269.68 256.4C268.75 253.35 267.85 250.28 267.01 247.2C266.45 245.17 267.04 243.72 268.51 243.14C269.86 242.61 271.49 243.37 272.36 245.18C272.97 246.47 273.3 247.89 273.77 249.24C274.18 250.41 274.61 251.56 274.97 252.56C283.45 254.32 291.7 255.37 300 255.8C325.46 257.11 350.861 256.13 376.121 252.87C393.551 250.62 410.9 247.7 428.26 244.89C438.24 243.28 448.19 241.95 458.31 243.32C459.56 243.49 460.91 243.24 461.8 244.46C462.62 245.48 463.44 246.51 464.29 247.57C463.99 249.03 462.84 249.76 461.67 250.46H461.69C461.24 249.12 460.25 248.47 458.89 248.43C457.81 248.4 456.73 248.52 455.66 248.57C455.34 248.62 455.02 248.74 454.71 248.71C445.68 247.8 436.88 249.46 428.02 250.81C408.42 253.8 388.93 257.5 369.2 259.56C350.9 261.47 332.531 262.29 314.121 262.11C302.261 262 290.48 261.14 278.77 259.23C278.33 259.16 277.86 259.27 277.28 259.31C277.02 260.87 277.631 262.15 278.121 263.45C281.411 272.12 284.61 280.82 288.02 289.44C292.37 300.44 296.85 311.39 299.9 322.85C302 330.73 304.03 338.64 304.48 346.83C304.64 349.69 304.5 352.58 304.29 355.44C304.08 358.34 303.17 361.09 301.78 363.64C299.55 367.74 296.13 370.05 291.41 370.33C288.01 370.54 284.73 369.91 281.48 368.95C274.53 366.9 268.09 363.74 261.91 360C243.65 348.94 229.01 334.25 217.67 316.18C211.63 306.55 206.37 296.5 201.53 286.22C197.31 277.25 193.16 268.26 188.96 259.28C188.63 258.57 188.2 257.91 187.8 257.2C175.88 255.2 164.26 252.35 152.65 249.36C145.52 247.53 138.2 246.65 130.83 246.37C127.3 246.24 123.79 246.39 120.37 247.42C119.31 247.74 118.22 248.1 117.26 248.64C114.97 249.95 114.45 251.37 115.49 253.84C116.35 255.9 117.46 257.85 118.46 259.85C118.96 260.84 119.48 261.82 119.98 262.8L120.03 262.84Z" fill="#0F1569"/>
<path d="M688.091 159.17C686.011 162.66 682.651 164.91 679.821 167.65C670.451 176.72 662.521 186.85 656.721 198.56C654.671 202.71 652.981 207.01 651.741 211.5C650.331 216.59 650.361 221.56 652.211 226.53C653.771 230.71 655.341 234.9 656.731 239.14C657.921 242.79 658.601 246.55 658.481 250.43C658.401 253.19 657.801 255.82 656.681 258.31C654.531 263.11 650.871 265.81 645.501 265.91C642.621 265.96 639.791 265.68 637.001 264.81C629.401 262.46 622.561 258.79 616.791 253.31C611.481 248.25 606.331 243.02 601.111 237.86C600.321 237.07 599.521 236.29 598.791 235.44C597.621 234.08 596.141 233.8 594.461 234.01C590.191 234.54 585.911 235.07 581.631 235.54C576.561 236.09 571.481 236.6 566.401 237.08C565.461 237.17 564.491 237.05 563.541 237.02C564.101 236.32 564.661 235.61 565.341 234.77C564.651 233.85 564.041 233.03 563.371 232.13C558.761 233.72 554.211 232.97 549.701 232.98C549.181 232.98 548.661 232.4 548.141 232.09C550.681 231.91 553.221 231.56 555.761 231.57C564.241 231.62 572.641 230.72 581.031 229.68C585.781 229.09 590.561 228.68 595.311 228.12C598.411 227.75 600.591 228.72 602.781 231.18C608.831 237.98 615.251 244.45 622.251 250.31C627.611 254.8 633.711 257.85 640.481 259.5C642.011 259.87 643.641 259.92 645.221 259.95C647.901 260 649.721 258.53 650.981 256.3C651.371 255.62 651.571 254.82 651.831 254.08C653.321 249.93 652.551 245.79 651.291 241.84C649.121 235.01 646.571 228.31 644.181 221.56C644.181 220.93 644.131 220.28 644.211 219.66C645.801 208.52 649.671 198.2 655.461 188.58C656.521 186.82 657.491 185 658.501 183.21C658.921 182.74 659.401 182.32 659.761 181.81C665.261 174.1 671.651 167.18 678.501 160.67C680.231 159.02 681.861 157.26 683.541 155.55C684.091 155.4 684.651 155.25 685.201 155.1C684.771 156.07 684.341 157.05 684.011 157.8C684.871 160.35 686.561 159.39 688.061 159.17H688.091Z" fill="#A159A9"/>
<path d="M688.091 159.17C686.601 159.39 684.91 160.35 684.04 157.8C684.37 157.05 684.8 156.08 685.23 155.1C687.17 153.25 689.12 151.4 691.06 149.55C694.04 149.14 695.5 146.95 696.83 144.62C698.04 143.35 699.24 142.07 700.45 140.81C702.22 138.96 704.01 137.14 705.75 135.27C706.29 134.69 706.72 133.99 706.22 133.14C705.94 132.99 705.66 132.71 705.39 132.73C695.52 133.3 686.34 136.25 677.65 140.88C677.05 141.06 676.41 141.15 675.86 141.43C668.39 145.18 660.92 148.95 653.48 152.75C652.81 153.09 652.29 153.73 651.7 154.24H651.74C651.09 154.59 650.45 154.94 649.8 155.28L649.84 155.25C649.2 155.59 648.56 155.93 647.92 156.27H647.93C646.61 156.4 645.61 157.06 644.86 158.13C638.02 161.57 631.82 165.96 625.81 170.67C625.48 170.92 625.15 171.16 624.81 171.41C623.86 172.12 622.9 172.84 621.95 173.55C621.29 174.08 620.63 174.62 619.97 175.15C619.04 175.9 618.12 176.65 617.19 177.4C607.73 184.46 598.29 191.56 589.88 199.86C587.18 202.53 584.66 203.06 581.32 201.48C579.32 200.54 577.1 200.04 574.99 199.32C569.58 197.48 564.17 195.62 558.76 193.77C560.63 193.58 560.98 191.85 561.94 190.66C561.51 190.05 561.09 189.45 560.66 188.84C561.89 189.14 563.14 189.36 564.34 189.75C571.16 191.96 577.97 194.21 584.81 196.45C588.72 193.04 592.47 189.57 596.42 186.36C607.57 177.29 618.53 167.97 630.51 159.97C646.5 149.3 663.34 140.19 681.07 132.75C687.56 130.03 694.24 127.83 701.3 127.1C703.2 126.9 705.12 126.87 707.03 126.78C708.7 126.7 710.15 127.37 711.5 128.27C713.79 129.79 714.41 131.46 713.3 134C712.61 135.59 711.71 137.16 710.59 138.47C707.06 142.57 703.57 146.74 698.77 149.51C697.97 149.97 697.41 150.83 696.73 151.5C694.45 151.92 693.18 153.54 692.12 155.4C690.77 156.66 689.42 157.91 688.07 159.17L688.091 159.17Z" fill="#7A479F"/>
<path d="M482.84 164.03C485.127 163.73 486.47 162.37 486.87 159.95C488.02 160.43 489.2 160.84 490.3 161.41C494.89 163.81 499.45 166.27 504.02 168.7C505.28 170.28 506.89 170.96 508.91 170.59L508.85 170.56C509.64 171.16 510.38 171.85 511.25 172.29C511.49 172.41 512.11 171.8 512.56 171.52L512.5 171.55C513.47 171.9 514.87 171.45 515.25 172.85C515.43 173.52 515.21 174.3 515.18 174.88C512.393 175.987 509.61 176.207 506.83 175.54C506.4 174.62 505.64 174.49 504.75 174.64C503.21 174.87 501.92 173.28 500.2 173.83C500.24 174.5 500.17 175 500.31 175.42C502.5 181.93 500.59 187.39 495.91 192.03C490.28 197.61 483.66 201.68 476.2 204.36C476.31 204.06 476.44 203.77 476.53 203.47C477.34 200.78 477.23 200.59 474.25 199.5C475.2 198.93 476.14 198.35 477.09 197.78C480.66 195.65 484.31 193.66 487.76 191.36C489.6 190.14 491.25 188.54 492.71 186.86C496.11 182.94 496.55 178.78 492.8 173.78C491.39 171.9 489.38 170.48 487.65 168.85C486.76 168 485.86 167.16 484.99 166.29C484.25 165.55 483.56 164.77 482.84 164V164.03Z" fill="#1C227D"/>
<path d="M522 245.75C520.51 245.18 519.02 244.67 517.36 244.85C514.68 245.15 511.98 245.34 508.91 245.61C509.2 246.55 509.33 247.26 509.63 247.89C510.18 249.04 510.9 250.11 511.43 251.27C512.09 252.72 512.73 254.19 513.17 255.72C515.68 264.42 511.39 270.22 502.27 270.4C500.89 270.43 499.5 269.96 498.12 269.71C500.92 269.26 503.89 269.96 506.55 268.51C506.78 268.38 506.92 268.07 507.24 267.66C506.84 266.94 506.39 266.15 505.99 265.43C499.46 266 499.76 265.73 496.29 263.82C497.55 263.98 498.81 264.2 500.08 264.29C501.35 264.37 502.65 264.47 503.89 264.29C507.19 263.77 508.43 262.19 507.84 259C507.53 257.33 506.68 255.77 506.07 254.15C505.45 252.87 504.96 251.51 504.19 250.33C501.2 245.78 501.72 246.01 496.66 245.94C495.07 245.92 493.48 245.85 491.89 245.76C491.1 245.71 490.3 245.65 489.54 245.44C488.29 245.1 487.44 243.76 487.57 242.52C487.7 241.28 488.42 240.37 489.57 240.12C490.79 239.86 492.09 239.91 493.35 239.89C499.07 239.78 504.79 239.7 510.51 239.58C511.23 239.56 512.15 239.68 512.3 238.47C511.42 237.45 510.42 236.43 509.6 235.3C508.98 234.45 509.18 233.47 509.78 232.63C510.47 231.67 511.74 231.21 512.72 231.56C513.17 231.72 513.63 231.9 514 232.19C517.1 234.65 520.18 237.14 523.26 239.62C524.22 241.95 523.79 243.99 522 245.75Z" fill="#402C88"/>
<path d="M496.29 263.84C499.77 265.76 499.46 266.02 505.99 265.45C506.39 266.16 506.83 266.96 507.24 267.68C506.92 268.09 506.78 268.4 506.55 268.53C503.89 269.98 500.93 269.28 498.12 269.73H498.16C497.17 268.11 495.63 268.67 494.21 268.74C492 267.91 489.68 267.3 487.61 266.21C483.83 264.22 480.17 262 476.53 259.77C471.55 256.72 466.63 253.58 461.68 250.48C462.85 249.78 463.99 249.05 464.3 247.59C463.45 246.52 462.63 245.5 461.81 244.48C462.82 244.93 463.88 245.29 464.82 245.85C470.42 249.23 475.97 252.69 481.58 256.05C483.89 257.44 486.31 258.65 488.68 259.94C491.22 261.24 493.76 262.55 496.29 263.85V263.84Z" fill="#231F7D"/>
<path d="M548.149 232.1C548.669 232.41 549.189 232.99 549.709 232.99C554.219 232.98 558.769 233.73 563.379 232.14C564.049 233.03 564.659 233.86 565.349 234.78C564.669 235.63 564.109 236.33 563.549 237.03L563.559 237.01C559.919 237.01 556.279 236.97 552.649 237.01C552.049 237.01 551.359 237.27 551.529 238.13C551.579 238.39 551.889 238.6 552.069 238.84C554.069 241.34 555.479 244.17 556.369 247.2C557.499 251.07 557.289 254.75 553.749 257.47C553.289 257.83 552.609 257.9 552.029 258.11C551.119 256.86 550.199 255.61 549.509 254.66C547.579 253.84 545.589 254.96 544.309 253.26C545.739 253.23 547.189 253.31 548.599 253.15C550.249 252.97 551.269 251.72 550.909 250.14C550.519 248.46 549.889 246.8 549.149 245.23C547.499 241.75 544.999 238.84 542.539 235.92C543.089 232.4 543.409 232.03 546.319 231.88C546.929 231.85 547.549 232.02 548.159 232.1H548.149Z" fill="#854DA1"/>
<path d="M506.83 175.55C509.61 176.217 512.393 175.997 515.18 174.89C515.21 174.31 515.43 173.53 515.25 172.86C514.88 171.47 513.47 171.91 512.5 171.56C521.52 168.25 530.77 166.17 540.45 166.56C543.77 166.69 547.14 166.84 550.06 168.8C551.19 170.22 552.32 171.64 553.7 173.37C552.7 173.79 551.94 174.37 551.18 174.37C550.15 174.37 549.11 173.92 548.08 173.67H548.11C547.13 172.17 545.61 171.7 543.98 171.69C539.83 171.65 535.67 171.68 531.52 171.77C530.98 171.78 530.45 172.35 529.92 172.66C529.54 172.92 529.16 173.18 528.78 173.44C526.16 173.97 523.52 174.43 520.92 175.04C517.84 175.76 514.81 176.67 511.74 177.39C509.77 177.85 507.94 177.62 506.86 175.55H506.83Z" fill="#34358C"/>
<path d="M548.08 173.67C549.11 173.93 550.15 174.37 551.18 174.37C551.94 174.37 552.7 173.79 553.7 173.37C552.32 171.64 551.19 170.22 550.06 168.8C552.48 169.24 553.88 170.88 554.9 172.94C555.85 174.87 556.13 176.94 555.43 178.96C554.61 181.31 553.54 183.57 552.48 186.11C554.24 186.73 556 187.35 557.75 187.97C558.47 189.13 559.59 189.01 560.71 188.87L560.69 188.85C561.11 189.45 561.54 190.06 561.97 190.67C561.01 191.86 560.651 193.59 558.791 193.78C554.801 192.95 550.791 192.2 546.821 191.28C543.831 190.58 543.48 189.92 543.4 186.15C545.12 184.27 546.971 182.5 548.521 180.49C550.291 178.2 550.401 175.8 548.081 173.66L548.08 173.67Z" fill="#4D4698"/>
<path d="M544.29 253.26C545.57 254.96 547.56 253.84 549.49 254.66C550.19 255.61 551.1 256.86 552.01 258.11C549.37 259.77 546.51 259.21 543.71 258.8C542.47 258.62 541.23 258.21 540.08 257.7C533.36 254.77 527.24 250.91 521.99 245.75C523.78 243.99 524.21 241.95 523.25 239.62C524.49 240.54 525.75 241.44 526.98 242.37C528.35 243.4 529.7 244.46 531.05 245.5C531.5 245.91 531.91 246.38 532.4 246.74C536.07 249.43 540.16 251.36 544.28 253.25L544.29 253.26Z" fill="#694098"/>
<path d="M552.06 238.84C551.87 238.61 551.57 238.39 551.52 238.13C551.35 237.26 552.05 237.02 552.64 237.01C556.28 236.97 559.92 237 563.55 237.01C561.15 238.2 558.55 237.58 556.06 237.87C554.69 238.02 553.14 237.48 552.06 238.85V238.84Z" fill="#A159A9"/>
<path d="M486.9 159.99C483.45 159.4 480.4 158.07 478.07 155.35C481.31 156.32 484.24 157.91 486.9 159.99Z" fill="#1C227D"/>
<path d="M692.15 155.41C693.21 153.55 694.49 151.94 696.76 151.51C695.74 153.43 694.38 154.94 692.15 155.41Z" fill="#A159A9"/>
<path d="M455.67 248.6C456.75 248.55 457.83 248.43 458.9 248.46C460.26 248.49 461.25 249.15 461.7 250.49C459.69 249.86 457.68 249.24 455.67 248.61V248.6Z" fill="#231F7D"/>
<path d="M508.909 170.6C506.889 170.97 505.28 170.29 504.02 168.71C505.85 168.84 507.459 169.49 508.909 170.6Z" fill="#34358C"/>
<path d="M512.56 171.53C512.11 171.81 511.49 172.43 511.25 172.3C510.38 171.86 509.64 171.17 508.85 170.57C510.09 170.89 511.33 171.21 512.56 171.53Z" fill="#34358C"/>
<path d="M494.209 268.73C495.629 268.66 497.169 268.1 498.159 269.72C496.719 269.88 495.359 269.74 494.209 268.73Z" fill="#402C88"/>
<path d="M138.18 131.16C137.25 132.9 135.65 132.19 134.26 132.25C135.38 131.22 136.79 131.22 138.18 131.16Z" fill="#0D197D"/>
<path d="M141.1 130.34C140.37 131.6 139.22 131.36 138.08 131.21C139.08 130.92 140.09 130.63 141.1 130.34Z" fill="#0D197D"/>
<path d="M560.7 188.88C559.58 189.01 558.47 189.14 557.74 187.98C558.85 187.88 559.88 188.02 560.7 188.88Z" fill="#7A479F"/>
<path d="M531.06 245.51C529.7 244.46 528.35 243.41 526.99 242.38C525.76 241.45 524.5 240.54 523.26 239.63C520.18 237.15 517.1 234.66 514 232.2C513.64 231.91 513.17 231.73 512.72 231.57C511.75 231.22 510.47 231.68 509.78 232.64C509.18 233.48 508.98 234.46 509.6 235.31C510.42 236.44 511.41 237.45 512.3 238.48C512.15 239.69 511.23 239.58 510.51 239.59C504.79 239.72 499.07 239.79 493.35 239.9C492.09 239.92 490.79 239.87 489.57 240.13C488.42 240.38 487.7 241.29 487.57 242.53C487.44 243.77 488.29 245.11 489.54 245.45C490.3 245.66 491.1 245.72 491.89 245.77C493.48 245.86 495.07 245.93 496.66 245.95C501.72 246.02 501.2 245.79 504.19 250.34C504.96 251.52 505.45 252.88 506.07 254.16C505.64 254.78 505.35 255.67 504.75 255.97C503.64 256.53 502.37 256.82 501.14 257.11C496.99 258.08 492.83 258.99 488.67 259.93C486.3 258.64 483.88 257.43 481.57 256.04C475.96 252.68 470.41 249.22 464.81 245.84C463.87 245.27 462.8 244.92 461.8 244.47C460.91 243.25 459.56 243.5 458.31 243.33C448.19 241.96 438.24 243.29 428.26 244.9C410.9 247.7 393.55 250.63 376.12 252.88C350.86 256.14 325.46 257.12 300 255.81C291.69 255.38 283.45 254.33 274.97 252.57C274.61 251.57 274.18 250.42 273.77 249.25C273.3 247.9 272.97 246.48 272.36 245.19C271.5 243.38 269.86 242.62 268.51 243.15C267.04 243.73 266.45 245.18 267.01 247.21C267.85 250.29 268.75 253.36 269.68 256.41C273.28 268.19 277.76 279.66 282.36 291.07C287.27 303.23 292.14 315.4 295.27 328.17C295.88 330.64 296.26 333.17 296.75 335.67C296.68 337.37 296.05 339.18 297.66 340.57L297.66 340.58C297.58 340.71 297.51 340.87 297.41 340.98C291.29 347.19 285.19 353.42 279.01 359.58C278.39 360.19 277.34 360.37 276.49 360.75C270.62 358.91 265.54 355.56 260.49 352.22C243.79 341.17 230.56 326.8 220.52 309.52C216.51 302.62 212.73 295.56 209.17 288.41C204.75 279.54 200.63 270.52 196.44 261.54C195.3 259.08 194.27 256.56 193.39 254C192.72 252.07 191.57 250.93 189.55 251.11C186.28 251.39 183.2 250.56 180.09 249.83C172.15 247.99 164.21 246.14 156.28 244.26C148.02 242.3 139.67 240.9 131.17 240.58C127.16 240.43 123.18 240.73 119.27 241.71C116.92 242.3 114.72 243.21 112.8 244.72C108.4 248.17 107.57 252.53 110.41 257.36C111.53 259.27 112.75 261.12 113.93 262.99C115.34 265.28 116.75 267.57 118.16 269.86C117.81 270.54 117.62 271.45 117.07 271.86C114.57 273.76 111.96 275.52 109.38 277.33C108.25 275.07 107.29 272.71 105.96 270.57C103.44 266.51 99.6002 264.24 94.8701 264.24C87.7402 264.23 80.9502 265.49 76.1602 271.6C72.2302 272.67 72.0702 272.74 70.5602 269.45C67.7602 263.38 64.1602 257.75 61.4102 251.62C58.2202 244.51 55.5201 237.21 52.3301 230.11C52.0101 229.39 51.8501 228.59 51.6001 227.84C50.1801 223.63 48.5701 219.47 47.3701 215.2C45.3001 207.87 43.4501 200.48 41.5901 193.1C41.2001 191.57 41.2901 189.93 40.9601 188.39C39.3001 180.77 38.2802 173.09 38.4002 165.27C38.4502 162.38 38.5601 159.56 39.6201 156.82C40.0701 155.66 40.2901 154.36 40.3201 153.11C40.4301 148.57 41.7001 144.34 43.5801 140.27C44.3101 138.68 45.2601 137.17 45.8601 135.53C47.0901 132.16 49.5802 129.68 51.6602 126.91C51.8902 126.6 52.5401 126.61 53.0001 126.47C59.4101 128.68 63.5001 132.91 64.5701 139.77C64.7401 140.88 64.9302 141.98 65.1402 143.08C66.0302 147.75 68.4402 150.96 73.4302 151.74C74.3702 151.89 75.2801 152.21 76.4501 152.52C76.8001 153.64 77.2002 154.81 77.5302 156.01C79.8902 164.64 81.9602 173.34 85.1402 181.73C89.2402 192.58 95.3401 202.32 101.7 211.92C103.2 214.18 104.74 216.44 106.46 218.52C107.77 220.11 109.35 221.48 110.91 222.84C112.59 224.31 114.59 224.55 116.77 224.15C120.03 223.56 122.51 222.2 123.05 218.57C123.11 218.13 123.43 217.74 123.72 217.12C127.75 216.68 131.75 215.54 136.25 216.1C135.49 219.08 134.77 221.84 134.07 224.6C133.64 226.3 133.12 227.99 132.81 229.72C132.48 231.56 132.9 233.26 134.6 234.33C136.34 235.43 138.03 234.88 139.53 233.83C140.56 233.1 141.47 232.17 142.31 231.22C145.21 227.95 147.15 224.1 148.8 220.09C149.59 218.18 150.3 216.24 151.15 214.04C152.77 213.75 154.44 213.44 155.86 213.18C157.19 214.19 156.69 215.19 156.4 216.03C155.08 219.8 153.65 223.53 152.31 227.29C151.89 228.48 151.44 229.73 151.35 230.97C151.17 233.48 153.59 235.29 155.85 234.22C157.39 233.49 158.85 232.36 160 231.09C164.74 225.85 168.87 220.18 171.62 213.61C171.86 213.03 172.15 212.46 172.51 211.68H176.69C176.74 212.29 176.94 212.81 176.79 213.18C174.96 217.61 173.07 222.01 171.21 226.42C170.65 227.74 170.09 229.07 169.65 230.43C169.22 231.76 169.57 233 170.65 233.89C171.7 234.76 172.98 235.04 174.24 234.4C175.51 233.75 176.78 233.05 177.92 232.19C182.19 228.97 185.55 224.92 188.23 220.32C189.28 218.53 190.26 216.69 191.08 214.79C191.8 213.13 192.93 212.43 194.67 212.09C209.98 209.13 225.44 208.68 240.96 209.13C255.34 209.54 269.71 209.92 284.09 210.43C296.88 210.88 309.61 211.99 322.32 213.46C332.8 214.68 343.3 215.7 353.8 216.71C360.8 217.38 367.81 218.11 374.83 218.37C382.49 218.65 390.18 218.73 397.82 218.33C408.5 217.77 419.17 216.8 429.83 215.81C439.23 214.94 448.47 213.04 457.64 210.8C458.09 210.69 458.49 210.38 458.91 210.17C461.33 210.07 463.6 209.48 465.68 208.21L465.63 208.23C466.76 208.37 467.8 208.2 468.58 207.27L468.52 207.3C471.29 206.85 473.91 206.03 476.2 204.34C483.67 201.66 490.28 197.59 495.91 192.01C500.6 187.37 502.5 181.91 500.31 175.4C500.17 174.98 500.24 174.49 500.2 173.81C501.92 173.26 503.21 174.86 504.75 174.62C505.44 174.92 506.14 175.22 506.83 175.52C507.91 177.59 509.74 177.82 511.71 177.36C514.79 176.64 517.82 175.74 520.89 175.01C523.49 174.4 526.13 173.94 528.75 173.41C529.47 173.68 530.39 173.76 530.89 174.26C534.23 177.58 538.06 180.27 541.94 182.89C543.22 183.75 543.31 184.86 543.38 186.11C543.46 189.88 543.81 190.55 546.8 191.24C550.77 192.17 554.78 192.92 558.77 193.74C564.18 195.59 569.59 197.45 575 199.29C577.11 200.01 579.33 200.5 581.33 201.45C584.68 203.03 587.19 202.49 589.89 199.83C598.3 191.53 607.75 184.43 617.2 177.37C618.73 177.37 619.76 176.74 619.98 175.12C620.64 174.59 621.3 174.05 621.96 173.52C623.49 173.57 624.51 172.95 624.82 171.38C625.15 171.13 625.48 170.89 625.82 170.64C628 171.89 628.66 173.93 628.76 176.27C628.82 177.7 628.67 179.19 629.04 180.54C630.67 186.49 631.71 192.58 633.31 198.54C634.74 203.86 636.93 208.69 639.91 213.24C641.47 215.62 643.26 217.9 643.53 220.9C643.55 221.13 643.97 221.32 644.2 221.53C646.59 228.28 649.14 234.99 651.31 241.81C652.56 245.76 653.34 249.9 651.85 254.05C651.58 254.8 651.38 255.59 651 256.27C649.74 258.49 647.92 259.96 645.24 259.92C643.65 259.89 642.03 259.84 640.5 259.47C633.72 257.82 627.63 254.76 622.27 250.28C615.27 244.42 608.85 237.95 602.8 231.15C600.61 228.69 598.43 227.72 595.33 228.09C590.57 228.66 585.8 229.07 581.05 229.65C572.66 230.68 564.26 231.58 555.78 231.54C553.24 231.53 550.7 231.88 548.16 232.06C547.55 231.98 546.93 231.81 546.32 231.84C543.41 231.99 543.09 232.36 542.54 235.88C542.13 236.69 541.89 237.69 541.26 238.29C539.92 239.57 538.5 240.85 536.9 241.77C534.89 242.91 533.63 245.22 531.08 245.48L531.06 245.51Z" fill="#FFFCFD"/>
<path d="M146.02 134.35C148.44 133.96 150.86 133.57 153.28 133.18C154.61 133.33 155.62 133.85 156.44 135.04C158.51 138.05 160.6 141.06 162.92 143.88C166.65 148.43 173.65 152.6 181.21 149.32C188.09 146.33 195.56 145.26 202.89 143.78C203.46 143.66 203.97 143.2 204.5 142.89C206.52 142.49 208.53 142.1 210.55 141.7C221.56 139.53 232.56 137.38 243.57 135.19C244.96 134.91 246.39 134.63 247.69 134.1C250.86 132.82 251.25 130.89 248.91 128.28C246.01 125.05 243.67 121.49 242.57 117.25C241.64 113.68 241.31 110.08 242.87 106.56C248.26 106.04 253.6 105.26 258.79 103.6C271.2 99.6199 280.03 91.6199 285.26 79.7699C286.92 76.0099 287.85 71.9399 289.1 67.9999C289.39 67.0999 289.64 66.1799 289.91 65.2699C293.57 67.4399 297.59 68.6299 301.95 70.0699C300.23 67.0599 294.77 61.4699 291.38 59.0399C290.97 60.0099 290.56 60.9899 290.15 61.9599C290.13 56.6899 290.1 51.4099 290.08 46.1299C291.62 47.2099 293.21 48.2199 294.68 49.3899C301.52 54.8599 309.14 59.0999 316.7 63.4199C317.49 63.8699 318.48 63.9599 319.38 64.2099C318.31 72.4699 317.92 80.6599 319.77 88.9299C322.11 99.3799 326.29 108.97 332.18 117.84C333.85 120.36 335.81 122.71 337.84 124.97C338.76 125.99 340.1 126.7 341.37 127.33C342.38 127.83 343.72 127.27 344.36 126.4C344.98 125.56 345.06 124.09 344.38 123.24C343.79 122.5 342.99 121.93 342.37 121.2C340.81 119.38 339.28 117.54 337.79 115.67C337.43 115.22 337.26 114.61 336.77 113.56C338.33 113.79 339.42 113.77 340.39 114.12C354.83 119.35 369.64 123.4 384.39 127.65C398.21 131.63 411.96 135.86 425.73 140.03C427.24 140.49 428.66 141.23 430.12 141.84C430.79 143.05 431.92 142.89 433.02 142.84L432.99 142.83C433.33 143.73 433.73 144.64 433.04 145.55C432.37 146.44 431.79 147.43 430.99 148.17C427.48 151.41 424.04 154.76 420.29 157.7C416.92 160.34 413.3 162.66 409.55 164.81C405.93 166.88 402.2 168.61 398.39 170.23C394.14 172.03 389.92 173.96 385.54 175.43C377.55 178.12 369.43 180.42 361.18 182.21C355.59 183.42 350.03 184.79 344.42 185.91C338.97 187 333.49 187.91 328.01 188.82C323.63 189.55 319.23 190.23 314.83 190.81C311.37 191.26 307.82 191.24 304.42 191.95C301.43 192.57 298.42 192.65 295.43 193.04C291.34 193.56 287.28 194.45 283.18 194.62C278.4 194.82 273.73 196.25 268.91 195.71C265.83 196.78 262.62 196.63 259.44 196.68C258.81 196.69 258.19 196.93 257.57 197.02C256.16 197.22 254.75 197.46 253.33 197.58C248.74 197.96 244.14 198.29 239.54 198.65C239.23 198.67 238.92 198.81 238.61 198.85C236.88 199.08 235.15 199.46 233.42 199.47C229.08 199.5 224.87 200.03 220.84 201.81C219.86 202.24 218.68 202.28 217.58 202.35C216.15 202.44 214.69 202.27 213.27 202.45C212.59 202.54 211.97 203.17 211.33 203.55C210.41 203.75 209.5 204.03 208.58 204.15C205.1 204.61 201.62 205.05 198.14 205.43C197.22 205.53 196.27 205.37 195.4 205.33C194.32 203.84 195.06 202.42 195.14 201.05C195.31 198.18 195.64 195.33 195.76 192.46C195.81 191.2 195.63 189.9 195.35 188.66C194.22 183.62 189.72 181.39 185.05 183.59C182.71 184.69 181.24 186.39 181.55 189.25C182.02 193.58 181.72 197.87 180.49 202.07C180.18 203.12 179.7 204.11 179.25 205.26H174.72C174.49 202.52 175.03 200.03 175.32 197.54C175.74 194.01 175.7 190.52 174.77 187.07C173.39 181.95 169.61 178.77 164.54 178.41C161.41 178.19 158.31 181.18 158.47 184.35C158.53 185.62 158.83 186.88 159.01 188.14C159.72 193.23 159.74 198.34 159.18 203.44C159.06 204.54 158.72 205.61 158.49 206.69C156.73 207.49 155.03 207.44 153.2 207.2C152.47 205.54 153.1 203.99 153.28 202.46C153.82 197.78 153.57 193.18 151.77 188.79C149.99 184.45 147.04 181.29 142.34 179.95C140.19 179.34 138.23 179.67 136.27 180.47C134.97 181 134.15 182.02 134.32 183.45C134.55 185.34 134.78 187.27 135.38 189.05C137.34 194.91 137.88 200.91 137.57 207.02C137.55 207.5 137.49 207.98 137.38 208.44C137.31 208.73 137.1 208.99 136.95 209.26C136.68 209.42 136.42 209.68 136.14 209.72C130.6 210.37 125.06 211 118.93 211.7C118.65 211.29 118.22 210.63 117.75 209.99C108.59 197.56 101.42 184.06 95.9203 169.65C93.9103 164.39 92.9203 158.91 92.0503 153.39C91.9103 152.47 92.0303 151.51 92.0303 150.38C93.1803 149.98 94.1902 149.58 95.2302 149.28C109.51 145.17 123.79 141.07 138.06 136.95C138.5 136.82 138.88 136.5 139.29 136.26C140.41 136.33 141.49 136.26 142.3 135.33L142.2 135.39C143.59 135.36 144.97 135.33 146.07 134.3V134.33L146.02 134.35ZM126.63 202.25C126.68 200.31 125.48 198.85 123.85 198.41C122.11 197.95 120.38 198.51 119.68 199.83C119.47 200.23 119.34 200.74 119.38 201.18C119.63 203.72 123.05 205.5 125.19 204.13C125.9 203.67 126.29 202.71 126.63 202.24V202.25ZM103.97 155.38C104.02 153.7 102.8 152.35 101.11 152.24C99.4602 152.13 98.0403 153.38 97.9303 155.05C97.8303 156.65 99.1303 158.06 100.8 158.18C102.48 158.3 103.9 157.04 103.96 155.39L103.97 155.38Z" fill="#FF9DDF"/>
<path d="M53.0001 126.47C52.5401 126.61 51.9002 126.6 51.6602 126.91C49.5702 129.67 47.0801 132.16 45.8601 135.53C45.2601 137.17 44.3101 138.68 43.5801 140.27C41.7001 144.35 40.4301 148.57 40.3201 153.11C40.2901 154.36 40.0701 155.66 39.6201 156.82C38.5601 159.56 38.4502 162.38 38.4002 165.27C38.2702 173.09 39.3001 180.77 40.9601 188.39C41.3001 189.93 41.2101 191.58 41.5901 193.1C43.4501 200.48 45.3001 207.87 47.3701 215.2C48.5801 219.47 50.1801 223.63 51.6001 227.84C51.8501 228.59 52.0101 229.39 52.3301 230.11C55.5201 237.21 58.2202 244.51 61.4102 251.62C64.1602 257.75 67.7702 263.38 70.5602 269.45C72.0702 272.74 72.2302 272.66 76.1602 271.6C75.7602 272.81 75.3 274 74.97 275.22C73.66 280.1 74.7201 284.42 78.3101 287.98C81.5701 291.22 85.48 293.21 90.12 293.71C95.07 294.24 99.61 293.13 103.84 290.59C104.12 291.44 104.58 292.28 104.63 293.15C104.79 295.95 105.56 298.59 106.53 301.19L106.26 301.44L105.89 301.4C104.77 301.23 103.64 301.03 102.8 302.1C97.3901 303.53 92.0001 302.73 86.6301 301.86C69.7801 299.12 56.28 290.6 45.19 277.88C38.41 270.11 33.0901 261.4 28.5201 252.22C17.6701 230.42 10.61 207.46 7.61003 183.28C6.60003 175.18 5.7401 167.07 6.0601 158.9C6.3201 152.2 6.97002 145.54 8.47002 138.94C9.55002 134.21 12.2 130.9 16.11 128.4C20.47 125.61 25.26 123.71 30.33 122.9C37.73 121.73 45.0001 122.49 51.9201 125.6C52.3301 125.79 52.6501 126.17 53.0101 126.47L53.0001 126.47Z" fill="#FFE9F0"/>
<path d="M345.579 209.98C344.149 209.97 342.709 210.08 341.299 209.92C335.589 209.29 329.879 208.59 324.179 207.88C323.559 207.8 322.979 207.5 322.379 207.31C325.069 207.22 327.769 207.13 330.249 207.05C332.579 204.4 335.569 201.86 337.899 201.02C343.129 199.13 348.359 197.2 353.699 195.68C359.489 194.03 365.419 192.88 371.269 191.42C375.739 190.31 380.179 189.11 384.619 187.89C394.459 185.2 404.049 181.82 413.189 177.24C421.179 173.24 429.149 169.2 437.159 165.26C439.869 163.93 442.609 162.53 445.489 161.69C448.499 160.81 451.619 159.8 454.829 160.21C459.819 160.85 464.279 162.86 468.319 165.86C469.409 166.67 469.399 167.71 469.439 168.82C467.899 172.82 465.139 175.92 461.879 178.54C458.269 181.43 454.389 183.97 450.239 186.05C438.779 191.81 426.679 195.77 414.269 198.89C402.359 201.88 390.259 203.68 378.109 205.27C374.949 205.68 371.779 205.98 368.629 206.44C362.329 207.36 356.029 208.27 349.629 208.22C348.239 208.21 346.809 208.04 345.359 208.43C345.449 209.07 345.519 209.52 345.579 209.97V209.98Z" fill="#BAC3E9"/>
<path d="M469.439 168.83C469.389 167.72 469.409 166.68 468.319 165.87C464.279 162.86 459.819 160.86 454.829 160.22C451.619 159.81 448.499 160.82 445.489 161.7C442.609 162.54 439.869 163.94 437.159 165.27C429.149 169.22 421.179 173.25 413.189 177.25C404.049 181.83 394.469 185.21 384.619 187.9C380.179 189.11 375.729 190.32 371.269 191.43C365.419 192.88 359.489 194.04 353.699 195.69C348.359 197.21 343.129 199.14 337.899 201.03C335.569 201.87 332.579 204.41 330.249 207.06C327.769 207.14 325.079 207.23 322.379 207.32C316.849 206.88 311.329 206.41 305.799 206.01C301.209 205.67 296.619 205.43 292.039 205.09C290.639 204.98 289.249 204.67 287.859 204.45C291.219 204.41 294.569 204.36 297.929 204.32C299.089 204.31 300.149 204.13 300.949 203.17C304.169 199.31 308.629 197.44 313.229 196.16C317.659 194.92 321.849 193 326.449 192.17C329.859 191.56 333.249 190.61 336.679 189.92C343.689 188.52 350.739 187.33 357.699 185.7C369.179 183.01 380.589 180.08 391.689 176.02C401.749 172.34 411.439 167.91 420.299 161.84C424.499 158.96 428.729 156.11 432.719 152.96C435.049 151.12 437.429 149.22 439.189 146.77C438.709 145.95 438.319 145.29 437.929 144.63C438.709 144.79 439.519 144.86 440.249 145.13C451.169 149.22 461.949 153.66 472.529 158.56C472.799 158.68 472.969 159 473.189 159.23C471.919 159.44 471.389 160.16 471.389 161.47C471.389 164.08 471.699 166.81 469.459 168.85L469.439 168.83Z" fill="#CDB8E6"/>
<path d="M469.439 168.83C471.689 166.79 471.38 164.07 471.37 161.45C471.37 160.14 471.889 159.42 473.169 159.21C474.139 159.54 475.11 159.87 476.08 160.2C476.73 160.54 477.37 160.87 478.02 161.21L477.99 161.19C478.639 161.52 479.289 161.85 479.939 162.18L479.899 162.16C480.279 162.44 480.67 162.71 481.05 162.99C481.62 163.37 482.19 163.74 482.75 164.12L482.84 164.03C483.55 164.79 484.25 165.57 484.99 166.32C485.859 167.19 486.759 168.03 487.649 168.88C487.219 170.37 486.98 171.95 486.33 173.34C485.35 175.46 484.079 177.45 482.939 179.5C482.669 179.82 482.409 180.15 482.139 180.47C480.479 182.13 478.879 183.84 477.159 185.43C474.939 187.48 472.58 189.33 469.28 189.1C469.04 189.17 468.81 189.15 468.58 189.06C467.63 188.74 466.94 188.99 466.59 189.98C465.62 190.3 465.369 190.98 465.649 191.91C465.689 192.52 465.72 193.14 465.76 193.75C459.17 197.24 452.28 199.95 445.08 202.1C444.85 201.5 444.68 201.07 444.51 200.65C444.59 200.18 444.789 199.69 444.719 199.25C444.349 196.98 442.67 195.76 440.79 196.32C439.07 196.84 438.55 198.28 439.3 200.52C439.4 200.81 439.61 201.07 439.78 201.34C440.08 201.87 440.369 202.41 440.679 202.97C440.459 203.13 440.26 203.37 440.02 203.43C433.73 205.05 427.379 206.39 420.929 207.22C417.789 207.63 414.65 208.02 411.51 208.47C405.72 209.29 399.939 210.22 394.129 210.97C386.869 211.9 379.58 212.21 372.26 211.9C371.32 211.86 370.369 212.05 369.429 212.14C361.479 211.43 353.53 210.72 345.57 210.01C345.5 209.56 345.44 209.11 345.35 208.47C346.8 208.08 348.23 208.25 349.62 208.26C356.02 208.32 362.31 207.4 368.62 206.48C371.77 206.02 374.94 205.73 378.1 205.31C390.25 203.72 402.35 201.92 414.26 198.93C426.68 195.81 438.77 191.86 450.229 186.09C454.379 184 458.26 181.47 461.87 178.58C465.14 175.96 467.899 172.87 469.429 168.86L469.439 168.83ZM479.179 164.61C477.519 164.64 476.259 165.92 476.209 167.61C476.149 169.68 477.769 171.33 479.699 171.16C481.299 171.02 482.35 169.72 482.37 167.86C482.39 165.88 481.099 164.57 479.189 164.61H479.179ZM418.449 199.7C416.829 199.75 415.46 201.17 415.54 202.74C415.61 204.34 417.03 205.5 418.77 205.4C420.26 205.31 421.419 204.13 421.439 202.68C421.459 201.09 420.019 199.66 418.459 199.71L418.449 199.7Z" fill="white"/>
<path d="M437.899 144.61C438.289 145.27 438.679 145.94 439.159 146.75C437.399 149.2 435.019 151.11 432.689 152.94C428.699 156.09 424.47 158.95 420.27 161.82C411.41 167.89 401.719 172.32 391.659 176C380.559 180.06 369.149 182.99 357.669 185.68C350.719 187.31 343.659 188.49 336.649 189.9C333.219 190.59 329.829 191.54 326.419 192.15C321.819 192.97 317.629 194.9 313.199 196.14C308.599 197.43 304.139 199.3 300.919 203.15C300.119 204.11 299.059 204.29 297.899 204.3C294.539 204.33 291.19 204.38 287.83 204.43C285.6 204.46 283.369 204.6 281.139 204.51C262.479 203.8 243.81 203.15 225.13 203.33C220.51 203.38 215.89 203.49 211.27 203.57C211.92 203.19 212.529 202.55 213.209 202.47C214.629 202.29 216.09 202.47 217.52 202.37C218.62 202.3 219.81 202.26 220.78 201.83C224.8 200.05 229.009 199.52 233.359 199.49C235.089 199.48 236.82 199.09 238.55 198.87C238.86 198.83 239.169 198.69 239.479 198.67C244.069 198.31 248.67 197.98 253.27 197.6C254.69 197.48 256.1 197.24 257.51 197.04C258.14 196.95 258.76 196.71 259.38 196.7C262.57 196.65 265.77 196.8 268.849 195.73C273.669 196.28 278.34 194.85 283.12 194.64C287.22 194.47 291.29 193.58 295.37 193.06C298.36 192.68 301.37 192.6 304.36 191.97C307.76 191.26 311.31 191.28 314.77 190.83C319.18 190.25 323.569 189.57 327.949 188.84C333.429 187.93 338.91 187.02 344.36 185.93C349.97 184.81 355.53 183.44 361.12 182.23C369.37 180.44 377.49 178.14 385.479 175.45C389.849 173.98 394.07 172.05 398.33 170.25C402.14 168.64 405.87 166.91 409.49 164.83C413.25 162.68 416.859 160.36 420.229 157.72C423.979 154.78 427.419 151.42 430.929 148.19C431.729 147.45 432.309 146.46 432.979 145.57C433.659 144.66 433.259 143.75 432.929 142.85C433.889 143.19 434.84 143.53 435.8 143.87C436.27 144.71 437.02 144.82 437.87 144.68V144.63L437.899 144.61Z" fill="#E1ADE3"/>
<path d="M369.439 212.11C370.379 212.03 371.33 211.83 372.27 211.87C379.59 212.18 386.879 211.87 394.139 210.94C399.939 210.19 405.72 209.26 411.52 208.44C414.65 207.99 417.799 207.6 420.939 207.19C427.389 206.36 433.74 205.02 440.03 203.4C440.27 203.34 440.469 203.1 440.689 202.94C440.379 202.38 440.08 201.85 439.79 201.31C441.49 201.94 443.07 201.72 444.52 200.62C444.69 201.05 444.85 201.48 445.09 202.07C452.28 199.92 459.18 197.21 465.77 193.72C466.77 194.1 467.73 194.67 468.76 194.83C469.94 195.01 470.89 194.33 471.33 193.21C471.74 192.14 471.73 191.06 470.75 190.22C470.28 189.82 469.77 189.46 469.28 189.07C472.58 189.3 474.939 187.45 477.159 185.4C478.879 183.81 480.479 182.1 482.139 180.44C482.049 181.23 481.809 182.03 481.909 182.8C482.129 184.56 483.66 185.54 485.36 185.15C487.15 184.74 488.169 183.12 487.879 181.15C487.639 179.49 486.45 178.79 484.31 179.09C483.85 179.15 483.399 179.34 482.939 179.47C484.079 177.42 485.34 175.43 486.33 173.31C486.98 171.92 487.22 170.35 487.65 168.85C489.39 170.48 491.4 171.9 492.8 173.78C496.56 178.78 496.11 182.94 492.71 186.86C491.26 188.54 489.6 190.13 487.76 191.36C484.31 193.66 480.65 195.65 477.09 197.78C476.14 198.35 475.2 198.92 474.25 199.5L474.219 199.51C473.559 199.8 472.889 200.09 472.229 200.38L472.26 200.36C470.43 200.47 468.829 201.14 467.399 202.28L467.449 202.25C466.339 202.19 465.28 202.26 464.5 203.21L464.56 203.17C460.85 203.71 457.22 204.55 453.78 206.09C451.43 206.49 449.099 206.94 446.74 207.29C438.72 208.51 430.739 210.04 422.679 210.81C409.229 212.11 395.729 212.99 382.199 212.96C379.019 212.96 375.839 212.89 372.659 212.74C371.579 212.69 370.509 212.32 369.439 212.09V212.11Z" fill="#CBB8E6"/>
<path d="M106.54 301.2C105.57 298.6 104.8 295.96 104.64 293.16C104.59 292.29 104.12 291.45 103.85 290.6C104.91 289.46 106.04 288.38 107.03 287.17C109.39 284.29 109.55 280.84 109.39 277.33C111.96 275.52 114.57 273.76 117.08 271.86C117.63 271.44 117.81 270.54 118.17 269.86C119.8 272.19 121.72 274.37 122.99 276.88C126.64 284.06 123.67 293.26 116.35 297.65C113.35 299.45 110.11 300.84 106.55 301.2H106.54Z" fill="#FDBED4"/>
<path d="M141.349 221.37C142.019 216.93 142.839 213.19 143.099 209.41C143.369 205.45 143.349 201.43 142.979 197.48C142.629 193.74 141.649 190.05 140.879 185.99C141.719 186.19 142.349 186.19 142.819 186.47C144.989 187.78 146.289 189.81 146.819 192.19C147.309 194.35 147.739 196.61 147.629 198.79C147.269 206 145.829 213 142.639 219.56C142.439 219.98 142.089 220.33 141.349 221.36V221.37Z" fill="#53E9F1"/>
<path d="M163.141 213.84C163.141 213.54 163.201 213.26 163.311 212.98C164.331 212.16 164.311 211.09 164.051 209.95C165.221 203.68 165.541 197.35 165.111 190.99C164.971 188.96 164.711 186.93 164.491 184.67C166.781 184.37 168.041 185.62 168.611 187.21C169.291 189.12 169.791 191.22 169.751 193.23C169.621 199.92 168.761 206.51 165.461 212.53C165.241 212.93 165.211 213.44 165.091 213.9C164.761 214.51 164.431 215.12 164.091 215.74C163.771 215.11 163.461 214.48 163.141 213.85V213.84Z" fill="#54ECF3"/>
<path d="M98.6987 195.96C94.2487 189.67 91.3988 182.61 88.9888 175.36C87.0288 169.48 85.1888 163.56 84.2988 157.4C85.0088 157.68 85.7088 157.95 86.4188 158.23C88.7088 166.9 91.5388 175.38 95.3988 183.49C97.1788 187.23 99.0287 190.95 100.839 194.68C100.129 195.11 99.4087 195.54 98.6987 195.96Z" fill="#E2E4A3"/>
<path d="M181.391 217.7C182.771 213.46 184.141 209.22 185.521 204.98C186.931 200.68 187.521 196.28 187.401 191.76C187.381 190.99 187.551 190.2 187.731 189.44C187.781 189.22 188.201 188.99 188.471 188.96C188.741 188.93 189.231 189.07 189.301 189.26C189.611 190.14 190.021 191.07 190.021 191.98C190.021 201.59 188.191 210.7 182.341 218.63C182.031 218.32 181.721 218.01 181.401 217.7H181.391Z" fill="#50D9E7"/>
<path d="M98.6987 195.96C99.4087 195.53 100.129 195.1 100.839 194.68C103.829 199.38 106.789 204.1 109.819 208.77C111.119 210.78 112.599 212.67 113.899 214.67C114.479 215.56 114.829 216.6 115.239 217.47C114.459 218.48 113.879 217.85 113.469 217.54C112.709 216.97 111.979 216.32 111.399 215.57C106.609 209.4 102.159 203 98.6987 195.96Z" fill="#DCC342"/>
<path d="M86.4301 158.23C85.7201 157.95 85.0098 157.68 84.3098 157.4C82.8998 154.47 82.7797 151.29 82.5997 148.13C82.5497 147.25 82.9697 146.51 83.8697 146.39C84.7897 146.27 85.3597 146.95 85.4697 147.79C85.7997 150.31 86.0398 152.84 86.2898 155.38C86.3798 156.33 86.3897 157.28 86.4397 158.23L86.4301 158.23Z" fill="#BEAB48"/>
<path d="M453.779 206.1C457.219 204.57 460.849 203.72 464.559 203.18C464.479 203.31 464.429 203.5 464.319 203.57C461.029 205.32 457.549 206.31 453.779 206.1Z" fill="#1C227D"/>
<path d="M476.209 204.37C473.919 206.06 471.289 206.88 468.529 207.33C470.569 204.99 473.359 204.61 476.209 204.37Z" fill="#1C227D"/>
<path d="M465.68 208.24C463.6 209.51 461.33 210.1 458.91 210.2C460.87 208.54 463.12 207.86 465.68 208.24Z" fill="#1C227D"/>
<path d="M181.389 217.7C181.699 218.01 182.01 218.32 182.33 218.63C182.03 219.33 181.749 220.04 181.419 220.73C181.159 221.28 180.839 221.81 180.159 222.06C180.009 220.31 180.159 218.83 181.389 217.69V217.7Z" fill="#358EB8"/>
<path d="M163.141 213.84C163.461 214.47 163.77 215.1 164.09 215.73C163.63 216.63 163.16 217.53 162.51 218.78C162.03 216.31 161.991 216.3 163.141 213.84Z" fill="#399DC1"/>
<path d="M467.4 202.29C468.82 201.16 470.431 200.48 472.26 200.37C471.021 201.97 469.4 202.6 467.4 202.29Z" fill="#1C227D"/>
<path d="M146.03 134.31C144.93 135.34 143.54 135.37 142.16 135.4C143.08 133.7 144.66 134.37 146.03 134.31Z" fill="#0D197D"/>
<path d="M142.25 135.34C141.44 136.27 140.36 136.33 139.24 136.27C139.94 134.99 141.11 135.22 142.25 135.34Z" fill="#0D197D"/>
<path d="M102.799 302.1C103.639 301.03 104.769 301.23 105.889 301.4C104.989 302.23 103.929 302.33 102.799 302.1Z" fill="#FDBED4"/>
<path d="M464.5 203.22C465.28 202.27 466.35 202.2 467.45 202.26C466.79 203.58 465.63 203.37 464.5 203.22Z" fill="#1C227D"/>
<path d="M468.591 207.3C467.801 208.23 466.771 208.4 465.641 208.26C466.311 206.97 467.461 207.15 468.591 207.3Z" fill="#1C227D"/>
<path d="M164.049 209.95C164.309 211.08 164.329 212.16 163.309 212.98C163.109 211.86 163.269 210.83 164.049 209.95Z" fill="#399DC1"/>
<path d="M164.09 215.73C164.42 215.12 164.75 214.51 165.09 213.89C164.76 214.5 164.43 215.11 164.09 215.73Z" fill="#399DC1"/>
<path d="M472.23 200.4C472.89 200.11 473.56 199.82 474.22 199.53C473.78 200.34 473.06 200.51 472.23 200.4Z" fill="#1C227D"/>
<path d="M242.849 106.55C241.289 110.07 241.619 113.67 242.549 117.24C243.659 121.48 245.989 125.03 248.889 128.27C251.229 130.88 250.839 132.81 247.669 134.09C246.359 134.62 244.939 134.91 243.549 135.18C232.549 137.37 221.539 139.52 210.529 141.69C208.509 142.09 206.499 142.48 204.479 142.88C201.159 143.14 198.259 141.58 195.259 140.6C188.019 138.24 181.699 134.36 176.489 128.62C175.269 128.56 173.999 128.5 172.719 128.44C175.799 127.68 178.849 126.83 181.949 126.17C188.659 124.73 195.389 123.37 202.119 121.99C202.869 121.84 203.649 121.83 204.869 121.71C204.569 122.93 204.409 123.8 204.129 124.63C203.769 125.69 203.249 126.69 202.899 127.75C202.229 129.77 202.709 131.15 204.219 131.82C205.629 132.44 207.159 131.8 208.159 130.02C208.709 129.05 209.069 127.98 209.489 126.95C212.539 119.57 215.669 112.23 219.489 105.2C220.089 104.09 220.749 103 221.449 101.78C225.019 102.94 228.409 104.32 231.929 105.1C235.499 105.89 239.189 106.09 242.829 106.55H242.849ZM223.089 108.46C221.519 108.61 220.439 110.16 220.659 111.93C220.869 113.59 222.399 114.92 223.889 114.74C225.409 114.56 226.679 112.8 226.409 111.27C226.109 109.64 224.559 108.32 223.089 108.46Z" fill="#C7BBE7"/>
<path d="M274.659 66.2903C269.729 86.9003 244.879 98.5503 229.129 88.0803C228.899 86.8803 229.679 86.0103 230.209 85.0703C239.219 69.0003 249.799 54.0203 261.509 39.8203C261.699 39.5802 262.009 39.4403 262.269 39.2603C264.269 39.3903 265.319 40.9003 266.359 42.2503C269.069 45.7503 271.629 49.3603 274.319 52.8903C275.029 53.8203 275.539 54.7503 275.469 55.9202C275.369 57.6603 275.219 59.3903 275.089 61.1203C274.949 62.8403 274.799 64.5703 274.659 66.2903Z" fill="#FFFCFD"/>
<path d="M315.759 8.54994C319.489 10.0699 321.289 13.2199 322.469 16.7599C324.059 21.5099 324.569 26.4699 324.109 31.4199C323.379 39.1999 322.289 46.9399 321.339 54.6999C321.299 54.9899 321.039 55.2499 320.879 55.5199C321.009 52.6699 319.619 50.9299 317.209 49.4199C311.969 46.1399 306.989 42.4499 302.389 38.2899C303.759 34.2599 305.079 30.2299 306.499 26.2199C308.389 20.8699 310.479 15.5699 310.139 9.71994C310.109 9.13994 310.439 8.54994 310.619 7.91994C311.519 7.75994 312.289 7.61994 313.059 7.47994L312.989 7.43994C313.569 8.66994 314.699 8.51994 315.759 8.53994V8.54994Z" fill="#FE9DDF"/>
<path d="M302.389 38.2899C306.989 42.4499 311.969 46.1399 317.209 49.4199C319.619 50.9299 321.009 52.6699 320.879 55.5199C320.369 58.4199 319.86 61.32 319.36 64.23C318.46 63.98 317.46 63.89 316.68 63.44C309.11 59.12 301.5 54.88 294.66 49.41C293.19 48.24 291.6 47.23 290.06 46.15C289.63 44.3 289.24 42.43 288.75 40.59C287.16 34.66 284.62 29.26 279.94 25.07C279.37 24.56 278.88 23.96 278.26 23.31C279.3 21.69 280.49 20.49 282.16 19.79C283.47 21.12 284.79 22.45 286.1 23.79C286.3 24.85 286.66 25.77 287.87 26.08C288.59 26.26 289.28 26.54 289.99 26.77C290.56 27.51 291.04 28.36 291.73 28.97C295.26 32.11 298.84 35.19 302.4 38.29L302.389 38.2899Z" fill="#FFFEFF"/>
<path d="M172.729 128.44C174.009 128.5 175.28 128.56 176.5 128.62C181.71 134.36 188.03 138.24 195.27 140.6C198.27 141.58 201.169 143.15 204.49 142.88C203.95 143.18 203.45 143.65 202.88 143.77C195.56 145.25 188.079 146.32 181.199 149.31C173.639 152.6 166.64 148.42 162.91 143.87C160.59 141.05 158.5 138.04 156.43 135.03C155.62 133.85 154.6 133.32 153.27 133.17C158.27 131.23 163.5 130.23 168.76 129.36C170.18 129.36 171.73 129.93 172.79 128.41L172.719 128.43L172.729 128.44Z" fill="#E7A9E2"/>
<path d="M302.39 38.2899C298.83 35.1899 295.24 32.1099 291.72 28.9699C291.03 28.3599 290.56 27.5099 289.98 26.7699C290.57 26.2499 291.31 25.8199 291.72 25.1799C292.7 23.6599 292.29 21.9499 290.88 21.0099C289.53 20.1099 287.891 20.4699 286.781 22.0199C286.431 22.5199 286.311 23.1899 286.091 23.7799C284.781 22.4499 283.46 21.1199 282.15 19.7799C288.81 13.9999 296.04 9.21992 304.76 7.15991C307.51 6.50991 310.351 5.86991 313.051 7.47991C312.281 7.61991 311.511 7.75991 310.611 7.91991C310.431 8.54991 310.09 9.14992 310.13 9.71992C310.47 15.5699 308.39 20.8599 306.49 26.2199C305.07 30.2299 303.75 34.2699 302.38 38.2899H302.39Z" fill="#DFADE4"/>
<path d="M243.84 97.9099C250.91 97.2199 257.54 95.2899 263.48 91.2199C271.66 85.6199 277.24 78.1299 280.25 68.7099C280.64 67.4999 281.01 66.2799 281.39 65.0699C282.08 65.3099 282.78 65.5398 283.47 65.7798C280.4 84.6598 267.78 97.7198 248.27 99.9598C246.69 99.8098 245.1 99.6598 243.41 99.4998C243.61 98.7498 243.72 98.3298 243.83 97.9098L243.84 97.9099Z" fill="#ECD140"/>
<path d="M274.659 66.2903C274.809 64.5703 274.959 62.8403 275.089 61.1203C275.229 59.3903 275.369 57.6502 275.469 55.9202C275.539 54.7503 275.019 53.8203 274.319 52.8903C271.639 49.3703 269.069 45.7503 266.359 42.2503C265.309 40.9003 264.259 39.3803 262.269 39.2603C263.259 37.2203 264.86 35.7699 266.78 34.4399C268.63 35.3399 270.119 36.5399 271.099 38.1699C276.429 46.9999 278.339 56.3003 274.659 66.2903Z" fill="#F8DEE8"/>
<path d="M282.189 51.7202C281.989 51.5002 281.959 51.2502 282.099 50.9802C282.289 49.5402 282.639 48.0702 281.309 46.9302C279.819 43.4302 278.489 39.8402 276.789 36.4502C275.509 33.9002 273.699 31.6702 271.159 30.1102C269.969 29.3802 268.989 28.3102 267.699 27.2102C268.539 26.4002 269.109 25.6302 269.859 25.1802C270.899 24.5602 272.029 24.6602 272.899 25.6102C277.329 30.4202 281.839 35.1802 283.079 41.9602C283.189 42.5802 283.229 43.2201 283.309 43.8502C283.309 45.8601 282.549 47.9902 284.169 49.7602C284.209 50.3302 284.249 50.9002 284.299 51.4702C284.159 53.1102 284.009 54.7602 283.869 56.4002C283.309 55.3602 283.319 54.2901 283.109 53.2701C282.999 52.7101 282.519 52.2302 282.199 51.7102L282.189 51.7202Z" fill="#EAECF1"/>
<path d="M243.84 97.9099C243.73 98.3299 243.62 98.7501 243.42 99.5001C245.11 99.6601 246.7 99.8099 248.28 99.9599C247.67 100.13 247.08 100.42 246.47 100.46C238.84 101 231.52 99.6399 224.52 96.5899C223.51 96.1499 222.56 95.4999 221.71 94.7999C220.74 94.0099 221.29 91.6299 222.53 91.1599C222.93 91.0099 223.5 91.0299 223.9 91.1899C224.48 91.4199 225.06 91.7699 225.51 92.1999C229.88 96.2999 235.38 97.1299 240.99 97.6399C241.94 97.7299 242.89 97.8199 243.84 97.9099Z" fill="#A3D58C"/>
<path d="M290.119 61.9698C290.529 60.9998 290.939 60.0198 291.349 59.0498C294.739 61.4698 300.199 67.0698 301.919 70.0798C297.559 68.6398 293.539 67.4498 289.879 65.2798C289.959 64.1798 290.029 63.0798 290.109 61.9798L290.119 61.9698Z" fill="#FDF6FD"/>
<path d="M282.19 51.72C282.5 52.24 282.981 52.72 283.101 53.28C283.311 54.3 283.311 55.37 283.861 56.41C284.001 54.77 284.15 53.1199 284.29 51.4799C284.47 52.7099 284.88 53.9499 284.78 55.1499C284.46 58.7099 283.93 62.24 283.48 65.78C282.79 65.54 282.09 65.3 281.4 65.07C281.67 60.62 281.93 56.17 282.2 51.73L282.19 51.72Z" fill="#D2D4C3"/>
<path d="M284.169 49.7699C282.549 47.9899 283.309 45.8699 283.309 43.8599C284.349 45.7199 284.399 47.7299 284.169 49.7699Z" fill="#D2D4C3"/>
<path d="M281.311 46.9302C282.641 48.0702 282.291 49.5402 282.101 50.9802C281.841 49.6302 281.581 48.2802 281.311 46.9302Z" fill="#D2D4C3"/>
<path d="M172.809 128.42C171.749 129.94 170.189 129.36 168.779 129.37C169.969 128.4 171.379 128.36 172.809 128.42Z" fill="#C7BBE7"/>
<path d="M433 142.85C431.9 142.9 430.77 143.06 430.1 141.85C431.07 142.18 432.03 142.52 433 142.85Z" fill="#E1ADE3"/>
<path d="M482.751 164.12C482.181 163.74 481.611 163.37 481.051 162.99C481.301 162.87 481.571 162.78 481.841 162.73C482.141 163.2 482.451 163.66 482.751 164.13V164.12Z" fill="#565C9F"/>
<path d="M481.841 162.72C481.561 162.77 481.301 162.86 481.051 162.98C480.671 162.7 480.28 162.42 479.9 162.15C480.55 162.34 481.201 162.53 481.841 162.72Z" fill="#1C227D"/>
<path d="M477.99 161.19C478.639 161.52 479.289 161.85 479.939 162.18C479.589 161.26 478.849 161.11 477.99 161.19Z" fill="#1C227D"/>
<path d="M476.08 160.2C476.73 160.54 477.37 160.87 478.02 161.21C477.65 160.34 476.93 160.14 476.08 160.2Z" fill="#1C227D"/>
<path d="M437.91 144.67C437.06 144.81 436.3 144.7 435.84 143.86C436.53 144.13 437.22 144.4 437.91 144.67Z" fill="#CDB8E6"/>
<path d="M276.49 360.74C277.34 360.36 278.39 360.18 279.01 359.57C285.18 353.41 291.29 347.18 297.41 340.97C297.52 340.86 297.58 340.7 297.66 340.57C299.27 346.16 299.2 351.8 298.05 357.46C297.86 358.38 297.52 359.29 297.14 360.15C295.79 363.24 293.45 364.84 290.03 364.62C285.24 364.3 280.7 363.12 276.49 360.74Z" fill="#FDD4E3"/>
<path d="M297.66 340.56C296.05 339.17 296.68 337.37 296.75 335.66C297.77 337.16 297.84 338.83 297.66 340.56Z" fill="#FDD4E3"/>
<path d="M644.21 221.57C643.98 221.36 643.56 221.17 643.54 220.94C643.27 217.94 641.48 215.66 639.92 213.28C636.94 208.73 634.74 203.9 633.32 198.58C631.72 192.61 630.68 186.53 629.05 180.58C628.68 179.23 628.83 177.74 628.77 176.31C628.67 173.97 628 171.93 625.83 170.68C631.83 165.98 638.04 161.58 644.88 158.14C646.39 158.32 647.41 157.7 647.95 156.28C647.95 156.28 647.94 156.28 647.94 156.29C648.78 156.32 649.5 156.13 649.86 155.27L649.82 155.3C650.69 155.36 651.44 155.22 651.76 154.26H651.72C653.28 155.62 653.79 157.37 653.75 159.38C653.71 161.12 653.88 162.89 653.72 164.61C653.31 168.84 654.43 172.78 655.85 176.66C656.66 178.89 657.65 181.05 658.56 183.24C657.55 185.03 656.58 186.85 655.52 188.61C649.73 198.23 645.85 208.55 644.27 219.69C644.18 220.31 644.24 220.96 644.24 221.59L644.21 221.57Z" fill="#FFE8F0"/>
<path d="M658.539 183.22C657.629 181.03 656.639 178.86 655.829 176.64C654.409 172.76 653.289 168.82 653.699 164.59C653.869 162.86 653.699 161.1 653.729 159.36C653.769 157.36 653.26 155.6 651.7 154.24C652.29 153.74 652.81 153.1 653.48 152.75C660.93 148.94 668.39 145.18 675.86 141.43C676.41 141.15 677.05 141.06 677.65 140.88C678.14 141.27 678.789 141.57 679.099 142.07C681.099 145.27 683.029 148.51 684.959 151.75C685.109 152 685.079 152.36 685.129 152.67C684.599 153.63 684.069 154.6 683.549 155.56C681.869 157.27 680.249 159.03 678.509 160.68C671.659 167.19 665.269 174.11 659.769 181.82C659.409 182.33 658.929 182.76 658.509 183.22H658.539Z" fill="#FFD8E5"/>
<path d="M683.58 155.55C684.11 154.59 684.64 153.62 685.16 152.66C685.11 152.35 685.14 151.99 684.99 151.74C683.06 148.5 681.13 145.26 679.13 142.06C678.82 141.56 678.17 141.26 677.68 140.87C686.36 136.24 695.55 133.29 705.42 132.72C705.69 132.7 705.97 132.98 706.25 133.13C706.75 133.98 706.32 134.68 705.78 135.26C704.04 137.13 702.25 138.95 700.48 140.8C699.27 142.07 698.07 143.34 696.86 144.61C694.28 145.49 692.74 147.58 691.09 149.54C689.15 151.39 687.2 153.24 685.26 155.09C684.71 155.24 684.15 155.39 683.6 155.54L683.58 155.55Z" fill="#FDBAD1"/>
<path d="M691.07 149.55C692.73 147.59 694.26 145.5 696.84 144.62C695.5 146.95 694.04 149.14 691.07 149.55Z" fill="#A159A9"/>
<path d="M619.999 175.15C619.779 176.77 618.749 177.4 617.219 177.4C618.149 176.65 619.069 175.9 619.999 175.15Z" fill="#FFE8F0"/>
<path d="M624.829 171.41C624.519 172.98 623.499 173.6 621.969 173.55C622.919 172.84 623.879 172.12 624.829 171.41Z" fill="#FFE8F0"/>
<path d="M647.939 156.27C647.399 157.69 646.379 158.31 644.869 158.13C645.619 157.06 646.619 156.4 647.939 156.27Z" fill="#FFD8E5"/>
<path d="M649.85 155.26C649.49 156.13 648.77 156.32 647.93 156.28C648.57 155.94 649.21 155.6 649.85 155.26Z" fill="#FFD8E5"/>
<path d="M651.741 154.25C651.421 155.21 650.671 155.36 649.801 155.29C650.451 154.94 651.091 154.59 651.741 154.25Z" fill="#FFD8E5"/>
<path d="M506.84 175.56C506.15 175.26 505.45 174.96 504.76 174.66C505.65 174.51 506.42 174.64 506.84 175.56Z" fill="#34358C"/>
<path d="M488.68 259.93C492.84 258.99 497 258.08 501.15 257.11C502.38 256.82 503.65 256.53 504.76 255.97C505.35 255.67 505.65 254.78 506.08 254.16C506.69 255.77 507.54 257.34 507.85 259.01C508.44 262.2 507.19 263.78 503.9 264.3C502.66 264.49 501.36 264.39 500.09 264.3C498.82 264.22 497.57 264 496.3 263.83C493.76 262.53 491.22 261.22 488.69 259.92L488.68 259.93Z" fill="#F8C1D6"/>
<path d="M531.06 245.51C533.61 245.25 534.87 242.95 536.88 241.8C538.48 240.89 539.9 239.61 541.24 238.32C541.86 237.72 542.101 236.73 542.521 235.91C544.981 238.84 547.48 241.74 549.13 245.23C549.87 246.8 550.5 248.46 550.89 250.14C551.26 251.72 550.231 252.97 548.581 253.15C547.161 253.3 545.72 253.23 544.29 253.26C540.17 251.37 536.09 249.44 532.41 246.75C531.92 246.39 531.51 245.93 531.06 245.51Z" fill="#FDC8DA"/>
<path d="M543.39 186.15C543.32 184.9 543.23 183.79 541.95 182.93C538.08 180.31 534.25 177.62 530.9 174.3C530.4 173.8 529.48 173.72 528.76 173.45C529.14 173.19 529.52 172.93 529.91 172.67C531 172.67 532.1 172.71 533.19 172.64C538.21 172.31 543.21 172.29 548.11 173.68H548.08C550.4 175.82 550.29 178.22 548.52 180.51C546.97 182.52 545.12 184.29 543.4 186.17L543.39 186.15Z" fill="#FBDCE9"/>
<path d="M548.11 173.68C543.21 172.28 538.21 172.3 533.19 172.64C532.1 172.71 531 172.67 529.91 172.67C530.44 172.36 530.97 171.79 531.51 171.78C535.66 171.68 539.82 171.66 543.97 171.7C545.61 171.72 547.13 172.19 548.1 173.68L548.11 173.68Z" fill="#4D4698"/>
<path d="M109.379 277.33C109.539 280.84 109.379 284.29 107.019 287.17C106.039 288.37 104.909 289.46 103.839 290.6C99.609 293.14 95.069 294.25 90.119 293.72C85.479 293.22 81.5691 291.23 78.3091 287.99C74.7191 284.43 73.669 280.11 74.969 275.23C75.299 274 75.759 272.81 76.159 271.61C80.9491 265.5 87.739 264.23 94.869 264.25C99.599 264.25 103.439 266.53 105.959 270.58C107.289 272.72 108.249 275.08 109.379 277.34V277.33ZM92.969 270.11C90.469 270.02 87.749 270.94 85.069 271.94C80.219 273.74 78.669 279.89 82.239 283.64C85.929 287.51 90.559 288.74 95.769 287.71C97.999 287.27 99.959 286.27 101.569 284.61C102.839 283.3 103.619 281.78 103.589 279.93C103.489 274.47 98.939 270.1 92.979 270.11H92.969Z" fill="#0F1977"/>
<path d="M126.63 202.25C126.29 202.71 125.9 203.68 125.19 204.14C123.04 205.51 119.63 203.73 119.38 201.19C119.34 200.75 119.47 200.23 119.68 199.84C120.38 198.51 122.11 197.95 123.85 198.42C125.49 198.86 126.68 200.32 126.63 202.26V202.25Z" fill="#232177"/>
<path d="M103.969 155.38C103.919 157.03 102.489 158.29 100.809 158.17C99.1292 158.06 97.839 156.65 97.939 155.04C98.039 153.38 99.4591 152.12 101.119 152.23C102.809 152.34 104.029 153.69 103.979 155.37L103.969 155.38Z" fill="#25247D"/>
<path d="M479.179 164.61C481.099 164.57 482.38 165.88 482.361 167.86C482.341 169.72 481.29 171.01 479.69 171.16C477.77 171.33 476.15 169.68 476.2 167.61C476.25 165.93 477.51 164.64 479.17 164.61L479.179 164.61Z" fill="#565C9F"/>
<path d="M482.929 179.48C483.389 179.35 483.83 179.16 484.3 179.1C486.44 178.8 487.63 179.5 487.87 181.16C488.16 183.12 487.14 184.75 485.35 185.16C483.65 185.55 482.119 184.57 481.899 182.81C481.809 182.05 482.039 181.24 482.129 180.45C482.399 180.13 482.659 179.8 482.929 179.48Z" fill="#262B82"/>
<path d="M418.449 199.7C420.019 199.65 421.45 201.08 421.43 202.67C421.41 204.12 420.25 205.31 418.76 205.39C417.02 205.49 415.6 204.32 415.53 202.73C415.46 201.17 416.82 199.74 418.44 199.69L418.449 199.7Z" fill="#323885"/>
<path d="M444.509 200.63C443.059 201.73 441.479 201.95 439.779 201.32C439.619 201.05 439.399 200.79 439.299 200.5C438.539 198.26 439.069 196.82 440.789 196.3C442.669 195.73 444.349 196.95 444.719 199.23C444.789 199.68 444.589 200.16 444.509 200.63Z" fill="#252E7E"/>
<path d="M469.271 189.09C469.76 189.47 470.27 189.83 470.74 190.24C471.71 191.07 471.731 192.16 471.321 193.23C470.881 194.36 469.93 195.04 468.75 194.85C467.72 194.69 466.75 194.13 465.76 193.74C465.72 193.13 465.69 192.51 465.65 191.9C465.96 191.25 466.281 190.61 466.591 189.96C467.251 189.65 467.911 189.35 468.581 189.04C468.811 189.14 469.041 189.15 469.281 189.08L469.271 189.09Z" fill="#1D247C"/>
<path d="M466.589 189.96C466.279 190.61 465.959 191.25 465.649 191.9C465.369 190.97 465.629 190.29 466.589 189.96Z" fill="#CBB8E6"/>
<path d="M468.57 189.04C467.91 189.35 467.25 189.65 466.58 189.96C466.93 188.97 467.62 188.72 468.57 189.04Z" fill="#CBB8E6"/>
<path d="M223.089 108.46C224.549 108.32 226.109 109.64 226.409 111.27C226.689 112.8 225.409 114.55 223.889 114.74C222.399 114.92 220.869 113.59 220.659 111.93C220.439 110.16 221.519 108.61 223.089 108.46Z" fill="#29348D"/>
<path d="M92.969 270.11C98.929 270.1 103.48 274.47 103.58 279.93C103.62 281.78 102.83 283.3 101.56 284.61C99.9597 286.27 97.9896 287.27 95.7596 287.71C90.5496 288.74 85.9196 287.51 82.2296 283.64C78.6596 279.89 80.2097 273.74 85.0597 271.94C87.7397 270.94 90.4596 270.02 92.9596 270.11L92.969 270.11ZM90.3296 274.41C89.3696 274.67 87.6797 275.05 86.0597 275.63C85.3597 275.88 84.7496 276.51 84.2296 277.08C83.5496 277.82 83.3496 278.77 83.7696 279.72C84.1796 280.65 84.9496 281.22 85.9696 281.3C86.5796 281.35 87.2795 281.33 87.8195 281.09C91.0195 279.69 93.6796 280.2 95.7096 283.16C95.7996 283.28 95.9496 283.37 96.0796 283.46C97.0496 284.14 98.3297 284.17 99.1797 283.51C100.14 282.76 100.65 281.71 100.24 280.59C99.8196 279.44 99.2196 278.25 98.3896 277.36C96.4496 275.3 93.8695 274.56 90.3195 274.4L90.3296 274.41Z" fill="#F7F1F6"/>
<path d="M90.3296 274.41C93.8796 274.58 96.4597 275.31 98.3997 277.37C99.2297 278.25 99.8297 279.44 100.25 280.6C100.66 281.72 100.15 282.77 99.1896 283.52C98.3396 284.18 97.0597 284.14 96.0897 283.47C95.9597 283.38 95.8097 283.3 95.7197 283.17C93.6797 280.21 91.0296 279.7 87.8297 281.1C87.2796 281.34 86.5897 281.36 85.9797 281.31C84.9697 281.23 84.1897 280.66 83.7797 279.73C83.3597 278.78 83.5597 277.83 84.2397 277.09C84.7597 276.52 85.3696 275.89 86.0696 275.64C87.6796 275.06 89.3697 274.69 90.3397 274.42L90.3296 274.41Z" fill="#17207C"/>
</svg>
