<svg width="268" height="247" viewBox="0 0 268 247" fill="none" xmlns="http://www.w3.org/2000/svg">
<path d="M238.509 64.9402C240.539 66.7202 242.689 68.3702 244.579 70.2902C252.009 77.8402 258.669 85.9702 263.179 95.6802C265.629 100.95 267.389 106.35 267.379 112.25C267.379 117.7 265.909 122.6 262.749 127.07C259.659 131.43 256.049 135.19 251.449 137.96C249.119 139.36 246.829 140.81 244.499 142.2C240.709 144.45 236.569 145.63 232.189 145.69C228.849 145.74 225.469 145.66 222.149 145.23C215.499 144.37 208.899 143.22 202.269 142.19C201.949 142.14 201.639 142.1 201.319 142.05C194.579 140.99 194.239 141.27 190.599 147.19C187.419 152.35 183.999 157.37 180.619 162.4C179.739 163.72 178.629 164.89 177.579 166.09C171.759 172.73 164.449 174.14 156.259 171.91C153.359 171.12 150.589 169.84 147.439 168.66C147.409 169.47 147.239 170.21 147.399 170.87C147.819 172.57 148.349 174.25 148.909 175.92C149.109 176.51 149.389 177.42 149.809 177.53C152.979 178.39 152.809 181.28 153.629 183.55C153.899 184.29 154.029 185.08 154.229 185.85C153.199 184.69 152.159 183.53 150.999 182.21C147.949 181.89 144.859 182.17 141.699 182.9C139.279 183.46 138.539 184.72 138.589 186.89C137.549 186.32 137.509 185.34 137.739 184.4C137.999 183.34 138.849 182.31 138.769 181.31C138.649 179.76 137.969 178.25 137.379 176.21C136.649 177.09 136.049 177.55 135.819 178.15C134.269 182.2 132.339 186.01 129.179 189.08C128.609 188.39 128.039 187.7 127.529 187.08C125.879 187.68 124.459 188.19 123.049 188.7C123.319 188.32 123.549 187.89 123.879 187.56C129.059 182.53 132.399 176.6 133.039 169.29C133.119 168.36 133.249 167.32 133.719 166.55C134.269 165.66 135.099 164.77 136.019 164.35C137.199 163.81 138.059 164.8 138.759 165.7C139.039 166.34 139.319 166.98 139.599 167.62C141.059 174.05 142.649 178.26 144.459 180.49C144.669 180.29 145.089 180.05 145.059 179.91C143.969 175.02 142.729 170.17 140.669 165.58C140.659 165.04 140.639 164.49 140.629 163.95C140.969 163.3 141.309 162.64 141.649 161.99C144.429 161.19 146.929 161.82 149.409 163.21C151.339 164.29 153.409 165.17 155.499 165.93C162.269 168.4 168.289 167.23 173.449 162.06C177.399 158.1 180.949 153.83 183.639 148.9C184.779 146.8 185.889 144.69 187.009 142.59C189.709 137.52 194.009 135.41 199.629 135.83C201.049 135.94 202.449 136.29 203.869 136.51C205.119 136.7 206.369 136.87 207.619 137.05V137.02C209.099 138.13 210.799 137.97 212.479 137.95C212.909 138.15 213.319 138.49 213.759 138.54C219.609 139.24 225.459 140.02 231.379 139.94C238.639 139.85 245.209 137.95 250.579 132.79C251.039 132.35 251.549 131.96 252.049 131.56C256.879 127.78 259.149 122.68 259.689 116.7C260.399 108.84 258.599 101.53 254.729 94.7002C254.629 94.2402 254.579 93.7602 254.419 93.3302C252.879 89.2002 249.709 86.2802 246.799 83.1802C246.259 82.4202 245.779 81.6002 245.159 80.9102C243.559 79.1402 241.889 77.4202 240.249 75.6902C239.289 74.4602 238.349 73.2202 237.359 72.0202C236.479 70.9502 235.539 69.9302 234.659 68.9302C235.509 66.8502 236.099 64.9902 238.529 64.9102L238.509 64.9402Z" fill="#251E6A"/>
<path d="M138.57 186.9C138.52 184.72 139.259 183.47 141.679 182.91C144.839 182.18 147.929 181.89 150.979 182.22C152.149 183.53 153.18 184.69 154.21 185.86C155.29 187.83 156.799 189 159.189 188.65C159.65 188.58 160.149 188.71 160.619 188.7C166.889 188.46 171.26 191.61 174.28 196.74C176.21 200.02 177.71 203.55 179.53 207.22C184.06 209.44 186.249 213.23 185.409 218.64C184.809 218.44 184.139 218.35 183.609 218.03C178.279 214.83 172.639 214.43 166.559 215.31C161.389 216.06 156.159 217.02 150.869 216.58C148.019 216.34 145.19 216.02 142.34 215.73C140.69 212.01 140.469 208.4 142.929 204.86C143.519 204.01 143.73 202.81 143.82 201.75C143.859 201.29 143.25 200.54 142.76 200.33C142.31 200.13 141.449 200.28 141.059 200.61C138.589 202.7 137.5 205.58 137.34 208.66C137.13 212.62 136.89 216.65 138.65 220.42C137.47 220.72 136.32 219.26 135.21 220.16C135.33 221.77 135.43 223.18 135.53 224.58C134.99 223.45 134.21 222.38 133.96 221.19C133.2 217.49 132.39 213.77 132.09 210.02C131.7 205.21 134.469 201.65 137.599 198.39C138.679 197.27 140.259 196.63 141.059 194.55C140.309 192.26 139.429 189.58 138.549 186.9H138.57Z" fill="#181866"/>
<path d="M16.6699 98.57C18.1699 95.07 19.4299 91.43 21.2299 88.08C26.0799 79.05 31.4999 70.36 38.6199 62.89C40.7199 60.68 41.6099 58.23 41.8199 55.17C42.1599 50.08 42.8899 45 43.7399 39.97C44.4399 35.85 45.9499 31.94 48.2699 28.44C54.3599 19.24 61.4999 18.52 69.9399 25.69C71.9799 27.42 73.5599 29.72 75.2699 31.83C76.3699 33.18 77.3199 34.66 78.4599 36.26C82.3699 35.89 85.8099 34.1 89.4299 32.99C93.0899 31.87 96.6799 30.49 100.24 29.07C103.77 27.65 107.48 26.58 110.86 24.11C110.67 21 110.38 17.83 110.3 14.65C110.24 12.45 109.57 10.2 110.59 8.04004C111 11.44 111.39 14.85 111.83 18.24C111.96 19.28 112.76 19.83 113.83 19.74C114.72 19.67 115.32 19.21 115.42 18.32C115.54 17.23 115.54 16.13 115.6 15.04C115.82 15.04 116.03 15.06 116.25 15.08C116.61 17.12 116.99 19.15 117.34 21.19C117.85 24.17 116.83 26.57 114.38 28.26C113.08 29.16 111.63 29.88 110.19 30.53C100.57 34.85 90.5999 38.21 80.5799 41.45C79.8299 41.69 79.0299 41.83 78.2499 41.96C76.6999 42.21 75.3999 41.66 74.4299 40.47C73.7299 39.61 73.2099 38.6 72.5099 37.73C70.5199 35.26 68.4799 32.83 66.4599 30.39C65.3599 29.52 64.3499 28.47 63.1399 27.8C59.3199 25.67 56.7799 26.14 53.7899 29.39C53.1499 30.08 52.5299 30.87 52.1599 31.72C51.1499 34.05 50.1099 36.39 49.3699 38.81C47.4799 44.95 47.1999 51.36 46.8099 57.7C46.6099 60.95 46.1699 63.6501 43.1199 65.3401C42.8599 65.4801 42.7099 65.82 42.4999 66.06C37.8899 71.15 33.7299 76.55 30.1999 82.47C27.0899 87.68 24.1499 92.9501 21.8699 98.58C21.5799 99.3 21.0699 99.9201 20.6599 100.59C20.4399 99.0901 19.5199 98.5101 18.0799 98.5901C17.6199 98.6101 17.1599 98.5901 16.6999 98.5901L16.6699 98.57Z" fill="#6C3B7C"/>
<path d="M115.589 15.0501C115.539 16.1401 115.529 17.2401 115.409 18.3301C115.309 19.2101 114.709 19.6701 113.819 19.7501C112.749 19.8401 111.949 19.2901 111.819 18.2501C111.379 14.8501 110.989 11.4501 110.579 8.05012C110.409 7.80012 110.449 7.59013 110.679 7.41013C111.869 6.71013 111.709 5.56014 111.649 4.45014L111.629 4.49012C113.029 3.86012 114.099 2.93014 114.489 1.38014C116.429 -0.0498648 118.579 -0.119883 120.839 0.330117C127.169 1.61012 133.149 3.88012 138.259 7.83012C143.039 11.5301 147.589 15.5601 152.019 19.6701C154.779 22.2401 157.709 23.8501 161.459 24.7901C172.729 27.6301 184.039 30.4601 194.649 35.4101C196.209 36.1401 197.659 37.1201 199.159 37.9901C197.649 38.3201 196.359 37.7201 195.059 37.0901C193.809 36.4901 192.519 35.9501 191.329 35.4201C189.499 36.9701 189.789 38.6101 190.269 40.3501C191.449 40.9701 192.639 41.4701 193.669 42.1901C194.269 42.6101 194.609 43.3801 195.069 44.0001C194.479 43.7901 193.839 43.6601 193.309 43.3401C185.449 38.6801 176.969 35.5001 168.279 32.8201C164.639 31.7001 161.049 30.4101 157.209 29.9501C155.709 29.7701 154.189 28.9601 152.889 28.1101C151.309 27.0701 149.929 25.7101 148.509 24.4301C144.729 21.0101 141.029 17.5201 137.219 14.1401C133.079 10.4801 128.169 8.25012 122.879 6.83012C120.569 6.21012 118.199 5.83012 115.809 6.49012C115.679 6.57012 115.469 6.62012 115.419 6.74012C114.149 9.52012 113.959 12.2901 115.569 15.0301L115.589 15.0501Z" fill="#5E3579"/>
<path d="M135.549 224.58C135.449 223.18 135.349 221.77 135.229 220.16C136.339 219.26 137.489 220.72 138.669 220.42C139.229 220.38 139.779 220.33 140.339 220.29C145.109 220.37 149.889 220.47 154.659 220.5C155.599 220.5 156.549 220.31 157.489 220.12C160.609 219.5 163.779 219.06 166.809 218.15C170.659 216.98 173.679 218.44 176.529 220.64C177.519 221.4 178.229 222.52 179.069 223.47C179.069 224.65 179.069 225.82 179.069 227C178.729 228.14 178.689 229.22 179.739 230.05C179.789 230.69 179.829 231.33 179.879 231.97C178.929 232.45 177.989 232.54 177.039 231.98C176.389 230.98 175.749 229.99 175.099 228.99C175.039 228.38 175.159 227.66 174.879 227.18C174.629 226.75 173.939 226.33 173.439 226.34C172.479 226.35 172.169 227.17 172.309 228.01C172.379 228.41 172.799 228.76 173.059 229.13C173.209 229.44 173.199 229.74 173.029 230.03C172.309 230.52 172.039 231.17 172.279 232.02C172.279 232.33 172.269 232.63 172.219 232.94C171.259 232.63 170.289 232.33 169.329 232.02C168.899 231.17 168.479 230.33 167.909 229.2C164.089 230.15 160.359 231.32 156.779 232.98C155.659 233.61 155.979 234.22 156.809 234.82C156.839 235.14 156.869 235.47 156.899 235.79C154.819 237.05 153.069 237.02 151.809 234.6C151.679 234.34 150.999 234.36 150.499 234.23C150.159 235.35 149.839 236.36 149.489 237.51C148.319 237.62 147.239 237.72 146.169 237.82C145.699 237.2 145.229 236.59 144.829 236.07C143.289 236.07 141.869 236.14 140.459 236.06C135.459 235.75 132.829 231.86 134.439 227.17C134.739 226.28 135.169 225.43 135.539 224.57L135.549 224.58ZM158.539 226.81C158.669 225.31 158.009 224.68 156.899 224.81C155.649 224.97 154.429 225.4 153.199 225.72C148.899 226.83 144.589 227.94 140.289 229.08C140.039 229.15 139.869 229.5 139.489 229.91C139.939 230.29 140.359 230.92 140.839 230.98C141.919 231.11 143.079 231.14 144.129 230.89C148.299 229.89 152.449 228.78 156.589 227.66C157.309 227.47 157.969 227.06 158.539 226.8V226.81Z" fill="#101564"/>
<path d="M195.069 44.0001C194.609 43.3801 194.269 42.6101 193.669 42.1901C192.639 41.4701 191.449 40.9701 190.269 40.3501C189.789 38.6201 189.499 36.9701 191.329 35.4201C192.519 35.9501 193.799 36.4901 195.059 37.0901C196.359 37.7201 197.659 38.3201 199.159 37.9901L199.1 37.9699C199.72 38.6499 200.22 39.5599 200.98 39.9799C203.78 41.4999 206.65 42.8999 209.53 44.2499C210.22 44.5699 211.06 44.5599 211.83 44.6999C214.02 45.9399 216.39 46.9399 218.37 48.4499C224.78 53.3499 231.06 58.4299 237.36 63.4699C237.83 63.8399 238.12 64.4399 238.49 64.9399C236.06 65.0199 235.47 66.8799 234.62 68.9599C235.5 69.9599 236.44 70.9799 237.32 72.0499C238.31 73.2499 239.25 74.4899 240.21 75.7199C239.42 75.2099 238.56 74.7899 237.86 74.1799C226.48 64.2199 214.33 55.3499 201.19 47.8499C200.1 47.2299 199.1 46.4499 198.06 45.7399C197.49 44.4299 196.53 43.7699 195.07 43.9599L195.05 43.9899L195.069 44.0001Z" fill="#4C2E74"/>
<path d="M75.0106 189.95C74.0906 189.82 73.2406 189.53 72.3906 190.41C69.4106 193.5 66.4206 196.61 63.2706 199.53C55.2506 206.96 45.6106 211.46 35.2206 214.41C30.5906 215.73 25.8006 216.13 21.0406 214.79C18.4306 214.05 15.8706 213.18 14.1406 210.87C16.5006 210.98 18.7906 210.79 20.8706 209.38C20.7706 208.93 20.6706 208.48 20.5706 208.04C23.4906 209.02 26.4206 209.35 29.4106 208.25C30.4406 207.87 31.5806 207.78 32.6606 207.53C41.6106 205.42 49.5206 201.08 57.1506 196.13C62.2306 192.84 66.9606 189.17 70.4706 184.14C70.3706 186.78 71.1906 188.68 74.2006 188.94C74.5006 188.97 74.7506 189.61 75.0206 189.96L75.0106 189.95Z" fill="#64387A"/>
<path d="M75.0092 189.95C74.7392 189.59 74.4892 188.95 74.1892 188.93C71.1692 188.67 70.3592 186.77 70.4592 184.13C72.7792 181.88 73.5992 181.72 75.6292 183.27C76.5192 183.94 77.3192 184.73 78.1592 185.47C82.0792 188.91 86.5592 191.23 91.7192 192.16C93.7592 192.53 95.7792 193.03 97.8292 193.34C106.749 194.68 115.349 194.21 123.029 188.73C124.449 188.22 125.859 187.7 127.509 187.11C128.019 187.73 128.589 188.42 129.159 189.11C126.959 192.87 123.479 195.08 119.579 196.57C111.869 199.51 103.999 201.08 95.7792 198.68C93.6492 198.06 91.4192 197.78 89.2492 197.29C83.8692 196.09 79.0792 193.74 75.0192 189.96L75.0092 189.95Z" fill="#181866"/>
<path d="M20.5599 208.02C20.6599 208.47 20.7599 208.92 20.8599 209.36C18.7799 210.77 16.4899 210.96 14.1299 210.85C8.89994 206.3 5.92993 200.29 3.54993 193.99C1.27993 187.98 0.0799241 181.69 0.109924 175.23C0.139924 169.81 -0.040071 164.36 1.23993 159.03C2.15993 158.44 2.17995 157.5 2.31995 156.55C2.64995 154.22 3.04995 151.9 3.50995 149.59C3.57995 149.26 4.21994 148.75 4.49994 148.81C5.01994 148.92 5.83994 149.35 5.87994 149.71C6.09994 151.9 6.12994 154.11 6.21994 156.31C6.15994 158.82 6.08994 161.33 6.02994 163.85C5.81994 164.05 5.80995 164.26 6.00995 164.48C4.96995 168.72 4.97995 175.1 6.03995 179.38C7.10995 190.84 10.8199 200.96 20.5599 208.02Z" fill="#28216B"/>
<path d="M6.22025 156.32C6.13025 154.12 6.09994 151.91 5.87994 149.71C5.83994 149.35 5.01994 148.93 4.49994 148.81C4.22994 148.75 3.57995 149.26 3.50995 149.59C3.04995 151.9 2.64995 154.22 2.31995 156.55C2.17995 157.5 2.15993 158.44 1.23993 159.03C1.62993 155.39 1.81026 151.72 2.45026 148.13C5.24026 132.37 9.28025 116.95 15.0403 102C15.4903 100.82 16.1203 99.7198 16.6703 98.5798C17.1303 98.5798 17.5902 98.6098 18.0502 98.5798C19.4902 98.5098 20.4202 99.0898 20.6302 100.58V100.53C19.3402 101.14 19.5403 102.31 19.5703 103.41C19.3203 104.32 19.1202 105.25 18.8102 106.14C13.9602 119.94 10.1403 134.01 7.76025 148.45C7.33025 151.08 6.73024 153.69 6.21024 156.31L6.22025 156.32Z" fill="#543377"/>
<path d="M179.069 223.47C178.229 222.52 177.519 221.4 176.529 220.64C173.679 218.44 170.659 216.99 166.809 218.15C163.779 219.07 160.609 219.5 157.489 220.12C156.559 220.31 155.609 220.51 154.659 220.5C149.889 220.47 145.109 220.37 140.339 220.29C141.639 219.05 142.51 217.61 142.35 215.73C145.19 216.02 148.03 216.34 150.88 216.58C156.17 217.02 161.4 216.06 166.57 215.31C172.65 214.43 178.29 214.83 183.62 218.03C184.15 218.35 184.81 218.44 185.42 218.64C185.02 219.25 184.75 220.06 184.19 220.44C182.55 221.54 180.79 222.48 179.07 223.48L179.069 223.47Z" fill="#854482"/>
<path d="M146.17 237.83C147.25 237.73 148.32 237.63 149.49 237.52C149.84 236.38 150.15 235.36 150.5 234.24C151 234.37 151.67 234.35 151.81 234.61C153.07 237.03 154.82 237.06 156.9 235.8C157.23 236.83 157.73 237.84 157.87 238.89C158.41 242.98 156.4 245.52 152.3 246.04C150.54 246.26 149.16 245.46 148.35 243.98C147.3 242.06 146.16 240.14 146.18 237.82L146.17 237.83ZM155 240.13C154.98 238.9 153.82 237.75 152.55 237.7C151.47 237.66 150.46 238.98 150.49 240.41C150.51 241.52 151.53 242.56 152.59 242.55C153.87 242.54 155.01 241.39 154.99 240.13H155Z" fill="#6A4983"/>
<path d="M177.03 231.99C177.98 232.55 178.93 232.45 179.87 231.98C180.75 233.38 180.36 234.82 179.66 236.04C179.14 236.95 178.21 237.74 177.28 238.27C174.64 239.79 172.32 239.14 170.9 236.43C170.18 235.06 169.83 233.5 169.32 232.03C170.28 232.34 171.25 232.64 172.21 232.95C172.53 233.29 172.81 233.69 173.18 233.97C174.55 235.06 175.37 235.02 176.32 233.72C176.68 233.23 176.8 232.57 177.03 231.99Z" fill="#5E427F"/>
<path d="M211.849 44.7002C211.079 44.5602 210.239 44.5702 209.549 44.2502C206.669 42.8902 203.789 41.5002 200.999 39.9802C200.229 39.5602 199.739 38.6502 199.119 37.9702C203.589 39.7902 208.039 41.6502 211.859 44.7002H211.849Z" fill="#5E3579"/>
<path d="M114.501 1.37012C114.111 2.92012 113.041 3.86013 111.641 4.48013C111.861 2.77013 112.921 1.83012 114.501 1.37012Z" fill="#6C3B7C"/>
<path d="M179.069 227C178.729 228.14 178.689 229.22 179.739 230.05C179.999 228.93 179.959 227.87 179.069 227Z" fill="#5E427F"/>
<path d="M111.66 4.43994C111.71 5.54994 111.87 6.68993 110.69 7.39993C110.53 6.25993 110.73 5.22994 111.66 4.43994Z" fill="#6C3B7C"/>
<path d="M156.811 234.83C155.981 234.23 155.661 233.62 156.781 232.99C156.781 233.6 156.801 234.22 156.811 234.83Z" fill="#6A4983"/>
<path d="M20.5599 208.02C10.8199 200.96 7.11995 190.84 6.03995 179.38C6.02995 174.41 6.01995 169.45 6.00995 164.48C5.80995 164.26 5.81994 164.05 6.02994 163.85C6.66994 162.67 7.29918 161.48 7.92918 160.33C10.2092 160.76 12.3592 161.62 14.3192 160.25C14.4792 159.75 14.6492 159.46 14.6692 159.16C14.9892 153.32 14.2292 147.42 15.7092 141.64C15.7492 141.49 15.7092 141.32 15.7192 141.16C15.9392 139.6 16.1192 138.04 16.3792 136.49C16.7792 134.15 17.1592 131.81 17.6592 129.5C19.2892 122.08 21.1392 114.71 23.7692 107.57C24.0792 106.73 24.8292 106.05 25.3792 105.29C24.5592 108.16 23.7392 111.04 22.9092 113.91C21.8892 117.39 20.5292 120.78 20.4692 124.48C20.1792 125.02 19.7392 125.54 19.6092 126.12C18.1492 132.8 16.7292 139.49 16.6392 146.38C16.6392 147.02 16.6792 147.69 16.4892 148.28C14.7292 153.85 16.0092 159.39 16.9592 164.84C17.6192 168.59 19.1892 172.3 21.8592 175.11C27.6992 181.25 34.7992 183.62 43.1492 181.08C46.0492 180.2 48.9092 179.17 51.7792 178.21C56.7892 176.52 61.4692 174.32 65.8192 171.17C70.5292 167.76 75.7392 167.29 81.0292 170.48C83.0592 171.7 85.3092 173.03 87.5692 173.26C91.3292 173.64 95.1492 173.73 98.9792 172.78C103.829 171.58 108.359 169.68 112.819 167.55C114.239 166.87 115.579 165.95 116.819 164.97C120.319 162.21 123.719 159.33 127.209 156.56C128.199 155.78 129.299 155.07 130.449 154.57C133.919 153.06 137.579 152.74 141.219 153.72C144.619 154.63 147.919 154.51 151.049 153.12C154.389 151.63 157.659 149.9 160.349 147.35C165.899 142.08 171.049 136.39 177.039 131.56C178.809 130.13 180.529 128.86 182.729 128.17C185.469 127.31 188.119 126.18 191.089 126.34C191.859 126.38 192.639 126.02 193.419 125.89C198.239 125.12 202.479 122.86 206.729 120.65C211.819 118.01 215.679 114.15 218.369 109.04C220.029 105.87 220.649 102.43 221.469 99.0303C222.449 94.9303 222.439 90.8202 221.499 86.7302C220.789 83.6402 219.999 80.5602 219.249 77.4702C219.779 78.2402 220.489 78.9402 220.819 79.7902C223.419 86.4702 223.629 93.3702 222.659 100.38C222.589 100.91 222.679 101.45 222.689 102.1C224.879 101.8 226.049 100.8 227.129 99.2502C229.679 95.5802 231.889 91.7502 233.779 87.7202C235.389 84.2902 237.469 81.1302 239.379 78.0502C239.829 78.0802 240.039 78.0302 240.129 78.1102C241.199 79.0402 242.269 79.9702 243.319 80.9202C244.369 81.8602 245.179 83.1502 246.799 83.2302C249.719 86.3302 252.879 89.2503 254.419 93.3802C254.579 93.8203 254.629 94.3002 254.729 94.7502C253.649 93.6402 252.579 92.5303 251.529 91.4603C249.539 91.6403 248.269 92.8902 247.169 94.2402C245.369 96.4502 243.749 98.8003 241.969 101.02C238.909 104.86 235.969 108.81 232.659 112.44C225.689 120.09 217.899 126.87 209.629 133.07C208.129 134.2 207.659 135.43 207.609 137.08C206.359 136.9 205.109 136.73 203.859 136.54C202.449 136.32 201.049 135.97 199.619 135.86C193.999 135.44 189.699 137.55 186.999 142.62C185.879 144.73 184.769 146.84 183.629 148.93C180.949 153.87 177.399 158.13 173.439 162.09C168.279 167.26 162.259 168.43 155.489 165.96C153.409 165.2 151.329 164.32 149.399 163.24C146.919 161.85 144.409 161.22 141.639 162.02C140.609 162.31 140.379 163.02 140.619 163.98C140.629 164.52 140.649 165.07 140.659 165.61C140.299 166.29 139.949 166.98 139.589 167.66C139.729 166.83 139.559 166.15 138.749 165.74C138.049 164.84 137.189 163.85 136.009 164.39C135.089 164.81 134.259 165.71 133.709 166.59C133.239 167.36 133.109 168.39 133.029 169.33C132.389 176.64 129.049 182.58 123.869 187.6C123.539 187.92 123.319 188.35 123.039 188.74C115.359 194.22 106.759 194.68 97.8392 193.35C95.7892 193.04 93.7692 192.54 91.7292 192.17C86.5592 191.24 82.0892 188.92 78.1692 185.48C77.3292 184.74 76.5292 183.96 75.6392 183.28C73.6092 181.74 72.7892 181.89 70.4692 184.14C66.9592 189.17 62.2292 192.84 57.1492 196.13C49.5192 201.08 41.6092 205.41 32.6592 207.53C31.5792 207.79 30.4392 207.87 29.4092 208.25C26.4192 209.35 23.4992 209.02 20.5692 208.04L20.5599 208.02Z" fill="#BFF4D1"/>
<path d="M207.6 137.06C207.66 135.41 208.12 134.18 209.62 133.05C217.89 126.85 225.68 120.07 232.65 112.42C235.95 108.79 238.9 104.84 241.96 101C243.73 98.7699 245.36 96.4199 247.16 94.2199C248.26 92.8699 249.52 91.6199 251.52 91.4399C252.57 92.5199 253.64 93.6299 254.72 94.7299C258.6 101.56 260.4 108.86 259.68 116.73C259.14 122.71 256.87 127.81 252.04 131.59C251.54 131.98 251.03 132.38 250.57 132.82C245.2 137.97 238.63 139.88 231.37 139.97C225.45 140.04 219.6 139.27 213.75 138.57C213.31 138.52 212.9 138.18 212.47 137.98C211.11 136.32 209.269 137.17 207.619 137.05L207.62 137.08L207.6 137.06Z" fill="#D0EBD5"/>
<path d="M246.78 83.2103C245.16 83.1303 244.35 81.8403 243.3 80.9003C242.25 79.9503 241.18 79.0103 240.11 78.0903C240.02 78.0103 239.82 78.0603 239.36 78.0303C237.45 81.1203 235.37 84.2703 233.76 87.7003C231.87 91.7303 229.66 95.5702 227.11 99.2302C226.03 100.78 224.86 101.78 222.67 102.08C222.65 101.44 222.56 100.89 222.64 100.36C223.61 93.3502 223.4 86.4503 220.8 79.7703C220.47 78.9203 219.76 78.2203 219.23 77.4503C218.7 76.6703 218.04 75.9502 217.67 75.1002C215.43 69.9402 212.42 65.3003 208.39 61.3803C206.12 59.1703 203.69 57.1002 201.23 55.1002C196.57 51.3002 191.8 47.6302 186.46 44.8003C185.86 44.5003 185.27 44.2003 184.67 43.8903L184.62 43.8602C184 43.5402 183.37 43.2303 182.75 42.9103L182.72 42.8903C182.09 42.5803 181.46 42.2703 180.83 41.9603L180.79 41.9303C180.12 40.8103 179.01 40.9603 177.96 40.9303H177.97C177.32 40.6303 176.68 40.3103 176.03 40.0003C175.34 38.9003 174.23 39.0203 173.16 39.0203C172.23 38.4503 171.35 37.5303 170.36 37.3703C164.91 36.5003 159.54 34.9303 153.93 35.2203C152.66 35.2903 151.39 35.2603 150.12 35.2003C146.59 35.0603 143.69 33.7603 141.64 30.7303C139.43 27.4503 137.16 24.2003 134.83 21.0003C133.91 19.7303 132.94 18.3503 131.67 17.5003C128.65 15.4803 125.4 13.7903 121.96 12.5603C120.29 11.9603 118.58 11.8903 116.87 12.7103C116.65 13.5503 116.45 14.3103 116.25 15.0603C116.03 15.0403 115.82 15.0303 115.6 15.0203L115.58 15.0003C115.66 12.1503 115.74 9.31025 115.82 6.46025C118.21 5.80025 120.58 6.18025 122.89 6.80025C128.18 8.22025 133.09 10.4402 137.23 14.1102C141.04 17.4902 144.75 20.9803 148.52 24.4003C149.93 25.6803 151.32 27.0302 152.9 28.0802C154.19 28.9302 155.72 29.7403 157.22 29.9203C161.06 30.3903 164.65 31.6703 168.29 32.7903C176.98 35.4703 185.46 38.6503 193.32 43.3103C193.85 43.6203 194.49 43.7503 195.08 43.9703L195.1 43.9403C195.79 45.0403 196.82 45.6003 198.09 45.7203C199.13 46.4303 200.13 47.2002 201.22 47.8302C214.36 55.3302 226.51 64.2002 237.89 74.1602C238.59 74.7702 239.45 75.1903 240.24 75.7003C241.88 77.4403 243.54 79.1502 245.15 80.9202C245.77 81.6102 246.25 82.4303 246.79 83.1903L246.78 83.2103Z" fill="#B4F9CF"/>
<path d="M139.58 167.64C139.94 166.96 140.29 166.27 140.65 165.59C142.71 170.18 143.95 175.03 145.04 179.92C145.07 180.06 144.65 180.31 144.44 180.5C142.63 178.27 141.04 174.06 139.58 167.63V167.64Z" fill="#97B3B4"/>
<path d="M207.609 137.03C209.259 137.15 211.099 136.3 212.459 137.96C210.779 137.98 209.069 138.14 207.609 137.03Z" fill="#BFF4D1"/>
<path d="M138.74 165.72C139.54 166.13 139.72 166.82 139.58 167.64C139.3 167 139.02 166.36 138.74 165.72Z" fill="#97B3B4"/>
<path d="M140.609 163.96C140.369 163 140.609 162.29 141.629 162C141.289 162.65 140.949 163.31 140.609 163.96Z" fill="#97B3B4"/>
<path d="M142.35 215.72C142.51 217.61 141.65 219.04 140.34 220.28C139.78 220.32 139.23 220.37 138.67 220.41C136.9 216.64 137.15 212.61 137.36 208.65C137.52 205.57 138.61 202.69 141.08 200.6C141.47 200.27 142.32 200.12 142.78 200.32C143.27 200.53 143.88 201.28 143.84 201.74C143.75 202.8 143.54 204 142.95 204.85C140.49 208.4 140.71 212 142.36 215.72H142.35Z" fill="#DCDCF0"/>
<path d="M116.239 15.0898C116.439 14.3298 116.639 13.5698 116.859 12.7398C118.569 11.9198 120.279 11.9998 121.949 12.5898C125.389 13.8198 128.639 15.5098 131.659 17.5298C132.929 18.3798 133.889 19.7598 134.819 21.0298C137.149 24.2298 139.419 27.4798 141.629 30.7598C143.669 33.7898 146.579 35.0798 150.109 35.2298C151.379 35.2798 152.659 35.3098 153.919 35.2498C159.529 34.9598 164.899 36.5398 170.349 37.3998C171.349 37.5598 172.219 38.4798 173.149 39.0498C172.519 38.9998 171.859 39.0698 171.269 38.8998C166.409 37.4598 161.449 36.8798 156.389 37.1498C155.219 37.2098 154.039 37.2898 152.549 37.3798C155.359 39.9498 156.459 40.5298 158.589 41.0098C159.309 41.1698 159.959 41.6198 160.649 41.9298C157.619 41.7998 154.649 42.0598 151.699 42.8298C150.589 43.1198 149.629 43.2798 148.869 44.2698C148.309 44.9998 147.459 45.5198 146.699 46.0698C144.989 47.3098 143.329 48.7298 142.899 50.7998C142.509 52.7198 142.209 54.9998 142.869 56.7398C144.149 60.1098 145.409 63.6698 148.139 66.2398C149.359 67.3898 151.089 67.9898 152.559 68.8898C156.679 71.3898 160.729 70.9798 164.549 68.3598C166.889 66.7598 168.989 64.8098 171.199 63.0198C171.159 63.3398 171.219 63.7098 171.069 63.9598C168.399 68.5298 164.439 71.1598 159.149 71.6798C157.879 71.7998 156.589 71.6498 155.319 71.7198C152.739 71.8598 150.669 70.8498 148.899 69.0598C147.549 67.6998 146.299 66.1898 144.789 65.0498C141.999 62.9398 140.209 60.2698 139.259 56.9298C138.969 55.8998 138.239 54.9998 137.749 54.1198C136.139 53.8898 134.739 53.5898 133.319 53.5098C131.269 53.3998 130.339 54.1698 129.999 56.1298C129.729 57.6698 129.539 59.2298 129.339 60.6398C130.329 62.3098 131.359 62.8998 133.349 62.5498C135.729 62.1398 138.309 65.3298 137.329 67.1598C136.359 68.9698 135.119 70.7498 132.629 70.6598C133.149 70.0598 133.749 69.5198 134.179 68.8598C135.049 67.5298 135.029 66.3198 134.249 65.3198C133.459 64.2998 132.239 63.9998 130.799 64.4898C130.349 64.6398 129.919 64.8698 129.489 65.0798C126.859 66.3698 124.039 66.8698 121.149 66.9498C116.199 67.0998 111.279 67.1798 106.549 65.1998C104.659 64.4098 103.679 64.9398 102.579 66.7198C102.079 67.5298 101.689 68.4098 101.199 69.2298C99.2088 72.5298 96.9687 75.5698 93.7387 77.8298C90.8387 79.8598 87.8087 81.5499 84.4187 82.5899C83.2187 82.9599 82.0188 83.4498 80.9488 84.1098C79.9088 84.7498 79.6587 85.8798 79.9887 87.0698C80.2787 88.0998 81.3287 88.6698 82.6787 88.4998C83.4687 88.3998 84.2688 88.2798 85.0188 88.0198C92.5688 85.3798 99.1388 81.3798 103.709 74.5998C104.409 73.5598 105.179 72.5698 105.979 71.4598C108.629 71.7898 111.129 72.1898 113.659 72.3898C119.409 72.8498 125.129 72.5498 130.799 71.4298C130.619 71.6898 130.489 72.0898 130.249 72.1798C127.849 73.0098 125.449 73.7299 122.839 73.6498C119.179 73.5398 115.509 73.6298 111.839 73.6198C109.519 73.6198 107.519 74.1898 106.069 76.4598C107.479 77.9798 108.829 78.7898 110.749 77.8998C111.619 77.4998 112.459 77.0198 113.369 76.7398C114.149 76.4898 114.959 76.5598 115.209 77.8898C114.629 78.6298 113.889 79.4398 113.289 80.3498C112.269 81.8798 112.999 83.8398 114.759 83.9998C116.479 84.1498 118.279 84.1299 119.959 83.7799C123.619 83.0099 127.119 82.7998 130.669 84.4298C132.039 85.0598 133.759 85.1098 135.319 85.0998C138.789 85.0698 141.869 86.0998 144.759 87.9498C145.949 88.7098 147.309 89.2098 148.539 89.9298C150.309 90.9598 152.059 92.0398 153.749 93.1998C154.179 93.4998 154.359 94.1798 154.989 95.2598C150.609 94.0298 146.789 93.1498 143.109 91.8498C139.989 90.7498 136.849 90.8998 133.669 90.9398C132.219 90.9598 131.329 91.7999 130.809 93.0899C129.069 92.9099 127.329 92.6298 125.579 92.5798C122.389 92.4898 119.199 92.6198 116.439 94.5798C114.589 95.6998 112.729 96.8198 110.879 97.9298C110.439 97.3098 109.999 96.6998 109.609 96.1398C106.335 97.3998 103.845 99.1432 102.139 101.37C101.749 101.87 101.469 102.57 100.959 102.84C96.8888 105.03 94.9288 108.83 93.0688 112.77C90.8788 117.42 90.5088 121.92 93.6988 126.31C93.9788 126.7 93.8887 127.37 93.9887 128.09C91.3887 127.71 89.8988 126.44 88.6888 124.62C87.7288 123.18 86.8088 121.33 85.3988 120.66C82.7188 119.4 81.7488 117.29 81.0788 114.77C80.7788 113.66 80.4788 112.6 78.6488 112.22C76.6988 113.71 74.0587 114.01 71.2987 114C70.3987 114 69.4487 114.46 68.6087 114.87C66.5287 115.89 66.2487 117.12 67.4687 119.09C67.8987 119.79 69.2287 120.18 68.3487 121.47C66.4787 121.57 64.4788 121.34 62.6988 121.87C60.3188 122.58 57.9787 122.54 55.5887 122.55C50.1487 122.57 44.7187 122.53 39.2787 122.57C37.3387 122.59 35.4688 122.4 33.6588 121.66C31.7188 120.86 29.6987 120.52 27.5787 120.62C22.0187 120.88 23.5387 119.75 20.4688 124.47C20.5187 120.77 21.8888 117.38 22.9088 113.9C23.7488 111.03 24.5588 108.15 25.3788 105.28C27.3188 101.65 29.2487 98.0098 31.2087 94.3898C32.1187 92.7098 32.8987 90.9398 34.0487 89.4398C37.9087 84.3998 41.8788 79.4398 46.4788 75.0398C47.8588 73.7198 49.2887 72.4298 50.4887 70.9598C53.2587 67.5798 55.2588 63.8999 55.0688 59.2799C54.9188 55.4699 55.1587 51.6398 55.0187 47.8198C54.8787 43.9298 55.8988 40.2898 56.9488 36.6198C57.5988 34.3398 59.0387 32.8598 60.9688 31.5298C62.7287 30.3198 64.5488 30.4198 66.4388 30.3898C68.4587 32.8298 70.4987 35.2598 72.4887 37.7298C73.1887 38.5998 73.7087 39.6098 74.4087 40.4698C75.3787 41.6598 76.6787 42.1998 78.2287 41.9598C79.0087 41.8398 79.8087 41.6898 80.5587 41.4498C90.5788 38.2098 100.549 34.8498 110.169 30.5298C111.619 29.8798 113.059 29.1598 114.359 28.2598C116.809 26.5698 117.829 24.1698 117.319 21.1898C116.969 19.1498 116.589 17.1098 116.229 15.0798L116.239 15.0898ZM73.3288 93.0398C73.2888 90.4598 72.6187 87.9198 71.1587 85.8498C69.1687 83.0198 67.0488 80.0298 62.9088 80.1798C60.0888 78.6898 57.3188 80.0098 54.5088 80.2598C50.3988 80.6298 48.5588 83.5498 46.7588 86.6198C47.4088 89.0598 45.6988 90.8698 44.8488 92.7898C43.7388 95.3098 43.7487 97.5098 44.3587 100.14C45.1887 103.72 47.2088 106.22 50.1288 107.98C52.8788 109.64 55.9087 110.72 59.2188 109.25C60.0788 108.87 61.0587 108.77 61.9887 108.55C65.0487 107.81 67.5487 106.29 69.3687 103.63C71.5687 100.42 73.3188 97.0899 73.3288 93.0299V93.0398ZM126.739 45.6898C123.799 45.5798 121.479 47.3898 121.319 49.9298C121.159 52.4098 123.129 54.3298 125.879 54.3698C128.489 54.4198 130.849 52.1098 130.809 49.5498C130.779 47.4198 129.039 45.7698 126.739 45.6798V45.6898ZM78.6587 73.5698C81.5987 73.6898 84.3088 70.1498 83.4588 67.2998C83.0388 65.9098 81.7787 64.8398 80.3587 64.7298C78.6287 64.5998 77.2688 65.3398 76.2788 66.6998C75.1888 68.1998 74.7687 69.8798 75.6187 71.6098C76.2087 72.8198 77.2787 73.4898 78.6687 73.5598L78.6587 73.5698Z" fill="#FFF1F6"/>
<path d="M66.4393 30.3998C64.5493 30.4298 62.7393 30.3299 60.9693 31.5399C59.0393 32.8699 57.6093 34.3499 56.9493 36.6299C55.8993 40.2999 54.8793 43.9398 55.0193 47.8298C55.1593 51.6398 54.9193 55.4698 55.0693 59.2898C55.2493 63.8998 53.2493 67.5898 50.4893 70.9698C49.2893 72.4398 47.8593 73.7298 46.4793 75.0498C41.8793 79.4498 37.9093 84.4099 34.0493 89.4499C32.8993 90.9499 32.1193 92.7299 31.2093 94.3999C29.2493 98.0199 27.3192 101.66 25.3792 105.29C24.8292 106.04 24.0792 106.72 23.7692 107.57C21.1492 114.71 19.2892 122.08 17.6592 129.5C17.1492 131.81 16.7692 134.15 16.3792 136.49C16.1192 138.04 15.9292 139.6 15.7192 141.16C15.6992 141.32 15.7492 141.49 15.7092 141.64C14.2392 147.41 14.9892 153.32 14.6692 159.16C14.6492 159.46 14.4892 159.75 14.3192 160.25C12.3592 161.62 10.2092 160.76 7.92918 160.33C7.30918 161.48 6.66994 162.67 6.02994 163.85C6.08994 161.34 6.15994 158.83 6.21994 156.31C6.73994 153.69 7.33929 151.08 7.76929 148.45C10.1493 134 13.9693 119.94 18.8193 106.14C19.1293 105.25 19.3293 104.32 19.5793 103.41C19.9293 102.45 20.2893 101.49 20.6393 100.53V100.58C21.0493 99.9099 21.5593 99.2899 21.8493 98.5699C24.1393 92.9399 27.0693 87.6699 30.1793 82.4599C33.7093 76.5399 37.8793 71.1398 42.4793 66.0498C42.6893 65.8098 42.8393 65.4699 43.0993 65.3299C46.1493 63.6399 46.5893 60.9399 46.7893 57.6899C47.1793 51.3499 47.4593 44.9398 49.3493 38.7998C50.0893 36.3798 51.1293 34.0398 52.1393 31.7098C52.5093 30.8598 53.1293 30.0699 53.7693 29.3799C56.7593 26.1299 59.2993 25.6699 63.1193 27.7899C64.3293 28.4599 65.3393 29.5099 66.4393 30.3799V30.3998Z" fill="#B2EFCA"/>
<path d="M115.809 6.5C115.729 9.35 115.649 12.19 115.569 15.04C113.959 12.31 114.149 9.54 115.419 6.75C115.469 6.63 115.679 6.58 115.809 6.5Z" fill="#6C3B7C"/>
<path d="M158.54 226.81C157.97 227.07 157.31 227.47 156.59 227.67C152.45 228.79 148.3 229.9 144.13 230.9C143.08 231.15 141.92 231.12 140.84 230.99C140.36 230.93 139.95 230.3 139.49 229.92C139.87 229.51 140.04 229.15 140.29 229.09C144.59 227.95 148.89 226.84 153.2 225.73C154.43 225.41 155.65 224.98 156.9 224.82C158.01 224.68 158.67 225.32 158.54 226.82V226.81Z" fill="#C7CCE5"/>
<path d="M177.029 231.99C176.799 232.57 176.679 233.23 176.319 233.72C175.369 235.01 174.559 235.06 173.179 233.97C172.819 233.68 172.529 233.29 172.209 232.95C172.259 232.65 172.269 232.34 172.269 232.03C172.519 231.37 172.769 230.7 173.029 230.04C173.199 229.74 173.209 229.44 173.059 229.14C173.249 228.69 173.439 228.23 173.649 227.74C174.209 228.24 174.649 228.62 175.079 229C175.729 230 176.369 230.99 177.019 231.99H177.029Z" fill="#D3C8C9"/>
<path d="M175.1 229C174.66 228.62 174.23 228.23 173.67 227.74C173.46 228.23 173.27 228.69 173.08 229.14C172.82 228.77 172.4 228.43 172.33 228.02C172.18 227.18 172.5 226.37 173.46 226.35C173.95 226.35 174.65 226.76 174.9 227.19C175.18 227.67 175.06 228.39 175.12 229H175.1Z" fill="#5E427F"/>
<path d="M173.039 230.03C172.789 230.69 172.539 231.36 172.279 232.02C172.049 231.17 172.319 230.52 173.039 230.03Z" fill="#5E427F"/>
<path d="M198.09 45.7503C196.81 45.6203 195.79 45.0703 195.1 43.9703C196.56 43.7803 197.52 44.4503 198.09 45.7503Z" fill="#5E3579"/>
<path d="M6.0089 164.48C6.0189 169.45 6.0289 174.41 6.0389 179.38C4.9789 175.1 4.9689 168.73 6.0089 164.48Z" fill="#B2EFCA"/>
<path d="M20.6494 100.53C20.2994 101.49 19.9394 102.45 19.5894 103.41C19.5594 102.31 19.3594 101.14 20.6494 100.53Z" fill="#6C3B7C"/>
<path d="M155 240.13C155.02 241.39 153.881 242.54 152.601 242.55C151.541 242.56 150.521 241.52 150.501 240.41C150.471 238.98 151.481 237.66 152.561 237.7C153.831 237.75 154.991 238.89 155.011 240.13L155 240.13Z" fill="#DFD8E4"/>
<path d="M130.82 93.0803C131.35 91.7903 132.24 90.9502 133.68 90.9303C136.85 90.8903 139.99 90.7403 143.12 91.8403C146.8 93.1303 150.62 94.0103 155 95.2503C154.37 94.1703 154.2 93.4903 153.76 93.1903C152.07 92.0303 150.32 90.9502 148.55 89.9202C147.32 89.2002 145.96 88.7103 144.77 87.9403C141.88 86.0903 138.8 85.0603 135.33 85.0903C133.77 85.1003 132.05 85.0502 130.68 84.4202C127.13 82.7902 123.63 83.0103 119.97 83.7703C118.29 84.1203 116.49 84.1403 114.77 83.9902C113.01 83.8302 112.29 81.8703 113.3 80.3403C113.9 79.4303 114.64 78.6203 115.22 77.8803C114.97 76.5503 114.17 76.4802 113.38 76.7302C112.48 77.0102 111.63 77.4903 110.76 77.8903C108.83 78.7803 107.48 77.9603 106.08 76.4503C107.52 74.1803 109.53 73.6002 111.85 73.6102C115.52 73.6102 119.19 73.5303 122.85 73.6403C125.46 73.7203 127.86 72.9902 130.26 72.1702C130.5 72.0902 130.63 71.6802 130.81 71.4202C131.42 71.1602 132.02 70.8903 132.62 70.6303C135.12 70.7203 136.36 68.9503 137.32 67.1303C138.3 65.3003 135.72 62.1103 133.34 62.5203C131.35 62.8603 130.32 62.2802 129.33 60.6102C129.53 59.2002 129.72 57.6502 129.99 56.1002C130.33 54.1502 131.26 53.3702 133.31 53.4802C134.72 53.5602 136.12 53.8603 137.74 54.0903C138.23 54.9703 138.96 55.8703 139.25 56.9003C140.2 60.2403 141.99 62.9103 144.78 65.0203C146.29 66.1703 147.54 67.6703 148.89 69.0303C150.66 70.8203 152.73 71.8203 155.31 71.6903C156.58 71.6203 157.88 71.7803 159.14 71.6503C164.42 71.1303 168.38 68.5003 171.06 63.9303C171.21 63.6803 171.15 63.3103 171.19 62.9903C171.24 62.6803 171.26 62.3603 171.35 62.0603C173.26 55.8903 172.02 50.5503 167.25 46.0903C166.57 45.4503 166.03 44.6603 165.43 43.9303C164.76 42.0603 163.25 41.8303 161.57 41.9503C161.27 41.9603 160.96 41.9503 160.66 41.9103C159.98 41.5903 159.32 41.1503 158.6 40.9903C156.46 40.5103 155.37 39.9302 152.56 37.3602C154.05 37.2702 155.22 37.1903 156.4 37.1303C161.46 36.8703 166.41 37.4403 171.28 38.8803C171.87 39.0503 172.53 38.9903 173.16 39.0303C173.84 40.1703 174.97 39.9703 176.03 40.0003C176.68 40.3103 177.32 40.6203 177.97 40.9403H177.96C178.62 42.0803 179.75 41.8903 180.79 41.9403L180.83 41.9703C181.46 42.2803 182.09 42.5903 182.72 42.9003L182.75 42.9203C183.37 43.2403 184 43.5503 184.62 43.8703L184.67 43.9003C185.27 44.2003 185.86 44.5003 186.46 44.8103C191.81 47.6403 196.57 51.3102 201.23 55.1102C203.69 57.1202 206.11 59.1803 208.39 61.3903C212.42 65.3103 215.44 69.9502 217.67 75.1102C218.04 75.9602 218.7 76.6803 219.23 77.4603C219.98 80.5503 220.77 83.6202 221.48 86.7202C222.42 90.8202 222.44 94.9203 221.45 99.0203C220.63 102.42 220.02 105.86 218.35 109.03C215.67 114.14 211.81 118 206.71 120.64C202.46 122.84 198.23 125.11 193.4 125.88C192.62 126 191.83 126.37 191.07 126.33C188.1 126.17 185.45 127.31 182.71 128.16C180.51 128.85 178.79 130.12 177.02 131.55C171.03 136.38 165.88 142.06 160.33 147.34C157.64 149.89 154.37 151.62 151.03 153.11C147.9 154.5 144.6 154.63 141.2 153.71C137.56 152.73 133.9 153.05 130.43 154.56C129.28 155.06 128.18 155.77 127.19 156.55C123.7 159.32 120.3 162.2 116.8 164.96C115.56 165.94 114.22 166.86 112.8 167.54C108.34 169.67 103.81 171.57 98.9604 172.77C95.1304 173.71 91.3104 173.63 87.5504 173.25C85.2904 173.02 83.0304 171.69 81.0104 170.47C75.7204 167.28 70.5004 167.75 65.8004 171.16C61.4504 174.31 56.7704 176.51 51.7604 178.2C48.8904 179.17 46.0304 180.19 43.1304 181.07C34.7804 183.61 27.6804 181.24 21.8404 175.1C19.1704 172.29 17.6004 168.58 16.9404 164.83C15.9804 159.38 14.7104 153.85 16.4704 148.27C16.6604 147.68 16.6104 147 16.6204 146.37C16.7104 139.49 18.1304 132.8 19.5904 126.11C19.7204 125.53 20.1504 125.02 20.4504 124.47C23.5204 119.75 22.0004 120.88 27.5604 120.62C29.6804 120.52 31.7004 120.86 33.6404 121.66C35.4504 122.41 37.3204 122.59 39.2604 122.57C44.7004 122.53 50.1304 122.57 55.5704 122.55C57.9504 122.55 60.3004 122.58 62.6804 121.87C64.4604 121.34 66.4704 121.57 68.3304 121.47C69.2104 120.19 67.8904 119.8 67.4504 119.09C66.2304 117.12 66.5104 115.89 68.5904 114.87C69.4404 114.46 70.3804 113.99 71.2804 114C74.0405 114.01 76.6804 113.7 78.6304 112.22C80.4604 112.6 80.7604 113.66 81.0604 114.77C81.7304 117.28 82.7004 119.39 85.3804 120.66C86.7904 121.32 87.7104 123.18 88.6704 124.62C89.8804 126.44 91.3704 127.71 93.9704 128.09C93.8604 127.37 93.9704 126.7 93.6804 126.31C90.4904 121.92 90.8604 117.42 93.0504 112.77C94.9104 108.83 96.8704 105.03 100.94 102.84C101.45 102.57 101.73 101.87 102.12 101.37C103.827 99.1503 106.317 97.4069 109.59 96.1403C109.99 96.7003 110.42 97.3102 110.86 97.9303C110.27 98.8603 109.69 99.8002 109.08 100.72C101.31 112.49 109.01 128.13 123.15 129.3H127.09C128.47 129.43 129.84 129.48 130.95 128.42C131.41 128.31 131.92 128.3 132.33 128.09C138.83 124.73 142.31 119.36 142.63 112.07C142.96 104.62 139.99 98.7903 133.66 94.7503C132.73 94.1603 131.75 93.6403 130.79 93.0903L130.82 93.0803Z" fill="#FFF9FA"/>
<path d="M176.011 40.0198C174.961 39.9898 173.821 40.1798 173.141 39.0498C174.211 39.0498 175.321 38.9298 176.011 40.0198Z" fill="#FFF1F6"/>
<path d="M180.779 41.9502C179.739 41.9002 178.609 42.0902 177.949 40.9502C178.999 40.9802 180.109 40.8302 180.779 41.9502Z" fill="#FFF1F6"/>
<path d="M177.96 40.96C177.31 40.65 176.67 40.34 176.02 40.02C176.67 40.33 177.31 40.64 177.96 40.96Z" fill="#FFF1F6"/>
<path d="M186.45 44.8099C185.85 44.5099 185.26 44.2099 184.66 43.8999C185.26 44.1999 185.85 44.4999 186.45 44.8099Z" fill="#FFF1F6"/>
<path d="M73.3288 93.0398C73.3188 97.0998 71.5693 100.44 69.3693 103.64C67.5493 106.3 65.0493 107.82 61.9893 108.56C61.0593 108.78 60.0793 108.88 59.2193 109.26C55.9093 110.73 52.8793 109.65 50.1293 107.99C47.2093 106.23 45.1893 103.73 44.3592 100.15C43.7492 97.5199 43.7293 95.3099 44.8493 92.7999C45.6993 90.8799 47.3993 89.0599 46.7593 86.6299C48.5593 83.5599 50.3993 80.6399 54.5093 80.2699C57.3193 80.0199 60.0893 78.6899 62.9093 80.1899C67.0493 80.0299 69.1692 83.0299 71.1592 85.8599C72.6192 87.9299 73.2893 90.4699 73.3293 93.0499L73.3288 93.0398Z" fill="#FFBAD2"/>
<path d="M165.429 43.9399C166.029 44.6599 166.569 45.4599 167.249 46.0999C172.019 50.5599 173.259 55.9099 171.349 62.0699C171.259 62.3699 171.239 62.6899 171.189 62.9999C168.979 64.7899 166.879 66.7399 164.539 68.3399C160.719 70.9599 156.669 71.3699 152.549 68.8699C151.079 67.9799 149.349 67.3699 148.129 66.2199C145.409 63.6599 144.149 60.0999 142.859 56.7199C142.199 54.9799 142.499 52.7099 142.889 50.7799C143.309 48.7099 144.979 47.2899 146.689 46.0499C147.449 45.4999 148.299 44.9799 148.859 44.2499C149.619 43.2599 150.579 43.0899 151.689 42.8099C154.639 42.0399 157.619 41.7799 160.639 41.9099C160.939 41.9499 161.239 41.9599 161.549 41.9499C162.839 42.6099 164.119 43.2699 165.409 43.9299L165.429 43.9399Z" fill="#FFBED4"/>
<path d="M132.63 70.63C132.03 70.89 131.42 71.16 130.82 71.42C125.15 72.54 119.43 72.84 113.68 72.38C111.15 72.18 108.65 71.77 106 71.45C105.2 72.55 104.43 73.55 103.73 74.59C99.1498 81.37 92.5798 85.37 85.0398 88.01C84.2898 88.27 83.4898 88.39 82.6998 88.49C81.3398 88.66 80.2998 88.09 80.0098 87.06C79.6698 85.87 79.9298 84.74 80.9698 84.1C82.0298 83.44 83.2398 82.95 84.4398 82.58C87.8398 81.54 90.8598 79.85 93.7598 77.82C96.9898 75.56 99.2298 72.51 101.22 69.22C101.71 68.4 102.1 67.52 102.6 66.71C103.7 64.92 104.68 64.4 106.57 65.19C111.29 67.17 116.22 67.09 121.17 66.94C124.06 66.85 126.88 66.35 129.51 65.07C129.94 64.86 130.37 64.63 130.82 64.48C132.26 63.99 133.48 64.3 134.27 65.31C135.05 66.31 135.07 67.52 134.2 68.85C133.77 69.51 133.17 70.0601 132.65 70.65L132.63 70.63Z" fill="#6F3D7E"/>
<path d="M130.819 93.0803C131.779 93.6303 132.759 94.1503 133.689 94.7402C140.019 98.7803 142.989 104.61 142.659 112.06C142.339 119.35 138.859 124.72 132.359 128.08C131.949 128.29 131.449 128.31 130.979 128.41C129.619 128.36 128.159 127.89 127.119 129.29C125.809 129.29 124.489 129.29 123.179 129.29C121.389 128.36 119.599 127.44 117.059 126.12C118.759 125.72 119.589 125.52 120.429 125.33H120.379C123.009 126.79 125.049 126.81 127.999 125.41C129.079 125.46 130.199 125.62 130.869 124.44C131.759 124.46 132.489 124.27 132.679 123.23C133.589 122.36 134.539 121.52 135.419 120.61C138.989 116.89 140.899 110.24 137.399 103.31C134.709 97.9803 128.319 94.8402 122.169 95.8002C120.919 96.0002 119.699 96.3702 118.469 96.6602C116.889 96.5536 116.216 95.8503 116.449 94.5502C119.209 92.5902 122.389 92.4603 125.589 92.5502C127.339 92.6003 129.069 92.8803 130.819 93.0603V93.0803Z" fill="#603C7A"/>
<path d="M120.429 125.33C119.589 125.53 118.759 125.72 117.059 126.12C119.599 127.44 121.389 128.36 123.179 129.29C109.039 128.12 101.34 112.48 109.11 100.71C109.72 99.7903 110.3 98.8503 110.89 97.9203C112.74 96.8003 114.6 95.6803 116.45 94.5703C116.217 95.8703 116.89 96.5736 118.47 96.6803C117.11 97.7803 115.67 98.7903 114.41 100C108.39 105.79 108.27 114.45 113.87 120.62C115.76 122.7 118.27 123.72 120.42 125.34L120.429 125.33Z" fill="#7E4A84"/>
<path d="M126.739 45.6898C129.029 45.7798 130.77 47.4299 130.81 49.5599C130.85 52.1199 128.49 54.4199 125.88 54.3799C123.13 54.3299 121.16 52.4199 121.32 49.9399C121.48 47.3999 123.8 45.59 126.74 45.7L126.739 45.6898Z" fill="#754584"/>
<path d="M78.6587 73.5698C77.2687 73.4998 76.1994 72.8303 75.6094 71.6203C74.7694 69.8803 75.1895 68.2003 76.2695 66.7103C77.2595 65.3503 78.6194 64.6003 80.3494 64.7403C81.7694 64.8503 83.0395 65.9203 83.4495 67.3103C84.2995 70.1603 81.5995 73.7003 78.6495 73.5803L78.6587 73.5698Z" fill="#7A4886"/>
<path d="M165.43 43.9399C164.14 43.2799 162.86 42.6199 161.57 41.9599C163.26 41.8399 164.77 42.0599 165.43 43.9399Z" fill="#FFF1F6"/>
<path d="M127.119 129.29C128.149 127.89 129.619 128.37 130.979 128.41C129.869 129.47 128.499 129.42 127.119 129.29Z" fill="#7E4A84"/>
<path d="M120.429 125.33C118.279 123.72 115.76 122.7 113.88 120.61C108.28 114.44 108.4 105.77 114.42 99.99C115.68 98.78 117.12 97.77 118.48 96.67C119.71 96.38 120.93 96 122.18 95.81C128.32 94.85 134.71 97.99 137.41 103.32C140.91 110.25 139.01 116.9 135.43 120.62C134.56 121.53 133.61 122.37 132.69 123.24C132.09 123.64 131.48 124.04 130.88 124.44C129.93 124.76 128.97 125.08 128.01 125.41C125.47 125.39 122.93 125.36 120.39 125.34H120.44L120.429 125.33ZM120.22 118.95C122.26 120.51 124.55 120.81 126.96 120.12C129.46 119.4 131.61 118.11 133.07 115.87C135.88 111.53 134.92 105.26 130.96 102.08C126.72 98.67 121.49 99.1 117.38 103.21C114.55 105.48 114.16 108.61 114.76 111.82C115.35 115.01 116.76 117.84 120.23 118.95H120.22Z" fill="#F1BC79"/>
<path d="M120.379 125.34C122.919 125.36 125.459 125.39 127.999 125.41C125.049 126.81 123.009 126.79 120.379 125.34Z" fill="#7E4A84"/>
<path d="M128.01 125.41C128.97 125.09 129.92 124.77 130.88 124.44C130.21 125.61 129.1 125.46 128.01 125.41Z" fill="#7E4A84"/>
<path d="M130.879 124.44C131.479 124.04 132.089 123.64 132.689 123.24C132.509 124.27 131.769 124.47 130.879 124.44Z" fill="#7E4A84"/>
<path d="M117.38 103.21C121.49 99.1 126.72 98.67 130.96 102.08C134.92 105.26 135.88 111.53 133.07 115.87C131.62 118.11 129.46 119.4 126.96 120.12C124.55 120.81 122.26 120.51 120.22 118.95C119.6 117.16 119.059 115.34 118.349 113.59C116.989 110.22 117.699 106.67 117.369 103.22L117.38 103.21ZM119.689 109.96C120.199 110.33 120.679 110.79 121.239 111.04C123.439 112.04 125.539 111.23 126.239 109.15C126.969 107 125.929 104.95 123.679 104.37C122.939 104.18 122.109 104.36 121.319 104.37C119.879 104.32 118.839 105 118.579 106.37C118.319 107.68 117.879 109.22 119.689 109.96Z" fill="#543176"/>
<path d="M117.379 103.21C117.709 106.66 116.989 110.21 118.359 113.58C119.069 115.33 119.609 117.15 120.229 118.94C116.759 117.83 115.349 115 114.759 111.81C114.169 108.61 114.549 105.47 117.379 103.2V103.21Z" fill="#7E4A7E"/>
<path d="M121.319 104.37C122.109 104.37 122.939 104.18 123.679 104.37C125.929 104.95 126.969 107 126.239 109.15C125.529 111.22 123.439 112.04 121.239 111.04C120.679 110.78 120.199 110.32 119.689 109.96C118.979 107.73 119.689 105.92 121.319 104.37Z" fill="#EFECF2"/>
<path d="M121.319 104.37C119.699 105.92 118.979 107.73 119.689 109.96C117.879 109.22 118.319 107.68 118.579 106.37C118.849 105 119.889 104.32 121.319 104.37Z" fill="#7E4A7E"/>
</svg>
