<svg width="277" height="215" viewBox="0 0 277 215" fill="none" xmlns="http://www.w3.org/2000/svg">
<path d="M96.0405 188.85C97.1705 186.06 99.4905 184.29 101.781 182.62C102.871 181.83 104.401 181.45 105.781 181.28C108.781 180.91 111.821 180.8 114.941 180.57C116.721 178.69 117.631 176.28 118.281 173.85C118.731 172.15 119.141 170.84 121.131 170.58C121.681 170.51 122.411 170.09 122.651 169.62C123.941 167.11 125.141 164.54 126.021 161.96C125.011 161 124.321 161.76 123.631 161.94C120.851 162.65 118.081 163.39 115.321 164.17C109.341 165.85 103.601 164.69 97.9606 162.69C93.5806 161.13 90.4906 157.86 87.6606 154.36C83.7406 149.5 80.5005 144.18 77.5405 138.69C77.1605 137.99 76.7105 137.31 76.4305 136.57C75.3705 133.71 73.1906 132.8 70.3806 132.98C67.8306 133.15 65.2805 133.29 62.7505 133.64C53.8905 134.87 44.9605 135.39 36.0405 135.83C33.6505 135.95 31.2505 135.74 28.8605 135.68C21.2205 135.49 14.6505 132.61 8.59054 128.08C2.94054 123.85 0.550549 118.21 1.01055 111.44C1.45055 104.98 3.60054 99.0003 7.67054 93.8303C8.65054 93.5603 8.86054 92.8102 8.84054 91.9202C9.33054 91.2602 9.82054 90.5902 10.3105 89.9302C11.4305 89.8002 11.7205 89.0402 11.7205 88.0602C13.1805 86.4402 14.6305 84.8203 16.0905 83.2003C17.6605 83.1103 18.4205 81.8102 19.4505 80.9302C20.3505 80.1602 21.2805 79.4202 22.4205 78.4902C23.1505 79.6702 23.6906 80.5603 24.2406 81.4503C23.3006 82.4003 22.3506 83.3402 21.4106 84.2902C20.1706 84.7702 19.4805 85.6502 19.4305 87.0002C19.0905 87.3802 18.7506 87.7703 18.4106 88.1503C17.2406 88.6803 16.5805 89.5502 16.5605 90.8602C16.2605 91.2302 15.9505 91.6002 15.6505 91.9802C15.3105 92.5702 14.9805 93.1502 14.6405 93.7402C14.3605 94.1102 14.0805 94.4802 13.7905 94.8502C12.9005 95.2502 12.7305 96.0102 12.7705 96.8802C12.3905 97.7503 12.0305 98.6302 11.6105 99.4802C9.68055 103.36 8.22054 107.39 7.38054 111.64C6.84054 114.35 6.59054 117.16 8.06054 119.58C10.0605 122.85 12.4405 125.94 16.1905 127.39C20.3705 129 24.6605 130.24 29.2005 130.25C33.8305 130.25 38.4605 130.32 43.0805 130.21C44.8105 130.17 46.5205 129.73 48.2406 129.47C51.5705 129.69 54.8905 129.79 58.0905 128.58C58.6505 128.52 59.2105 128.46 59.7705 128.4C62.4506 128.1 65.1305 127.7 67.8105 127.52C76.6705 126.92 80.7405 129.72 83.6105 136.89C86.2706 143.55 90.6105 148.99 95.7905 153.85C98.0505 155.97 100.661 157.4 103.571 158.39C107.651 159.78 111.771 159.54 115.851 158.6C118.951 157.88 121.951 156.78 125.011 155.87C127.951 154.99 130.881 154.23 133.671 156.31C133.771 158.12 132.971 159.67 132.231 161.24C130.701 164.53 129.211 167.84 127.721 171.14C127.411 171.83 126.941 172.56 127.721 173.27C128.011 173.22 128.491 173.26 128.571 173.1C130.971 168.5 133.331 163.89 135.691 159.27C136.821 158.44 137.801 157.18 139.491 157.99C140.931 158.68 141.571 159.92 141.811 161.41C141.931 162.2 142.021 163 142.011 163.8C141.911 169.17 143.851 173.78 147.161 177.9C150.661 182.26 154.911 185.51 160.501 186.69C164.271 187.49 168.091 188.11 171.931 187.67C176.531 187.14 181.111 186.42 185.661 185.54C187.671 185.15 189.601 184.25 191.491 183.43C194.741 182.02 197.521 179.86 200.291 177.67C202.751 175.73 203.991 176.15 205.871 179.17C205.361 180.4 204.851 181.63 204.511 182.46C202.841 183.54 200.871 182.32 200.071 184.23C196.101 187.6 191.441 189.62 186.461 190.83C182.751 191.73 178.971 192.35 175.201 193C166.681 194.46 158.741 192.37 151.131 188.73C147.451 186.97 144.661 184.11 142.481 180.69C141.371 178.95 140.251 177.19 139.361 175.32C138.471 173.46 137.861 171.47 137.061 169.36C135.011 170.46 135.051 172.78 133.801 174.5C134.071 175.06 134.261 175.66 134.601 176.15C135.441 177.38 135.451 178.68 134.461 179.66C132.191 181.91 131.671 184.91 130.361 187.75C131.401 188.76 132.251 189.67 133.201 190.48C135.171 192.17 136.671 194.19 137.831 196.5C138.871 198.56 139.331 200.72 138.861 202.98C138.151 206.4 137.331 209.8 136.501 213.2C136.361 213.79 135.901 214.29 135.591 214.84C135.501 214.13 135.401 213.41 135.321 212.79C133.841 212.79 132.651 212.79 131.461 212.79C132.911 209.56 132.991 206.05 133.461 202.64C133.821 200.07 132.941 197.63 131.741 195.38C131.091 194.16 130.331 192.54 128.721 192.78C126.601 193.1 127.071 195.09 126.971 196.6C125.991 196.01 125.901 195.08 126.041 194.09C126.191 193.04 126.421 192.01 126.631 190.87C125.661 190.44 124.971 190.01 124.231 189.83C116.721 187.93 109.201 186.07 101.921 184.25C99.7405 185.96 97.8905 187.42 96.0305 188.87L96.0405 188.85Z" fill="#221C69"/>
<path d="M117.049 30.3901C120.099 29.5101 123.129 28.5701 126.199 27.7801C128.359 27.2201 130.559 26.7701 132.769 26.4201C136.199 25.8701 138.989 24.2601 141.589 21.9601C146.019 18.0501 150.599 14.3001 155.229 10.6301C160.809 6.21011 167.129 3.1801 173.979 1.2801C175.359 0.900104 176.789 0.640117 178.209 0.450117C185.709 -0.579883 187.769 4.5001 187.249 9.4901C186.949 12.3401 186.319 15.1601 185.799 17.9801C185.479 19.7001 185.079 21.4101 184.649 23.4101C185.509 23.9801 186.329 24.7401 187.299 25.1401C193.069 27.4801 198.869 29.7601 204.679 31.9901C207.209 32.9601 209.789 33.8101 212.379 34.6501C213.409 34.9901 214.489 35.1501 215.659 35.4101C216.779 34.0701 217.739 32.8101 218.819 31.6501C220.669 29.6601 222.479 27.6101 224.499 25.8201C227.529 23.1301 231.029 21.3301 235.089 20.5401C237.299 20.1101 239.199 20.4301 241.039 21.5501C243.549 23.0801 245.699 25.0401 246.829 27.7701C247.929 30.4101 249.009 33.1401 249.479 35.9301C250.279 40.6401 250.829 45.4301 250.219 50.2401C250.179 50.5601 250.149 50.8801 250.119 51.1901C249.609 57.6001 249.579 57.6301 253.729 62.9301C259.899 70.8101 264.329 79.6501 267.889 88.9301C270.529 95.8001 272.189 102.97 273.729 110.16C273.929 111.08 273.859 112.06 273.909 113.01C273.259 112.19 272.619 111.36 271.749 110.25C271.129 111.03 270.279 111.63 270.139 112.37C269.849 113.89 269.939 115.48 269.869 117.04C269.649 116.62 269.309 116.23 269.219 115.79C268.479 112.21 267.809 108.62 267.089 105.04C264.849 94.0101 260.699 83.7001 255.049 74.0201C252.489 69.6401 249.569 65.4401 245.759 61.9801C244.299 60.6501 243.999 59.0101 244.369 57.1901C245.459 51.8201 245.039 46.4001 244.899 41.0001C244.839 38.8001 244.459 36.5301 243.799 34.4301C243.139 32.3301 242.129 30.2801 240.949 28.4201C239.799 26.6101 237.959 25.3401 235.679 25.8901C233.079 26.5101 230.369 27.0901 228.589 29.4301C225.299 31.7801 222.799 34.9001 220.359 38.0601C218.359 40.6401 216.119 41.4201 212.849 40.3201C203.779 37.2501 194.709 34.2001 185.939 30.3601C184.479 29.7201 183.029 29.0201 181.669 28.2101C178.429 26.2801 177.659 24.2501 178.729 20.5401C179.349 18.4001 180.079 16.2901 180.759 14.1601C182.129 11.8201 181.919 9.38009 181.429 6.77009C178.849 6.06009 176.529 6.43009 174.219 7.02009C169.869 8.13009 165.729 9.79009 162.029 12.3601C159.289 14.2601 156.629 16.3001 154.029 18.4101C150.069 21.6201 146.219 24.9601 142.279 28.1801C140.029 30.0201 137.559 31.2801 134.539 31.5601C132.189 31.7801 129.879 32.5201 127.559 33.0701C124.469 33.8001 121.399 34.5501 118.319 35.3001C118.409 34.5201 118.459 33.7301 118.599 32.9701C118.929 31.2101 118.949 31.2201 117.069 30.4101L117.049 30.3901Z" fill="#68397B"/>
<path d="M96.0405 188.85C97.9005 187.39 99.7496 185.94 101.93 184.23C109.2 186.04 116.73 187.91 124.24 189.81C124.98 190 125.66 190.42 126.64 190.85C126.43 191.99 126.2 193.02 126.05 194.07C125.91 195.05 126 195.99 126.98 196.58C130.39 200.21 129.63 204.17 127.91 208.21C124.96 209.01 121.95 209.11 118.92 209.22C113.78 209.42 108.75 208.68 103.72 207.83C97.0296 206.7 90.4096 206.48 84.0396 209.39C83.7996 209.5 83.4596 209.37 83.1596 209.35C83.0596 209.22 82.8896 209.11 82.8796 208.97C82.7696 208.03 82.6896 207.08 82.5996 206.13C83.1696 205.01 83.6496 203.83 84.3296 202.77C85.6796 200.68 87.4996 199.24 89.7896 199.25C91.9996 195.58 94.0296 192.21 96.0496 188.85L96.0405 188.85Z" fill="#0E1463"/>
<path d="M117.05 30.39C118.93 31.2 118.91 31.2 118.58 32.95C118.44 33.72 118.39 34.51 118.3 35.28C118.07 35.44 117.81 35.5 117.53 35.44C116.7 35.32 115.95 35.42 115.44 36.2C115.16 36.35 114.87 36.41 114.56 36.36C113.9 36.62 113.23 36.89 112.57 37.15C112.14 37.36 111.73 37.62 111.29 37.78C93.8803 43.85 76.9303 50.99 60.5003 59.35C59.6703 59.77 58.7303 59.98 57.8403 60.29C57.9303 58.06 57.7103 55.94 55.8203 54.39C56.7203 53.76 57.5703 53.06 58.5303 52.53C73.8803 43.93 90.1903 37.64 107.04 32.68C107.79 32.46 108.61 32.45 109.39 32.34C110.57 32.5 111.75 32.7 112.56 31.49C113.93 31.49 115.41 31.93 116.43 30.53C116.6 30.3 116.82 30.25 117.08 30.38L117.05 30.39Z" fill="#4D2E75"/>
<path d="M200.059 184.2C200.859 182.29 202.829 183.51 204.499 182.43C204.839 181.6 205.349 180.37 205.859 179.14C207.859 181.4 209.589 183.97 211.899 185.86C219.089 191.75 226.799 196.9 235.779 199.68C240.629 201.18 245.479 202.94 250.719 202.3C252.919 204.35 255.709 204.25 258.429 204.36C253.959 208.39 248.509 209.17 242.849 208.73C240.019 208.51 237.169 207.86 234.449 207.01C221.929 203.12 211.569 196.02 203.539 185.61C202.589 184.38 201.789 183.27 200.049 184.2H200.059Z" fill="#64377A"/>
<path d="M258.429 204.36C255.709 204.24 252.919 204.36 250.719 202.3L250.729 202.3C251.369 202 251.999 201.7 252.639 201.39C256.719 199.03 260.129 195.95 262.629 191.93C263.469 190.57 264.419 189.28 265.179 187.87C269.159 180.48 272.179 172.81 271.989 164.22C272.259 163.81 272.529 163.4 272.799 163C274.039 162.11 273.719 160.77 273.819 159.53C273.999 157.37 273.379 155.14 274.459 152.66C275.189 153.17 276.079 153.46 276.259 153.99C276.609 155 276.639 156.15 276.669 157.24C276.749 161.19 276.779 165.14 276.819 169.09C275.949 179.16 271.979 188.03 266.159 196.13C263.959 199.19 261.779 202.35 258.429 204.38L258.429 204.36Z" fill="#28206B"/>
<path d="M55.8096 54.3999C57.6996 55.9499 57.9196 58.0699 57.8296 60.2999H57.8196C57.1896 60.6199 56.5496 60.9399 55.9196 61.2599H55.9096C55.2796 61.5899 54.6396 61.9099 54.0096 62.2399C53.1796 62.1999 52.4696 62.3999 52.1096 63.2499H52.1296C51.2596 63.1799 50.5196 63.3599 50.2296 64.3199C48.7696 65.2599 47.2996 66.2099 45.8396 67.1499C43.4396 68.7099 41.0496 70.2699 38.6496 71.8199C38.2996 72.0399 37.9496 72.2599 37.5996 72.4799C36.9696 72.8899 36.3396 73.2999 35.7196 73.7198C35.3896 73.9499 35.0596 74.1798 34.7196 74.4099C34.1496 74.8399 33.5896 75.2699 33.0196 75.7099C31.0196 77.1399 29.0396 78.5999 27.0096 79.9799C26.1496 80.5599 25.1696 80.9699 24.2496 81.4599C23.6996 80.5699 23.1596 79.6799 22.4296 78.4999C21.2896 79.4299 20.3596 80.1699 19.4596 80.9399C18.4196 81.8299 17.6696 83.1199 16.0996 83.2099C18.1696 79.8799 21.3196 77.6099 24.2296 75.1499C30.4696 69.8899 37.0696 65.0999 44.0496 60.8499C44.4396 60.6099 44.9096 60.4899 45.3396 60.3099C46.1896 60.3799 46.8896 60.1399 47.2596 59.2899L47.2196 59.3099C48.1196 59.3699 48.8496 59.1699 49.0796 58.1499L49.0096 58.1999C50.5496 58.5299 51.4996 57.8199 52.0796 56.4599C52.9296 56.5099 53.6196 56.2799 53.9796 55.4199L53.9396 55.4499C54.8196 55.5399 55.5496 55.3499 55.8696 54.3999H55.8096Z" fill="#31236E"/>
<path d="M52.0602 56.4502C51.4802 57.8102 50.5202 58.5102 48.9902 58.1902C50.0102 57.6102 51.0402 57.0302 52.0602 56.4502Z" fill="#4D2E75"/>
<path d="M116.399 30.5401C115.379 31.9401 113.899 31.4901 112.529 31.5001C113.649 30.5101 114.999 30.4001 116.399 30.5401Z" fill="#68397B"/>
<path d="M112.539 31.4902C111.729 32.7102 110.549 32.5002 109.369 32.3402C110.429 32.0602 111.479 31.7702 112.539 31.4902Z" fill="#68397B"/>
<path d="M55.8401 54.3901C55.5201 55.3401 54.7902 55.5301 53.9102 55.4401C54.5502 55.0901 55.2001 54.7401 55.8401 54.3901Z" fill="#4D2E75"/>
<path d="M53.9488 55.4102C53.5988 56.2702 52.8988 56.5002 52.0488 56.4502C52.6788 56.1002 53.3188 55.7602 53.9488 55.4102Z" fill="#4D2E75"/>
<path d="M49.0592 58.1401C48.8392 59.1601 48.0992 59.3601 47.1992 59.3001C47.8192 58.9101 48.4392 58.5301 49.0592 58.1401Z" fill="#4D2E75"/>
<path d="M47.2403 59.27C46.8703 60.11 46.1803 60.35 45.3203 60.29C45.9603 59.95 46.6003 59.61 47.2403 59.27Z" fill="#4D2E75"/>
<path d="M11.7206 88.0498C11.7206 89.0298 11.4305 89.7798 10.3105 89.9198C10.7805 89.2998 11.2506 88.6798 11.7206 88.0498Z" fill="#31236E"/>
<path d="M8.84969 91.9102C8.86969 92.8002 8.65969 93.5402 7.67969 93.8202C8.06969 93.1802 8.45969 92.5502 8.84969 91.9102Z" fill="#31236E"/>
<path d="M24.2295 81.4398C25.1495 80.9498 26.1295 80.5398 26.9895 79.9598C29.0195 78.5798 30.9995 77.1198 32.9995 75.6898C33.8295 75.5998 34.4995 75.3098 34.6995 74.3898C35.0295 74.1598 35.3595 73.9298 35.6995 73.6998C36.5895 73.6898 37.3495 73.4798 37.5795 72.4598C37.9295 72.2398 38.2795 72.0198 38.6295 71.7998C39.9595 71.8398 40.6495 72.7198 41.0195 73.8198C41.8695 76.3898 42.5695 79.0098 43.4495 81.5698C44.6495 85.0298 45.8995 88.4698 47.2695 91.8698C47.7995 93.1798 48.6895 94.3298 50.4195 94.4798C50.6695 93.9498 50.9395 93.5598 51.0395 93.1398C51.4095 91.5998 51.8095 90.0498 52.0295 88.4798C52.2595 86.8498 52.5995 85.3398 54.0095 84.2998C53.9995 84.6198 54.0595 84.9598 53.9595 85.2498C52.5295 89.6098 52.8695 94.0998 53.0095 98.5598C53.0495 99.7998 53.4095 101.08 53.8595 102.25C55.6495 106.9 58.5895 110.53 63.3395 112.5C64.5195 112.99 65.6295 113.64 66.7795 114.2C71.6895 116.62 76.8495 118.14 82.2795 118.9C85.0995 119.3 87.8995 120.1 90.5995 121.01C92.0595 121.5 93.3695 122.54 94.6495 123.48C99.4595 126.97 103.54 131.26 107.65 135.51C110.68 138.63 114.17 141.17 117.81 143.46C123.54 147.07 129.59 148.63 136.53 147.04C141.19 145.97 145.71 147.72 149.53 150.65C151.93 152.49 154.1 154.63 156.47 156.52C165.59 163.79 175.68 168.39 187.66 167.94C190.13 167.85 192.36 167.35 194.53 166.2C196.22 165.31 197.99 164.57 199.76 163.84C203.47 162.31 206.95 163 210.23 165.11C211.17 165.71 212.04 166.42 212.98 167.02C214.59 168.05 216.11 169.31 217.86 169.99C223.22 172.06 228.65 173.94 234.08 175.8C237.18 176.87 240.43 176.78 243.54 176.04C253.76 173.61 260.71 165.55 262.27 155.35C262.57 154.66 263.06 153.99 263.13 153.28C263.28 151.74 263.22 150.17 263.24 148.62V148.64C264.33 147.64 264.13 146.31 264.13 145.06C264.15 139.16 264.14 133.26 264.12 127.36C264.12 126.41 264.17 125.4 263.9 124.51C263.03 121.7 263.21 118.83 263.18 115.97C263.4 116.2 263.77 116.41 263.8 116.66C264.27 120.1 264.97 123.54 265.07 126.99C265.27 133.67 265.17 140.37 265.1 147.05C265.09 148.62 264.73 150.18 264.54 151.75C264.28 153.92 264.04 156.09 263.81 158.09C266.59 160.57 268.75 157.55 271.27 157.64C272.36 159.81 271.5 162.1 271.96 164.22C272.14 172.81 269.13 180.49 265.15 187.87C264.39 189.27 263.44 190.57 262.6 191.93C260.1 195.96 256.69 199.03 252.61 201.39C251.97 201.69 251.34 202 250.7 202.3H250.69C245.44 202.95 240.59 201.18 235.75 199.68C226.76 196.9 219.05 191.76 211.87 185.86C209.57 183.97 207.83 181.4 205.83 179.14C203.95 176.12 202.71 175.7 200.25 177.64C197.48 179.83 194.7 181.99 191.45 183.4C189.55 184.22 187.62 185.12 185.62 185.51C181.08 186.39 176.49 187.12 171.89 187.64C168.05 188.08 164.23 187.45 160.46 186.66C154.87 185.48 150.63 182.23 147.12 177.87C143.81 173.75 141.87 169.14 141.97 163.77C141.98 162.98 141.9 162.17 141.77 161.38C141.53 159.89 140.9 158.65 139.45 157.96C137.76 157.15 136.78 158.41 135.65 159.24C134.98 158.25 134.31 157.27 133.63 156.28C130.84 154.2 127.9 154.96 124.97 155.84C121.92 156.75 118.91 157.86 115.81 158.57C111.74 159.51 107.61 159.76 103.53 158.36C100.62 157.37 98.0095 155.94 95.7495 153.82C90.5695 148.96 86.2295 143.51 83.5695 136.86C80.6995 129.69 76.6295 126.89 67.7695 127.49C65.0795 127.67 62.4095 128.07 59.7295 128.37C59.9895 127.64 60.4895 126.89 59.7895 126.17C58.7895 125.14 57.8795 123.95 56.6895 123.21C51.6695 120.04 47.6595 115.75 43.3995 111.71C38.0195 106.61 34.0895 100.51 30.5395 94.0998C29.0795 91.4598 27.4295 88.9698 25.2995 86.7598C23.9195 85.3298 22.5795 85.4898 21.0195 86.0898C21.1295 85.4798 21.2395 84.8698 21.3495 84.2598C22.2895 83.3098 23.2395 82.3698 24.1795 81.4198L24.2295 81.4398Z" fill="#B3A8E1"/>
<path d="M21.0688 86.1099C22.6188 85.5099 23.9588 85.35 25.3488 86.78C27.4788 88.98 29.1188 91.4699 30.5888 94.1199C34.1388 100.53 38.0588 106.62 43.4488 111.73C47.7088 115.77 51.7188 120.06 56.7388 123.23C57.9188 123.98 58.8388 125.17 59.8388 126.19C60.5388 126.91 60.0388 127.66 59.7788 128.39C59.2188 128.45 58.6588 128.51 58.0988 128.57C55.6288 128.53 53.1588 128.49 50.6888 128.46C49.7388 128.45 48.8388 128.59 48.2488 129.46C46.5288 129.72 44.8088 130.16 43.0888 130.2C38.4588 130.31 33.8288 130.25 29.2088 130.24C24.6688 130.24 20.3688 128.99 16.1988 127.38C12.4488 125.93 10.0688 122.84 8.0688 119.57C6.5888 117.16 6.84879 114.35 7.38879 111.63C8.2288 107.38 9.6988 103.34 11.6188 99.4699C12.0388 98.6199 12.3988 97.7299 12.7788 96.8699C13.5388 96.4099 13.9588 95.77 13.7988 94.84C14.0788 94.47 14.3588 94.0999 14.6488 93.7299C15.4788 93.4299 15.7988 92.8299 15.6588 91.9699C15.9588 91.5999 16.2688 91.2299 16.5688 90.8499C17.7388 90.3299 18.3988 89.45 18.4188 88.14C18.7588 87.76 19.0988 87.3699 19.4388 86.9899C19.9888 86.6999 20.5388 86.3999 21.0888 86.1099H21.0688Z" fill="#C7A7E4"/>
<path d="M130.809 213C128.962 212.38 127.985 211.247 127.879 209.6C127.849 209.14 127.889 208.67 127.899 208.2C129.619 204.16 130.379 200.2 126.969 196.57C127.069 195.06 126.599 193.07 128.719 192.75C130.329 192.5 131.089 194.12 131.739 195.35C132.939 197.6 133.819 200.04 133.459 202.61C132.979 206.02 132.909 209.53 131.459 212.76C131.199 212.7 130.979 212.78 130.819 213H130.809Z" fill="#E0E2F5"/>
<path d="M133.669 156.27C134.339 157.26 135.009 158.24 135.689 159.23C133.319 163.84 130.969 168.46 128.569 173.06C128.489 173.22 128.019 173.18 127.719 173.23C126.949 172.52 127.409 171.8 127.719 171.1C129.209 167.79 130.699 164.49 132.229 161.2C132.959 159.62 133.769 158.08 133.669 156.27Z" fill="#9889C7"/>
<path d="M48.2402 129.45C48.8302 128.58 49.7302 128.44 50.6802 128.45C53.1502 128.48 55.6202 128.52 58.0902 128.56C54.8902 129.77 51.5702 129.67 48.2402 129.45Z" fill="#B3A8E1"/>
<path d="M21.0699 86.1102C20.5199 86.4002 19.9699 86.7002 19.4199 86.9902C19.4699 85.6402 20.1599 84.7603 21.3999 84.2803C21.2899 84.8903 21.1799 85.5002 21.0699 86.1102Z" fill="#31236E"/>
<path d="M18.3891 88.1401C18.3691 89.4501 17.7091 90.3301 16.5391 90.8501C16.5691 89.5401 17.2191 88.6601 18.3891 88.1401Z" fill="#31236E"/>
<path d="M15.6292 91.9702C15.7692 92.8302 15.4591 93.4302 14.6191 93.7302C14.9591 93.1402 15.2892 92.5602 15.6292 91.9702Z" fill="#31236E"/>
<path d="M13.7698 94.8398C13.9398 95.7698 13.5198 96.4098 12.7498 96.8698C12.6998 95.9998 12.8798 95.2398 13.7698 94.8398Z" fill="#31236E"/>
<path d="M263.21 115.97C263.25 118.83 263.06 121.7 263.93 124.51C264.21 125.4 264.15 126.41 264.15 127.36C264.17 133.26 264.18 139.16 264.16 145.06C264.16 146.31 264.36 147.64 263.27 148.64C263.26 142.59 263.19 136.53 263.25 130.48C263.3 126.17 262.36 121.99 261.7 117.78C261.31 115.32 261.33 112.68 259.7 110.68C256.94 109.11 254.23 108.85 251.37 110.1C250.08 110.67 248.69 111.04 247.31 111.4C246.58 111.59 245.74 111.78 245.04 111.62C242.18 110.95 239.45 111.18 236.58 111.82C233.7 112.46 230.57 112.84 227.98 110.47C227.93 109.5 227.89 108.6 227.83 107.49C226.69 107.42 225.59 107.36 224.5 107.28C223.25 107.19 222.47 106.48 221.98 105.38C222.93 105.45 223.94 105.34 224.82 105.62C231.36 107.7 236.14 105.21 240.23 100.19C243.31 96.41 243.72 92.5301 241.59 88.2601C241.24 87.5601 240.39 86.71 240.57 86.22C241.61 83.36 239.42 81.79 238.17 79.94C237.06 78.3 235.41 77.41 233.25 77.55C231.19 77.68 229.1 77.45 227.04 77.61C225.65 77.71 224.18 77.9801 222.92 78.5701C217.78 80.9501 214.87 84.9001 214.08 90.6501C213.69 93.4901 214.18 95.9501 215.15 98.4601C216.17 101.09 217.8 103.15 220.49 104.27C221.05 104.5 221.49 105.02 221.98 105.4C219.28 105.85 217.04 104.86 214.86 103.35C213.31 102.28 211.56 101.49 209.85 100.68C209.18 100.37 208.22 100.63 207.91 99.37C208.33 97.88 210.48 96.46 208.78 94.35C205.91 93.38 202.83 92.6701 200.32 90.7701C200.72 88.7401 202.48 87.07 200.89 85.12C202.45 85.39 204 85.7401 205.58 85.8901C206.71 86.0001 207.79 85.09 208.1 84.06C208.39 83.1 207.87 81.8 206.81 81.25C205.98 80.82 205.03 80.62 204.14 80.29C201.17 79.19 198.13 78.2101 195.95 75.7001C196.43 75.6901 196.92 75.72 197.39 75.66C200.19 75.29 200.72 74.78 200.82 72.11C200.89 70.19 200.78 68.27 200.86 66.35C200.94 64.14 200.12 62.3301 198.78 60.6401C197.89 59.5301 197.21 58.25 196.34 57.12C195.18 55.61 194.22 53.64 192.67 52.8C188.29 50.44 186.48 45.52 182.34 43C181.86 42.71 181.63 41.9601 181.35 41.3901C180.86 40.4101 180.42 39.4101 180.06 38.6401C175.88 37.5701 171.96 37.01 167.94 37.25C166.27 37.35 164.79 36.82 163.79 35.55C162.92 33.7 164.09 31.56 162.61 29.93C160.86 29.46 159.11 29.34 157.47 30.22C155.23 31.43 153.05 32.75 150.84 33.99C149.88 34.53 148.94 35.14 147.91 35.5C144.59 36.65 141.21 37.4501 137.62 37.3201C134.61 37.2101 131.62 37.2401 128.6 38.0101C125.56 38.7901 122.32 38.8 119.16 39.15C120.72 37.94 122.58 37.6201 124.46 37.2601C130.4 36.1001 136.45 36.0001 142.45 35.4501C145.62 35.1601 148.44 34.23 150.69 32.15C153.49 29.57 156.23 26.8401 158.53 23.8201C163.4 17.4501 169.6 13.43 177.46 11.96C179.62 11.56 179.61 11.5401 180.74 14.1701C180.06 16.3001 179.33 18.41 178.71 20.55C177.64 24.26 178.41 26.29 181.65 28.22C183.02 29.04 184.46 29.73 185.92 30.37C194.7 34.22 203.77 37.26 212.83 40.33C216.1 41.44 218.35 40.6601 220.34 38.0701C222.78 34.9101 225.27 31.7901 228.57 29.4501C229.97 29.7101 231.42 29.82 232.75 30.28C234.84 31 236.38 32.5601 236.85 34.6701C237.5 37.6101 238.15 40.6501 238.06 43.6301C237.94 47.5801 237.16 51.5201 236.57 55.4601C235.72 61.1001 236.53 66.27 240.5 70.66C243.07 73.5 245.53 76.43 248.15 79.22C250.36 81.58 252.09 84.24 253.61 87.06C255.81 91.15 257.47 95.4701 259.08 99.8201C260.59 103.88 261.55 108.05 262.28 112.3C262.49 113.54 262.89 114.76 263.2 115.98L263.21 115.97ZM210.61 71.43C212.77 71.48 214.62 69.78 214.76 67.61C214.93 64.97 213 62.82 210.51 62.86C208.3 62.9 206.68 64.57 206.63 66.87C206.57 69.29 208.39 71.36 210.61 71.42V71.43Z" fill="#FFF0F5"/>
<path d="M180.75 14.1502C179.63 11.5302 179.63 11.5402 177.47 11.9402C169.6 13.4202 163.41 17.4302 158.54 23.8002C156.23 26.8202 153.49 29.5402 150.7 32.1302C148.45 34.2102 145.63 35.1402 142.46 35.4302C136.46 35.9802 130.41 36.0802 124.47 37.2402C122.59 37.6102 120.74 37.9302 119.18 39.1302C118.1 39.3602 116.99 39.4802 115.94 39.8302C101.67 44.5902 88.2204 51.0702 75.7904 59.5402C68.2304 64.7002 61.8304 71.0902 56.9604 78.9102C55.8804 80.6402 55.0004 82.5002 54.0304 84.3002C52.6204 85.3402 52.2804 86.8502 52.0504 88.4802C51.8304 90.0502 51.4304 91.5903 51.0604 93.1403C50.9604 93.5703 50.6904 93.9602 50.4404 94.4802C48.7204 94.3302 47.8204 93.1802 47.2904 91.8702C45.9304 88.4702 44.6704 85.0303 43.4704 81.5703C42.5804 79.0103 41.8904 76.3903 41.0404 73.8203C40.6704 72.7203 39.9804 71.8402 38.6504 71.8002C41.0504 70.2402 43.4404 68.6803 45.8404 67.1302C47.3004 66.1803 48.7704 65.2402 50.2304 64.3002C50.8604 63.9402 51.5004 63.5802 52.1304 63.2202L52.1104 63.2302C52.7404 62.8902 53.3804 62.5602 54.0104 62.2202C54.6404 61.9002 55.2804 61.5702 55.9104 61.2502H55.9204C56.5504 60.9302 57.1904 60.6102 57.8204 60.2902H57.8304C58.7204 59.9802 59.6604 59.7702 60.4904 59.3502C76.9204 50.9802 93.8804 43.8502 111.28 37.7802C111.73 37.6202 112.14 37.3602 112.56 37.1502C113.22 36.8902 113.89 36.6202 114.55 36.3602C114.86 36.4002 115.16 36.3503 115.43 36.2003C116.13 35.9503 116.82 35.7002 117.52 35.4402C117.8 35.4902 118.05 35.4402 118.29 35.2802C121.37 34.5402 124.45 33.7802 127.53 33.0502C129.85 32.5002 132.16 31.7602 134.51 31.5402C137.53 31.2602 140.01 30.0002 142.25 28.1602C146.19 24.9302 150.04 21.5903 154 18.3903C156.6 16.2903 159.25 14.2502 162 12.3402C165.7 9.77024 169.84 8.12024 174.19 7.00024C176.49 6.41024 178.82 6.04024 181.4 6.75024C181.89 9.36024 182.1 11.7903 180.73 14.1403L180.75 14.1502Z" fill="#A5AAE0"/>
<path d="M263.21 115.97C262.9 114.74 262.5 113.53 262.29 112.29C261.57 108.04 260.6 103.87 259.09 99.81C257.48 95.46 255.82 91.14 253.62 87.05C252.1 84.23 250.38 81.57 248.16 79.21C245.54 76.42 243.07 73.49 240.51 70.65C236.54 66.26 235.73 61.09 236.58 55.45C237.17 51.52 237.95 47.58 238.07 43.62C238.16 40.64 237.52 37.6 236.86 34.66C236.39 32.55 234.85 30.99 232.76 30.27C231.43 29.81 229.98 29.71 228.58 29.44C230.36 27.1 233.08 26.52 235.67 25.9C237.95 25.36 239.78 26.62 240.94 28.43C242.13 30.29 243.14 32.34 243.79 34.44C244.45 36.54 244.83 38.81 244.89 41.01C245.03 46.41 245.45 51.83 244.36 57.2C243.99 59.02 244.29 60.66 245.75 61.99C249.56 65.45 252.48 69.6501 255.04 74.0301C260.69 83.7101 264.84 94.02 267.08 105.05C267.81 108.63 268.48 112.22 269.21 115.8C269.3 116.24 269.64 116.64 269.86 117.05C269.8 117.34 269.83 117.62 269.96 117.88C269.93 119.59 269.7 121.33 270.81 122.85C270.86 123.44 270.9 124.03 270.95 124.62C270.92 126.32 270.67 128.05 271.76 129.57C272.04 133.86 272.42 138.14 272.59 142.43C272.77 146.89 272.76 151.35 272.8 155.82C272.83 158.21 272.8 160.6 272.8 162.99C272.53 163.4 272.26 163.81 271.99 164.21C271.54 162.09 272.39 159.8 271.3 157.63C268.78 157.54 266.63 160.56 263.84 158.08C264.07 156.08 264.31 153.91 264.57 151.74C264.76 150.17 265.11 148.61 265.13 147.04C265.19 140.35 265.3 133.66 265.1 126.98C265 123.53 264.3 120.09 263.83 116.65C263.8 116.4 263.42 116.19 263.21 115.96L263.21 115.97Z" fill="#A2A7DB"/>
<path d="M117.53 35.44C116.83 35.69 116.14 35.94 115.44 36.2C115.95 35.43 116.7 35.32 117.53 35.44Z" fill="#68397B"/>
<path d="M53.9996 62.2402C53.3696 62.5702 52.7296 62.9103 52.0996 63.2503C52.4596 62.4003 53.1696 62.2102 53.9996 62.2402Z" fill="#4D2E75"/>
<path d="M52.1187 63.23C51.4887 63.59 50.8488 63.95 50.2188 64.31C50.5088 63.35 51.2487 63.18 52.1187 63.23Z" fill="#4D2E75"/>
<path d="M37.589 72.48C37.359 73.5 36.599 73.71 35.709 73.72C36.339 73.31 36.969 72.9 37.589 72.48Z" fill="#A5AAE0"/>
<path d="M34.7098 74.3999C34.5198 75.3199 33.8398 75.5999 33.0098 75.6999C33.5798 75.2699 34.1398 74.8399 34.7098 74.3999Z" fill="#A5AAE0"/>
<path d="M54.0201 84.3099C54.9901 82.5099 55.8701 80.6499 56.9501 78.9199C61.8201 71.0999 68.2201 64.6999 75.7801 59.5499C88.2101 51.0799 101.66 44.5899 115.93 39.8399C116.97 39.4899 118.09 39.3699 119.17 39.1399C122.32 38.7899 125.56 38.7799 128.61 37.9999C131.64 37.2199 134.62 37.1899 137.63 37.3099C141.22 37.4399 144.6 36.6399 147.92 35.4899C148.95 35.1299 149.89 34.5199 150.85 33.9799C153.07 32.7299 155.25 31.4099 157.48 30.2099C159.12 29.3299 160.86 29.4499 162.62 29.9199C164.09 31.5499 162.93 33.6899 163.8 35.5399C164.8 36.8099 166.28 37.3399 167.95 37.2399C171.97 36.9999 175.89 37.5699 180.07 38.6299C180.43 39.3999 180.87 40.3999 181.36 41.3799C181.64 41.9499 181.87 42.6999 182.35 42.9899C186.5 45.4999 188.3 50.4299 192.68 52.7899C194.23 53.6199 195.19 55.5999 196.35 57.1099C197.22 58.2399 197.9 59.5199 198.79 60.6299C200.14 62.3199 200.96 64.1299 200.87 66.3399C200.8 68.2599 200.91 70.1799 200.83 72.0999C200.73 74.7699 200.2 75.2799 197.4 75.6499C196.93 75.7099 196.44 75.6799 195.96 75.6899C192.99 74.1399 191.15 71.5799 189.65 68.7099C188.91 67.2899 188.31 65.8099 187.6 64.3799C187.03 63.2399 186.01 62.8399 184.8 63.0199C184.18 63.1199 183.58 63.3899 182.98 63.5899C176.28 65.7399 169.78 65.6299 163.56 61.9599C162.9 61.5699 162.07 61.2199 161.33 61.2399C160.62 61.2599 159.78 61.6299 159.26 62.1299C158.5 62.8699 158.51 63.9899 159.16 64.7599C159.97 65.7099 160.93 66.6399 162.01 67.2199C165.29 68.9699 168.81 70.0899 172.56 70.0299C176.21 69.9799 179.86 69.6999 183.72 69.5099C183.65 69.4699 183.83 69.5099 183.92 69.6399C184.37 70.2899 184.87 70.9199 185.23 71.6199C187.52 75.9899 190.87 79.3299 195.11 81.8099C197.03 82.9299 198.97 83.9999 200.91 85.0999C202.51 87.0599 200.74 88.7199 200.34 90.7499C202.86 92.6499 205.93 93.3599 208.8 94.3299C210.5 96.4399 208.35 97.8599 207.93 99.3499C208.24 100.62 209.2 100.35 209.87 100.66C211.58 101.47 213.33 102.26 214.88 103.33C217.06 104.84 219.3 105.83 222 105.38C222.48 106.47 223.27 107.18 224.52 107.27C225.61 107.35 226.7 107.41 227.85 107.48C227.9 108.59 227.95 109.49 228 110.46C230.6 112.83 233.73 112.45 236.6 111.81C239.47 111.17 242.2 110.94 245.06 111.61C245.77 111.78 246.6 111.59 247.33 111.39C248.7 111.03 250.09 110.66 251.39 110.09C254.25 108.84 256.96 109.1 259.72 110.67C261.35 112.66 261.34 115.31 261.72 117.77C262.38 121.98 263.32 126.16 263.27 130.47C263.2 136.52 263.27 142.58 263.29 148.63V148.61C262.96 149.28 262.42 149.94 262.36 150.64C262.22 152.2 262.32 153.77 262.32 155.34C260.76 165.54 253.81 173.6 243.59 176.03C240.48 176.77 237.23 176.86 234.13 175.79C228.7 173.92 223.26 172.04 217.91 169.98C216.16 169.3 214.63 168.04 213.03 167.01C212.09 166.41 211.22 165.7 210.28 165.1C207 162.99 203.52 162.31 199.81 163.83C198.04 164.56 196.27 165.29 194.58 166.19C192.41 167.34 190.18 167.83 187.71 167.93C175.73 168.38 165.64 163.78 156.52 156.51C154.15 154.62 151.98 152.48 149.58 150.64C145.75 147.71 141.23 145.96 136.58 147.03C129.64 148.63 123.59 147.06 117.86 143.45C114.22 141.16 110.73 138.62 107.7 135.5C103.59 131.26 99.5101 126.97 94.7001 123.47C93.4201 122.54 92.1101 121.5 90.6501 121C87.9401 120.08 85.1501 119.28 82.3301 118.89C76.9001 118.13 71.7401 116.61 66.8301 114.19C65.6801 113.62 64.5701 112.98 63.3901 112.49C58.6501 110.53 55.7101 106.9 53.9101 102.24C53.4601 101.07 53.0901 99.7899 53.0601 98.5499C52.9201 94.0899 52.5801 89.5999 54.0101 85.2399C54.1101 84.9499 54.0501 84.5999 54.0601 84.2899L54.0201 84.3099ZM171.05 93.0799C166.08 89.8399 160.75 89.9699 155.46 91.8499C146.42 95.0599 139.22 108.29 148.41 119.67C152.42 124.63 157.84 127.09 164.47 125.73C166.15 125.35 167.98 125.27 169.5 124.55C175.7 121.58 179.53 116.75 179.91 109.73C180.3 102.49 177.56 96.7499 171.06 93.0899L171.05 93.0799ZM143.24 43.3099C142.19 43.0999 140.73 43.0199 139.42 42.5099C132.3 39.7299 121.58 47.9499 123.03 55.6099C123.2 56.5299 123.1 57.5199 123.06 58.4799C122.99 60.1599 123.55 61.6699 124.51 62.9499C127.64 67.1699 131.54 69.8799 137.14 68.9199C142.09 68.0699 146.34 66.2599 148.04 60.9499C148.23 60.3499 148.39 59.6599 148.79 59.2199C150.25 57.5999 149.99 55.6499 149.92 53.7599C149.83 51.5999 148.74 49.8099 147.45 48.1799C146.19 46.5799 144.79 45.0899 143.24 43.3199V43.3099ZM165.04 51.8099C167.48 51.7299 169.19 49.9699 169.2 47.5399C169.2 44.7399 167.08 42.7799 164.26 42.9999C161.89 43.1799 160.23 45.0899 160.32 47.5099C160.42 50.0599 162.43 51.8999 165.03 51.8099H165.04Z" fill="#FFF7F9"/>
<path d="M221.989 105.38C221.499 105 221.059 104.48 220.499 104.25C217.809 103.13 216.179 101.07 215.159 98.44C214.179 95.92 213.689 93.46 214.089 90.63C214.889 84.88 217.799 80.9299 222.929 78.5499C224.189 77.9699 225.649 77.7 227.049 77.59C229.109 77.44 231.199 77.67 233.259 77.53C235.409 77.39 237.069 78.2799 238.179 79.9199C239.429 81.7799 241.619 83.34 240.579 86.2C240.399 86.69 241.249 87.5399 241.599 88.2399C243.729 92.5099 243.319 96.3799 240.239 100.17C236.149 105.2 231.359 107.69 224.829 105.6C223.949 105.32 222.939 105.43 221.989 105.36V105.38Z" fill="#FFBAD2"/>
<path d="M200.909 85.0904C198.979 83.9904 197.029 82.9203 195.109 81.8003C190.879 79.3203 187.519 75.9803 185.229 71.6103C184.859 70.9103 184.369 70.2803 183.919 69.6303C183.839 69.5103 183.649 69.4603 183.719 69.5003C179.869 69.6903 176.219 69.9604 172.559 70.0203C168.809 70.0704 165.289 68.9604 162.009 67.2104C160.929 66.6303 159.969 65.7003 159.159 64.7503C158.499 63.9803 158.499 62.8503 159.259 62.1203C159.769 61.6203 160.619 61.2503 161.329 61.2303C162.069 61.2103 162.889 61.5603 163.559 61.9503C169.779 65.6303 176.279 65.7303 182.979 63.5803C183.589 63.3903 184.179 63.1103 184.799 63.0103C186.009 62.8203 187.029 63.2303 187.599 64.3703C188.309 65.8003 188.919 67.2803 189.649 68.7003C191.139 71.5703 192.989 74.1303 195.959 75.6803C198.139 78.1903 201.179 79.1603 204.149 80.2703C205.039 80.6003 205.979 80.8003 206.819 81.2303C207.879 81.7803 208.399 83.0803 208.109 84.0403C207.809 85.0703 206.719 85.9803 205.589 85.8703C204.019 85.7203 202.459 85.3603 200.899 85.1003L200.909 85.0904Z" fill="#6E3C7D"/>
<path d="M210.61 71.43C208.39 71.37 206.57 69.3 206.63 66.88C206.69 64.58 208.3 62.91 210.51 62.87C213 62.82 214.92 64.98 214.76 67.62C214.62 69.78 212.76 71.49 210.61 71.44L210.61 71.43Z" fill="#754382"/>
<path d="M143.24 43.3099C144.79 45.0899 146.18 46.5801 147.45 48.1701C148.74 49.8001 149.84 51.5901 149.92 53.7501C149.99 55.6401 150.25 57.5901 148.79 59.2101C148.39 59.6501 148.23 60.3401 148.04 60.9401C146.34 66.2501 142.09 68.0601 137.14 68.9101C131.54 69.8701 127.64 67.1601 124.51 62.9401C123.56 61.6501 122.99 60.1501 123.06 58.4701C123.1 57.5201 123.21 56.5301 123.03 55.6001C121.58 47.9401 132.3 39.7301 139.42 42.5001C140.72 43.0101 142.19 43.0901 143.24 43.3001L143.24 43.3099Z" fill="#FFBED5"/>
<path d="M164.46 125.72C157.83 127.08 152.41 124.62 148.4 119.66C139.2 108.29 146.41 95.0502 155.45 91.8402C160.74 89.9602 166.07 89.8402 171.04 93.0702C170.91 95.0702 169.32 94.7502 168.05 94.9402C167.28 94.7802 166.49 94.6402 165.73 94.4502C158.23 92.6102 150.46 96.7502 148.46 104.06C145.95 113.25 151.42 120.16 157.79 121.87C159.9 122.44 162.15 122.48 164.34 122.76C165.05 123.72 164.77 124.72 164.45 125.72H164.46Z" fill="#5C3878"/>
<path d="M168.06 94.9501C169.33 94.7601 170.91 95.0799 171.05 93.0799C177.55 96.7399 180.29 102.48 179.9 109.72C179.52 116.74 175.69 121.57 169.49 124.54C167.97 125.27 166.15 125.35 164.46 125.72C164.78 124.72 165.06 123.72 164.35 122.76C165.68 122.25 167.06 121.85 168.33 121.22C177.59 116.61 179.22 104.74 172.14 98.1401C170.88 96.9701 169.42 96.0001 168.06 94.9401V94.9501Z" fill="#7C4580"/>
<path d="M165.04 51.8099C162.44 51.8899 160.43 50.0502 160.33 47.5102C160.23 45.0802 161.9 43.1802 164.27 43.0002C167.08 42.7802 169.22 44.7502 169.21 47.5402C169.21 49.9702 167.48 51.7301 165.05 51.8102L165.04 51.8099Z" fill="#714080"/>
<path d="M168.06 94.9501C169.43 96.0101 170.879 96.9699 172.139 98.1499C179.219 104.75 177.599 116.61 168.329 121.23C167.059 121.86 165.679 122.26 164.349 122.77C162.159 122.49 159.909 122.45 157.799 121.88C151.419 120.17 145.959 113.26 148.469 104.07C150.459 96.7598 158.239 92.6199 165.739 94.4599C166.509 94.6499 167.29 94.7901 168.06 94.9501ZM167.239 115.9C168.329 116.09 169.029 115.43 169.619 114.7C172.989 110.48 172.819 106.08 169.149 101.59C164.119 96.9199 157.799 97.3598 154.019 102.7C150.929 107.08 151.989 112.04 155.289 115.24C156.939 116.84 158.889 117.78 161.219 117.96C163.539 118.14 165.619 117.73 167.239 115.9Z" fill="#F3BD79"/>
<path d="M167.239 115.9C165.629 117.73 163.539 118.14 161.219 117.96C158.899 117.78 156.939 116.83 155.289 115.24C151.989 112.04 150.929 107.08 154.019 102.7C157.789 97.3499 164.119 96.9199 169.149 101.59C169.149 102.06 169.149 102.54 169.149 103.01C169.199 106.31 169.399 109.6 167.609 112.67C167.109 113.53 167.329 114.82 167.219 115.91L167.239 115.9ZM163.659 102.83C161.729 102.96 160.209 104.8 160.429 106.73C160.619 108.45 162.329 110.05 163.899 109.99C165.739 109.92 167.439 108.1 167.399 106.23C167.359 104.31 165.589 102.69 163.659 102.82V102.83Z" fill="#543175"/>
<path d="M167.239 115.9C167.349 114.81 167.12 113.52 167.63 112.66C169.41 109.6 169.21 106.31 169.17 103C169.17 102.53 169.17 102.05 169.17 101.58C172.83 106.07 173 110.47 169.64 114.69C169.05 115.43 168.35 116.08 167.26 115.89L167.239 115.9Z" fill="#7D467D"/>
<path d="M163.659 102.83C165.579 102.7 167.359 104.32 167.399 106.24C167.439 108.11 165.739 109.93 163.899 110C162.329 110.06 160.619 108.46 160.429 106.74C160.209 104.81 161.739 102.97 163.659 102.84L163.659 102.83Z" fill="#F3F1F5"/>
</svg>
